ISO-10303-21;
HEADER;
FILE_DESCRIPTION (( 'STEP AP214' ),
    '1' );
FILE_NAME ('Wafer Mount 1.STEP',
    '2026-07-28T15:08:42',
    ( '' ),
    ( '' ),
    'SwSTEP 2.0',
    'SolidWorks 2024',
    '' );
FILE_SCHEMA (( 'AUTOMOTIVE_DESIGN' ));
ENDSEC;

DATA;
#1 = ORIENTED_EDGE ( 'NONE', *, *, #321, .F. ) ;
#2 = EDGE_CURVE ( 'NONE', #521, #492, #679, .T. ) ;
#3 = FACE_OUTER_BOUND ( 'NONE', #18, .T. ) ;
#4 = EDGE_LOOP ( 'NONE', ( #116, #519, #386, #123 ) ) ;
#5 = PRODUCT_DEFINITION_SHAPE ( 'NONE', 'NONE',  #331 ) ;
#6 = EDGE_CURVE ( 'NONE', #110, #152, #368, .T. ) ;
#7 = FACE_OUTER_BOUND ( 'NONE', #286, .T. ) ;
#8 = VECTOR ( 'NONE', #558, 999.9999999999998863 ) ;
#9 = VERTEX_POINT ( 'NONE', #211 ) ;
#10 = AXIS2_PLACEMENT_3D ( 'NONE', #466, #243, #140 ) ;
#11 = CARTESIAN_POINT ( 'NONE',  ( 0.000000000000000000, 0.000000000000000000, 0.000000000000000000 ) ) ;
#12 = ORIENTED_EDGE ( 'NONE', *, *, #322, .T. ) ;
#13 = LINE ( 'NONE', #566, #208 ) ;
#14 = DIRECTION ( 'NONE',  ( 0.000000000000000000, 1.000000000000000000, 0.000000000000000000 ) ) ;
#15 = ORIENTED_EDGE ( 'NONE', *, *, #456, .F. ) ;
#16 = LINE ( 'NONE', #185, #346 ) ;
#17 = CYLINDRICAL_SURFACE ( 'NONE', #184, 32.39999999999999858 ) ;
#18 = EDGE_LOOP ( 'NONE', ( #281, #120, #601, #278 ) ) ;
#19 = AXIS2_PLACEMENT_3D ( 'NONE', #315, #411, #685 ) ;
#20 = CIRCLE ( 'NONE', #557, 0.9999999999999974465 ) ;
#21 = LINE ( 'NONE', #142, #220 ) ;
#22 = MANIFOLD_SOLID_BREP ( 'Boss-Extrude1', #335 ) ;
#23 = CIRCLE ( 'NONE', #285, 1.000000000000000888 ) ;
#24 = FACE_OUTER_BOUND ( 'NONE', #200, .T. ) ;
#25 = VERTEX_POINT ( 'NONE', #510 ) ;
#26 = DIRECTION ( 'NONE',  ( 0.000000000000000000, 1.000000000000000000, 0.000000000000000000 ) ) ;
#27 = DIRECTION ( 'NONE',  ( 1.000000000000000000, 0.000000000000000000, 0.000000000000000000 ) ) ;
#28 = ORIENTED_EDGE ( 'NONE', *, *, #652, .F. ) ;
#29 = FACE_OUTER_BOUND ( 'NONE', #196, .T. ) ;
#30 = ADVANCED_FACE ( 'NONE', ( #459 ), #155, .T. ) ;
#31 = CARTESIAN_POINT ( 'NONE',  ( 9.060814287886346463, 0.4000000000000000222, 31.10726031717410223 ) ) ;
#32 = PRESENTATION_LAYER_ASSIGNMENT (  '', '', ( #361 ) ) ;
#33 = VECTOR ( 'NONE', #517, 1000.000000000000000 ) ;
#34 = CIRCLE ( 'NONE', #80, 25.39999999999999858 ) ;
#35 = LINE ( 'NONE', #421, #294 ) ;
#36 = DIRECTION ( 'NONE',  ( 0.000000000000000000, -0.000000000000000000, 1.000000000000000000 ) ) ;
#37 = ORIENTED_EDGE ( 'NONE', *, *, #506, .T. ) ;
#38 = FACE_BOUND ( 'NONE', #496, .T. ) ;
#39 = ORIENTED_EDGE ( 'NONE', *, *, #314, .T. ) ;
#40 = PLANE ( 'NONE',  #381 ) ;
#41 = ORIENTED_EDGE ( 'NONE', *, *, #556, .T. ) ;
#42 = EDGE_CURVE ( 'NONE', #429, #469, #325, .T. ) ;
#43 = DIRECTION ( 'NONE',  ( -0.000000000000000000, -1.000000000000000000, -0.000000000000000000 ) ) ;
#44 = DIRECTION ( 'NONE',  ( 0.000000000000000000, 0.000000000000000000, 1.000000000000000000 ) ) ;
#45 = CIRCLE ( 'NONE', #445, 4.000000000000010658 ) ;
#46 = CIRCLE ( 'NONE', #670, 4.000000000000010658 ) ;
#47 = ADVANCED_FACE ( 'NONE', ( #29 ), #72, .F. ) ;
#48 = PLANE ( 'NONE',  #283 ) ;
#49 = DIRECTION ( 'NONE',  ( -0.000000000000000000, -1.000000000000000000, -0.000000000000000000 ) ) ;
#50 =( LENGTH_UNIT ( ) NAMED_UNIT ( * ) SI_UNIT ( .MILLI., .METRE. ) );
#51 = DIRECTION ( 'NONE',  ( -0.000000000000000000, -1.000000000000000000, -0.000000000000000000 ) ) ;
#52 = EDGE_CURVE ( 'NONE', #521, #83, #460, .T. ) ;
#53 = DIRECTION ( 'NONE',  ( 0.000000000000000000, 0.000000000000000000, -1.000000000000000000 ) ) ;
#54 = ORIENTED_EDGE ( 'NONE', *, *, #322, .F. ) ;
#55 = AXIS2_PLACEMENT_3D ( 'NONE', #507, #26, #455 ) ;
#56 = AXIS2_PLACEMENT_3D ( 'NONE', #527, #154, #302 ) ;
#57 = CARTESIAN_POINT ( 'NONE',  ( -11.68543152827444054, 0.4000000000000000222, 22.55239876372377239 ) ) ;
#58 = UNCERTAINTY_MEASURE_WITH_UNIT (LENGTH_MEASURE( 1.000000000000000082E-05 ), #144, 'distance_accuracy_value', 'NONE');
#59 = VERTEX_POINT ( 'NONE', #397 ) ;
#60 = ADVANCED_FACE ( 'NONE', ( #299 ), #441, .T. ) ;
#61 = CARTESIAN_POINT ( 'NONE',  ( -9.060814287886346463, 0.000000000000000000, 31.10726031717410223 ) ) ;
#62 = ORIENTED_EDGE ( 'NONE', *, *, #2, .T. ) ;
#63 = ADVANCED_FACE ( 'NONE', ( #406 ), #447, .F. ) ;
#64 = CARTESIAN_POINT ( 'NONE',  ( -17.50000000000000355, 0.4000000000000000222, 22.00000000000000000 ) ) ;
#65 = VERTEX_POINT ( 'NONE', #451 ) ;
#66 = DIRECTION ( 'NONE',  ( -0.000000000000000000, -1.000000000000000000, -0.000000000000000000 ) ) ;
#67 = COLOUR_RGB ( '',0.7921568627450980005, 0.8196078431372548767, 0.9333333333333333481 ) ;
#68 = ORIENTED_EDGE ( 'NONE', *, *, #215, .F. ) ;
#69 = AXIS2_PLACEMENT_3D ( 'NONE', #392, #284, #598 ) ;
#70 = DIRECTION ( 'NONE',  ( -0.000000000000000000, -1.000000000000000000, -0.000000000000000000 ) ) ;
#71 = ORIENTED_EDGE ( 'NONE', *, *, #495, .F. ) ;
#72 = CYLINDRICAL_SURFACE ( 'NONE', #79, 1.000000000000000888 ) ;
#73 = DIRECTION ( 'NONE',  ( 0.000000000000000000, 0.000000000000000000, -1.000000000000000000 ) ) ;
#74 = EDGE_CURVE ( 'NONE', #384, #341, #21, .T. ) ;
#75 = VERTEX_POINT ( 'NONE', #390 ) ;
#76 = DIRECTION ( 'NONE',  ( 0.000000000000000000, 1.000000000000000000, 0.000000000000000000 ) ) ;
#77 = DIRECTION ( 'NONE',  ( -0.000000000000000000, -1.000000000000000000, -0.000000000000000000 ) ) ;
#78 = ORIENTED_EDGE ( 'NONE', *, *, #74, .T. ) ;
#79 = AXIS2_PLACEMENT_3D ( 'NONE', #133, #394, #189 ) ;
#80 = AXIS2_PLACEMENT_3D ( 'NONE', #370, #307, #44 ) ;
#81 = DIRECTION ( 'NONE',  ( 0.000000000000000000, 0.000000000000000000, 1.000000000000000000 ) ) ;
#82 = DIRECTION ( 'NONE',  ( -0.000000000000000000, -1.000000000000000000, -0.000000000000000000 ) ) ;
#83 = VERTEX_POINT ( 'NONE', #139 ) ;
#84 = EDGE_CURVE ( 'NONE', #204, #9, #13, .T. ) ;
#85 = DIRECTION ( 'NONE',  ( 0.000000000000000000, 0.000000000000000000, -1.000000000000000000 ) ) ;
#86 = DIRECTION ( 'NONE',  ( 0.000000000000000000, 1.000000000000000000, 0.000000000000000000 ) ) ;
#87 = ORIENTED_EDGE ( 'NONE', *, *, #581, .F. ) ;
#88 = FACE_OUTER_BOUND ( 'NONE', #499, .T. ) ;
#89 = AXIS2_PLACEMENT_3D ( 'NONE', #617, #129, #342 ) ;
#90 = AXIS2_PLACEMENT_3D ( 'NONE', #564, #86, #143 ) ;
#91 = FACE_OUTER_BOUND ( 'NONE', #276, .T. ) ;
#92 = APPLICATION_CONTEXT ( 'automotive_design' ) ;
#93 = CARTESIAN_POINT ( 'NONE',  ( 8.000000000000335731, 0.4000000000000000222, 24.10726031717410578 ) ) ;
#94 =( GEOMETRIC_REPRESENTATION_CONTEXT ( 3 ) GLOBAL_UNCERTAINTY_ASSIGNED_CONTEXT ( ( #158 ) ) GLOBAL_UNIT_ASSIGNED_CONTEXT ( ( #50, #688, #591 ) ) REPRESENTATION_CONTEXT ( 'NONE', 'WORKASPACE' ) );
#95 = ORIENTED_EDGE ( 'NONE', *, *, #682, .F. ) ;
#96 = CARTESIAN_POINT ( 'NONE',  ( 29.23784360458634879, 0.4000000000000000222, -13.96096348228692463 ) ) ;
#97 = FILL_AREA_STYLE ('',( #366 ) ) ;
#98 = ORIENTED_EDGE ( 'NONE', *, *, #74, .F. ) ;
#99 = FACE_OUTER_BOUND ( 'NONE', #542, .T. ) ;
#100 = CARTESIAN_POINT ( 'NONE',  ( 17.49999999999999645, 0.4000000000000000222, -23.00000000000000000 ) ) ;
#101 = SURFACE_SIDE_STYLE ('',( #203 ) ) ;
#102 = ADVANCED_BREP_SHAPE_REPRESENTATION ( 'Wafer Mount 1', ( #22, #576 ), #94 ) ;
#103 = LINE ( 'NONE', #269, #182 ) ;
#104 = DIRECTION ( 'NONE',  ( -1.000000000000000000, 0.000000000000000000, -0.000000000000000000 ) ) ;
#105 =( GEOMETRIC_REPRESENTATION_CONTEXT ( 3 ) GLOBAL_UNCERTAINTY_ASSIGNED_CONTEXT ( ( #58 ) ) GLOBAL_UNIT_ASSIGNED_CONTEXT ( ( #144, #250, #255 ) ) REPRESENTATION_CONTEXT ( 'NONE', 'WORKASPACE' ) );
#106 = VECTOR ( 'NONE', #367, 1000.000000000000000 ) ;
#107 = DIRECTION ( 'NONE',  ( -0.000000000000000000, -1.000000000000000000, -0.000000000000000000 ) ) ;
#108 = EDGE_CURVE ( 'NONE', #469, #429, #317, .T. ) ;
#109 = EDGE_CURVE ( 'NONE', #684, #388, #289, .T. ) ;
#110 = VERTEX_POINT ( 'NONE', #497 ) ;
#111 = CARTESIAN_POINT ( 'NONE',  ( -17.50000000000000355, 0.4000000000000000222, -24.00000000000000000 ) ) ;
#112 = ORIENTED_EDGE ( 'NONE', *, *, #159, .T. ) ;
#113 = EDGE_CURVE ( 'NONE', #324, #204, #16, .T. ) ;
#114 = CIRCLE ( 'NONE', #501, 32.39999999999999858 ) ;
#115 = CARTESIAN_POINT ( 'NONE',  ( 17.49999999999999645, 0.000000000000000000, -23.00000000000000000 ) ) ;
#116 = ORIENTED_EDGE ( 'NONE', *, *, #261, .T. ) ;
#117 = CARTESIAN_POINT ( 'NONE',  ( 17.49999999999999645, 0.4000000000000000222, 22.00000000000000355 ) ) ;
#118 = ORIENTED_EDGE ( 'NONE', *, *, #109, .F. ) ;
#119 = DIRECTION ( 'NONE',  ( 0.000000000000000000, 0.000000000000000000, -1.000000000000000000 ) ) ;
#120 = ORIENTED_EDGE ( 'NONE', *, *, #109, .T. ) ;
#121 = CARTESIAN_POINT ( 'NONE',  ( -11.68543152827444054, 0.4000000000000000222, 22.55239876372377239 ) ) ;
#122 = CIRCLE ( 'NONE', #660, 32.39999999999999858 ) ;
#123 = ORIENTED_EDGE ( 'NONE', *, *, #268, .F. ) ;
#124 = CIRCLE ( 'NONE', #222, 3.999999999999979128 ) ;
#125 = DIRECTION ( 'NONE',  ( 0.000000000000000000, 0.000000000000000000, -1.000000000000000000 ) ) ;
#126 = ADVANCED_FACE ( 'NONE', ( #345 ), #245, .F. ) ;
#127 = CARTESIAN_POINT ( 'NONE',  ( 17.49999999999999645, 0.4000000000000000222, -23.00000000000000000 ) ) ;
#128 = ORIENTED_EDGE ( 'NONE', *, *, #84, .T. ) ;
#129 = DIRECTION ( 'NONE',  ( -0.000000000000000000, -1.000000000000000000, -0.000000000000000000 ) ) ;
#130 = CARTESIAN_POINT ( 'NONE',  ( -9.060814287886346463, 0.4000000000000000222, 31.10726031717410223 ) ) ;
#131 = ORIENTED_EDGE ( 'NONE', *, *, #454, .T. ) ;
#132 = EDGE_CURVE ( 'NONE', #684, #320, #413, .T. ) ;
#133 = CARTESIAN_POINT ( 'NONE',  ( -17.50000000000000355, 0.4000000000000000222, 23.00000000000000000 ) ) ;
#134 = FACE_OUTER_BOUND ( 'NONE', #605, .T. ) ;
#135 = ORIENTED_EDGE ( 'NONE', *, *, #113, .T. ) ;
#136 = EDGE_CURVE ( 'NONE', #620, #627, #292, .T. ) ;
#137 = AXIS2_PLACEMENT_3D ( 'NONE', #174, #379, #437 ) ;
#138 = AXIS2_PLACEMENT_3D ( 'NONE', #100, #262, #273 ) ;
#139 = CARTESIAN_POINT ( 'NONE',  ( -17.50000000000000355, 0.4000000000000000222, 24.00000000000000000 ) ) ;
#140 = DIRECTION ( 'NONE',  ( 0.000000000000000000, 0.000000000000000000, 1.000000000000000000 ) ) ;
#141 = EDGE_LOOP ( 'NONE', ( #288, #39, #313, #352 ) ) ;
#142 = CARTESIAN_POINT ( 'NONE',  ( -9.060814287886346463, 0.000000000000000000, 31.10726031717410223 ) ) ;
#143 = DIRECTION ( 'NONE',  ( 0.000000000000000000, 0.000000000000000000, 1.000000000000000000 ) ) ;
#144 =( LENGTH_UNIT ( ) NAMED_UNIT ( * ) SI_UNIT ( .MILLI., .METRE. ) );
#145 = CYLINDRICAL_SURFACE ( 'NONE', #534, 1.000000000000000888 ) ;
#146 = CARTESIAN_POINT ( 'NONE',  ( 0.000000000000000000, 0.4000000000000000222, -32.39999999999999858 ) ) ;
#147 = ORIENTED_EDGE ( 'NONE', *, *, #585, .T. ) ;
#148 = ORIENTED_EDGE ( 'NONE', *, *, #188, .F. ) ;
#149 = CIRCLE ( 'NONE', #238, 0.9999999999999974465 ) ;
#150 = CIRCLE ( 'NONE', #573, 32.39999999999999858 ) ;
#151 = CARTESIAN_POINT ( 'NONE',  ( -3.999999999999669598, 0.4000000000000000222, 24.10726031717410578 ) ) ;
#152 = VERTEX_POINT ( 'NONE', #296 ) ;
#153 = CARTESIAN_POINT ( 'NONE',  ( 29.23784360458634879, 0.4000000000000000222, -13.96096348228692463 ) ) ;
#154 = DIRECTION ( 'NONE',  ( 0.000000000000000000, 1.000000000000000000, 0.000000000000000000 ) ) ;
#155 = CYLINDRICAL_SURFACE ( 'NONE', #694, 32.39999999999999858 ) ;
#156 = CARTESIAN_POINT ( 'NONE',  ( 9.060814287886346463, 0.4000000000000000222, 31.10726031717410223 ) ) ;
#157 = DIRECTION ( 'NONE',  ( 0.000000000000000000, 0.000000000000000000, 1.000000000000000000 ) ) ;
#158 = UNCERTAINTY_MEASURE_WITH_UNIT (LENGTH_MEASURE( 1.000000000000000082E-05 ), #50, 'distance_accuracy_value', 'NONE');
#159 = EDGE_CURVE ( 'NONE', #396, #65, #161, .T. ) ;
#160 = DIRECTION ( 'NONE',  ( 0.000000000000000000, 1.000000000000000000, 0.000000000000000000 ) ) ;
#161 = CIRCLE ( 'NONE', #55, 0.9999999999999974465 ) ;
#162 = AXIS2_PLACEMENT_3D ( 'NONE', #468, #636, #206 ) ;
#163 = EDGE_LOOP ( 'NONE', ( #68, #87, #135, #128 ) ) ;
#164 = DIRECTION ( 'NONE',  ( -0.1439398457141108367, 0.000000000000000000, 0.9895864392845115098 ) ) ;
#165 = ORIENTED_EDGE ( 'NONE', *, *, #132, .T. ) ;
#166 = CARTESIAN_POINT ( 'NONE',  ( 17.49999999999999645, 0.4000000000000000222, 23.99999999999999645 ) ) ;
#167 = ORIENTED_EDGE ( 'NONE', *, *, #282, .T. ) ;
#168 = EDGE_CURVE ( 'NONE', #65, #396, #180, .T. ) ;
#169 = AXIS2_PLACEMENT_3D ( 'NONE', #237, #248, #400 ) ;
#170 = AXIS2_PLACEMENT_3D ( 'NONE', #266, #590, #210 ) ;
#171 = CARTESIAN_POINT ( 'NONE',  ( 17.49999999999999645, 0.4000000000000000222, -23.00000000000000000 ) ) ;
#172 = ORIENTED_EDGE ( 'NONE', *, *, #216, .F. ) ;
#173 = EDGE_CURVE ( 'NONE', #204, #110, #45, .T. ) ;
#174 = CARTESIAN_POINT ( 'NONE',  ( 0.000000000000000000, 0.4000000000000000222, 0.000000000000000000 ) ) ;
#175 = ORIENTED_EDGE ( 'NONE', *, *, #624, .F. ) ;
#176 = LINE ( 'NONE', #121, #275 ) ;
#177 = EDGE_LOOP ( 'NONE', ( #192, #420 ) ) ;
#178 = ADVANCED_FACE ( 'NONE', ( #409 ), #40, .T. ) ;
#179 = DIRECTION ( 'NONE',  ( 0.000000000000000000, 0.000000000000000000, -1.000000000000000000 ) ) ;
#180 = CIRCLE ( 'NONE', #251, 0.9999999999999974465 ) ;
#181 = DIRECTION ( 'NONE',  ( 0.000000000000000000, 0.000000000000000000, -1.000000000000000000 ) ) ;
#182 = VECTOR ( 'NONE', #316, 999.9999999999998863 ) ;
#183 = ORIENTED_EDGE ( 'NONE', *, *, #173, .F. ) ;
#184 = AXIS2_PLACEMENT_3D ( 'NONE', #351, #304, #359 ) ;
#185 = CARTESIAN_POINT ( 'NONE',  ( -3.999999999999669598, 0.4000000000000000222, 24.10726031717410578 ) ) ;
#186 = CARTESIAN_POINT ( 'NONE',  ( -3.999999999999669598, 0.4000000000000000222, 24.10726031717410578 ) ) ;
#187 = ORIENTED_EDGE ( 'NONE', *, *, #603, .T. ) ;
#188 = EDGE_CURVE ( 'NONE', #594, #384, #586, .T. ) ;
#189 = DIRECTION ( 'NONE',  ( 0.000000000000000000, 0.000000000000000000, -1.000000000000000000 ) ) ;
#190 = ADVANCED_FACE ( 'NONE', ( #99 ), #145, .F. ) ;
#191 = FACE_BOUND ( 'NONE', #298, .T. ) ;
#192 = ORIENTED_EDGE ( 'NONE', *, *, #699, .F. ) ;
#193 = EDGE_CURVE ( 'NONE', #388, #609, #149, .T. ) ;
#194 = DIRECTION ( 'NONE',  ( 0.000000000000000000, 1.000000000000000000, 0.000000000000000000 ) ) ;
#195 = FACE_BOUND ( 'NONE', #676, .T. ) ;
#196 = EDGE_LOOP ( 'NONE', ( #522, #147, #62, #693 ) ) ;
#197 = CIRCLE ( 'NONE', #589, 32.39999999999999858 ) ;
#198 = CARTESIAN_POINT ( 'NONE',  ( -17.50000000000000355, 0.4000000000000000222, 23.00000000000000000 ) ) ;
#199 = CARTESIAN_POINT ( 'NONE',  ( 17.49999999999999645, 0.4000000000000000222, 23.00000000000000000 ) ) ;
#200 = EDGE_LOOP ( 'NONE', ( #548, #112, #131, #540 ) ) ;
#201 = DIRECTION ( 'NONE',  ( 0.000000000000000000, 0.000000000000000000, -1.000000000000000000 ) ) ;
#202 = CARTESIAN_POINT ( 'NONE',  ( 29.23784360458634879, 0.000000000000000000, -13.96096348228692463 ) ) ;
#203 = SURFACE_STYLE_FILL_AREA ( #97 ) ;
#204 = VERTEX_POINT ( 'NONE', #568 ) ;
#205 = EDGE_CURVE ( 'NONE', #463, #59, #629, .T. ) ;
#206 = DIRECTION ( 'NONE',  ( 0.000000000000000000, -0.000000000000000000, 1.000000000000000000 ) ) ;
#207 = ORIENTED_EDGE ( 'NONE', *, *, #188, .T. ) ;
#208 = VECTOR ( 'NONE', #607, 1000.000000000000000 ) ;
#209 = CIRCLE ( 'NONE', #221, 25.39999999999999858 ) ;
#210 = DIRECTION ( 'NONE',  ( 0.000000000000000000, 0.000000000000000000, -1.000000000000000000 ) ) ;
#211 = CARTESIAN_POINT ( 'NONE',  ( 4.000000000000313527, 0.000000000000000000, 24.10726031717410578 ) ) ;
#212 = DIRECTION ( 'NONE',  ( -0.000000000000000000, -1.000000000000000000, -0.000000000000000000 ) ) ;
#213 = EDGE_CURVE ( 'NONE', #396, #356, #412, .T. ) ;
#214 = LINE ( 'NONE', #364, #305 ) ;
#215 = EDGE_CURVE ( 'NONE', #75, #9, #523, .T. ) ;
#216 = EDGE_CURVE ( 'NONE', #110, #360, #34, .T. ) ;
#217 = CARTESIAN_POINT ( 'NONE',  ( 8.000000000000335731, 0.4000000000000000222, 24.10726031717410578 ) ) ;
#218 = LINE ( 'NONE', #156, #687 ) ;
#219 = ORIENTED_EDGE ( 'NONE', *, *, #444, .T. ) ;
#220 = VECTOR ( 'NONE', #354, 1000.000000000000000 ) ;
#221 = AXIS2_PLACEMENT_3D ( 'NONE', #584, #377, #593 ) ;
#222 = AXIS2_PLACEMENT_3D ( 'NONE', #515, #511, #626 ) ;
#223 = FACE_OUTER_BOUND ( 'NONE', #272, .T. ) ;
#224 = ORIENTED_EDGE ( 'NONE', *, *, #675, .F. ) ;
#225 = FACE_BOUND ( 'NONE', #538, .T. ) ;
#226 = ORIENTED_EDGE ( 'NONE', *, *, #383, .T. ) ;
#227 = DIRECTION ( 'NONE',  ( 0.000000000000000000, 1.000000000000000000, 0.000000000000000000 ) ) ;
#228 = ORIENTED_EDGE ( 'NONE', *, *, #682, .T. ) ;
#229 = CYLINDRICAL_SURFACE ( 'NONE', #462, 0.9999999999999974465 ) ;
#230 = EDGE_LOOP ( 'NONE', ( #612, #425 ) ) ;
#231 = DIRECTION ( 'NONE',  ( 0.000000000000000000, 0.000000000000000000, 1.000000000000000000 ) ) ;
#232 = ADVANCED_FACE ( 'NONE', ( #319 ), #632, .F. ) ;
#233 = ORIENTED_EDGE ( 'NONE', *, *, #6, .T. ) ;
#234 = DIRECTION ( 'NONE',  ( 0.000000000000000000, 0.000000000000000000, 1.000000000000000000 ) ) ;
#235 = DIRECTION ( 'NONE',  ( 0.000000000000000000, 1.000000000000000000, 0.000000000000000000 ) ) ;
#236 = ORIENTED_EDGE ( 'NONE', *, *, #216, .T. ) ;
#237 = CARTESIAN_POINT ( 'NONE',  ( -17.50000000000000355, 0.000000000000000000, -23.00000000000000000 ) ) ;
#238 = AXIS2_PLACEMENT_3D ( 'NONE', #470, #160, #358 ) ;
#239 = LINE ( 'NONE', #146, #616 ) ;
#240 = VECTOR ( 'NONE', #51, 1000.000000000000000 ) ;
#241 = ORIENTED_EDGE ( 'NONE', *, *, #353, .F. ) ;
#242 = CARTESIAN_POINT ( 'NONE',  ( -17.50000000000000355, 0.000000000000000000, -23.00000000000000000 ) ) ;
#243 = DIRECTION ( 'NONE',  ( 0.000000000000000000, 1.000000000000000000, 0.000000000000000000 ) ) ;
#244 = ORIENTED_EDGE ( 'NONE', *, *, #113, .F. ) ;
#245 = CYLINDRICAL_SURFACE ( 'NONE', #89, 0.9999999999999974465 ) ;
#246 = DIRECTION ( 'NONE',  ( 0.000000000000000000, 0.000000000000000000, 1.000000000000000000 ) ) ;
#247 = EDGE_LOOP ( 'NONE', ( #219, #312 ) ) ;
#248 = DIRECTION ( 'NONE',  ( 0.000000000000000000, 1.000000000000000000, 0.000000000000000000 ) ) ;
#249 = DIRECTION ( 'NONE',  ( 0.000000000000000000, 1.000000000000000000, 0.000000000000000000 ) ) ;
#250 =( NAMED_UNIT ( * ) PLANE_ANGLE_UNIT ( ) SI_UNIT ( $, .RADIAN. ) );
#251 = AXIS2_PLACEMENT_3D ( 'NONE', #667, #194, #582 ) ;
#252 = CIRCLE ( 'NONE', #56, 1.000000000000000888 ) ;
#253 = CARTESIAN_POINT ( 'NONE',  ( -3.999999999999669598, 0.000000000000000000, 24.10726031717410578 ) ) ;
#254 = DIRECTION ( 'NONE',  ( -0.000000000000000000, -1.000000000000000000, -0.000000000000000000 ) ) ;
#255 =( NAMED_UNIT ( * ) SI_UNIT ( $, .STERADIAN. ) SOLID_ANGLE_UNIT ( ) );
#256 = EDGE_CURVE ( 'NONE', #505, #338, #252, .T. ) ;
#257 = ORIENTED_EDGE ( 'NONE', *, *, #168, .F. ) ;
#258 = PLANE ( 'NONE',  #162 ) ;
#259 = EDGE_LOOP ( 'NONE', ( #486, #535, #344, #375 ) ) ;
#260 = DIRECTION ( 'NONE',  ( 0.000000000000000000, 0.000000000000000000, -1.000000000000000000 ) ) ;
#261 = EDGE_CURVE ( 'NONE', #338, #505, #514, .T. ) ;
#262 = DIRECTION ( 'NONE',  ( 0.000000000000000000, 1.000000000000000000, 0.000000000000000000 ) ) ;
#263 = EDGE_LOOP ( 'NONE', ( #78, #54, #224, #207 ) ) ;
#264 = AXIS2_PLACEMENT_3D ( 'NONE', #242, #339, #549 ) ;
#265 = AXIS2_PLACEMENT_3D ( 'NONE', #171, #385, #119 ) ;
#266 = CARTESIAN_POINT ( 'NONE',  ( -17.50000000000000355, 0.4000000000000000222, -23.00000000000000000 ) ) ;
#267 = EDGE_CURVE ( 'NONE', #320, #609, #35, .T. ) ;
#268 = EDGE_CURVE ( 'NONE', #338, #429, #214, .T. ) ;
#269 = CARTESIAN_POINT ( 'NONE',  ( 29.23784360458634879, 0.4000000000000000222, -13.96096348228692463 ) ) ;
#270 = FACE_BOUND ( 'NONE', #380, .T. ) ;
#271 = CARTESIAN_POINT ( 'NONE',  ( -17.50000000000000355, 0.4000000000000000222, -22.00000000000000000 ) ) ;
#272 = EDGE_LOOP ( 'NONE', ( #634, #669, #241, #363 ) ) ;
#273 = DIRECTION ( 'NONE',  ( 0.000000000000000000, 0.000000000000000000, 1.000000000000000000 ) ) ;
#274 = ORIENTED_EDGE ( 'NONE', *, *, #495, .T. ) ;
#275 = VECTOR ( 'NONE', #70, 1000.000000000000000 ) ;
#276 = EDGE_LOOP ( 'NONE', ( #15, #334, #175, #98, #467 ) ) ;
#277 = CARTESIAN_POINT ( 'NONE',  ( 0.000000000000000000, 0.000000000000000000, -25.39999999999999858 ) ) ;
#278 = ORIENTED_EDGE ( 'NONE', *, *, #267, .F. ) ;
#279 = ADVANCED_FACE ( 'NONE', ( #91, #270, #419, #38, #475, #520 ), #258, .F. ) ;
#280 = CARTESIAN_POINT ( 'NONE',  ( -7.999999999999626965, 0.4000000000000000222, 24.10726031717410578 ) ) ;
#281 = ORIENTED_EDGE ( 'NONE', *, *, #699, .T. ) ;
#282 = EDGE_CURVE ( 'NONE', #291, #516, #197, .T. ) ;
#283 = AXIS2_PLACEMENT_3D ( 'NONE', #340, #181, #326 ) ;
#284 = DIRECTION ( 'NONE',  ( 0.000000000000000000, 1.000000000000000000, 0.000000000000000000 ) ) ;
#285 = AXIS2_PLACEMENT_3D ( 'NONE', #365, #529, #633 ) ;
#286 = EDGE_LOOP ( 'NONE', ( #118, #165, #417, #408 ) ) ;
#287 = CYLINDRICAL_SURFACE ( 'NONE', #426, 3.999999999999979128 ) ;
#288 = ORIENTED_EDGE ( 'NONE', *, *, #52, .T. ) ;
#289 = LINE ( 'NONE', #661, #424 ) ;
#290 = CYLINDRICAL_SURFACE ( 'NONE', #265, 0.9999999999999974465 ) ;
#291 = VERTEX_POINT ( 'NONE', #96 ) ;
#292 = LINE ( 'NONE', #502, #8 ) ;
#293 = FACE_BOUND ( 'NONE', #658, .T. ) ;
#294 = VECTOR ( 'NONE', #49, 1000.000000000000000 ) ;
#295 = ORIENTED_EDGE ( 'NONE', *, *, #215, .T. ) ;
#296 = CARTESIAN_POINT ( 'NONE',  ( 11.68543152827503029, 0.000000000000000000, 22.55239876372346686 ) ) ;
#297 = DIRECTION ( 'NONE',  ( 0.000000000000000000, 0.000000000000000000, -1.000000000000000000 ) ) ;
#298 = EDGE_LOOP ( 'NONE', ( #482, #438 ) ) ;
#299 = FACE_OUTER_BOUND ( 'NONE', #259, .T. ) ;
#300 = CARTESIAN_POINT ( 'NONE',  ( 17.49999999999999645, 0.000000000000000000, -23.99999999999999645 ) ) ;
#301 = EDGE_LOOP ( 'NONE', ( #236, #187, #488, #599 ) ) ;
#302 = DIRECTION ( 'NONE',  ( 0.000000000000000000, 0.000000000000000000, 1.000000000000000000 ) ) ;
#303 = EDGE_CURVE ( 'NONE', #596, #620, #311, .T. ) ;
#304 = DIRECTION ( 'NONE',  ( -0.000000000000000000, -1.000000000000000000, -0.000000000000000000 ) ) ;
#305 = VECTOR ( 'NONE', #637, 1000.000000000000000 ) ;
#306 = AXIS2_PLACEMENT_3D ( 'NONE', #93, #82, #297 ) ;
#307 = DIRECTION ( 'NONE',  ( 0.000000000000000000, 1.000000000000000000, 0.000000000000000000 ) ) ;
#308 = DIRECTION ( 'NONE',  ( 0.000000000000000000, 0.000000000000000000, 1.000000000000000000 ) ) ;
#309 = ORIENTED_EDGE ( 'NONE', *, *, #353, .T. ) ;
#310 = ADVANCED_FACE ( 'NONE', ( #485 ), #418, .F. ) ;
#311 = LINE ( 'NONE', #371, #240 ) ;
#312 = ORIENTED_EDGE ( 'NONE', *, *, #193, .T. ) ;
#313 = ORIENTED_EDGE ( 'NONE', *, *, #556, .F. ) ;
#314 = EDGE_CURVE ( 'NONE', #83, #25, #639, .T. ) ;
#315 = CARTESIAN_POINT ( 'NONE',  ( 0.000000000000000000, 0.000000000000000000, 0.000000000000000000 ) ) ;
#316 = DIRECTION ( 'NONE',  ( 0.1439398457141108367, -0.000000000000000000, -0.9895864392845115098 ) ) ;
#317 = CIRCLE ( 'NONE', #264, 1.000000000000000888 ) ;
#318 = VECTOR ( 'NONE', #395, 1000.000000000000000 ) ;
#319 = FACE_OUTER_BOUND ( 'NONE', #4, .T. ) ;
#320 = VERTEX_POINT ( 'NONE', #414 ) ;
#321 = EDGE_CURVE ( 'NONE', #505, #469, #533, .T. ) ;
#322 = EDGE_CURVE ( 'NONE', #592, #341, #218, .T. ) ;
#323 = CARTESIAN_POINT ( 'NONE',  ( 9.060814287886346463, 0.000000000000000000, 31.10726031717410223 ) ) ;
#324 = VERTEX_POINT ( 'NONE', #423 ) ;
#325 = CIRCLE ( 'NONE', #169, 1.000000000000000888 ) ;
#326 = DIRECTION ( 'NONE',  ( -1.000000000000000000, 0.000000000000000000, -0.000000000000000000 ) ) ;
#327 = EDGE_LOOP ( 'NONE', ( #28, #349, #509, #643 ) ) ;
#328 = ADVANCED_FACE ( 'NONE', ( #223 ), #369, .F. ) ;
#329 = CARTESIAN_POINT ( 'NONE',  ( 8.000000000000335731, 0.000000000000000000, 24.10726031717410578 ) ) ;
#330 = ORIENTED_EDGE ( 'NONE', *, *, #256, .T. ) ;
#331 = PRODUCT_DEFINITION ( 'UNKNOWN', '', #619, #434 ) ;
#332 = EDGE_CURVE ( 'NONE', #152, #463, #209, .T. ) ;
#333 = DIRECTION ( 'NONE',  ( 0.000000000000000000, 0.000000000000000000, -1.000000000000000000 ) ) ;
#334 = ORIENTED_EDGE ( 'NONE', *, *, #136, .F. ) ;
#335 = CLOSED_SHELL ( 'NONE', ( #478, #126, #63, #232, #310, #30, #552, #279, #60, #376, #644, #328, #427, #178, #672, #432, #190, #47, #635, #544 ) ) ;
#336 = AXIS2_PLACEMENT_3D ( 'NONE', #407, #449, #36 ) ;
#337 = CARTESIAN_POINT ( 'NONE',  ( 0.000000000000000000, 0.4000000000000000222, 0.000000000000000000 ) ) ;
#338 = VERTEX_POINT ( 'NONE', #111 ) ;
#339 = DIRECTION ( 'NONE',  ( 0.000000000000000000, 1.000000000000000000, 0.000000000000000000 ) ) ;
#340 = CARTESIAN_POINT ( 'NONE',  ( -9.060814287886346463, 0.4000000000000000222, 31.10726031717410223 ) ) ;
#341 = VERTEX_POINT ( 'NONE', #323 ) ;
#342 = DIRECTION ( 'NONE',  ( 0.000000000000000000, 0.000000000000000000, -1.000000000000000000 ) ) ;
#343 = DIRECTION ( 'NONE',  ( 0.000000000000000000, 1.000000000000000000, 0.000000000000000000 ) ) ;
#344 = ORIENTED_EDGE ( 'NONE', *, *, #571, .T. ) ;
#345 = FACE_OUTER_BOUND ( 'NONE', #490, .T. ) ;
#346 = VECTOR ( 'NONE', #610, 1000.000000000000000 ) ;
#347 = FACE_OUTER_BOUND ( 'NONE', #453, .T. ) ;
#348 = CIRCLE ( 'NONE', #570, 3.999999999999979128 ) ;
#349 = ORIENTED_EDGE ( 'NONE', *, *, #546, .F. ) ;
#350 = DIRECTION ( 'NONE',  ( 0.000000000000000000, 1.000000000000000000, 0.000000000000000000 ) ) ;
#351 = CARTESIAN_POINT ( 'NONE',  ( 0.000000000000000000, 0.4000000000000000222, 0.000000000000000000 ) ) ;
#352 = ORIENTED_EDGE ( 'NONE', *, *, #2, .F. ) ;
#353 = EDGE_CURVE ( 'NONE', #596, #291, #103, .T. ) ;
#354 = DIRECTION ( 'NONE',  ( 1.000000000000000000, 0.000000000000000000, 0.000000000000000000 ) ) ;
#355 = CARTESIAN_POINT ( 'NONE',  ( 29.23784360458634879, 0.4000000000000000222, -13.96096348228692463 ) ) ;
#356 = VERTEX_POINT ( 'NONE', #691 ) ;
#357 = VERTEX_POINT ( 'NONE', #57 ) ;
#358 = DIRECTION ( 'NONE',  ( 0.000000000000000000, 0.000000000000000000, 1.000000000000000000 ) ) ;
#359 = DIRECTION ( 'NONE',  ( 0.000000000000000000, 0.000000000000000000, -1.000000000000000000 ) ) ;
#360 = VERTEX_POINT ( 'NONE', #631 ) ;
#361 = STYLED_ITEM ( 'NONE', ( #512 ), #22 ) ;
#362 = CIRCLE ( 'NONE', #436, 1.000000000000000888 ) ;
#363 = ORIENTED_EDGE ( 'NONE', *, *, #303, .T. ) ;
#364 = CARTESIAN_POINT ( 'NONE',  ( -17.50000000000000355, 0.4000000000000000222, -24.00000000000000000 ) ) ;
#365 = CARTESIAN_POINT ( 'NONE',  ( -17.50000000000000355, 0.000000000000000000, 23.00000000000000000 ) ) ;
#366 = FILL_AREA_STYLE_COLOUR ( '', #67 ) ;
#367 = DIRECTION ( 'NONE',  ( -0.000000000000000000, -1.000000000000000000, -0.000000000000000000 ) ) ;
#368 = LINE ( 'NONE', #578, #659 ) ;
#369 = PLANE ( 'NONE',  #372 ) ;
#370 = CARTESIAN_POINT ( 'NONE',  ( 0.000000000000000000, 0.4000000000000000222, 0.000000000000000000 ) ) ;
#371 = CARTESIAN_POINT ( 'NONE',  ( 24.04907965321064367, 0.4000000000000000222, 21.71178868342103740 ) ) ;
#372 = AXIS2_PLACEMENT_3D ( 'NONE', #153, #642, #164 ) ;
#373 = CARTESIAN_POINT ( 'NONE',  ( 17.49999999999999645, 0.4000000000000000222, 23.99999999999999645 ) ) ;
#374 = APPLICATION_PROTOCOL_DEFINITION ( 'draft international standard', 'automotive_design', 1998, #448 ) ;
#375 = ORIENTED_EDGE ( 'NONE', *, *, #456, .T. ) ;
#376 = ADVANCED_FACE ( 'NONE', ( #525 ), #48, .F. ) ;
#377 = DIRECTION ( 'NONE',  ( 0.000000000000000000, 1.000000000000000000, 0.000000000000000000 ) ) ;
#378 = ORIENTED_EDGE ( 'NONE', *, *, #503, .T. ) ;
#379 = DIRECTION ( 'NONE',  ( -0.000000000000000000, -1.000000000000000000, -0.000000000000000000 ) ) ;
#380 = EDGE_LOOP ( 'NONE', ( #574, #295, #226, #615, #580 ) ) ;
#381 = AXIS2_PLACEMENT_3D ( 'NONE', #151, #201, #104 ) ;
#382 = DIRECTION ( 'NONE',  ( 0.000000000000000000, 1.000000000000000000, 0.000000000000000000 ) ) ;
#383 = EDGE_CURVE ( 'NONE', #9, #152, #46, .T. ) ;
#384 = VERTEX_POINT ( 'NONE', #61 ) ;
#385 = DIRECTION ( 'NONE',  ( -0.000000000000000000, -1.000000000000000000, -0.000000000000000000 ) ) ;
#386 = ORIENTED_EDGE ( 'NONE', *, *, #42, .F. ) ;
#387 = CARTESIAN_POINT ( 'NONE',  ( 0.000000000000000000, 0.4000000000000000222, -32.39999999999999858 ) ) ;
#388 = VERTEX_POINT ( 'NONE', #430 ) ;
#389 = AXIS2_PLACEMENT_3D ( 'NONE', #337, #227, #231 ) ;
#390 = CARTESIAN_POINT ( 'NONE',  ( -3.999999999999669598, 0.000000000000000000, 24.10726031717410578 ) ) ;
#391 = CIRCLE ( 'NONE', #90, 0.9999999999999974465 ) ;
#392 = CARTESIAN_POINT ( 'NONE',  ( 17.49999999999999645, 0.000000000000000000, 23.00000000000000000 ) ) ;
#393 = ORIENTED_EDGE ( 'NONE', *, *, #603, .F. ) ;
#394 = DIRECTION ( 'NONE',  ( -0.000000000000000000, -1.000000000000000000, -0.000000000000000000 ) ) ;
#395 = DIRECTION ( 'NONE',  ( -0.000000000000000000, -1.000000000000000000, -0.000000000000000000 ) ) ;
#396 = VERTEX_POINT ( 'NONE', #166 ) ;
#397 = CARTESIAN_POINT ( 'NONE',  ( -11.68543152827444054, 0.000000000000000000, 22.55239876372377239 ) ) ;
#398 = CARTESIAN_POINT ( 'NONE',  ( 0.000000000000000000, 0.4000000000000000222, -25.39999999999999858 ) ) ;
#399 = ORIENTED_EDGE ( 'NONE', *, *, #213, .T. ) ;
#400 = DIRECTION ( 'NONE',  ( 0.000000000000000000, 0.000000000000000000, 1.000000000000000000 ) ) ;
#401 = VECTOR ( 'NONE', #471, 1000.000000000000000 ) ;
#402 = LINE ( 'NONE', #508, #697 ) ;
#403 = AXIS2_PLACEMENT_3D ( 'NONE', #668, #343, #246 ) ;
#404 = ORIENTED_EDGE ( 'NONE', *, *, #303, .F. ) ;
#405 = EDGE_CURVE ( 'NONE', #592, #596, #606, .T. ) ;
#406 = FACE_OUTER_BOUND ( 'NONE', #141, .T. ) ;
#407 = CARTESIAN_POINT ( 'NONE',  ( 0.000000000000000000, 0.4000000000000000222, 0.000000000000000000 ) ) ;
#408 = ORIENTED_EDGE ( 'NONE', *, *, #193, .F. ) ;
#409 = FACE_OUTER_BOUND ( 'NONE', #163, .T. ) ;
#410 = LINE ( 'NONE', #355, #545 ) ;
#411 = DIRECTION ( 'NONE',  ( 0.000000000000000000, 1.000000000000000000, 0.000000000000000000 ) ) ;
#412 = LINE ( 'NONE', #373, #106 ) ;
#413 = CIRCLE ( 'NONE', #481, 0.9999999999999974465 ) ;
#414 = CARTESIAN_POINT ( 'NONE',  ( 17.49999999999999645, 0.4000000000000000222, -23.99999999999999645 ) ) ;
#415 = VECTOR ( 'NONE', #66, 1000.000000000000000 ) ;
#416 = CARTESIAN_POINT ( 'NONE',  ( -9.060814287886346463, 0.4000000000000000222, 31.10726031717410223 ) ) ;
#417 = ORIENTED_EDGE ( 'NONE', *, *, #267, .T. ) ;
#418 = CYLINDRICAL_SURFACE ( 'NONE', #526, 25.39999999999999858 ) ;
#419 = FACE_BOUND ( 'NONE', #230, .T. ) ;
#420 = ORIENTED_EDGE ( 'NONE', *, *, #132, .F. ) ;
#421 = CARTESIAN_POINT ( 'NONE',  ( 17.49999999999999645, 0.4000000000000000222, -23.99999999999999645 ) ) ;
#422 = DIRECTION ( 'NONE',  ( 0.000000000000000000, 0.000000000000000000, 1.000000000000000000 ) ) ;
#423 = CARTESIAN_POINT ( 'NONE',  ( -3.999999999999669598, 0.4000000000000000222, 24.10726031717410578 ) ) ;
#424 = VECTOR ( 'NONE', #563, 1000.000000000000000 ) ;
#425 = ORIENTED_EDGE ( 'NONE', *, *, #108, .T. ) ;
#426 = AXIS2_PLACEMENT_3D ( 'NONE', #550, #442, #333 ) ;
#427 = ADVANCED_FACE ( 'NONE', ( #489 ), #287, .F. ) ;
#428 = CIRCLE ( 'NONE', #403, 25.39999999999999858 ) ;
#429 = VERTEX_POINT ( 'NONE', #433 ) ;
#430 = CARTESIAN_POINT ( 'NONE',  ( 17.49999999999999645, 0.000000000000000000, -22.00000000000000355 ) ) ;
#431 = ORIENTED_EDGE ( 'NONE', *, *, #528, .F. ) ;
#432 = ADVANCED_FACE ( 'NONE', ( #645 ), #498, .F. ) ;
#433 = CARTESIAN_POINT ( 'NONE',  ( -17.50000000000000355, 0.000000000000000000, -24.00000000000000000 ) ) ;
#434 = PRODUCT_DEFINITION_CONTEXT ( 'detailed design', #92, 'design' ) ;
#435 = ORIENTED_EDGE ( 'NONE', *, *, #84, .F. ) ;
#436 = AXIS2_PLACEMENT_3D ( 'NONE', #457, #249, #308 ) ;
#437 = DIRECTION ( 'NONE',  ( 0.000000000000000000, 0.000000000000000000, -1.000000000000000000 ) ) ;
#438 = ORIENTED_EDGE ( 'NONE', *, *, #256, .F. ) ;
#439 = DIRECTION ( 'NONE',  ( 0.000000000000000000, 0.000000000000000000, -1.000000000000000000 ) ) ;
#440 = ORIENTED_EDGE ( 'NONE', *, *, #585, .F. ) ;
#441 = CYLINDRICAL_SURFACE ( 'NONE', #500, 32.39999999999999858 ) ;
#442 = DIRECTION ( 'NONE',  ( -0.000000000000000000, -1.000000000000000000, -0.000000000000000000 ) ) ;
#443 = EDGE_LOOP ( 'NONE', ( #71, #680, #37, #148 ) ) ;
#444 = EDGE_CURVE ( 'NONE', #609, #388, #20, .T. ) ;
#445 = AXIS2_PLACEMENT_3D ( 'NONE', #217, #692, #157 ) ;
#446 = CIRCLE ( 'NONE', #10, 1.000000000000000888 ) ;
#447 = CYLINDRICAL_SURFACE ( 'NONE', #543, 1.000000000000000888 ) ;
#448 = APPLICATION_CONTEXT ( 'automotive_design' ) ;
#449 = DIRECTION ( 'NONE',  ( 0.000000000000000000, 1.000000000000000000, 0.000000000000000000 ) ) ;
#450 = ORIENTED_EDGE ( 'NONE', *, *, #602, .F. ) ;
#451 = CARTESIAN_POINT ( 'NONE',  ( 17.49999999999999645, 0.4000000000000000222, 22.00000000000000355 ) ) ;
#452 = DIRECTION ( 'NONE',  ( 0.000000000000000000, 0.000000000000000000, -1.000000000000000000 ) ) ;
#453 = EDGE_LOOP ( 'NONE', ( #479, #435, #663, #233 ) ) ;
#454 = EDGE_CURVE ( 'NONE', #65, #666, #648, .T. ) ;
#455 = DIRECTION ( 'NONE',  ( 0.000000000000000000, 0.000000000000000000, 1.000000000000000000 ) ) ;
#456 = EDGE_CURVE ( 'NONE', #627, #698, #122, .T. ) ;
#457 = CARTESIAN_POINT ( 'NONE',  ( -17.50000000000000355, 0.000000000000000000, 23.00000000000000000 ) ) ;
#458 = ORIENTED_EDGE ( 'NONE', *, *, #52, .F. ) ;
#459 = FACE_OUTER_BOUND ( 'NONE', #443, .T. ) ;
#460 = CIRCLE ( 'NONE', #588, 1.000000000000000888 ) ;
#461 = LINE ( 'NONE', #186, #318 ) ;
#462 = AXIS2_PLACEMENT_3D ( 'NONE', #127, #654, #73 ) ;
#463 = VERTEX_POINT ( 'NONE', #277 ) ;
#464 = ORIENTED_EDGE ( 'NONE', *, *, #602, .T. ) ;
#465 = CARTESIAN_POINT ( 'NONE',  ( -17.50000000000000355, 0.4000000000000000222, -23.00000000000000000 ) ) ;
#466 = CARTESIAN_POINT ( 'NONE',  ( -17.50000000000000355, 0.4000000000000000222, 23.00000000000000000 ) ) ;
#467 = ORIENTED_EDGE ( 'NONE', *, *, #506, .F. ) ;
#468 = CARTESIAN_POINT ( 'NONE',  ( 0.000000000000000000, 0.000000000000000000, 0.000000000000000000 ) ) ;
#469 = VERTEX_POINT ( 'NONE', #487 ) ;
#470 = CARTESIAN_POINT ( 'NONE',  ( 17.49999999999999645, 0.000000000000000000, -23.00000000000000000 ) ) ;
#471 = DIRECTION ( 'NONE',  ( -0.000000000000000000, -1.000000000000000000, -0.000000000000000000 ) ) ;
#472 = CIRCLE ( 'NONE', #483, 32.39999999999999858 ) ;
#473 = CARTESIAN_POINT ( 'NONE',  ( -17.50000000000000355, 0.4000000000000000222, -23.00000000000000000 ) ) ;
#474 = DIRECTION ( 'NONE',  ( 1.000000000000000000, 0.000000000000000000, 0.000000000000000000 ) ) ;
#475 = FACE_BOUND ( 'NONE', #555, .T. ) ;
#476 = PRODUCT_RELATED_PRODUCT_CATEGORY ( 'part', '', ( #647 ) ) ;
#477 = SHAPE_DEFINITION_REPRESENTATION ( #5, #102 ) ;
#478 = ADVANCED_FACE ( 'NONE', ( #3 ), #290, .F. ) ;
#479 = ORIENTED_EDGE ( 'NONE', *, *, #383, .F. ) ;
#480 = CARTESIAN_POINT ( 'NONE',  ( 0.000000000000000000, 0.000000000000000000, 0.000000000000000000 ) ) ;
#481 = AXIS2_PLACEMENT_3D ( 'NONE', #553, #76, #81 ) ;
#482 = ORIENTED_EDGE ( 'NONE', *, *, #261, .F. ) ;
#483 = AXIS2_PLACEMENT_3D ( 'NONE', #539, #382, #604 ) ;
#484 = AXIS2_PLACEMENT_3D ( 'NONE', #199, #622, #452 ) ;
#485 = FACE_OUTER_BOUND ( 'NONE', #301, .T. ) ;
#486 = ORIENTED_EDGE ( 'NONE', *, *, #559, .F. ) ;
#487 = CARTESIAN_POINT ( 'NONE',  ( -17.50000000000000355, 0.000000000000000000, -22.00000000000000000 ) ) ;
#488 = ORIENTED_EDGE ( 'NONE', *, *, #332, .F. ) ;
#489 = FACE_OUTER_BOUND ( 'NONE', #327, .T. ) ;
#490 = EDGE_LOOP ( 'NONE', ( #683, #399, #95, #655 ) ) ;
#491 = CARTESIAN_POINT ( 'NONE',  ( -17.50000000000000355, 0.4000000000000000222, -22.00000000000000000 ) ) ;
#492 = VERTEX_POINT ( 'NONE', #494 ) ;
#493 = CARTESIAN_POINT ( 'NONE',  ( 0.000000000000000000, 0.4000000000000000222, 0.000000000000000000 ) ) ;
#494 = CARTESIAN_POINT ( 'NONE',  ( -17.50000000000000355, 0.000000000000000000, 22.00000000000000000 ) ) ;
#495 = EDGE_CURVE ( 'NONE', #516, #594, #472, .T. ) ;
#496 = EDGE_LOOP ( 'NONE', ( #41, #641 ) ) ;
#497 = CARTESIAN_POINT ( 'NONE',  ( 11.68543152827503029, 0.4000000000000000222, 22.55239876372346686 ) ) ;
#498 = CYLINDRICAL_SURFACE ( 'NONE', #137, 25.39999999999999858 ) ;
#499 = EDGE_LOOP ( 'NONE', ( #167, #274, #689, #551, #309 ) ) ;
#500 = AXIS2_PLACEMENT_3D ( 'NONE', #493, #656, #179 ) ;
#501 = AXIS2_PLACEMENT_3D ( 'NONE', #11, #235, #657 ) ;
#502 = CARTESIAN_POINT ( 'NONE',  ( 29.23784360458634879, 0.000000000000000000, -13.96096348228692463 ) ) ;
#503 = EDGE_CURVE ( 'NONE', #356, #666, #650, .T. ) ;
#504 = CARTESIAN_POINT ( 'NONE',  ( 24.04907965321064367, 0.000000000000000000, 21.71178868342103740 ) ) ;
#505 = VERTEX_POINT ( 'NONE', #491 ) ;
#506 = EDGE_CURVE ( 'NONE', #698, #384, #114, .T. ) ;
#507 = CARTESIAN_POINT ( 'NONE',  ( 17.49999999999999645, 0.4000000000000000222, 23.00000000000000000 ) ) ;
#508 = CARTESIAN_POINT ( 'NONE',  ( -9.060814287886346463, 0.4000000000000000222, 31.10726031717410223 ) ) ;
#509 = ORIENTED_EDGE ( 'NONE', *, *, #528, .T. ) ;
#510 = CARTESIAN_POINT ( 'NONE',  ( -17.50000000000000355, 0.000000000000000000, 24.00000000000000000 ) ) ;
#511 = DIRECTION ( 'NONE',  ( 0.000000000000000000, 1.000000000000000000, -0.000000000000000000 ) ) ;
#512 = PRESENTATION_STYLE_ASSIGNMENT (( #565 ) ) ;
#513 = DIRECTION ( 'NONE',  ( 0.000000000000000000, 0.000000000000000000, 1.000000000000000000 ) ) ;
#514 = CIRCLE ( 'NONE', #536, 1.000000000000000888 ) ;
#515 = CARTESIAN_POINT ( 'NONE',  ( -7.999999999999626965, 0.000000000000000000, 24.10726031717410578 ) ) ;
#516 = VERTEX_POINT ( 'NONE', #387 ) ;
#517 = DIRECTION ( 'NONE',  ( 1.000000000000000000, 0.000000000000000000, 0.000000000000000000 ) ) ;
#518 = CARTESIAN_POINT ( 'NONE',  ( 0.000000000000000000, 0.000000000000000000, -32.39999999999999858 ) ) ;
#519 = ORIENTED_EDGE ( 'NONE', *, *, #321, .T. ) ;
#520 = FACE_BOUND ( 'NONE', #247, .T. ) ;
#521 = VERTEX_POINT ( 'NONE', #64 ) ;
#522 = ORIENTED_EDGE ( 'NONE', *, *, #314, .F. ) ;
#523 = LINE ( 'NONE', #253, #33 ) ;
#524 = CARTESIAN_POINT ( 'NONE',  ( 17.49999999999999645, 0.4000000000000000222, -22.00000000000000355 ) ) ;
#525 = FACE_OUTER_BOUND ( 'NONE', #263, .T. ) ;
#526 = AXIS2_PLACEMENT_3D ( 'NONE', #531, #43, #53 ) ;
#527 = CARTESIAN_POINT ( 'NONE',  ( -17.50000000000000355, 0.4000000000000000222, -23.00000000000000000 ) ) ;
#528 = EDGE_CURVE ( 'NONE', #357, #324, #348, .T. ) ;
#529 = DIRECTION ( 'NONE',  ( 0.000000000000000000, 1.000000000000000000, 0.000000000000000000 ) ) ;
#530 = APPLICATION_PROTOCOL_DEFINITION ( 'draft international standard', 'automotive_design', 1998, #92 ) ;
#531 = CARTESIAN_POINT ( 'NONE',  ( 0.000000000000000000, 0.4000000000000000222, 0.000000000000000000 ) ) ;
#532 = ORIENTED_EDGE ( 'NONE', *, *, #624, .T. ) ;
#533 = LINE ( 'NONE', #271, #695 ) ;
#534 = AXIS2_PLACEMENT_3D ( 'NONE', #465, #677, #260 ) ;
#535 = ORIENTED_EDGE ( 'NONE', *, *, #282, .F. ) ;
#536 = AXIS2_PLACEMENT_3D ( 'NONE', #473, #690, #513 ) ;
#537 = DIRECTION ( 'NONE',  ( 0.000000000000000000, 1.000000000000000000, 0.000000000000000000 ) ) ;
#538 = EDGE_LOOP ( 'NONE', ( #257, #649 ) ) ;
#539 = CARTESIAN_POINT ( 'NONE',  ( 0.000000000000000000, 0.4000000000000000222, 0.000000000000000000 ) ) ;
#540 = ORIENTED_EDGE ( 'NONE', *, *, #503, .F. ) ;
#541 = DIRECTION ( 'NONE',  ( 0.000000000000000000, 0.000000000000000000, 1.000000000000000000 ) ) ;
#542 = EDGE_LOOP ( 'NONE', ( #1, #330, #575, #562 ) ) ;
#543 = AXIS2_PLACEMENT_3D ( 'NONE', #671, #621, #125 ) ;
#544 = ADVANCED_FACE ( 'NONE', ( #7 ), #229, .F. ) ;
#545 = VECTOR ( 'NONE', #662, 1000.000000000000000 ) ;
#546 = EDGE_CURVE ( 'NONE', #357, #59, #176, .T. ) ;
#547 = DIRECTION ( 'NONE',  ( 0.000000000000000000, 0.000000000000000000, 1.000000000000000000 ) ) ;
#548 = ORIENTED_EDGE ( 'NONE', *, *, #213, .F. ) ;
#549 = DIRECTION ( 'NONE',  ( 0.000000000000000000, 0.000000000000000000, 1.000000000000000000 ) ) ;
#550 = CARTESIAN_POINT ( 'NONE',  ( -7.999999999999626965, 0.4000000000000000222, 24.10726031717410578 ) ) ;
#551 = ORIENTED_EDGE ( 'NONE', *, *, #405, .T. ) ;
#552 = ADVANCED_FACE ( 'NONE', ( #225, #191, #88, #293, #195, #618 ), #611, .T. ) ;
#553 = CARTESIAN_POINT ( 'NONE',  ( 17.49999999999999645, 0.4000000000000000222, -23.00000000000000000 ) ) ;
#554 = LINE ( 'NONE', #398, #640 ) ;
#555 = EDGE_LOOP ( 'NONE', ( #228, #378 ) ) ;
#556 = EDGE_CURVE ( 'NONE', #492, #25, #362, .T. ) ;
#557 = AXIS2_PLACEMENT_3D ( 'NONE', #115, #14, #547 ) ;
#558 = DIRECTION ( 'NONE',  ( 0.1439398457141108367, -0.000000000000000000, -0.9895864392845115098 ) ) ;
#559 = EDGE_CURVE ( 'NONE', #516, #698, #239, .T. ) ;
#560 = CYLINDRICAL_SURFACE ( 'NONE', #306, 4.000000000000010658 ) ;
#561 = CIRCLE ( 'NONE', #138, 0.9999999999999974465 ) ;
#562 = ORIENTED_EDGE ( 'NONE', *, *, #108, .F. ) ;
#563 = DIRECTION ( 'NONE',  ( -0.000000000000000000, -1.000000000000000000, -0.000000000000000000 ) ) ;
#564 = CARTESIAN_POINT ( 'NONE',  ( 17.49999999999999645, 0.000000000000000000, 23.00000000000000000 ) ) ;
#565 = SURFACE_STYLE_USAGE ( .BOTH. , #101 ) ;
#566 = CARTESIAN_POINT ( 'NONE',  ( 4.000000000000313527, 0.4000000000000000222, 24.10726031717410578 ) ) ;
#567 = CARTESIAN_POINT ( 'NONE',  ( 0.000000000000000000, 0.000000000000000000, 0.000000000000000000 ) ) ;
#568 = CARTESIAN_POINT ( 'NONE',  ( 4.000000000000313527, 0.4000000000000000222, 24.10726031717410578 ) ) ;
#569 = MECHANICAL_DESIGN_GEOMETRIC_PRESENTATION_REPRESENTATION (  '', ( #361 ), #105 ) ;
#570 = AXIS2_PLACEMENT_3D ( 'NONE', #280, #608, #439 ) ;
#571 = EDGE_CURVE ( 'NONE', #291, #627, #410, .T. ) ;
#572 = CARTESIAN_POINT ( 'NONE',  ( 17.49999999999999645, 0.000000000000000000, 22.00000000000000355 ) ) ;
#573 = AXIS2_PLACEMENT_3D ( 'NONE', #567, #665, #614 ) ;
#574 = ORIENTED_EDGE ( 'NONE', *, *, #652, .T. ) ;
#575 = ORIENTED_EDGE ( 'NONE', *, *, #268, .T. ) ;
#576 = AXIS2_PLACEMENT_3D ( 'NONE', #480, #422, #474 ) ;
#577 = DIRECTION ( 'NONE',  ( 0.000000000000000000, 0.000000000000000000, 1.000000000000000000 ) ) ;
#578 = CARTESIAN_POINT ( 'NONE',  ( 11.68543152827503029, 0.4000000000000000222, 22.55239876372346686 ) ) ;
#579 = CARTESIAN_POINT ( 'NONE',  ( -17.50000000000000355, 0.4000000000000000222, 24.00000000000000000 ) ) ;
#580 = ORIENTED_EDGE ( 'NONE', *, *, #205, .T. ) ;
#581 = EDGE_CURVE ( 'NONE', #324, #75, #461, .T. ) ;
#582 = DIRECTION ( 'NONE',  ( 0.000000000000000000, 0.000000000000000000, 1.000000000000000000 ) ) ;
#583 = DIRECTION ( 'NONE',  ( -0.000000000000000000, -1.000000000000000000, -0.000000000000000000 ) ) ;
#584 = CARTESIAN_POINT ( 'NONE',  ( 0.000000000000000000, 0.000000000000000000, 0.000000000000000000 ) ) ;
#585 = EDGE_CURVE ( 'NONE', #83, #521, #446, .T. ) ;
#586 = LINE ( 'NONE', #416, #638 ) ;
#587 = PRODUCT_CONTEXT ( 'NONE', #448, 'mechanical' ) ;
#588 = AXIS2_PLACEMENT_3D ( 'NONE', #198, #350, #234 ) ;
#589 = AXIS2_PLACEMENT_3D ( 'NONE', #681, #628, #577 ) ;
#590 = DIRECTION ( 'NONE',  ( -0.000000000000000000, -1.000000000000000000, -0.000000000000000000 ) ) ;
#591 =( NAMED_UNIT ( * ) SI_UNIT ( $, .STERADIAN. ) SOLID_ANGLE_UNIT ( ) );
#592 = VERTEX_POINT ( 'NONE', #31 ) ;
#593 = DIRECTION ( 'NONE',  ( 0.000000000000000000, 0.000000000000000000, 1.000000000000000000 ) ) ;
#594 = VERTEX_POINT ( 'NONE', #130 ) ;
#595 = CARTESIAN_POINT ( 'NONE',  ( 0.000000000000000000, 0.000000000000000000, 0.000000000000000000 ) ) ;
#596 = VERTEX_POINT ( 'NONE', #678 ) ;
#597 = VECTOR ( 'NONE', #107, 1000.000000000000000 ) ;
#598 = DIRECTION ( 'NONE',  ( 0.000000000000000000, 0.000000000000000000, 1.000000000000000000 ) ) ;
#599 = ORIENTED_EDGE ( 'NONE', *, *, #6, .F. ) ;
#600 = DIRECTION ( 'NONE',  ( 0.000000000000000000, 1.000000000000000000, 0.000000000000000000 ) ) ;
#601 = ORIENTED_EDGE ( 'NONE', *, *, #444, .F. ) ;
#602 = EDGE_CURVE ( 'NONE', #360, #357, #428, .T. ) ;
#603 = EDGE_CURVE ( 'NONE', #360, #463, #554, .T. ) ;
#604 = DIRECTION ( 'NONE',  ( 0.000000000000000000, 0.000000000000000000, 1.000000000000000000 ) ) ;
#605 = EDGE_LOOP ( 'NONE', ( #532, #404, #623, #12 ) ) ;
#606 = CIRCLE ( 'NONE', #389, 32.39999999999999858 ) ;
#607 = DIRECTION ( 'NONE',  ( -0.000000000000000000, -1.000000000000000000, -0.000000000000000000 ) ) ;
#608 = DIRECTION ( 'NONE',  ( 0.000000000000000000, 1.000000000000000000, -0.000000000000000000 ) ) ;
#609 = VERTEX_POINT ( 'NONE', #300 ) ;
#610 = DIRECTION ( 'NONE',  ( 1.000000000000000000, 0.000000000000000000, 0.000000000000000000 ) ) ;
#611 = PLANE ( 'NONE',  #336 ) ;
#612 = ORIENTED_EDGE ( 'NONE', *, *, #42, .T. ) ;
#613 = CARTESIAN_POINT ( 'NONE',  ( 0.000000000000000000, 0.4000000000000000222, 0.000000000000000000 ) ) ;
#614 = DIRECTION ( 'NONE',  ( 0.000000000000000000, 0.000000000000000000, 1.000000000000000000 ) ) ;
#615 = ORIENTED_EDGE ( 'NONE', *, *, #332, .T. ) ;
#616 = VECTOR ( 'NONE', #254, 1000.000000000000000 ) ;
#617 = CARTESIAN_POINT ( 'NONE',  ( 17.49999999999999645, 0.4000000000000000222, 23.00000000000000000 ) ) ;
#618 = FACE_BOUND ( 'NONE', #177, .T. ) ;
#619 = PRODUCT_DEFINITION_FORMATION_WITH_SPECIFIED_SOURCE ( 'ANY', '', #647, .NOT_KNOWN. ) ;
#620 = VERTEX_POINT ( 'NONE', #504 ) ;
#621 = DIRECTION ( 'NONE',  ( -0.000000000000000000, -1.000000000000000000, -0.000000000000000000 ) ) ;
#622 = DIRECTION ( 'NONE',  ( -0.000000000000000000, -1.000000000000000000, -0.000000000000000000 ) ) ;
#623 = ORIENTED_EDGE ( 'NONE', *, *, #405, .F. ) ;
#624 = EDGE_CURVE ( 'NONE', #341, #620, #150, .T. ) ;
#625 = DIRECTION ( 'NONE',  ( -0.000000000000000000, -1.000000000000000000, -0.000000000000000000 ) ) ;
#626 = DIRECTION ( 'NONE',  ( 0.000000000000000000, 0.000000000000000000, -1.000000000000000000 ) ) ;
#627 = VERTEX_POINT ( 'NONE', #202 ) ;
#628 = DIRECTION ( 'NONE',  ( 0.000000000000000000, 1.000000000000000000, 0.000000000000000000 ) ) ;
#629 = CIRCLE ( 'NONE', #19, 25.39999999999999858 ) ;
#630 = CARTESIAN_POINT ( 'NONE',  ( -17.50000000000000355, 0.4000000000000000222, 22.00000000000000000 ) ) ;
#631 = CARTESIAN_POINT ( 'NONE',  ( 0.000000000000000000, 0.4000000000000000222, -25.39999999999999858 ) ) ;
#632 = CYLINDRICAL_SURFACE ( 'NONE', #170, 1.000000000000000888 ) ;
#633 = DIRECTION ( 'NONE',  ( 0.000000000000000000, 0.000000000000000000, 1.000000000000000000 ) ) ;
#634 = ORIENTED_EDGE ( 'NONE', *, *, #136, .T. ) ;
#635 = ADVANCED_FACE ( 'NONE', ( #24 ), #673, .F. ) ;
#636 = DIRECTION ( 'NONE',  ( 0.000000000000000000, 1.000000000000000000, 0.000000000000000000 ) ) ;
#637 = DIRECTION ( 'NONE',  ( -0.000000000000000000, -1.000000000000000000, -0.000000000000000000 ) ) ;
#638 = VECTOR ( 'NONE', #625, 1000.000000000000000 ) ;
#639 = LINE ( 'NONE', #579, #597 ) ;
#640 = VECTOR ( 'NONE', #77, 1000.000000000000000 ) ;
#641 = ORIENTED_EDGE ( 'NONE', *, *, #686, .T. ) ;
#642 = DIRECTION ( 'NONE',  ( -0.9895864392845115098, 0.000000000000000000, -0.1439398457141108367 ) ) ;
#643 = ORIENTED_EDGE ( 'NONE', *, *, #581, .T. ) ;
#644 = ADVANCED_FACE ( 'NONE', ( #134 ), #17, .T. ) ;
#645 = FACE_OUTER_BOUND ( 'NONE', #674, .T. ) ;
#646 = ORIENTED_EDGE ( 'NONE', *, *, #205, .F. ) ;
#647 = PRODUCT ( 'Wafer Mount 1', 'Wafer Mount 1', '', ( #587 ) ) ;
#648 = LINE ( 'NONE', #117, #415 ) ;
#649 = ORIENTED_EDGE ( 'NONE', *, *, #159, .F. ) ;
#650 = CIRCLE ( 'NONE', #69, 0.9999999999999974465 ) ;
#651 = DIRECTION ( 'NONE',  ( 0.000000000000000000, 0.000000000000000000, 1.000000000000000000 ) ) ;
#652 = EDGE_CURVE ( 'NONE', #59, #75, #124, .T. ) ;
#653 = ORIENTED_EDGE ( 'NONE', *, *, #546, .T. ) ;
#654 = DIRECTION ( 'NONE',  ( -0.000000000000000000, -1.000000000000000000, -0.000000000000000000 ) ) ;
#655 = ORIENTED_EDGE ( 'NONE', *, *, #454, .F. ) ;
#656 = DIRECTION ( 'NONE',  ( -0.000000000000000000, -1.000000000000000000, -0.000000000000000000 ) ) ;
#657 = DIRECTION ( 'NONE',  ( 0.000000000000000000, 0.000000000000000000, 1.000000000000000000 ) ) ;
#658 = EDGE_LOOP ( 'NONE', ( #244, #431, #450, #172, #183 ) ) ;
#659 = VECTOR ( 'NONE', #583, 1000.000000000000000 ) ;
#660 = AXIS2_PLACEMENT_3D ( 'NONE', #595, #537, #651 ) ;
#661 = CARTESIAN_POINT ( 'NONE',  ( 17.49999999999999645, 0.4000000000000000222, -22.00000000000000355 ) ) ;
#662 = DIRECTION ( 'NONE',  ( -0.000000000000000000, -1.000000000000000000, -0.000000000000000000 ) ) ;
#663 = ORIENTED_EDGE ( 'NONE', *, *, #173, .T. ) ;
#664 = DIRECTION ( 'NONE',  ( -0.000000000000000000, -1.000000000000000000, -0.000000000000000000 ) ) ;
#665 = DIRECTION ( 'NONE',  ( 0.000000000000000000, 1.000000000000000000, 0.000000000000000000 ) ) ;
#666 = VERTEX_POINT ( 'NONE', #572 ) ;
#667 = CARTESIAN_POINT ( 'NONE',  ( 17.49999999999999645, 0.4000000000000000222, 23.00000000000000000 ) ) ;
#668 = CARTESIAN_POINT ( 'NONE',  ( 0.000000000000000000, 0.4000000000000000222, 0.000000000000000000 ) ) ;
#669 = ORIENTED_EDGE ( 'NONE', *, *, #571, .F. ) ;
#670 = AXIS2_PLACEMENT_3D ( 'NONE', #329, #600, #541 ) ;
#671 = CARTESIAN_POINT ( 'NONE',  ( -17.50000000000000355, 0.4000000000000000222, 23.00000000000000000 ) ) ;
#672 = ADVANCED_FACE ( 'NONE', ( #347 ), #560, .F. ) ;
#673 = CYLINDRICAL_SURFACE ( 'NONE', #484, 0.9999999999999974465 ) ;
#674 = EDGE_LOOP ( 'NONE', ( #393, #464, #653, #646 ) ) ;
#675 = EDGE_CURVE ( 'NONE', #594, #592, #402, .T. ) ;
#676 = EDGE_LOOP ( 'NONE', ( #458, #440 ) ) ;
#677 = DIRECTION ( 'NONE',  ( -0.000000000000000000, -1.000000000000000000, -0.000000000000000000 ) ) ;
#678 = CARTESIAN_POINT ( 'NONE',  ( 24.04907965321064367, 0.4000000000000000222, 21.71178868342103740 ) ) ;
#679 = LINE ( 'NONE', #630, #401 ) ;
#680 = ORIENTED_EDGE ( 'NONE', *, *, #559, .T. ) ;
#681 = CARTESIAN_POINT ( 'NONE',  ( 0.000000000000000000, 0.4000000000000000222, 0.000000000000000000 ) ) ;
#682 = EDGE_CURVE ( 'NONE', #666, #356, #391, .T. ) ;
#683 = ORIENTED_EDGE ( 'NONE', *, *, #168, .T. ) ;
#684 = VERTEX_POINT ( 'NONE', #524 ) ;
#685 = DIRECTION ( 'NONE',  ( 0.000000000000000000, 0.000000000000000000, 1.000000000000000000 ) ) ;
#686 = EDGE_CURVE ( 'NONE', #25, #492, #23, .T. ) ;
#687 = VECTOR ( 'NONE', #696, 1000.000000000000000 ) ;
#688 =( NAMED_UNIT ( * ) PLANE_ANGLE_UNIT ( ) SI_UNIT ( $, .RADIAN. ) );
#689 = ORIENTED_EDGE ( 'NONE', *, *, #675, .T. ) ;
#690 = DIRECTION ( 'NONE',  ( 0.000000000000000000, 1.000000000000000000, 0.000000000000000000 ) ) ;
#691 = CARTESIAN_POINT ( 'NONE',  ( 17.49999999999999645, 0.000000000000000000, 23.99999999999999645 ) ) ;
#692 = DIRECTION ( 'NONE',  ( 0.000000000000000000, 1.000000000000000000, 0.000000000000000000 ) ) ;
#693 = ORIENTED_EDGE ( 'NONE', *, *, #686, .F. ) ;
#694 = AXIS2_PLACEMENT_3D ( 'NONE', #613, #664, #85 ) ;
#695 = VECTOR ( 'NONE', #212, 1000.000000000000000 ) ;
#696 = DIRECTION ( 'NONE',  ( -0.000000000000000000, -1.000000000000000000, -0.000000000000000000 ) ) ;
#697 = VECTOR ( 'NONE', #27, 1000.000000000000000 ) ;
#698 = VERTEX_POINT ( 'NONE', #518 ) ;
#699 = EDGE_CURVE ( 'NONE', #320, #684, #561, .T. ) ;
ENDSEC;
END-ISO-10303-21;
