%TF.GenerationSoftware,KiCad,Pcbnew,10.0.3*%
%TF.CreationDate,2026-08-11T10:49:56-05:00*%
%TF.ProjectId,teer_mux,74656572-5f6d-4757-982e-6b696361645f,rev?*%
%TF.SameCoordinates,Original*%
%TF.FileFunction,Paste,Bot*%
%TF.FilePolarity,Positive*%
%FSLAX46Y46*%
G04 Gerber Fmt 4.6, Leading zero omitted, Abs format (unit mm)*
G04 Created by KiCad (PCBNEW 10.0.3) date 2026-08-11 10:49:56*
%MOMM*%
%LPD*%
G01*
G04 APERTURE LIST*
G04 Aperture macros list*
%AMRoundRect*
0 Rectangle with rounded corners*
0 $1 Rounding radius*
0 $2 $3 $4 $5 $6 $7 $8 $9 X,Y pos of 4 corners*
0 Add a 4 corners polygon primitive as box body*
4,1,4,$2,$3,$4,$5,$6,$7,$8,$9,$2,$3,0*
0 Add four circle primitives for the rounded corners*
1,1,$1+$1,$2,$3*
1,1,$1+$1,$4,$5*
1,1,$1+$1,$6,$7*
1,1,$1+$1,$8,$9*
0 Add four rect primitives between the rounded corners*
20,1,$1+$1,$2,$3,$4,$5,0*
20,1,$1+$1,$4,$5,$6,$7,0*
20,1,$1+$1,$6,$7,$8,$9,0*
20,1,$1+$1,$8,$9,$2,$3,0*%
G04 Aperture macros list end*
%ADD10R,0.700000X1.925000*%
%ADD11R,1.925000X0.700000*%
%ADD12RoundRect,0.249999X0.750001X0.640001X-0.750001X0.640001X-0.750001X-0.640001X0.750001X-0.640001X0*%
G04 APERTURE END LIST*
D10*
%TO.C,U15*%
X119975000Y-129200000D03*
X118705000Y-129200000D03*
X117435000Y-129200000D03*
X116165000Y-129200000D03*
X114895000Y-129200000D03*
X113625000Y-129200000D03*
D11*
X112112500Y-127687500D03*
X112112500Y-126417500D03*
X112112500Y-125147500D03*
X112112500Y-123877500D03*
X112112500Y-122607500D03*
X112112500Y-121337500D03*
X112112500Y-120067500D03*
X112112500Y-118797500D03*
X112112500Y-117527500D03*
X112112500Y-116257500D03*
X112112500Y-114987500D03*
D10*
X113625000Y-113475000D03*
X114895000Y-113475000D03*
X116165000Y-113475000D03*
X117435000Y-113475000D03*
X118705000Y-113475000D03*
X119975000Y-113475000D03*
X121245000Y-113475000D03*
X122515000Y-113475000D03*
X123785000Y-113475000D03*
X125055000Y-113475000D03*
X126325000Y-113475000D03*
D11*
X127837500Y-114987500D03*
X127837500Y-116257500D03*
X127837500Y-117527500D03*
X127837500Y-118797500D03*
X127837500Y-120067500D03*
X127837500Y-121337500D03*
X127837500Y-122607500D03*
X127837500Y-123877500D03*
X127837500Y-125147500D03*
X127837500Y-126417500D03*
X127837500Y-127687500D03*
D10*
X126325000Y-129200000D03*
X125055000Y-129200000D03*
X123785000Y-129200000D03*
X122515000Y-129200000D03*
X121245000Y-129200000D03*
%TD*%
%TO.C,U14*%
X114200000Y-108462500D03*
X112930000Y-108462500D03*
X111660000Y-108462500D03*
X110390000Y-108462500D03*
X109120000Y-108462500D03*
X107850000Y-108462500D03*
D11*
X106337500Y-106950000D03*
X106337500Y-105680000D03*
X106337500Y-104410000D03*
X106337500Y-103140000D03*
X106337500Y-101870000D03*
X106337500Y-100600000D03*
X106337500Y-99330000D03*
X106337500Y-98060000D03*
X106337500Y-96790000D03*
X106337500Y-95520000D03*
X106337500Y-94250000D03*
D10*
X107850000Y-92737500D03*
X109120000Y-92737500D03*
X110390000Y-92737500D03*
X111660000Y-92737500D03*
X112930000Y-92737500D03*
X114200000Y-92737500D03*
X115470000Y-92737500D03*
X116740000Y-92737500D03*
X118010000Y-92737500D03*
X119280000Y-92737500D03*
X120550000Y-92737500D03*
D11*
X122062500Y-94250000D03*
X122062500Y-95520000D03*
X122062500Y-96790000D03*
X122062500Y-98060000D03*
X122062500Y-99330000D03*
X122062500Y-100600000D03*
X122062500Y-101870000D03*
X122062500Y-103140000D03*
X122062500Y-104410000D03*
X122062500Y-105680000D03*
X122062500Y-106950000D03*
D10*
X120550000Y-108462500D03*
X119280000Y-108462500D03*
X118010000Y-108462500D03*
X116740000Y-108462500D03*
X115470000Y-108462500D03*
%TD*%
%TO.C,U12*%
X186060000Y-110400000D03*
X184790000Y-110400000D03*
X183520000Y-110400000D03*
X182250000Y-110400000D03*
X180980000Y-110400000D03*
X179710000Y-110400000D03*
D11*
X178197500Y-108887500D03*
X178197500Y-107617500D03*
X178197500Y-106347500D03*
X178197500Y-105077500D03*
X178197500Y-103807500D03*
X178197500Y-102537500D03*
X178197500Y-101267500D03*
X178197500Y-99997500D03*
X178197500Y-98727500D03*
X178197500Y-97457500D03*
X178197500Y-96187500D03*
D10*
X179710000Y-94675000D03*
X180980000Y-94675000D03*
X182250000Y-94675000D03*
X183520000Y-94675000D03*
X184790000Y-94675000D03*
X186060000Y-94675000D03*
X187330000Y-94675000D03*
X188600000Y-94675000D03*
X189870000Y-94675000D03*
X191140000Y-94675000D03*
X192410000Y-94675000D03*
D11*
X193922500Y-96187500D03*
X193922500Y-97457500D03*
X193922500Y-98727500D03*
X193922500Y-99997500D03*
X193922500Y-101267500D03*
X193922500Y-102537500D03*
X193922500Y-103807500D03*
X193922500Y-105077500D03*
X193922500Y-106347500D03*
X193922500Y-107617500D03*
X193922500Y-108887500D03*
D10*
X192410000Y-110400000D03*
X191140000Y-110400000D03*
X189870000Y-110400000D03*
X188600000Y-110400000D03*
X187330000Y-110400000D03*
%TD*%
D11*
%TO.C,U11*%
X171137500Y-121800000D03*
X171137500Y-120530000D03*
X171137500Y-119260000D03*
X171137500Y-117990000D03*
X171137500Y-116720000D03*
X171137500Y-115450000D03*
D10*
X172650000Y-113937500D03*
X173920000Y-113937500D03*
X175190000Y-113937500D03*
X176460000Y-113937500D03*
X177730000Y-113937500D03*
X179000000Y-113937500D03*
X180270000Y-113937500D03*
X181540000Y-113937500D03*
X182810000Y-113937500D03*
X184080000Y-113937500D03*
X185350000Y-113937500D03*
D11*
X186862500Y-115450000D03*
X186862500Y-116720000D03*
X186862500Y-117990000D03*
X186862500Y-119260000D03*
X186862500Y-120530000D03*
X186862500Y-121800000D03*
X186862500Y-123070000D03*
X186862500Y-124340000D03*
X186862500Y-125610000D03*
X186862500Y-126880000D03*
X186862500Y-128150000D03*
D10*
X185350000Y-129662500D03*
X184080000Y-129662500D03*
X182810000Y-129662500D03*
X181540000Y-129662500D03*
X180270000Y-129662500D03*
X179000000Y-129662500D03*
X177730000Y-129662500D03*
X176460000Y-129662500D03*
X175190000Y-129662500D03*
X173920000Y-129662500D03*
X172650000Y-129662500D03*
D11*
X171137500Y-128150000D03*
X171137500Y-126880000D03*
X171137500Y-125610000D03*
X171137500Y-124340000D03*
X171137500Y-123070000D03*
%TD*%
D12*
%TO.C,U2*%
X106240000Y-111960000D03*
X106240000Y-114500000D03*
X106240000Y-117040000D03*
X106240000Y-119580000D03*
X106240000Y-122120000D03*
X106240000Y-124660000D03*
X106240000Y-127200000D03*
X106240000Y-129740000D03*
X106240000Y-132280000D03*
X106240000Y-134820000D03*
X106240000Y-137360000D03*
X106240000Y-139900000D03*
X91000000Y-139900000D03*
X91000000Y-137360000D03*
X91000000Y-134820000D03*
X91000000Y-132280000D03*
X91000000Y-129740000D03*
X91000000Y-127200000D03*
X91000000Y-124660000D03*
X91000000Y-122120000D03*
X91000000Y-119580000D03*
X91000000Y-117040000D03*
X91000000Y-114500000D03*
X91000000Y-111960000D03*
%TD*%
D11*
%TO.C,U19*%
X147562500Y-130500000D03*
X147562500Y-131770000D03*
X147562500Y-133040000D03*
X147562500Y-134310000D03*
X147562500Y-135580000D03*
X147562500Y-136850000D03*
D10*
X146050000Y-138362500D03*
X144780000Y-138362500D03*
X143510000Y-138362500D03*
X142240000Y-138362500D03*
X140970000Y-138362500D03*
X139700000Y-138362500D03*
X138430000Y-138362500D03*
X137160000Y-138362500D03*
X135890000Y-138362500D03*
X134620000Y-138362500D03*
X133350000Y-138362500D03*
D11*
X131837500Y-136850000D03*
X131837500Y-135580000D03*
X131837500Y-134310000D03*
X131837500Y-133040000D03*
X131837500Y-131770000D03*
X131837500Y-130500000D03*
X131837500Y-129230000D03*
X131837500Y-127960000D03*
X131837500Y-126690000D03*
X131837500Y-125420000D03*
X131837500Y-124150000D03*
D10*
X133350000Y-122637500D03*
X134620000Y-122637500D03*
X135890000Y-122637500D03*
X137160000Y-122637500D03*
X138430000Y-122637500D03*
X139700000Y-122637500D03*
X140970000Y-122637500D03*
X142240000Y-122637500D03*
X143510000Y-122637500D03*
X144780000Y-122637500D03*
X146050000Y-122637500D03*
D11*
X147562500Y-124150000D03*
X147562500Y-125420000D03*
X147562500Y-126690000D03*
X147562500Y-127960000D03*
X147562500Y-129230000D03*
%TD*%
%TO.C,U20*%
X167262500Y-130500000D03*
X167262500Y-131770000D03*
X167262500Y-133040000D03*
X167262500Y-134310000D03*
X167262500Y-135580000D03*
X167262500Y-136850000D03*
D10*
X165750000Y-138362500D03*
X164480000Y-138362500D03*
X163210000Y-138362500D03*
X161940000Y-138362500D03*
X160670000Y-138362500D03*
X159400000Y-138362500D03*
X158130000Y-138362500D03*
X156860000Y-138362500D03*
X155590000Y-138362500D03*
X154320000Y-138362500D03*
X153050000Y-138362500D03*
D11*
X151537500Y-136850000D03*
X151537500Y-135580000D03*
X151537500Y-134310000D03*
X151537500Y-133040000D03*
X151537500Y-131770000D03*
X151537500Y-130500000D03*
X151537500Y-129230000D03*
X151537500Y-127960000D03*
X151537500Y-126690000D03*
X151537500Y-125420000D03*
X151537500Y-124150000D03*
D10*
X153050000Y-122637500D03*
X154320000Y-122637500D03*
X155590000Y-122637500D03*
X156860000Y-122637500D03*
X158130000Y-122637500D03*
X159400000Y-122637500D03*
X160670000Y-122637500D03*
X161940000Y-122637500D03*
X163210000Y-122637500D03*
X164480000Y-122637500D03*
X165750000Y-122637500D03*
D11*
X167262500Y-124150000D03*
X167262500Y-125420000D03*
X167262500Y-126690000D03*
X167262500Y-127960000D03*
X167262500Y-129230000D03*
%TD*%
M02*
