%TF.GenerationSoftware,KiCad,Pcbnew,10.0.3*%
%TF.CreationDate,2026-07-09T10:27:28-05:00*%
%TF.ProjectId,teer_mux,74656572-5f6d-4757-982e-6b696361645f,rev?*%
%TF.SameCoordinates,Original*%
%TF.FileFunction,Legend,Top*%
%TF.FilePolarity,Positive*%
%FSLAX46Y46*%
G04 Gerber Fmt 4.6, Leading zero omitted, Abs format (unit mm)*
G04 Created by KiCad (PCBNEW 10.0.3) date 2026-07-09 10:27:28*
%MOMM*%
%LPD*%
G01*
G04 APERTURE LIST*
%ADD10C,0.250000*%
%ADD11C,0.150000*%
%ADD12C,0.100000*%
%ADD13C,0.120000*%
%ADD14C,0.000000*%
%ADD15C,0.152400*%
%ADD16C,0.200000*%
G04 APERTURE END LIST*
D10*
X88561905Y-99419714D02*
X88561905Y-97619714D01*
X89514286Y-98734000D02*
X91038096Y-98734000D01*
X90276191Y-99419714D02*
X90276191Y-98048285D01*
X87895238Y-72619714D02*
X88561904Y-74419714D01*
X88561904Y-74419714D02*
X89228571Y-72619714D01*
X89895238Y-73734000D02*
X91419048Y-73734000D01*
X88561905Y-124419714D02*
X88561905Y-122619714D01*
X89514286Y-123734000D02*
X91038096Y-123734000D01*
D11*
X100985714Y-117748557D02*
X101080952Y-117748557D01*
X101080952Y-117748557D02*
X101176190Y-117791414D01*
X101176190Y-117791414D02*
X101223809Y-117834271D01*
X101223809Y-117834271D02*
X101271428Y-117919985D01*
X101271428Y-117919985D02*
X101319047Y-118091414D01*
X101319047Y-118091414D02*
X101319047Y-118305700D01*
X101319047Y-118305700D02*
X101271428Y-118477128D01*
X101271428Y-118477128D02*
X101223809Y-118562842D01*
X101223809Y-118562842D02*
X101176190Y-118605700D01*
X101176190Y-118605700D02*
X101080952Y-118648557D01*
X101080952Y-118648557D02*
X100985714Y-118648557D01*
X100985714Y-118648557D02*
X100890476Y-118605700D01*
X100890476Y-118605700D02*
X100842857Y-118562842D01*
X100842857Y-118562842D02*
X100795238Y-118477128D01*
X100795238Y-118477128D02*
X100747619Y-118305700D01*
X100747619Y-118305700D02*
X100747619Y-118091414D01*
X100747619Y-118091414D02*
X100795238Y-117919985D01*
X100795238Y-117919985D02*
X100842857Y-117834271D01*
X100842857Y-117834271D02*
X100890476Y-117791414D01*
X100890476Y-117791414D02*
X100985714Y-117748557D01*
X101747619Y-118562842D02*
X101795238Y-118605700D01*
X101795238Y-118605700D02*
X101747619Y-118648557D01*
X101747619Y-118648557D02*
X101700000Y-118605700D01*
X101700000Y-118605700D02*
X101747619Y-118562842D01*
X101747619Y-118562842D02*
X101747619Y-118648557D01*
X102747618Y-118648557D02*
X102176190Y-118648557D01*
X102461904Y-118648557D02*
X102461904Y-117748557D01*
X102461904Y-117748557D02*
X102366666Y-117877128D01*
X102366666Y-117877128D02*
X102271428Y-117962842D01*
X102271428Y-117962842D02*
X102176190Y-118005700D01*
X103604761Y-118048557D02*
X103604761Y-118648557D01*
X103176190Y-118048557D02*
X103176190Y-118519985D01*
X103176190Y-118519985D02*
X103223809Y-118605700D01*
X103223809Y-118605700D02*
X103319047Y-118648557D01*
X103319047Y-118648557D02*
X103461904Y-118648557D01*
X103461904Y-118648557D02*
X103557142Y-118605700D01*
X103557142Y-118605700D02*
X103604761Y-118562842D01*
X99508557Y-125961904D02*
X99508557Y-125390476D01*
X100408557Y-125676190D02*
X99508557Y-125676190D01*
X100408557Y-125057142D02*
X99508557Y-125057142D01*
X99508557Y-125057142D02*
X100151414Y-124723809D01*
X100151414Y-124723809D02*
X99508557Y-124390476D01*
X99508557Y-124390476D02*
X100408557Y-124390476D01*
X99508557Y-123914285D02*
X100237128Y-123914285D01*
X100237128Y-123914285D02*
X100322842Y-123866666D01*
X100322842Y-123866666D02*
X100365700Y-123819047D01*
X100365700Y-123819047D02*
X100408557Y-123723809D01*
X100408557Y-123723809D02*
X100408557Y-123533333D01*
X100408557Y-123533333D02*
X100365700Y-123438095D01*
X100365700Y-123438095D02*
X100322842Y-123390476D01*
X100322842Y-123390476D02*
X100237128Y-123342857D01*
X100237128Y-123342857D02*
X99508557Y-123342857D01*
X99508557Y-122961904D02*
X100408557Y-122295238D01*
X99508557Y-122295238D02*
X100408557Y-122961904D01*
X99508557Y-121485714D02*
X99508557Y-121676190D01*
X99508557Y-121676190D02*
X99551414Y-121771428D01*
X99551414Y-121771428D02*
X99594271Y-121819047D01*
X99594271Y-121819047D02*
X99722842Y-121914285D01*
X99722842Y-121914285D02*
X99894271Y-121961904D01*
X99894271Y-121961904D02*
X100237128Y-121961904D01*
X100237128Y-121961904D02*
X100322842Y-121914285D01*
X100322842Y-121914285D02*
X100365700Y-121866666D01*
X100365700Y-121866666D02*
X100408557Y-121771428D01*
X100408557Y-121771428D02*
X100408557Y-121580952D01*
X100408557Y-121580952D02*
X100365700Y-121485714D01*
X100365700Y-121485714D02*
X100322842Y-121438095D01*
X100322842Y-121438095D02*
X100237128Y-121390476D01*
X100237128Y-121390476D02*
X100022842Y-121390476D01*
X100022842Y-121390476D02*
X99937128Y-121438095D01*
X99937128Y-121438095D02*
X99894271Y-121485714D01*
X99894271Y-121485714D02*
X99851414Y-121580952D01*
X99851414Y-121580952D02*
X99851414Y-121771428D01*
X99851414Y-121771428D02*
X99894271Y-121866666D01*
X99894271Y-121866666D02*
X99937128Y-121914285D01*
X99937128Y-121914285D02*
X100022842Y-121961904D01*
X100408557Y-120438095D02*
X100408557Y-121009523D01*
X100408557Y-120723809D02*
X99508557Y-120723809D01*
X99508557Y-120723809D02*
X99637128Y-120819047D01*
X99637128Y-120819047D02*
X99722842Y-120914285D01*
X99722842Y-120914285D02*
X99765700Y-121009523D01*
X100408557Y-119485714D02*
X100408557Y-120057142D01*
X100408557Y-119771428D02*
X99508557Y-119771428D01*
X99508557Y-119771428D02*
X99637128Y-119866666D01*
X99637128Y-119866666D02*
X99722842Y-119961904D01*
X99722842Y-119961904D02*
X99765700Y-120057142D01*
X99594271Y-119104761D02*
X99551414Y-119057142D01*
X99551414Y-119057142D02*
X99508557Y-118961904D01*
X99508557Y-118961904D02*
X99508557Y-118723809D01*
X99508557Y-118723809D02*
X99551414Y-118628571D01*
X99551414Y-118628571D02*
X99594271Y-118580952D01*
X99594271Y-118580952D02*
X99679985Y-118533333D01*
X99679985Y-118533333D02*
X99765700Y-118533333D01*
X99765700Y-118533333D02*
X99894271Y-118580952D01*
X99894271Y-118580952D02*
X100408557Y-119152380D01*
X100408557Y-119152380D02*
X100408557Y-118533333D01*
D12*
X101672371Y-124938199D02*
X101815228Y-124938199D01*
X101758085Y-125104866D02*
X101815228Y-124938199D01*
X101815228Y-124938199D02*
X101758085Y-124771532D01*
X101929514Y-125038199D02*
X101815228Y-124938199D01*
X101815228Y-124938199D02*
X101929514Y-124838199D01*
X101672371Y-124938199D02*
X101815228Y-124938199D01*
X101758085Y-125104866D02*
X101815228Y-124938199D01*
X101815228Y-124938199D02*
X101758085Y-124771532D01*
X101929514Y-125038199D02*
X101815228Y-124938199D01*
X101815228Y-124938199D02*
X101929514Y-124838199D01*
D11*
X102215714Y-125708557D02*
X102310952Y-125708557D01*
X102310952Y-125708557D02*
X102406190Y-125751414D01*
X102406190Y-125751414D02*
X102453809Y-125794271D01*
X102453809Y-125794271D02*
X102501428Y-125879985D01*
X102501428Y-125879985D02*
X102549047Y-126051414D01*
X102549047Y-126051414D02*
X102549047Y-126265700D01*
X102549047Y-126265700D02*
X102501428Y-126437128D01*
X102501428Y-126437128D02*
X102453809Y-126522842D01*
X102453809Y-126522842D02*
X102406190Y-126565700D01*
X102406190Y-126565700D02*
X102310952Y-126608557D01*
X102310952Y-126608557D02*
X102215714Y-126608557D01*
X102215714Y-126608557D02*
X102120476Y-126565700D01*
X102120476Y-126565700D02*
X102072857Y-126522842D01*
X102072857Y-126522842D02*
X102025238Y-126437128D01*
X102025238Y-126437128D02*
X101977619Y-126265700D01*
X101977619Y-126265700D02*
X101977619Y-126051414D01*
X101977619Y-126051414D02*
X102025238Y-125879985D01*
X102025238Y-125879985D02*
X102072857Y-125794271D01*
X102072857Y-125794271D02*
X102120476Y-125751414D01*
X102120476Y-125751414D02*
X102215714Y-125708557D01*
X102977619Y-126522842D02*
X103025238Y-126565700D01*
X103025238Y-126565700D02*
X102977619Y-126608557D01*
X102977619Y-126608557D02*
X102930000Y-126565700D01*
X102930000Y-126565700D02*
X102977619Y-126522842D01*
X102977619Y-126522842D02*
X102977619Y-126608557D01*
X103977618Y-126608557D02*
X103406190Y-126608557D01*
X103691904Y-126608557D02*
X103691904Y-125708557D01*
X103691904Y-125708557D02*
X103596666Y-125837128D01*
X103596666Y-125837128D02*
X103501428Y-125922842D01*
X103501428Y-125922842D02*
X103406190Y-125965700D01*
X104834761Y-126008557D02*
X104834761Y-126608557D01*
X104406190Y-126008557D02*
X104406190Y-126479985D01*
X104406190Y-126479985D02*
X104453809Y-126565700D01*
X104453809Y-126565700D02*
X104549047Y-126608557D01*
X104549047Y-126608557D02*
X104691904Y-126608557D01*
X104691904Y-126608557D02*
X104787142Y-126565700D01*
X104787142Y-126565700D02*
X104834761Y-126522842D01*
X90708557Y-93951785D02*
X90708557Y-93856547D01*
X90708557Y-93856547D02*
X90751414Y-93761309D01*
X90751414Y-93761309D02*
X90794271Y-93713690D01*
X90794271Y-93713690D02*
X90879985Y-93666071D01*
X90879985Y-93666071D02*
X91051414Y-93618452D01*
X91051414Y-93618452D02*
X91265700Y-93618452D01*
X91265700Y-93618452D02*
X91437128Y-93666071D01*
X91437128Y-93666071D02*
X91522842Y-93713690D01*
X91522842Y-93713690D02*
X91565700Y-93761309D01*
X91565700Y-93761309D02*
X91608557Y-93856547D01*
X91608557Y-93856547D02*
X91608557Y-93951785D01*
X91608557Y-93951785D02*
X91565700Y-94047023D01*
X91565700Y-94047023D02*
X91522842Y-94094642D01*
X91522842Y-94094642D02*
X91437128Y-94142261D01*
X91437128Y-94142261D02*
X91265700Y-94189880D01*
X91265700Y-94189880D02*
X91051414Y-94189880D01*
X91051414Y-94189880D02*
X90879985Y-94142261D01*
X90879985Y-94142261D02*
X90794271Y-94094642D01*
X90794271Y-94094642D02*
X90751414Y-94047023D01*
X90751414Y-94047023D02*
X90708557Y-93951785D01*
X91522842Y-93189880D02*
X91565700Y-93142261D01*
X91565700Y-93142261D02*
X91608557Y-93189880D01*
X91608557Y-93189880D02*
X91565700Y-93237499D01*
X91565700Y-93237499D02*
X91522842Y-93189880D01*
X91522842Y-93189880D02*
X91608557Y-93189880D01*
X91608557Y-92189881D02*
X91608557Y-92761309D01*
X91608557Y-92475595D02*
X90708557Y-92475595D01*
X90708557Y-92475595D02*
X90837128Y-92570833D01*
X90837128Y-92570833D02*
X90922842Y-92666071D01*
X90922842Y-92666071D02*
X90965700Y-92761309D01*
X91008557Y-91332738D02*
X91608557Y-91332738D01*
X91008557Y-91761309D02*
X91479985Y-91761309D01*
X91479985Y-91761309D02*
X91565700Y-91713690D01*
X91565700Y-91713690D02*
X91608557Y-91618452D01*
X91608557Y-91618452D02*
X91608557Y-91475595D01*
X91608557Y-91475595D02*
X91565700Y-91380357D01*
X91565700Y-91380357D02*
X91522842Y-91332738D01*
X107948557Y-129414285D02*
X107948557Y-129319047D01*
X107948557Y-129319047D02*
X107991414Y-129223809D01*
X107991414Y-129223809D02*
X108034271Y-129176190D01*
X108034271Y-129176190D02*
X108119985Y-129128571D01*
X108119985Y-129128571D02*
X108291414Y-129080952D01*
X108291414Y-129080952D02*
X108505700Y-129080952D01*
X108505700Y-129080952D02*
X108677128Y-129128571D01*
X108677128Y-129128571D02*
X108762842Y-129176190D01*
X108762842Y-129176190D02*
X108805700Y-129223809D01*
X108805700Y-129223809D02*
X108848557Y-129319047D01*
X108848557Y-129319047D02*
X108848557Y-129414285D01*
X108848557Y-129414285D02*
X108805700Y-129509523D01*
X108805700Y-129509523D02*
X108762842Y-129557142D01*
X108762842Y-129557142D02*
X108677128Y-129604761D01*
X108677128Y-129604761D02*
X108505700Y-129652380D01*
X108505700Y-129652380D02*
X108291414Y-129652380D01*
X108291414Y-129652380D02*
X108119985Y-129604761D01*
X108119985Y-129604761D02*
X108034271Y-129557142D01*
X108034271Y-129557142D02*
X107991414Y-129509523D01*
X107991414Y-129509523D02*
X107948557Y-129414285D01*
X108762842Y-128652380D02*
X108805700Y-128604761D01*
X108805700Y-128604761D02*
X108848557Y-128652380D01*
X108848557Y-128652380D02*
X108805700Y-128699999D01*
X108805700Y-128699999D02*
X108762842Y-128652380D01*
X108762842Y-128652380D02*
X108848557Y-128652380D01*
X108848557Y-127652381D02*
X108848557Y-128223809D01*
X108848557Y-127938095D02*
X107948557Y-127938095D01*
X107948557Y-127938095D02*
X108077128Y-128033333D01*
X108077128Y-128033333D02*
X108162842Y-128128571D01*
X108162842Y-128128571D02*
X108205700Y-128223809D01*
X108248557Y-126795238D02*
X108848557Y-126795238D01*
X108248557Y-127223809D02*
X108719985Y-127223809D01*
X108719985Y-127223809D02*
X108805700Y-127176190D01*
X108805700Y-127176190D02*
X108848557Y-127080952D01*
X108848557Y-127080952D02*
X108848557Y-126938095D01*
X108848557Y-126938095D02*
X108805700Y-126842857D01*
X108805700Y-126842857D02*
X108762842Y-126795238D01*
X95881614Y-124708557D02*
X95976852Y-124708557D01*
X95976852Y-124708557D02*
X96072090Y-124751414D01*
X96072090Y-124751414D02*
X96119709Y-124794271D01*
X96119709Y-124794271D02*
X96167328Y-124879985D01*
X96167328Y-124879985D02*
X96214947Y-125051414D01*
X96214947Y-125051414D02*
X96214947Y-125265700D01*
X96214947Y-125265700D02*
X96167328Y-125437128D01*
X96167328Y-125437128D02*
X96119709Y-125522842D01*
X96119709Y-125522842D02*
X96072090Y-125565700D01*
X96072090Y-125565700D02*
X95976852Y-125608557D01*
X95976852Y-125608557D02*
X95881614Y-125608557D01*
X95881614Y-125608557D02*
X95786376Y-125565700D01*
X95786376Y-125565700D02*
X95738757Y-125522842D01*
X95738757Y-125522842D02*
X95691138Y-125437128D01*
X95691138Y-125437128D02*
X95643519Y-125265700D01*
X95643519Y-125265700D02*
X95643519Y-125051414D01*
X95643519Y-125051414D02*
X95691138Y-124879985D01*
X95691138Y-124879985D02*
X95738757Y-124794271D01*
X95738757Y-124794271D02*
X95786376Y-124751414D01*
X95786376Y-124751414D02*
X95881614Y-124708557D01*
X96643519Y-125522842D02*
X96691138Y-125565700D01*
X96691138Y-125565700D02*
X96643519Y-125608557D01*
X96643519Y-125608557D02*
X96595900Y-125565700D01*
X96595900Y-125565700D02*
X96643519Y-125522842D01*
X96643519Y-125522842D02*
X96643519Y-125608557D01*
X97643518Y-125608557D02*
X97072090Y-125608557D01*
X97357804Y-125608557D02*
X97357804Y-124708557D01*
X97357804Y-124708557D02*
X97262566Y-124837128D01*
X97262566Y-124837128D02*
X97167328Y-124922842D01*
X97167328Y-124922842D02*
X97072090Y-124965700D01*
X98500661Y-125008557D02*
X98500661Y-125608557D01*
X98072090Y-125008557D02*
X98072090Y-125479985D01*
X98072090Y-125479985D02*
X98119709Y-125565700D01*
X98119709Y-125565700D02*
X98214947Y-125608557D01*
X98214947Y-125608557D02*
X98357804Y-125608557D01*
X98357804Y-125608557D02*
X98453042Y-125565700D01*
X98453042Y-125565700D02*
X98500661Y-125522842D01*
X97508557Y-149014285D02*
X97508557Y-148919047D01*
X97508557Y-148919047D02*
X97551414Y-148823809D01*
X97551414Y-148823809D02*
X97594271Y-148776190D01*
X97594271Y-148776190D02*
X97679985Y-148728571D01*
X97679985Y-148728571D02*
X97851414Y-148680952D01*
X97851414Y-148680952D02*
X98065700Y-148680952D01*
X98065700Y-148680952D02*
X98237128Y-148728571D01*
X98237128Y-148728571D02*
X98322842Y-148776190D01*
X98322842Y-148776190D02*
X98365700Y-148823809D01*
X98365700Y-148823809D02*
X98408557Y-148919047D01*
X98408557Y-148919047D02*
X98408557Y-149014285D01*
X98408557Y-149014285D02*
X98365700Y-149109523D01*
X98365700Y-149109523D02*
X98322842Y-149157142D01*
X98322842Y-149157142D02*
X98237128Y-149204761D01*
X98237128Y-149204761D02*
X98065700Y-149252380D01*
X98065700Y-149252380D02*
X97851414Y-149252380D01*
X97851414Y-149252380D02*
X97679985Y-149204761D01*
X97679985Y-149204761D02*
X97594271Y-149157142D01*
X97594271Y-149157142D02*
X97551414Y-149109523D01*
X97551414Y-149109523D02*
X97508557Y-149014285D01*
X98322842Y-148252380D02*
X98365700Y-148204761D01*
X98365700Y-148204761D02*
X98408557Y-148252380D01*
X98408557Y-148252380D02*
X98365700Y-148299999D01*
X98365700Y-148299999D02*
X98322842Y-148252380D01*
X98322842Y-148252380D02*
X98408557Y-148252380D01*
X98408557Y-147252381D02*
X98408557Y-147823809D01*
X98408557Y-147538095D02*
X97508557Y-147538095D01*
X97508557Y-147538095D02*
X97637128Y-147633333D01*
X97637128Y-147633333D02*
X97722842Y-147728571D01*
X97722842Y-147728571D02*
X97765700Y-147823809D01*
X97808557Y-146395238D02*
X98408557Y-146395238D01*
X97808557Y-146823809D02*
X98279985Y-146823809D01*
X98279985Y-146823809D02*
X98365700Y-146776190D01*
X98365700Y-146776190D02*
X98408557Y-146680952D01*
X98408557Y-146680952D02*
X98408557Y-146538095D01*
X98408557Y-146538095D02*
X98365700Y-146442857D01*
X98365700Y-146442857D02*
X98322842Y-146395238D01*
X94335714Y-104308557D02*
X94430952Y-104308557D01*
X94430952Y-104308557D02*
X94526190Y-104351414D01*
X94526190Y-104351414D02*
X94573809Y-104394271D01*
X94573809Y-104394271D02*
X94621428Y-104479985D01*
X94621428Y-104479985D02*
X94669047Y-104651414D01*
X94669047Y-104651414D02*
X94669047Y-104865700D01*
X94669047Y-104865700D02*
X94621428Y-105037128D01*
X94621428Y-105037128D02*
X94573809Y-105122842D01*
X94573809Y-105122842D02*
X94526190Y-105165700D01*
X94526190Y-105165700D02*
X94430952Y-105208557D01*
X94430952Y-105208557D02*
X94335714Y-105208557D01*
X94335714Y-105208557D02*
X94240476Y-105165700D01*
X94240476Y-105165700D02*
X94192857Y-105122842D01*
X94192857Y-105122842D02*
X94145238Y-105037128D01*
X94145238Y-105037128D02*
X94097619Y-104865700D01*
X94097619Y-104865700D02*
X94097619Y-104651414D01*
X94097619Y-104651414D02*
X94145238Y-104479985D01*
X94145238Y-104479985D02*
X94192857Y-104394271D01*
X94192857Y-104394271D02*
X94240476Y-104351414D01*
X94240476Y-104351414D02*
X94335714Y-104308557D01*
X95097619Y-105122842D02*
X95145238Y-105165700D01*
X95145238Y-105165700D02*
X95097619Y-105208557D01*
X95097619Y-105208557D02*
X95050000Y-105165700D01*
X95050000Y-105165700D02*
X95097619Y-105122842D01*
X95097619Y-105122842D02*
X95097619Y-105208557D01*
X96097618Y-105208557D02*
X95526190Y-105208557D01*
X95811904Y-105208557D02*
X95811904Y-104308557D01*
X95811904Y-104308557D02*
X95716666Y-104437128D01*
X95716666Y-104437128D02*
X95621428Y-104522842D01*
X95621428Y-104522842D02*
X95526190Y-104565700D01*
X96954761Y-104608557D02*
X96954761Y-105208557D01*
X96526190Y-104608557D02*
X96526190Y-105079985D01*
X96526190Y-105079985D02*
X96573809Y-105165700D01*
X96573809Y-105165700D02*
X96669047Y-105208557D01*
X96669047Y-105208557D02*
X96811904Y-105208557D01*
X96811904Y-105208557D02*
X96907142Y-105165700D01*
X96907142Y-105165700D02*
X96954761Y-105122842D01*
X111908557Y-157129285D02*
X111908557Y-157034047D01*
X111908557Y-157034047D02*
X111951414Y-156938809D01*
X111951414Y-156938809D02*
X111994271Y-156891190D01*
X111994271Y-156891190D02*
X112079985Y-156843571D01*
X112079985Y-156843571D02*
X112251414Y-156795952D01*
X112251414Y-156795952D02*
X112465700Y-156795952D01*
X112465700Y-156795952D02*
X112637128Y-156843571D01*
X112637128Y-156843571D02*
X112722842Y-156891190D01*
X112722842Y-156891190D02*
X112765700Y-156938809D01*
X112765700Y-156938809D02*
X112808557Y-157034047D01*
X112808557Y-157034047D02*
X112808557Y-157129285D01*
X112808557Y-157129285D02*
X112765700Y-157224523D01*
X112765700Y-157224523D02*
X112722842Y-157272142D01*
X112722842Y-157272142D02*
X112637128Y-157319761D01*
X112637128Y-157319761D02*
X112465700Y-157367380D01*
X112465700Y-157367380D02*
X112251414Y-157367380D01*
X112251414Y-157367380D02*
X112079985Y-157319761D01*
X112079985Y-157319761D02*
X111994271Y-157272142D01*
X111994271Y-157272142D02*
X111951414Y-157224523D01*
X111951414Y-157224523D02*
X111908557Y-157129285D01*
X112722842Y-156367380D02*
X112765700Y-156319761D01*
X112765700Y-156319761D02*
X112808557Y-156367380D01*
X112808557Y-156367380D02*
X112765700Y-156414999D01*
X112765700Y-156414999D02*
X112722842Y-156367380D01*
X112722842Y-156367380D02*
X112808557Y-156367380D01*
X112808557Y-155367381D02*
X112808557Y-155938809D01*
X112808557Y-155653095D02*
X111908557Y-155653095D01*
X111908557Y-155653095D02*
X112037128Y-155748333D01*
X112037128Y-155748333D02*
X112122842Y-155843571D01*
X112122842Y-155843571D02*
X112165700Y-155938809D01*
X112208557Y-154510238D02*
X112808557Y-154510238D01*
X112208557Y-154938809D02*
X112679985Y-154938809D01*
X112679985Y-154938809D02*
X112765700Y-154891190D01*
X112765700Y-154891190D02*
X112808557Y-154795952D01*
X112808557Y-154795952D02*
X112808557Y-154653095D01*
X112808557Y-154653095D02*
X112765700Y-154557857D01*
X112765700Y-154557857D02*
X112722842Y-154510238D01*
X123668557Y-74234285D02*
X123668557Y-74139047D01*
X123668557Y-74139047D02*
X123711414Y-74043809D01*
X123711414Y-74043809D02*
X123754271Y-73996190D01*
X123754271Y-73996190D02*
X123839985Y-73948571D01*
X123839985Y-73948571D02*
X124011414Y-73900952D01*
X124011414Y-73900952D02*
X124225700Y-73900952D01*
X124225700Y-73900952D02*
X124397128Y-73948571D01*
X124397128Y-73948571D02*
X124482842Y-73996190D01*
X124482842Y-73996190D02*
X124525700Y-74043809D01*
X124525700Y-74043809D02*
X124568557Y-74139047D01*
X124568557Y-74139047D02*
X124568557Y-74234285D01*
X124568557Y-74234285D02*
X124525700Y-74329523D01*
X124525700Y-74329523D02*
X124482842Y-74377142D01*
X124482842Y-74377142D02*
X124397128Y-74424761D01*
X124397128Y-74424761D02*
X124225700Y-74472380D01*
X124225700Y-74472380D02*
X124011414Y-74472380D01*
X124011414Y-74472380D02*
X123839985Y-74424761D01*
X123839985Y-74424761D02*
X123754271Y-74377142D01*
X123754271Y-74377142D02*
X123711414Y-74329523D01*
X123711414Y-74329523D02*
X123668557Y-74234285D01*
X124482842Y-73472380D02*
X124525700Y-73424761D01*
X124525700Y-73424761D02*
X124568557Y-73472380D01*
X124568557Y-73472380D02*
X124525700Y-73519999D01*
X124525700Y-73519999D02*
X124482842Y-73472380D01*
X124482842Y-73472380D02*
X124568557Y-73472380D01*
X124568557Y-72472381D02*
X124568557Y-73043809D01*
X124568557Y-72758095D02*
X123668557Y-72758095D01*
X123668557Y-72758095D02*
X123797128Y-72853333D01*
X123797128Y-72853333D02*
X123882842Y-72948571D01*
X123882842Y-72948571D02*
X123925700Y-73043809D01*
X123968557Y-71615238D02*
X124568557Y-71615238D01*
X123968557Y-72043809D02*
X124439985Y-72043809D01*
X124439985Y-72043809D02*
X124525700Y-71996190D01*
X124525700Y-71996190D02*
X124568557Y-71900952D01*
X124568557Y-71900952D02*
X124568557Y-71758095D01*
X124568557Y-71758095D02*
X124525700Y-71662857D01*
X124525700Y-71662857D02*
X124482842Y-71615238D01*
X98062381Y-92508557D02*
X98157619Y-92508557D01*
X98157619Y-92508557D02*
X98252857Y-92551414D01*
X98252857Y-92551414D02*
X98300476Y-92594271D01*
X98300476Y-92594271D02*
X98348095Y-92679985D01*
X98348095Y-92679985D02*
X98395714Y-92851414D01*
X98395714Y-92851414D02*
X98395714Y-93065700D01*
X98395714Y-93065700D02*
X98348095Y-93237128D01*
X98348095Y-93237128D02*
X98300476Y-93322842D01*
X98300476Y-93322842D02*
X98252857Y-93365700D01*
X98252857Y-93365700D02*
X98157619Y-93408557D01*
X98157619Y-93408557D02*
X98062381Y-93408557D01*
X98062381Y-93408557D02*
X97967143Y-93365700D01*
X97967143Y-93365700D02*
X97919524Y-93322842D01*
X97919524Y-93322842D02*
X97871905Y-93237128D01*
X97871905Y-93237128D02*
X97824286Y-93065700D01*
X97824286Y-93065700D02*
X97824286Y-92851414D01*
X97824286Y-92851414D02*
X97871905Y-92679985D01*
X97871905Y-92679985D02*
X97919524Y-92594271D01*
X97919524Y-92594271D02*
X97967143Y-92551414D01*
X97967143Y-92551414D02*
X98062381Y-92508557D01*
X108168557Y-155925237D02*
X108168557Y-155258571D01*
X108168557Y-155258571D02*
X109068557Y-155687142D01*
X108468557Y-154449047D02*
X109068557Y-154449047D01*
X108125700Y-154687142D02*
X108768557Y-154925237D01*
X108768557Y-154925237D02*
X108768557Y-154306190D01*
X109068557Y-153449047D02*
X109068557Y-153925237D01*
X109068557Y-153925237D02*
X108168557Y-153925237D01*
X108168557Y-153258570D02*
X109068557Y-152925237D01*
X109068557Y-152925237D02*
X108168557Y-152591904D01*
X108982842Y-151687142D02*
X109025700Y-151734761D01*
X109025700Y-151734761D02*
X109068557Y-151877618D01*
X109068557Y-151877618D02*
X109068557Y-151972856D01*
X109068557Y-151972856D02*
X109025700Y-152115713D01*
X109025700Y-152115713D02*
X108939985Y-152210951D01*
X108939985Y-152210951D02*
X108854271Y-152258570D01*
X108854271Y-152258570D02*
X108682842Y-152306189D01*
X108682842Y-152306189D02*
X108554271Y-152306189D01*
X108554271Y-152306189D02*
X108382842Y-152258570D01*
X108382842Y-152258570D02*
X108297128Y-152210951D01*
X108297128Y-152210951D02*
X108211414Y-152115713D01*
X108211414Y-152115713D02*
X108168557Y-151972856D01*
X108168557Y-151972856D02*
X108168557Y-151877618D01*
X108168557Y-151877618D02*
X108211414Y-151734761D01*
X108211414Y-151734761D02*
X108254271Y-151687142D01*
X109068557Y-150734761D02*
X109068557Y-151306189D01*
X109068557Y-151020475D02*
X108168557Y-151020475D01*
X108168557Y-151020475D02*
X108297128Y-151115713D01*
X108297128Y-151115713D02*
X108382842Y-151210951D01*
X108382842Y-151210951D02*
X108425700Y-151306189D01*
X108211414Y-149782380D02*
X108168557Y-149877618D01*
X108168557Y-149877618D02*
X108168557Y-150020475D01*
X108168557Y-150020475D02*
X108211414Y-150163332D01*
X108211414Y-150163332D02*
X108297128Y-150258570D01*
X108297128Y-150258570D02*
X108382842Y-150306189D01*
X108382842Y-150306189D02*
X108554271Y-150353808D01*
X108554271Y-150353808D02*
X108682842Y-150353808D01*
X108682842Y-150353808D02*
X108854271Y-150306189D01*
X108854271Y-150306189D02*
X108939985Y-150258570D01*
X108939985Y-150258570D02*
X109025700Y-150163332D01*
X109025700Y-150163332D02*
X109068557Y-150020475D01*
X109068557Y-150020475D02*
X109068557Y-149925237D01*
X109068557Y-149925237D02*
X109025700Y-149782380D01*
X109025700Y-149782380D02*
X108982842Y-149734761D01*
X108982842Y-149734761D02*
X108682842Y-149734761D01*
X108682842Y-149734761D02*
X108682842Y-149925237D01*
X108168557Y-149306189D02*
X108897128Y-149306189D01*
X108897128Y-149306189D02*
X108982842Y-149258570D01*
X108982842Y-149258570D02*
X109025700Y-149210951D01*
X109025700Y-149210951D02*
X109068557Y-149115713D01*
X109068557Y-149115713D02*
X109068557Y-148925237D01*
X109068557Y-148925237D02*
X109025700Y-148829999D01*
X109025700Y-148829999D02*
X108982842Y-148782380D01*
X108982842Y-148782380D02*
X108897128Y-148734761D01*
X108897128Y-148734761D02*
X108168557Y-148734761D01*
X108168557Y-148068094D02*
X108168557Y-147972856D01*
X108168557Y-147972856D02*
X108211414Y-147877618D01*
X108211414Y-147877618D02*
X108254271Y-147829999D01*
X108254271Y-147829999D02*
X108339985Y-147782380D01*
X108339985Y-147782380D02*
X108511414Y-147734761D01*
X108511414Y-147734761D02*
X108725700Y-147734761D01*
X108725700Y-147734761D02*
X108897128Y-147782380D01*
X108897128Y-147782380D02*
X108982842Y-147829999D01*
X108982842Y-147829999D02*
X109025700Y-147877618D01*
X109025700Y-147877618D02*
X109068557Y-147972856D01*
X109068557Y-147972856D02*
X109068557Y-148068094D01*
X109068557Y-148068094D02*
X109025700Y-148163332D01*
X109025700Y-148163332D02*
X108982842Y-148210951D01*
X108982842Y-148210951D02*
X108897128Y-148258570D01*
X108897128Y-148258570D02*
X108725700Y-148306189D01*
X108725700Y-148306189D02*
X108511414Y-148306189D01*
X108511414Y-148306189D02*
X108339985Y-148258570D01*
X108339985Y-148258570D02*
X108254271Y-148210951D01*
X108254271Y-148210951D02*
X108211414Y-148163332D01*
X108211414Y-148163332D02*
X108168557Y-148068094D01*
X108468557Y-146877618D02*
X109068557Y-146877618D01*
X108125700Y-147115713D02*
X108768557Y-147353808D01*
X108768557Y-147353808D02*
X108768557Y-146734761D01*
X113404761Y-138922842D02*
X113357142Y-138965700D01*
X113357142Y-138965700D02*
X113214285Y-139008557D01*
X113214285Y-139008557D02*
X113119047Y-139008557D01*
X113119047Y-139008557D02*
X112976190Y-138965700D01*
X112976190Y-138965700D02*
X112880952Y-138879985D01*
X112880952Y-138879985D02*
X112833333Y-138794271D01*
X112833333Y-138794271D02*
X112785714Y-138622842D01*
X112785714Y-138622842D02*
X112785714Y-138494271D01*
X112785714Y-138494271D02*
X112833333Y-138322842D01*
X112833333Y-138322842D02*
X112880952Y-138237128D01*
X112880952Y-138237128D02*
X112976190Y-138151414D01*
X112976190Y-138151414D02*
X113119047Y-138108557D01*
X113119047Y-138108557D02*
X113214285Y-138108557D01*
X113214285Y-138108557D02*
X113357142Y-138151414D01*
X113357142Y-138151414D02*
X113404761Y-138194271D01*
X113833333Y-139008557D02*
X113833333Y-138108557D01*
X113833333Y-138108557D02*
X114071428Y-138108557D01*
X114071428Y-138108557D02*
X114214285Y-138151414D01*
X114214285Y-138151414D02*
X114309523Y-138237128D01*
X114309523Y-138237128D02*
X114357142Y-138322842D01*
X114357142Y-138322842D02*
X114404761Y-138494271D01*
X114404761Y-138494271D02*
X114404761Y-138622842D01*
X114404761Y-138622842D02*
X114357142Y-138794271D01*
X114357142Y-138794271D02*
X114309523Y-138879985D01*
X114309523Y-138879985D02*
X114214285Y-138965700D01*
X114214285Y-138965700D02*
X114071428Y-139008557D01*
X114071428Y-139008557D02*
X113833333Y-139008557D01*
X114738095Y-138108557D02*
X115404761Y-138108557D01*
X115404761Y-138108557D02*
X114976190Y-139008557D01*
X116214285Y-138408557D02*
X116214285Y-139008557D01*
X115976190Y-138065700D02*
X115738095Y-138708557D01*
X115738095Y-138708557D02*
X116357142Y-138708557D01*
X116738095Y-139008557D02*
X116738095Y-138108557D01*
X116738095Y-138537128D02*
X117309523Y-138537128D01*
X117309523Y-139008557D02*
X117309523Y-138108557D01*
X118357142Y-138922842D02*
X118309523Y-138965700D01*
X118309523Y-138965700D02*
X118166666Y-139008557D01*
X118166666Y-139008557D02*
X118071428Y-139008557D01*
X118071428Y-139008557D02*
X117928571Y-138965700D01*
X117928571Y-138965700D02*
X117833333Y-138879985D01*
X117833333Y-138879985D02*
X117785714Y-138794271D01*
X117785714Y-138794271D02*
X117738095Y-138622842D01*
X117738095Y-138622842D02*
X117738095Y-138494271D01*
X117738095Y-138494271D02*
X117785714Y-138322842D01*
X117785714Y-138322842D02*
X117833333Y-138237128D01*
X117833333Y-138237128D02*
X117928571Y-138151414D01*
X117928571Y-138151414D02*
X118071428Y-138108557D01*
X118071428Y-138108557D02*
X118166666Y-138108557D01*
X118166666Y-138108557D02*
X118309523Y-138151414D01*
X118309523Y-138151414D02*
X118357142Y-138194271D01*
X119214285Y-138408557D02*
X119214285Y-139008557D01*
X118976190Y-138065700D02*
X118738095Y-138708557D01*
X118738095Y-138708557D02*
X119357142Y-138708557D01*
X120214285Y-138108557D02*
X119738095Y-138108557D01*
X119738095Y-138108557D02*
X119690476Y-138537128D01*
X119690476Y-138537128D02*
X119738095Y-138494271D01*
X119738095Y-138494271D02*
X119833333Y-138451414D01*
X119833333Y-138451414D02*
X120071428Y-138451414D01*
X120071428Y-138451414D02*
X120166666Y-138494271D01*
X120166666Y-138494271D02*
X120214285Y-138537128D01*
X120214285Y-138537128D02*
X120261904Y-138622842D01*
X120261904Y-138622842D02*
X120261904Y-138837128D01*
X120261904Y-138837128D02*
X120214285Y-138922842D01*
X120214285Y-138922842D02*
X120166666Y-138965700D01*
X120166666Y-138965700D02*
X120071428Y-139008557D01*
X120071428Y-139008557D02*
X119833333Y-139008557D01*
X119833333Y-139008557D02*
X119738095Y-138965700D01*
X119738095Y-138965700D02*
X119690476Y-138922842D01*
X121214285Y-139008557D02*
X120642857Y-139008557D01*
X120928571Y-139008557D02*
X120928571Y-138108557D01*
X120928571Y-138108557D02*
X120833333Y-138237128D01*
X120833333Y-138237128D02*
X120738095Y-138322842D01*
X120738095Y-138322842D02*
X120642857Y-138365700D01*
X122071428Y-138408557D02*
X122071428Y-139008557D01*
X121833333Y-138065700D02*
X121595238Y-138708557D01*
X121595238Y-138708557D02*
X122214285Y-138708557D01*
X122595238Y-139008557D02*
X122595238Y-138108557D01*
X122595238Y-138108557D02*
X122928571Y-138751414D01*
X122928571Y-138751414D02*
X123261904Y-138108557D01*
X123261904Y-138108557D02*
X123261904Y-139008557D01*
X123785714Y-139008557D02*
X123976190Y-139008557D01*
X123976190Y-139008557D02*
X124071428Y-138965700D01*
X124071428Y-138965700D02*
X124119047Y-138922842D01*
X124119047Y-138922842D02*
X124214285Y-138794271D01*
X124214285Y-138794271D02*
X124261904Y-138622842D01*
X124261904Y-138622842D02*
X124261904Y-138279985D01*
X124261904Y-138279985D02*
X124214285Y-138194271D01*
X124214285Y-138194271D02*
X124166666Y-138151414D01*
X124166666Y-138151414D02*
X124071428Y-138108557D01*
X124071428Y-138108557D02*
X123880952Y-138108557D01*
X123880952Y-138108557D02*
X123785714Y-138151414D01*
X123785714Y-138151414D02*
X123738095Y-138194271D01*
X123738095Y-138194271D02*
X123690476Y-138279985D01*
X123690476Y-138279985D02*
X123690476Y-138494271D01*
X123690476Y-138494271D02*
X123738095Y-138579985D01*
X123738095Y-138579985D02*
X123785714Y-138622842D01*
X123785714Y-138622842D02*
X123880952Y-138665700D01*
X123880952Y-138665700D02*
X124071428Y-138665700D01*
X124071428Y-138665700D02*
X124166666Y-138622842D01*
X124166666Y-138622842D02*
X124214285Y-138579985D01*
X124214285Y-138579985D02*
X124261904Y-138494271D01*
X125119047Y-138108557D02*
X124928571Y-138108557D01*
X124928571Y-138108557D02*
X124833333Y-138151414D01*
X124833333Y-138151414D02*
X124785714Y-138194271D01*
X124785714Y-138194271D02*
X124690476Y-138322842D01*
X124690476Y-138322842D02*
X124642857Y-138494271D01*
X124642857Y-138494271D02*
X124642857Y-138837128D01*
X124642857Y-138837128D02*
X124690476Y-138922842D01*
X124690476Y-138922842D02*
X124738095Y-138965700D01*
X124738095Y-138965700D02*
X124833333Y-139008557D01*
X124833333Y-139008557D02*
X125023809Y-139008557D01*
X125023809Y-139008557D02*
X125119047Y-138965700D01*
X125119047Y-138965700D02*
X125166666Y-138922842D01*
X125166666Y-138922842D02*
X125214285Y-138837128D01*
X125214285Y-138837128D02*
X125214285Y-138622842D01*
X125214285Y-138622842D02*
X125166666Y-138537128D01*
X125166666Y-138537128D02*
X125119047Y-138494271D01*
X125119047Y-138494271D02*
X125023809Y-138451414D01*
X125023809Y-138451414D02*
X124833333Y-138451414D01*
X124833333Y-138451414D02*
X124738095Y-138494271D01*
X124738095Y-138494271D02*
X124690476Y-138537128D01*
X124690476Y-138537128D02*
X124642857Y-138622842D01*
X111908557Y-148814285D02*
X111908557Y-148719047D01*
X111908557Y-148719047D02*
X111951414Y-148623809D01*
X111951414Y-148623809D02*
X111994271Y-148576190D01*
X111994271Y-148576190D02*
X112079985Y-148528571D01*
X112079985Y-148528571D02*
X112251414Y-148480952D01*
X112251414Y-148480952D02*
X112465700Y-148480952D01*
X112465700Y-148480952D02*
X112637128Y-148528571D01*
X112637128Y-148528571D02*
X112722842Y-148576190D01*
X112722842Y-148576190D02*
X112765700Y-148623809D01*
X112765700Y-148623809D02*
X112808557Y-148719047D01*
X112808557Y-148719047D02*
X112808557Y-148814285D01*
X112808557Y-148814285D02*
X112765700Y-148909523D01*
X112765700Y-148909523D02*
X112722842Y-148957142D01*
X112722842Y-148957142D02*
X112637128Y-149004761D01*
X112637128Y-149004761D02*
X112465700Y-149052380D01*
X112465700Y-149052380D02*
X112251414Y-149052380D01*
X112251414Y-149052380D02*
X112079985Y-149004761D01*
X112079985Y-149004761D02*
X111994271Y-148957142D01*
X111994271Y-148957142D02*
X111951414Y-148909523D01*
X111951414Y-148909523D02*
X111908557Y-148814285D01*
X112722842Y-148052380D02*
X112765700Y-148004761D01*
X112765700Y-148004761D02*
X112808557Y-148052380D01*
X112808557Y-148052380D02*
X112765700Y-148099999D01*
X112765700Y-148099999D02*
X112722842Y-148052380D01*
X112722842Y-148052380D02*
X112808557Y-148052380D01*
X112808557Y-147052381D02*
X112808557Y-147623809D01*
X112808557Y-147338095D02*
X111908557Y-147338095D01*
X111908557Y-147338095D02*
X112037128Y-147433333D01*
X112037128Y-147433333D02*
X112122842Y-147528571D01*
X112122842Y-147528571D02*
X112165700Y-147623809D01*
X112208557Y-146195238D02*
X112808557Y-146195238D01*
X112208557Y-146623809D02*
X112679985Y-146623809D01*
X112679985Y-146623809D02*
X112765700Y-146576190D01*
X112765700Y-146576190D02*
X112808557Y-146480952D01*
X112808557Y-146480952D02*
X112808557Y-146338095D01*
X112808557Y-146338095D02*
X112765700Y-146242857D01*
X112765700Y-146242857D02*
X112722842Y-146195238D01*
X94152381Y-113108557D02*
X94247619Y-113108557D01*
X94247619Y-113108557D02*
X94342857Y-113151414D01*
X94342857Y-113151414D02*
X94390476Y-113194271D01*
X94390476Y-113194271D02*
X94438095Y-113279985D01*
X94438095Y-113279985D02*
X94485714Y-113451414D01*
X94485714Y-113451414D02*
X94485714Y-113665700D01*
X94485714Y-113665700D02*
X94438095Y-113837128D01*
X94438095Y-113837128D02*
X94390476Y-113922842D01*
X94390476Y-113922842D02*
X94342857Y-113965700D01*
X94342857Y-113965700D02*
X94247619Y-114008557D01*
X94247619Y-114008557D02*
X94152381Y-114008557D01*
X94152381Y-114008557D02*
X94057143Y-113965700D01*
X94057143Y-113965700D02*
X94009524Y-113922842D01*
X94009524Y-113922842D02*
X93961905Y-113837128D01*
X93961905Y-113837128D02*
X93914286Y-113665700D01*
X93914286Y-113665700D02*
X93914286Y-113451414D01*
X93914286Y-113451414D02*
X93961905Y-113279985D01*
X93961905Y-113279985D02*
X94009524Y-113194271D01*
X94009524Y-113194271D02*
X94057143Y-113151414D01*
X94057143Y-113151414D02*
X94152381Y-113108557D01*
X97908557Y-112014285D02*
X97908557Y-111919047D01*
X97908557Y-111919047D02*
X97951414Y-111823809D01*
X97951414Y-111823809D02*
X97994271Y-111776190D01*
X97994271Y-111776190D02*
X98079985Y-111728571D01*
X98079985Y-111728571D02*
X98251414Y-111680952D01*
X98251414Y-111680952D02*
X98465700Y-111680952D01*
X98465700Y-111680952D02*
X98637128Y-111728571D01*
X98637128Y-111728571D02*
X98722842Y-111776190D01*
X98722842Y-111776190D02*
X98765700Y-111823809D01*
X98765700Y-111823809D02*
X98808557Y-111919047D01*
X98808557Y-111919047D02*
X98808557Y-112014285D01*
X98808557Y-112014285D02*
X98765700Y-112109523D01*
X98765700Y-112109523D02*
X98722842Y-112157142D01*
X98722842Y-112157142D02*
X98637128Y-112204761D01*
X98637128Y-112204761D02*
X98465700Y-112252380D01*
X98465700Y-112252380D02*
X98251414Y-112252380D01*
X98251414Y-112252380D02*
X98079985Y-112204761D01*
X98079985Y-112204761D02*
X97994271Y-112157142D01*
X97994271Y-112157142D02*
X97951414Y-112109523D01*
X97951414Y-112109523D02*
X97908557Y-112014285D01*
X98722842Y-111252380D02*
X98765700Y-111204761D01*
X98765700Y-111204761D02*
X98808557Y-111252380D01*
X98808557Y-111252380D02*
X98765700Y-111299999D01*
X98765700Y-111299999D02*
X98722842Y-111252380D01*
X98722842Y-111252380D02*
X98808557Y-111252380D01*
X98808557Y-110252381D02*
X98808557Y-110823809D01*
X98808557Y-110538095D02*
X97908557Y-110538095D01*
X97908557Y-110538095D02*
X98037128Y-110633333D01*
X98037128Y-110633333D02*
X98122842Y-110728571D01*
X98122842Y-110728571D02*
X98165700Y-110823809D01*
X98208557Y-109395238D02*
X98808557Y-109395238D01*
X98208557Y-109823809D02*
X98679985Y-109823809D01*
X98679985Y-109823809D02*
X98765700Y-109776190D01*
X98765700Y-109776190D02*
X98808557Y-109680952D01*
X98808557Y-109680952D02*
X98808557Y-109538095D01*
X98808557Y-109538095D02*
X98765700Y-109442857D01*
X98765700Y-109442857D02*
X98722842Y-109395238D01*
X106385714Y-108108557D02*
X106480952Y-108108557D01*
X106480952Y-108108557D02*
X106576190Y-108151414D01*
X106576190Y-108151414D02*
X106623809Y-108194271D01*
X106623809Y-108194271D02*
X106671428Y-108279985D01*
X106671428Y-108279985D02*
X106719047Y-108451414D01*
X106719047Y-108451414D02*
X106719047Y-108665700D01*
X106719047Y-108665700D02*
X106671428Y-108837128D01*
X106671428Y-108837128D02*
X106623809Y-108922842D01*
X106623809Y-108922842D02*
X106576190Y-108965700D01*
X106576190Y-108965700D02*
X106480952Y-109008557D01*
X106480952Y-109008557D02*
X106385714Y-109008557D01*
X106385714Y-109008557D02*
X106290476Y-108965700D01*
X106290476Y-108965700D02*
X106242857Y-108922842D01*
X106242857Y-108922842D02*
X106195238Y-108837128D01*
X106195238Y-108837128D02*
X106147619Y-108665700D01*
X106147619Y-108665700D02*
X106147619Y-108451414D01*
X106147619Y-108451414D02*
X106195238Y-108279985D01*
X106195238Y-108279985D02*
X106242857Y-108194271D01*
X106242857Y-108194271D02*
X106290476Y-108151414D01*
X106290476Y-108151414D02*
X106385714Y-108108557D01*
X107147619Y-108922842D02*
X107195238Y-108965700D01*
X107195238Y-108965700D02*
X107147619Y-109008557D01*
X107147619Y-109008557D02*
X107100000Y-108965700D01*
X107100000Y-108965700D02*
X107147619Y-108922842D01*
X107147619Y-108922842D02*
X107147619Y-109008557D01*
X108147618Y-109008557D02*
X107576190Y-109008557D01*
X107861904Y-109008557D02*
X107861904Y-108108557D01*
X107861904Y-108108557D02*
X107766666Y-108237128D01*
X107766666Y-108237128D02*
X107671428Y-108322842D01*
X107671428Y-108322842D02*
X107576190Y-108365700D01*
X109004761Y-108408557D02*
X109004761Y-109008557D01*
X108576190Y-108408557D02*
X108576190Y-108879985D01*
X108576190Y-108879985D02*
X108623809Y-108965700D01*
X108623809Y-108965700D02*
X108719047Y-109008557D01*
X108719047Y-109008557D02*
X108861904Y-109008557D01*
X108861904Y-109008557D02*
X108957142Y-108965700D01*
X108957142Y-108965700D02*
X109004761Y-108922842D01*
X140466667Y-118583557D02*
X140466667Y-117683557D01*
X140466667Y-117683557D02*
X140800000Y-118326414D01*
X140800000Y-118326414D02*
X141133333Y-117683557D01*
X141133333Y-117683557D02*
X141133333Y-118583557D01*
X141609524Y-117683557D02*
X141609524Y-118412128D01*
X141609524Y-118412128D02*
X141657143Y-118497842D01*
X141657143Y-118497842D02*
X141704762Y-118540700D01*
X141704762Y-118540700D02*
X141800000Y-118583557D01*
X141800000Y-118583557D02*
X141990476Y-118583557D01*
X141990476Y-118583557D02*
X142085714Y-118540700D01*
X142085714Y-118540700D02*
X142133333Y-118497842D01*
X142133333Y-118497842D02*
X142180952Y-118412128D01*
X142180952Y-118412128D02*
X142180952Y-117683557D01*
X142561905Y-117683557D02*
X143228571Y-118583557D01*
X143228571Y-117683557D02*
X142561905Y-118583557D01*
X113130952Y-61958557D02*
X113130952Y-61058557D01*
X113130952Y-61487128D02*
X113702380Y-61487128D01*
X113702380Y-61958557D02*
X113702380Y-61058557D01*
X114130952Y-61915700D02*
X114273809Y-61958557D01*
X114273809Y-61958557D02*
X114511904Y-61958557D01*
X114511904Y-61958557D02*
X114607142Y-61915700D01*
X114607142Y-61915700D02*
X114654761Y-61872842D01*
X114654761Y-61872842D02*
X114702380Y-61787128D01*
X114702380Y-61787128D02*
X114702380Y-61701414D01*
X114702380Y-61701414D02*
X114654761Y-61615700D01*
X114654761Y-61615700D02*
X114607142Y-61572842D01*
X114607142Y-61572842D02*
X114511904Y-61529985D01*
X114511904Y-61529985D02*
X114321428Y-61487128D01*
X114321428Y-61487128D02*
X114226190Y-61444271D01*
X114226190Y-61444271D02*
X114178571Y-61401414D01*
X114178571Y-61401414D02*
X114130952Y-61315700D01*
X114130952Y-61315700D02*
X114130952Y-61229985D01*
X114130952Y-61229985D02*
X114178571Y-61144271D01*
X114178571Y-61144271D02*
X114226190Y-61101414D01*
X114226190Y-61101414D02*
X114321428Y-61058557D01*
X114321428Y-61058557D02*
X114559523Y-61058557D01*
X114559523Y-61058557D02*
X114702380Y-61101414D01*
X114988095Y-61058557D02*
X115559523Y-61058557D01*
X115273809Y-61958557D02*
X115273809Y-61058557D01*
X115797619Y-61058557D02*
X116464285Y-61958557D01*
X116464285Y-61058557D02*
X115797619Y-61958557D01*
X113885714Y-81668557D02*
X113980952Y-81668557D01*
X113980952Y-81668557D02*
X114076190Y-81711414D01*
X114076190Y-81711414D02*
X114123809Y-81754271D01*
X114123809Y-81754271D02*
X114171428Y-81839985D01*
X114171428Y-81839985D02*
X114219047Y-82011414D01*
X114219047Y-82011414D02*
X114219047Y-82225700D01*
X114219047Y-82225700D02*
X114171428Y-82397128D01*
X114171428Y-82397128D02*
X114123809Y-82482842D01*
X114123809Y-82482842D02*
X114076190Y-82525700D01*
X114076190Y-82525700D02*
X113980952Y-82568557D01*
X113980952Y-82568557D02*
X113885714Y-82568557D01*
X113885714Y-82568557D02*
X113790476Y-82525700D01*
X113790476Y-82525700D02*
X113742857Y-82482842D01*
X113742857Y-82482842D02*
X113695238Y-82397128D01*
X113695238Y-82397128D02*
X113647619Y-82225700D01*
X113647619Y-82225700D02*
X113647619Y-82011414D01*
X113647619Y-82011414D02*
X113695238Y-81839985D01*
X113695238Y-81839985D02*
X113742857Y-81754271D01*
X113742857Y-81754271D02*
X113790476Y-81711414D01*
X113790476Y-81711414D02*
X113885714Y-81668557D01*
X114647619Y-82482842D02*
X114695238Y-82525700D01*
X114695238Y-82525700D02*
X114647619Y-82568557D01*
X114647619Y-82568557D02*
X114600000Y-82525700D01*
X114600000Y-82525700D02*
X114647619Y-82482842D01*
X114647619Y-82482842D02*
X114647619Y-82568557D01*
X115647618Y-82568557D02*
X115076190Y-82568557D01*
X115361904Y-82568557D02*
X115361904Y-81668557D01*
X115361904Y-81668557D02*
X115266666Y-81797128D01*
X115266666Y-81797128D02*
X115171428Y-81882842D01*
X115171428Y-81882842D02*
X115076190Y-81925700D01*
X116504761Y-81968557D02*
X116504761Y-82568557D01*
X116076190Y-81968557D02*
X116076190Y-82439985D01*
X116076190Y-82439985D02*
X116123809Y-82525700D01*
X116123809Y-82525700D02*
X116219047Y-82568557D01*
X116219047Y-82568557D02*
X116361904Y-82568557D01*
X116361904Y-82568557D02*
X116457142Y-82525700D01*
X116457142Y-82525700D02*
X116504761Y-82482842D01*
X103266442Y-76044523D02*
X103266442Y-75568333D01*
X103266442Y-75568333D02*
X102837871Y-75520714D01*
X102837871Y-75520714D02*
X102880728Y-75568333D01*
X102880728Y-75568333D02*
X102923585Y-75663571D01*
X102923585Y-75663571D02*
X102923585Y-75901666D01*
X102923585Y-75901666D02*
X102880728Y-75996904D01*
X102880728Y-75996904D02*
X102837871Y-76044523D01*
X102837871Y-76044523D02*
X102752157Y-76092142D01*
X102752157Y-76092142D02*
X102537871Y-76092142D01*
X102537871Y-76092142D02*
X102452157Y-76044523D01*
X102452157Y-76044523D02*
X102409300Y-75996904D01*
X102409300Y-75996904D02*
X102366442Y-75901666D01*
X102366442Y-75901666D02*
X102366442Y-75663571D01*
X102366442Y-75663571D02*
X102409300Y-75568333D01*
X102409300Y-75568333D02*
X102452157Y-75520714D01*
X103266442Y-76425476D02*
X103266442Y-77044523D01*
X103266442Y-77044523D02*
X102923585Y-76711190D01*
X102923585Y-76711190D02*
X102923585Y-76854047D01*
X102923585Y-76854047D02*
X102880728Y-76949285D01*
X102880728Y-76949285D02*
X102837871Y-76996904D01*
X102837871Y-76996904D02*
X102752157Y-77044523D01*
X102752157Y-77044523D02*
X102537871Y-77044523D01*
X102537871Y-77044523D02*
X102452157Y-76996904D01*
X102452157Y-76996904D02*
X102409300Y-76949285D01*
X102409300Y-76949285D02*
X102366442Y-76854047D01*
X102366442Y-76854047D02*
X102366442Y-76568333D01*
X102366442Y-76568333D02*
X102409300Y-76473095D01*
X102409300Y-76473095D02*
X102452157Y-76425476D01*
X102880728Y-77615952D02*
X102923585Y-77520714D01*
X102923585Y-77520714D02*
X102966442Y-77473095D01*
X102966442Y-77473095D02*
X103052157Y-77425476D01*
X103052157Y-77425476D02*
X103095014Y-77425476D01*
X103095014Y-77425476D02*
X103180728Y-77473095D01*
X103180728Y-77473095D02*
X103223585Y-77520714D01*
X103223585Y-77520714D02*
X103266442Y-77615952D01*
X103266442Y-77615952D02*
X103266442Y-77806428D01*
X103266442Y-77806428D02*
X103223585Y-77901666D01*
X103223585Y-77901666D02*
X103180728Y-77949285D01*
X103180728Y-77949285D02*
X103095014Y-77996904D01*
X103095014Y-77996904D02*
X103052157Y-77996904D01*
X103052157Y-77996904D02*
X102966442Y-77949285D01*
X102966442Y-77949285D02*
X102923585Y-77901666D01*
X102923585Y-77901666D02*
X102880728Y-77806428D01*
X102880728Y-77806428D02*
X102880728Y-77615952D01*
X102880728Y-77615952D02*
X102837871Y-77520714D01*
X102837871Y-77520714D02*
X102795014Y-77473095D01*
X102795014Y-77473095D02*
X102709300Y-77425476D01*
X102709300Y-77425476D02*
X102537871Y-77425476D01*
X102537871Y-77425476D02*
X102452157Y-77473095D01*
X102452157Y-77473095D02*
X102409300Y-77520714D01*
X102409300Y-77520714D02*
X102366442Y-77615952D01*
X102366442Y-77615952D02*
X102366442Y-77806428D01*
X102366442Y-77806428D02*
X102409300Y-77901666D01*
X102409300Y-77901666D02*
X102452157Y-77949285D01*
X102452157Y-77949285D02*
X102537871Y-77996904D01*
X102537871Y-77996904D02*
X102709300Y-77996904D01*
X102709300Y-77996904D02*
X102795014Y-77949285D01*
X102795014Y-77949285D02*
X102837871Y-77901666D01*
X102837871Y-77901666D02*
X102880728Y-77806428D01*
X102966442Y-78854047D02*
X102366442Y-78854047D01*
X103309300Y-78615952D02*
X102666442Y-78377857D01*
X102666442Y-78377857D02*
X102666442Y-78996904D01*
X95898214Y-89508557D02*
X95993452Y-89508557D01*
X95993452Y-89508557D02*
X96088690Y-89551414D01*
X96088690Y-89551414D02*
X96136309Y-89594271D01*
X96136309Y-89594271D02*
X96183928Y-89679985D01*
X96183928Y-89679985D02*
X96231547Y-89851414D01*
X96231547Y-89851414D02*
X96231547Y-90065700D01*
X96231547Y-90065700D02*
X96183928Y-90237128D01*
X96183928Y-90237128D02*
X96136309Y-90322842D01*
X96136309Y-90322842D02*
X96088690Y-90365700D01*
X96088690Y-90365700D02*
X95993452Y-90408557D01*
X95993452Y-90408557D02*
X95898214Y-90408557D01*
X95898214Y-90408557D02*
X95802976Y-90365700D01*
X95802976Y-90365700D02*
X95755357Y-90322842D01*
X95755357Y-90322842D02*
X95707738Y-90237128D01*
X95707738Y-90237128D02*
X95660119Y-90065700D01*
X95660119Y-90065700D02*
X95660119Y-89851414D01*
X95660119Y-89851414D02*
X95707738Y-89679985D01*
X95707738Y-89679985D02*
X95755357Y-89594271D01*
X95755357Y-89594271D02*
X95802976Y-89551414D01*
X95802976Y-89551414D02*
X95898214Y-89508557D01*
X96660119Y-90322842D02*
X96707738Y-90365700D01*
X96707738Y-90365700D02*
X96660119Y-90408557D01*
X96660119Y-90408557D02*
X96612500Y-90365700D01*
X96612500Y-90365700D02*
X96660119Y-90322842D01*
X96660119Y-90322842D02*
X96660119Y-90408557D01*
X97660118Y-90408557D02*
X97088690Y-90408557D01*
X97374404Y-90408557D02*
X97374404Y-89508557D01*
X97374404Y-89508557D02*
X97279166Y-89637128D01*
X97279166Y-89637128D02*
X97183928Y-89722842D01*
X97183928Y-89722842D02*
X97088690Y-89765700D01*
X98517261Y-89808557D02*
X98517261Y-90408557D01*
X98088690Y-89808557D02*
X98088690Y-90279985D01*
X98088690Y-90279985D02*
X98136309Y-90365700D01*
X98136309Y-90365700D02*
X98231547Y-90408557D01*
X98231547Y-90408557D02*
X98374404Y-90408557D01*
X98374404Y-90408557D02*
X98469642Y-90365700D01*
X98469642Y-90365700D02*
X98517261Y-90322842D01*
X116806057Y-79524761D02*
X115906057Y-79524761D01*
X116763200Y-79096190D02*
X116806057Y-78953333D01*
X116806057Y-78953333D02*
X116806057Y-78715238D01*
X116806057Y-78715238D02*
X116763200Y-78620000D01*
X116763200Y-78620000D02*
X116720342Y-78572381D01*
X116720342Y-78572381D02*
X116634628Y-78524762D01*
X116634628Y-78524762D02*
X116548914Y-78524762D01*
X116548914Y-78524762D02*
X116463200Y-78572381D01*
X116463200Y-78572381D02*
X116420342Y-78620000D01*
X116420342Y-78620000D02*
X116377485Y-78715238D01*
X116377485Y-78715238D02*
X116334628Y-78905714D01*
X116334628Y-78905714D02*
X116291771Y-79000952D01*
X116291771Y-79000952D02*
X116248914Y-79048571D01*
X116248914Y-79048571D02*
X116163200Y-79096190D01*
X116163200Y-79096190D02*
X116077485Y-79096190D01*
X116077485Y-79096190D02*
X115991771Y-79048571D01*
X115991771Y-79048571D02*
X115948914Y-79000952D01*
X115948914Y-79000952D02*
X115906057Y-78905714D01*
X115906057Y-78905714D02*
X115906057Y-78667619D01*
X115906057Y-78667619D02*
X115948914Y-78524762D01*
X115906057Y-77905714D02*
X115906057Y-77715238D01*
X115906057Y-77715238D02*
X115948914Y-77620000D01*
X115948914Y-77620000D02*
X116034628Y-77524762D01*
X116034628Y-77524762D02*
X116206057Y-77477143D01*
X116206057Y-77477143D02*
X116506057Y-77477143D01*
X116506057Y-77477143D02*
X116677485Y-77524762D01*
X116677485Y-77524762D02*
X116763200Y-77620000D01*
X116763200Y-77620000D02*
X116806057Y-77715238D01*
X116806057Y-77715238D02*
X116806057Y-77905714D01*
X116806057Y-77905714D02*
X116763200Y-78000952D01*
X116763200Y-78000952D02*
X116677485Y-78096190D01*
X116677485Y-78096190D02*
X116506057Y-78143809D01*
X116506057Y-78143809D02*
X116206057Y-78143809D01*
X116206057Y-78143809D02*
X116034628Y-78096190D01*
X116034628Y-78096190D02*
X115948914Y-78000952D01*
X115948914Y-78000952D02*
X115906057Y-77905714D01*
X115906057Y-77143809D02*
X115906057Y-76477143D01*
X115906057Y-76477143D02*
X116806057Y-76905714D01*
X115906057Y-76191428D02*
X115906057Y-75524762D01*
X115906057Y-75524762D02*
X116806057Y-75953333D01*
X115906057Y-74715238D02*
X115906057Y-74905714D01*
X115906057Y-74905714D02*
X115948914Y-75000952D01*
X115948914Y-75000952D02*
X115991771Y-75048571D01*
X115991771Y-75048571D02*
X116120342Y-75143809D01*
X116120342Y-75143809D02*
X116291771Y-75191428D01*
X116291771Y-75191428D02*
X116634628Y-75191428D01*
X116634628Y-75191428D02*
X116720342Y-75143809D01*
X116720342Y-75143809D02*
X116763200Y-75096190D01*
X116763200Y-75096190D02*
X116806057Y-75000952D01*
X116806057Y-75000952D02*
X116806057Y-74810476D01*
X116806057Y-74810476D02*
X116763200Y-74715238D01*
X116763200Y-74715238D02*
X116720342Y-74667619D01*
X116720342Y-74667619D02*
X116634628Y-74620000D01*
X116634628Y-74620000D02*
X116420342Y-74620000D01*
X116420342Y-74620000D02*
X116334628Y-74667619D01*
X116334628Y-74667619D02*
X116291771Y-74715238D01*
X116291771Y-74715238D02*
X116248914Y-74810476D01*
X116248914Y-74810476D02*
X116248914Y-75000952D01*
X116248914Y-75000952D02*
X116291771Y-75096190D01*
X116291771Y-75096190D02*
X116334628Y-75143809D01*
X116334628Y-75143809D02*
X116420342Y-75191428D01*
X115991771Y-74239047D02*
X115948914Y-74191428D01*
X115948914Y-74191428D02*
X115906057Y-74096190D01*
X115906057Y-74096190D02*
X115906057Y-73858095D01*
X115906057Y-73858095D02*
X115948914Y-73762857D01*
X115948914Y-73762857D02*
X115991771Y-73715238D01*
X115991771Y-73715238D02*
X116077485Y-73667619D01*
X116077485Y-73667619D02*
X116163200Y-73667619D01*
X116163200Y-73667619D02*
X116291771Y-73715238D01*
X116291771Y-73715238D02*
X116806057Y-74286666D01*
X116806057Y-74286666D02*
X116806057Y-73667619D01*
X121365714Y-81468557D02*
X121460952Y-81468557D01*
X121460952Y-81468557D02*
X121556190Y-81511414D01*
X121556190Y-81511414D02*
X121603809Y-81554271D01*
X121603809Y-81554271D02*
X121651428Y-81639985D01*
X121651428Y-81639985D02*
X121699047Y-81811414D01*
X121699047Y-81811414D02*
X121699047Y-82025700D01*
X121699047Y-82025700D02*
X121651428Y-82197128D01*
X121651428Y-82197128D02*
X121603809Y-82282842D01*
X121603809Y-82282842D02*
X121556190Y-82325700D01*
X121556190Y-82325700D02*
X121460952Y-82368557D01*
X121460952Y-82368557D02*
X121365714Y-82368557D01*
X121365714Y-82368557D02*
X121270476Y-82325700D01*
X121270476Y-82325700D02*
X121222857Y-82282842D01*
X121222857Y-82282842D02*
X121175238Y-82197128D01*
X121175238Y-82197128D02*
X121127619Y-82025700D01*
X121127619Y-82025700D02*
X121127619Y-81811414D01*
X121127619Y-81811414D02*
X121175238Y-81639985D01*
X121175238Y-81639985D02*
X121222857Y-81554271D01*
X121222857Y-81554271D02*
X121270476Y-81511414D01*
X121270476Y-81511414D02*
X121365714Y-81468557D01*
X122127619Y-82282842D02*
X122175238Y-82325700D01*
X122175238Y-82325700D02*
X122127619Y-82368557D01*
X122127619Y-82368557D02*
X122080000Y-82325700D01*
X122080000Y-82325700D02*
X122127619Y-82282842D01*
X122127619Y-82282842D02*
X122127619Y-82368557D01*
X123127618Y-82368557D02*
X122556190Y-82368557D01*
X122841904Y-82368557D02*
X122841904Y-81468557D01*
X122841904Y-81468557D02*
X122746666Y-81597128D01*
X122746666Y-81597128D02*
X122651428Y-81682842D01*
X122651428Y-81682842D02*
X122556190Y-81725700D01*
X123984761Y-81768557D02*
X123984761Y-82368557D01*
X123556190Y-81768557D02*
X123556190Y-82239985D01*
X123556190Y-82239985D02*
X123603809Y-82325700D01*
X123603809Y-82325700D02*
X123699047Y-82368557D01*
X123699047Y-82368557D02*
X123841904Y-82368557D01*
X123841904Y-82368557D02*
X123937142Y-82325700D01*
X123937142Y-82325700D02*
X123984761Y-82282842D01*
X114708557Y-71814285D02*
X114708557Y-71719047D01*
X114708557Y-71719047D02*
X114751414Y-71623809D01*
X114751414Y-71623809D02*
X114794271Y-71576190D01*
X114794271Y-71576190D02*
X114879985Y-71528571D01*
X114879985Y-71528571D02*
X115051414Y-71480952D01*
X115051414Y-71480952D02*
X115265700Y-71480952D01*
X115265700Y-71480952D02*
X115437128Y-71528571D01*
X115437128Y-71528571D02*
X115522842Y-71576190D01*
X115522842Y-71576190D02*
X115565700Y-71623809D01*
X115565700Y-71623809D02*
X115608557Y-71719047D01*
X115608557Y-71719047D02*
X115608557Y-71814285D01*
X115608557Y-71814285D02*
X115565700Y-71909523D01*
X115565700Y-71909523D02*
X115522842Y-71957142D01*
X115522842Y-71957142D02*
X115437128Y-72004761D01*
X115437128Y-72004761D02*
X115265700Y-72052380D01*
X115265700Y-72052380D02*
X115051414Y-72052380D01*
X115051414Y-72052380D02*
X114879985Y-72004761D01*
X114879985Y-72004761D02*
X114794271Y-71957142D01*
X114794271Y-71957142D02*
X114751414Y-71909523D01*
X114751414Y-71909523D02*
X114708557Y-71814285D01*
X115522842Y-71052380D02*
X115565700Y-71004761D01*
X115565700Y-71004761D02*
X115608557Y-71052380D01*
X115608557Y-71052380D02*
X115565700Y-71099999D01*
X115565700Y-71099999D02*
X115522842Y-71052380D01*
X115522842Y-71052380D02*
X115608557Y-71052380D01*
X115608557Y-70052381D02*
X115608557Y-70623809D01*
X115608557Y-70338095D02*
X114708557Y-70338095D01*
X114708557Y-70338095D02*
X114837128Y-70433333D01*
X114837128Y-70433333D02*
X114922842Y-70528571D01*
X114922842Y-70528571D02*
X114965700Y-70623809D01*
X115008557Y-69195238D02*
X115608557Y-69195238D01*
X115008557Y-69623809D02*
X115479985Y-69623809D01*
X115479985Y-69623809D02*
X115565700Y-69576190D01*
X115565700Y-69576190D02*
X115608557Y-69480952D01*
X115608557Y-69480952D02*
X115608557Y-69338095D01*
X115608557Y-69338095D02*
X115565700Y-69242857D01*
X115565700Y-69242857D02*
X115522842Y-69195238D01*
X160066667Y-118783557D02*
X160066667Y-117883557D01*
X160066667Y-117883557D02*
X160400000Y-118526414D01*
X160400000Y-118526414D02*
X160733333Y-117883557D01*
X160733333Y-117883557D02*
X160733333Y-118783557D01*
X161209524Y-117883557D02*
X161209524Y-118612128D01*
X161209524Y-118612128D02*
X161257143Y-118697842D01*
X161257143Y-118697842D02*
X161304762Y-118740700D01*
X161304762Y-118740700D02*
X161400000Y-118783557D01*
X161400000Y-118783557D02*
X161590476Y-118783557D01*
X161590476Y-118783557D02*
X161685714Y-118740700D01*
X161685714Y-118740700D02*
X161733333Y-118697842D01*
X161733333Y-118697842D02*
X161780952Y-118612128D01*
X161780952Y-118612128D02*
X161780952Y-117883557D01*
X162161905Y-117883557D02*
X162828571Y-118783557D01*
X162828571Y-117883557D02*
X162161905Y-118783557D01*
X109185714Y-113058557D02*
X109280952Y-113058557D01*
X109280952Y-113058557D02*
X109376190Y-113101414D01*
X109376190Y-113101414D02*
X109423809Y-113144271D01*
X109423809Y-113144271D02*
X109471428Y-113229985D01*
X109471428Y-113229985D02*
X109519047Y-113401414D01*
X109519047Y-113401414D02*
X109519047Y-113615700D01*
X109519047Y-113615700D02*
X109471428Y-113787128D01*
X109471428Y-113787128D02*
X109423809Y-113872842D01*
X109423809Y-113872842D02*
X109376190Y-113915700D01*
X109376190Y-113915700D02*
X109280952Y-113958557D01*
X109280952Y-113958557D02*
X109185714Y-113958557D01*
X109185714Y-113958557D02*
X109090476Y-113915700D01*
X109090476Y-113915700D02*
X109042857Y-113872842D01*
X109042857Y-113872842D02*
X108995238Y-113787128D01*
X108995238Y-113787128D02*
X108947619Y-113615700D01*
X108947619Y-113615700D02*
X108947619Y-113401414D01*
X108947619Y-113401414D02*
X108995238Y-113229985D01*
X108995238Y-113229985D02*
X109042857Y-113144271D01*
X109042857Y-113144271D02*
X109090476Y-113101414D01*
X109090476Y-113101414D02*
X109185714Y-113058557D01*
X109947619Y-113872842D02*
X109995238Y-113915700D01*
X109995238Y-113915700D02*
X109947619Y-113958557D01*
X109947619Y-113958557D02*
X109900000Y-113915700D01*
X109900000Y-113915700D02*
X109947619Y-113872842D01*
X109947619Y-113872842D02*
X109947619Y-113958557D01*
X110947618Y-113958557D02*
X110376190Y-113958557D01*
X110661904Y-113958557D02*
X110661904Y-113058557D01*
X110661904Y-113058557D02*
X110566666Y-113187128D01*
X110566666Y-113187128D02*
X110471428Y-113272842D01*
X110471428Y-113272842D02*
X110376190Y-113315700D01*
X111804761Y-113358557D02*
X111804761Y-113958557D01*
X111376190Y-113358557D02*
X111376190Y-113829985D01*
X111376190Y-113829985D02*
X111423809Y-113915700D01*
X111423809Y-113915700D02*
X111519047Y-113958557D01*
X111519047Y-113958557D02*
X111661904Y-113958557D01*
X111661904Y-113958557D02*
X111757142Y-113915700D01*
X111757142Y-113915700D02*
X111804761Y-113872842D01*
X120552381Y-155508557D02*
X120647619Y-155508557D01*
X120647619Y-155508557D02*
X120742857Y-155551414D01*
X120742857Y-155551414D02*
X120790476Y-155594271D01*
X120790476Y-155594271D02*
X120838095Y-155679985D01*
X120838095Y-155679985D02*
X120885714Y-155851414D01*
X120885714Y-155851414D02*
X120885714Y-156065700D01*
X120885714Y-156065700D02*
X120838095Y-156237128D01*
X120838095Y-156237128D02*
X120790476Y-156322842D01*
X120790476Y-156322842D02*
X120742857Y-156365700D01*
X120742857Y-156365700D02*
X120647619Y-156408557D01*
X120647619Y-156408557D02*
X120552381Y-156408557D01*
X120552381Y-156408557D02*
X120457143Y-156365700D01*
X120457143Y-156365700D02*
X120409524Y-156322842D01*
X120409524Y-156322842D02*
X120361905Y-156237128D01*
X120361905Y-156237128D02*
X120314286Y-156065700D01*
X120314286Y-156065700D02*
X120314286Y-155851414D01*
X120314286Y-155851414D02*
X120361905Y-155679985D01*
X120361905Y-155679985D02*
X120409524Y-155594271D01*
X120409524Y-155594271D02*
X120457143Y-155551414D01*
X120457143Y-155551414D02*
X120552381Y-155508557D01*
D10*
X87895238Y-147619714D02*
X88561904Y-149419714D01*
X88561904Y-149419714D02*
X89228571Y-147619714D01*
X89895238Y-148734000D02*
X91419048Y-148734000D01*
X90657143Y-149419714D02*
X90657143Y-148048285D01*
D11*
X98062381Y-127708557D02*
X98157619Y-127708557D01*
X98157619Y-127708557D02*
X98252857Y-127751414D01*
X98252857Y-127751414D02*
X98300476Y-127794271D01*
X98300476Y-127794271D02*
X98348095Y-127879985D01*
X98348095Y-127879985D02*
X98395714Y-128051414D01*
X98395714Y-128051414D02*
X98395714Y-128265700D01*
X98395714Y-128265700D02*
X98348095Y-128437128D01*
X98348095Y-128437128D02*
X98300476Y-128522842D01*
X98300476Y-128522842D02*
X98252857Y-128565700D01*
X98252857Y-128565700D02*
X98157619Y-128608557D01*
X98157619Y-128608557D02*
X98062381Y-128608557D01*
X98062381Y-128608557D02*
X97967143Y-128565700D01*
X97967143Y-128565700D02*
X97919524Y-128522842D01*
X97919524Y-128522842D02*
X97871905Y-128437128D01*
X97871905Y-128437128D02*
X97824286Y-128265700D01*
X97824286Y-128265700D02*
X97824286Y-128051414D01*
X97824286Y-128051414D02*
X97871905Y-127879985D01*
X97871905Y-127879985D02*
X97919524Y-127794271D01*
X97919524Y-127794271D02*
X97967143Y-127751414D01*
X97967143Y-127751414D02*
X98062381Y-127708557D01*
X97562381Y-144508557D02*
X97657619Y-144508557D01*
X97657619Y-144508557D02*
X97752857Y-144551414D01*
X97752857Y-144551414D02*
X97800476Y-144594271D01*
X97800476Y-144594271D02*
X97848095Y-144679985D01*
X97848095Y-144679985D02*
X97895714Y-144851414D01*
X97895714Y-144851414D02*
X97895714Y-145065700D01*
X97895714Y-145065700D02*
X97848095Y-145237128D01*
X97848095Y-145237128D02*
X97800476Y-145322842D01*
X97800476Y-145322842D02*
X97752857Y-145365700D01*
X97752857Y-145365700D02*
X97657619Y-145408557D01*
X97657619Y-145408557D02*
X97562381Y-145408557D01*
X97562381Y-145408557D02*
X97467143Y-145365700D01*
X97467143Y-145365700D02*
X97419524Y-145322842D01*
X97419524Y-145322842D02*
X97371905Y-145237128D01*
X97371905Y-145237128D02*
X97324286Y-145065700D01*
X97324286Y-145065700D02*
X97324286Y-144851414D01*
X97324286Y-144851414D02*
X97371905Y-144679985D01*
X97371905Y-144679985D02*
X97419524Y-144594271D01*
X97419524Y-144594271D02*
X97467143Y-144551414D01*
X97467143Y-144551414D02*
X97562381Y-144508557D01*
X110152381Y-153108557D02*
X110247619Y-153108557D01*
X110247619Y-153108557D02*
X110342857Y-153151414D01*
X110342857Y-153151414D02*
X110390476Y-153194271D01*
X110390476Y-153194271D02*
X110438095Y-153279985D01*
X110438095Y-153279985D02*
X110485714Y-153451414D01*
X110485714Y-153451414D02*
X110485714Y-153665700D01*
X110485714Y-153665700D02*
X110438095Y-153837128D01*
X110438095Y-153837128D02*
X110390476Y-153922842D01*
X110390476Y-153922842D02*
X110342857Y-153965700D01*
X110342857Y-153965700D02*
X110247619Y-154008557D01*
X110247619Y-154008557D02*
X110152381Y-154008557D01*
X110152381Y-154008557D02*
X110057143Y-153965700D01*
X110057143Y-153965700D02*
X110009524Y-153922842D01*
X110009524Y-153922842D02*
X109961905Y-153837128D01*
X109961905Y-153837128D02*
X109914286Y-153665700D01*
X109914286Y-153665700D02*
X109914286Y-153451414D01*
X109914286Y-153451414D02*
X109961905Y-153279985D01*
X109961905Y-153279985D02*
X110009524Y-153194271D01*
X110009524Y-153194271D02*
X110057143Y-153151414D01*
X110057143Y-153151414D02*
X110152381Y-153108557D01*
X187066667Y-89983557D02*
X187066667Y-89083557D01*
X187066667Y-89083557D02*
X187400000Y-89726414D01*
X187400000Y-89726414D02*
X187733333Y-89083557D01*
X187733333Y-89083557D02*
X187733333Y-89983557D01*
X188209524Y-89083557D02*
X188209524Y-89812128D01*
X188209524Y-89812128D02*
X188257143Y-89897842D01*
X188257143Y-89897842D02*
X188304762Y-89940700D01*
X188304762Y-89940700D02*
X188400000Y-89983557D01*
X188400000Y-89983557D02*
X188590476Y-89983557D01*
X188590476Y-89983557D02*
X188685714Y-89940700D01*
X188685714Y-89940700D02*
X188733333Y-89897842D01*
X188733333Y-89897842D02*
X188780952Y-89812128D01*
X188780952Y-89812128D02*
X188780952Y-89083557D01*
X189161905Y-89083557D02*
X189828571Y-89983557D01*
X189828571Y-89083557D02*
X189161905Y-89983557D01*
X91858557Y-147702380D02*
X91858557Y-147511904D01*
X91858557Y-147511904D02*
X91901414Y-147416666D01*
X91901414Y-147416666D02*
X91987128Y-147321428D01*
X91987128Y-147321428D02*
X92158557Y-147273809D01*
X92158557Y-147273809D02*
X92458557Y-147273809D01*
X92458557Y-147273809D02*
X92629985Y-147321428D01*
X92629985Y-147321428D02*
X92715700Y-147416666D01*
X92715700Y-147416666D02*
X92758557Y-147511904D01*
X92758557Y-147511904D02*
X92758557Y-147702380D01*
X92758557Y-147702380D02*
X92715700Y-147797618D01*
X92715700Y-147797618D02*
X92629985Y-147892856D01*
X92629985Y-147892856D02*
X92458557Y-147940475D01*
X92458557Y-147940475D02*
X92158557Y-147940475D01*
X92158557Y-147940475D02*
X91987128Y-147892856D01*
X91987128Y-147892856D02*
X91901414Y-147797618D01*
X91901414Y-147797618D02*
X91858557Y-147702380D01*
X92758557Y-146845237D02*
X91858557Y-146845237D01*
X91858557Y-146845237D02*
X91858557Y-146464285D01*
X91858557Y-146464285D02*
X91901414Y-146369047D01*
X91901414Y-146369047D02*
X91944271Y-146321428D01*
X91944271Y-146321428D02*
X92029985Y-146273809D01*
X92029985Y-146273809D02*
X92158557Y-146273809D01*
X92158557Y-146273809D02*
X92244271Y-146321428D01*
X92244271Y-146321428D02*
X92287128Y-146369047D01*
X92287128Y-146369047D02*
X92329985Y-146464285D01*
X92329985Y-146464285D02*
X92329985Y-146845237D01*
X92501414Y-145892856D02*
X92501414Y-145416666D01*
X92758557Y-145988094D02*
X91858557Y-145654761D01*
X91858557Y-145654761D02*
X92758557Y-145321428D01*
X92758557Y-144464285D02*
X92758557Y-145035713D01*
X92758557Y-144749999D02*
X91858557Y-144749999D01*
X91858557Y-144749999D02*
X91987128Y-144845237D01*
X91987128Y-144845237D02*
X92072842Y-144940475D01*
X92072842Y-144940475D02*
X92115700Y-145035713D01*
X92758557Y-143988094D02*
X92758557Y-143797618D01*
X92758557Y-143797618D02*
X92715700Y-143702380D01*
X92715700Y-143702380D02*
X92672842Y-143654761D01*
X92672842Y-143654761D02*
X92544271Y-143559523D01*
X92544271Y-143559523D02*
X92372842Y-143511904D01*
X92372842Y-143511904D02*
X92029985Y-143511904D01*
X92029985Y-143511904D02*
X91944271Y-143559523D01*
X91944271Y-143559523D02*
X91901414Y-143607142D01*
X91901414Y-143607142D02*
X91858557Y-143702380D01*
X91858557Y-143702380D02*
X91858557Y-143892856D01*
X91858557Y-143892856D02*
X91901414Y-143988094D01*
X91901414Y-143988094D02*
X91944271Y-144035713D01*
X91944271Y-144035713D02*
X92029985Y-144083332D01*
X92029985Y-144083332D02*
X92244271Y-144083332D01*
X92244271Y-144083332D02*
X92329985Y-144035713D01*
X92329985Y-144035713D02*
X92372842Y-143988094D01*
X92372842Y-143988094D02*
X92415700Y-143892856D01*
X92415700Y-143892856D02*
X92415700Y-143702380D01*
X92415700Y-143702380D02*
X92372842Y-143607142D01*
X92372842Y-143607142D02*
X92329985Y-143559523D01*
X92329985Y-143559523D02*
X92244271Y-143511904D01*
X91944271Y-143130951D02*
X91901414Y-143083332D01*
X91901414Y-143083332D02*
X91858557Y-142988094D01*
X91858557Y-142988094D02*
X91858557Y-142749999D01*
X91858557Y-142749999D02*
X91901414Y-142654761D01*
X91901414Y-142654761D02*
X91944271Y-142607142D01*
X91944271Y-142607142D02*
X92029985Y-142559523D01*
X92029985Y-142559523D02*
X92115700Y-142559523D01*
X92115700Y-142559523D02*
X92244271Y-142607142D01*
X92244271Y-142607142D02*
X92758557Y-143178570D01*
X92758557Y-143178570D02*
X92758557Y-142559523D01*
X92597619Y-95246057D02*
X92788095Y-95246057D01*
X92788095Y-95246057D02*
X92883333Y-95288914D01*
X92883333Y-95288914D02*
X92978571Y-95374628D01*
X92978571Y-95374628D02*
X93026190Y-95546057D01*
X93026190Y-95546057D02*
X93026190Y-95846057D01*
X93026190Y-95846057D02*
X92978571Y-96017485D01*
X92978571Y-96017485D02*
X92883333Y-96103200D01*
X92883333Y-96103200D02*
X92788095Y-96146057D01*
X92788095Y-96146057D02*
X92597619Y-96146057D01*
X92597619Y-96146057D02*
X92502381Y-96103200D01*
X92502381Y-96103200D02*
X92407143Y-96017485D01*
X92407143Y-96017485D02*
X92359524Y-95846057D01*
X92359524Y-95846057D02*
X92359524Y-95546057D01*
X92359524Y-95546057D02*
X92407143Y-95374628D01*
X92407143Y-95374628D02*
X92502381Y-95288914D01*
X92502381Y-95288914D02*
X92597619Y-95246057D01*
X93454762Y-96146057D02*
X93454762Y-95246057D01*
X93454762Y-95246057D02*
X93835714Y-95246057D01*
X93835714Y-95246057D02*
X93930952Y-95288914D01*
X93930952Y-95288914D02*
X93978571Y-95331771D01*
X93978571Y-95331771D02*
X94026190Y-95417485D01*
X94026190Y-95417485D02*
X94026190Y-95546057D01*
X94026190Y-95546057D02*
X93978571Y-95631771D01*
X93978571Y-95631771D02*
X93930952Y-95674628D01*
X93930952Y-95674628D02*
X93835714Y-95717485D01*
X93835714Y-95717485D02*
X93454762Y-95717485D01*
X94407143Y-95888914D02*
X94883333Y-95888914D01*
X94311905Y-96146057D02*
X94645238Y-95246057D01*
X94645238Y-95246057D02*
X94978571Y-96146057D01*
X95835714Y-96146057D02*
X95264286Y-96146057D01*
X95550000Y-96146057D02*
X95550000Y-95246057D01*
X95550000Y-95246057D02*
X95454762Y-95374628D01*
X95454762Y-95374628D02*
X95359524Y-95460342D01*
X95359524Y-95460342D02*
X95264286Y-95503200D01*
X96311905Y-96146057D02*
X96502381Y-96146057D01*
X96502381Y-96146057D02*
X96597619Y-96103200D01*
X96597619Y-96103200D02*
X96645238Y-96060342D01*
X96645238Y-96060342D02*
X96740476Y-95931771D01*
X96740476Y-95931771D02*
X96788095Y-95760342D01*
X96788095Y-95760342D02*
X96788095Y-95417485D01*
X96788095Y-95417485D02*
X96740476Y-95331771D01*
X96740476Y-95331771D02*
X96692857Y-95288914D01*
X96692857Y-95288914D02*
X96597619Y-95246057D01*
X96597619Y-95246057D02*
X96407143Y-95246057D01*
X96407143Y-95246057D02*
X96311905Y-95288914D01*
X96311905Y-95288914D02*
X96264286Y-95331771D01*
X96264286Y-95331771D02*
X96216667Y-95417485D01*
X96216667Y-95417485D02*
X96216667Y-95631771D01*
X96216667Y-95631771D02*
X96264286Y-95717485D01*
X96264286Y-95717485D02*
X96311905Y-95760342D01*
X96311905Y-95760342D02*
X96407143Y-95803200D01*
X96407143Y-95803200D02*
X96597619Y-95803200D01*
X96597619Y-95803200D02*
X96692857Y-95760342D01*
X96692857Y-95760342D02*
X96740476Y-95717485D01*
X96740476Y-95717485D02*
X96788095Y-95631771D01*
X97169048Y-95331771D02*
X97216667Y-95288914D01*
X97216667Y-95288914D02*
X97311905Y-95246057D01*
X97311905Y-95246057D02*
X97550000Y-95246057D01*
X97550000Y-95246057D02*
X97645238Y-95288914D01*
X97645238Y-95288914D02*
X97692857Y-95331771D01*
X97692857Y-95331771D02*
X97740476Y-95417485D01*
X97740476Y-95417485D02*
X97740476Y-95503200D01*
X97740476Y-95503200D02*
X97692857Y-95631771D01*
X97692857Y-95631771D02*
X97121429Y-96146057D01*
X97121429Y-96146057D02*
X97740476Y-96146057D01*
X108883557Y-79737261D02*
X107983557Y-79737261D01*
X108840700Y-79308690D02*
X108883557Y-79165833D01*
X108883557Y-79165833D02*
X108883557Y-78927738D01*
X108883557Y-78927738D02*
X108840700Y-78832500D01*
X108840700Y-78832500D02*
X108797842Y-78784881D01*
X108797842Y-78784881D02*
X108712128Y-78737262D01*
X108712128Y-78737262D02*
X108626414Y-78737262D01*
X108626414Y-78737262D02*
X108540700Y-78784881D01*
X108540700Y-78784881D02*
X108497842Y-78832500D01*
X108497842Y-78832500D02*
X108454985Y-78927738D01*
X108454985Y-78927738D02*
X108412128Y-79118214D01*
X108412128Y-79118214D02*
X108369271Y-79213452D01*
X108369271Y-79213452D02*
X108326414Y-79261071D01*
X108326414Y-79261071D02*
X108240700Y-79308690D01*
X108240700Y-79308690D02*
X108154985Y-79308690D01*
X108154985Y-79308690D02*
X108069271Y-79261071D01*
X108069271Y-79261071D02*
X108026414Y-79213452D01*
X108026414Y-79213452D02*
X107983557Y-79118214D01*
X107983557Y-79118214D02*
X107983557Y-78880119D01*
X107983557Y-78880119D02*
X108026414Y-78737262D01*
X107983557Y-78118214D02*
X107983557Y-77927738D01*
X107983557Y-77927738D02*
X108026414Y-77832500D01*
X108026414Y-77832500D02*
X108112128Y-77737262D01*
X108112128Y-77737262D02*
X108283557Y-77689643D01*
X108283557Y-77689643D02*
X108583557Y-77689643D01*
X108583557Y-77689643D02*
X108754985Y-77737262D01*
X108754985Y-77737262D02*
X108840700Y-77832500D01*
X108840700Y-77832500D02*
X108883557Y-77927738D01*
X108883557Y-77927738D02*
X108883557Y-78118214D01*
X108883557Y-78118214D02*
X108840700Y-78213452D01*
X108840700Y-78213452D02*
X108754985Y-78308690D01*
X108754985Y-78308690D02*
X108583557Y-78356309D01*
X108583557Y-78356309D02*
X108283557Y-78356309D01*
X108283557Y-78356309D02*
X108112128Y-78308690D01*
X108112128Y-78308690D02*
X108026414Y-78213452D01*
X108026414Y-78213452D02*
X107983557Y-78118214D01*
X107983557Y-77356309D02*
X107983557Y-76689643D01*
X107983557Y-76689643D02*
X108883557Y-77118214D01*
X107983557Y-76403928D02*
X107983557Y-75737262D01*
X107983557Y-75737262D02*
X108883557Y-76165833D01*
X107983557Y-74927738D02*
X107983557Y-75118214D01*
X107983557Y-75118214D02*
X108026414Y-75213452D01*
X108026414Y-75213452D02*
X108069271Y-75261071D01*
X108069271Y-75261071D02*
X108197842Y-75356309D01*
X108197842Y-75356309D02*
X108369271Y-75403928D01*
X108369271Y-75403928D02*
X108712128Y-75403928D01*
X108712128Y-75403928D02*
X108797842Y-75356309D01*
X108797842Y-75356309D02*
X108840700Y-75308690D01*
X108840700Y-75308690D02*
X108883557Y-75213452D01*
X108883557Y-75213452D02*
X108883557Y-75022976D01*
X108883557Y-75022976D02*
X108840700Y-74927738D01*
X108840700Y-74927738D02*
X108797842Y-74880119D01*
X108797842Y-74880119D02*
X108712128Y-74832500D01*
X108712128Y-74832500D02*
X108497842Y-74832500D01*
X108497842Y-74832500D02*
X108412128Y-74880119D01*
X108412128Y-74880119D02*
X108369271Y-74927738D01*
X108369271Y-74927738D02*
X108326414Y-75022976D01*
X108326414Y-75022976D02*
X108326414Y-75213452D01*
X108326414Y-75213452D02*
X108369271Y-75308690D01*
X108369271Y-75308690D02*
X108412128Y-75356309D01*
X108412128Y-75356309D02*
X108497842Y-75403928D01*
X107983557Y-74213452D02*
X107983557Y-74118214D01*
X107983557Y-74118214D02*
X108026414Y-74022976D01*
X108026414Y-74022976D02*
X108069271Y-73975357D01*
X108069271Y-73975357D02*
X108154985Y-73927738D01*
X108154985Y-73927738D02*
X108326414Y-73880119D01*
X108326414Y-73880119D02*
X108540700Y-73880119D01*
X108540700Y-73880119D02*
X108712128Y-73927738D01*
X108712128Y-73927738D02*
X108797842Y-73975357D01*
X108797842Y-73975357D02*
X108840700Y-74022976D01*
X108840700Y-74022976D02*
X108883557Y-74118214D01*
X108883557Y-74118214D02*
X108883557Y-74213452D01*
X108883557Y-74213452D02*
X108840700Y-74308690D01*
X108840700Y-74308690D02*
X108797842Y-74356309D01*
X108797842Y-74356309D02*
X108712128Y-74403928D01*
X108712128Y-74403928D02*
X108540700Y-74451547D01*
X108540700Y-74451547D02*
X108326414Y-74451547D01*
X108326414Y-74451547D02*
X108154985Y-74403928D01*
X108154985Y-74403928D02*
X108069271Y-74356309D01*
X108069271Y-74356309D02*
X108026414Y-74308690D01*
X108026414Y-74308690D02*
X107983557Y-74213452D01*
X93980714Y-140908557D02*
X94075952Y-140908557D01*
X94075952Y-140908557D02*
X94171190Y-140951414D01*
X94171190Y-140951414D02*
X94218809Y-140994271D01*
X94218809Y-140994271D02*
X94266428Y-141079985D01*
X94266428Y-141079985D02*
X94314047Y-141251414D01*
X94314047Y-141251414D02*
X94314047Y-141465700D01*
X94314047Y-141465700D02*
X94266428Y-141637128D01*
X94266428Y-141637128D02*
X94218809Y-141722842D01*
X94218809Y-141722842D02*
X94171190Y-141765700D01*
X94171190Y-141765700D02*
X94075952Y-141808557D01*
X94075952Y-141808557D02*
X93980714Y-141808557D01*
X93980714Y-141808557D02*
X93885476Y-141765700D01*
X93885476Y-141765700D02*
X93837857Y-141722842D01*
X93837857Y-141722842D02*
X93790238Y-141637128D01*
X93790238Y-141637128D02*
X93742619Y-141465700D01*
X93742619Y-141465700D02*
X93742619Y-141251414D01*
X93742619Y-141251414D02*
X93790238Y-141079985D01*
X93790238Y-141079985D02*
X93837857Y-140994271D01*
X93837857Y-140994271D02*
X93885476Y-140951414D01*
X93885476Y-140951414D02*
X93980714Y-140908557D01*
X94742619Y-141722842D02*
X94790238Y-141765700D01*
X94790238Y-141765700D02*
X94742619Y-141808557D01*
X94742619Y-141808557D02*
X94695000Y-141765700D01*
X94695000Y-141765700D02*
X94742619Y-141722842D01*
X94742619Y-141722842D02*
X94742619Y-141808557D01*
X95742618Y-141808557D02*
X95171190Y-141808557D01*
X95456904Y-141808557D02*
X95456904Y-140908557D01*
X95456904Y-140908557D02*
X95361666Y-141037128D01*
X95361666Y-141037128D02*
X95266428Y-141122842D01*
X95266428Y-141122842D02*
X95171190Y-141165700D01*
X96599761Y-141208557D02*
X96599761Y-141808557D01*
X96171190Y-141208557D02*
X96171190Y-141679985D01*
X96171190Y-141679985D02*
X96218809Y-141765700D01*
X96218809Y-141765700D02*
X96314047Y-141808557D01*
X96314047Y-141808557D02*
X96456904Y-141808557D01*
X96456904Y-141808557D02*
X96552142Y-141765700D01*
X96552142Y-141765700D02*
X96599761Y-141722842D01*
X179466667Y-109783557D02*
X179466667Y-108883557D01*
X179466667Y-108883557D02*
X179800000Y-109526414D01*
X179800000Y-109526414D02*
X180133333Y-108883557D01*
X180133333Y-108883557D02*
X180133333Y-109783557D01*
X180609524Y-108883557D02*
X180609524Y-109612128D01*
X180609524Y-109612128D02*
X180657143Y-109697842D01*
X180657143Y-109697842D02*
X180704762Y-109740700D01*
X180704762Y-109740700D02*
X180800000Y-109783557D01*
X180800000Y-109783557D02*
X180990476Y-109783557D01*
X180990476Y-109783557D02*
X181085714Y-109740700D01*
X181085714Y-109740700D02*
X181133333Y-109697842D01*
X181133333Y-109697842D02*
X181180952Y-109612128D01*
X181180952Y-109612128D02*
X181180952Y-108883557D01*
X181561905Y-108883557D02*
X182228571Y-109783557D01*
X182228571Y-108883557D02*
X181561905Y-109783557D01*
X90708557Y-128981785D02*
X90708557Y-128886547D01*
X90708557Y-128886547D02*
X90751414Y-128791309D01*
X90751414Y-128791309D02*
X90794271Y-128743690D01*
X90794271Y-128743690D02*
X90879985Y-128696071D01*
X90879985Y-128696071D02*
X91051414Y-128648452D01*
X91051414Y-128648452D02*
X91265700Y-128648452D01*
X91265700Y-128648452D02*
X91437128Y-128696071D01*
X91437128Y-128696071D02*
X91522842Y-128743690D01*
X91522842Y-128743690D02*
X91565700Y-128791309D01*
X91565700Y-128791309D02*
X91608557Y-128886547D01*
X91608557Y-128886547D02*
X91608557Y-128981785D01*
X91608557Y-128981785D02*
X91565700Y-129077023D01*
X91565700Y-129077023D02*
X91522842Y-129124642D01*
X91522842Y-129124642D02*
X91437128Y-129172261D01*
X91437128Y-129172261D02*
X91265700Y-129219880D01*
X91265700Y-129219880D02*
X91051414Y-129219880D01*
X91051414Y-129219880D02*
X90879985Y-129172261D01*
X90879985Y-129172261D02*
X90794271Y-129124642D01*
X90794271Y-129124642D02*
X90751414Y-129077023D01*
X90751414Y-129077023D02*
X90708557Y-128981785D01*
X91522842Y-128219880D02*
X91565700Y-128172261D01*
X91565700Y-128172261D02*
X91608557Y-128219880D01*
X91608557Y-128219880D02*
X91565700Y-128267499D01*
X91565700Y-128267499D02*
X91522842Y-128219880D01*
X91522842Y-128219880D02*
X91608557Y-128219880D01*
X91608557Y-127219881D02*
X91608557Y-127791309D01*
X91608557Y-127505595D02*
X90708557Y-127505595D01*
X90708557Y-127505595D02*
X90837128Y-127600833D01*
X90837128Y-127600833D02*
X90922842Y-127696071D01*
X90922842Y-127696071D02*
X90965700Y-127791309D01*
X91008557Y-126362738D02*
X91608557Y-126362738D01*
X91008557Y-126791309D02*
X91479985Y-126791309D01*
X91479985Y-126791309D02*
X91565700Y-126743690D01*
X91565700Y-126743690D02*
X91608557Y-126648452D01*
X91608557Y-126648452D02*
X91608557Y-126505595D01*
X91608557Y-126505595D02*
X91565700Y-126410357D01*
X91565700Y-126410357D02*
X91522842Y-126362738D01*
X108065714Y-92708557D02*
X108160952Y-92708557D01*
X108160952Y-92708557D02*
X108256190Y-92751414D01*
X108256190Y-92751414D02*
X108303809Y-92794271D01*
X108303809Y-92794271D02*
X108351428Y-92879985D01*
X108351428Y-92879985D02*
X108399047Y-93051414D01*
X108399047Y-93051414D02*
X108399047Y-93265700D01*
X108399047Y-93265700D02*
X108351428Y-93437128D01*
X108351428Y-93437128D02*
X108303809Y-93522842D01*
X108303809Y-93522842D02*
X108256190Y-93565700D01*
X108256190Y-93565700D02*
X108160952Y-93608557D01*
X108160952Y-93608557D02*
X108065714Y-93608557D01*
X108065714Y-93608557D02*
X107970476Y-93565700D01*
X107970476Y-93565700D02*
X107922857Y-93522842D01*
X107922857Y-93522842D02*
X107875238Y-93437128D01*
X107875238Y-93437128D02*
X107827619Y-93265700D01*
X107827619Y-93265700D02*
X107827619Y-93051414D01*
X107827619Y-93051414D02*
X107875238Y-92879985D01*
X107875238Y-92879985D02*
X107922857Y-92794271D01*
X107922857Y-92794271D02*
X107970476Y-92751414D01*
X107970476Y-92751414D02*
X108065714Y-92708557D01*
X108827619Y-93522842D02*
X108875238Y-93565700D01*
X108875238Y-93565700D02*
X108827619Y-93608557D01*
X108827619Y-93608557D02*
X108780000Y-93565700D01*
X108780000Y-93565700D02*
X108827619Y-93522842D01*
X108827619Y-93522842D02*
X108827619Y-93608557D01*
X109827618Y-93608557D02*
X109256190Y-93608557D01*
X109541904Y-93608557D02*
X109541904Y-92708557D01*
X109541904Y-92708557D02*
X109446666Y-92837128D01*
X109446666Y-92837128D02*
X109351428Y-92922842D01*
X109351428Y-92922842D02*
X109256190Y-92965700D01*
X110684761Y-93008557D02*
X110684761Y-93608557D01*
X110256190Y-93008557D02*
X110256190Y-93479985D01*
X110256190Y-93479985D02*
X110303809Y-93565700D01*
X110303809Y-93565700D02*
X110399047Y-93608557D01*
X110399047Y-93608557D02*
X110541904Y-93608557D01*
X110541904Y-93608557D02*
X110637142Y-93565700D01*
X110637142Y-93565700D02*
X110684761Y-93522842D01*
X92581019Y-130296057D02*
X92771495Y-130296057D01*
X92771495Y-130296057D02*
X92866733Y-130338914D01*
X92866733Y-130338914D02*
X92961971Y-130424628D01*
X92961971Y-130424628D02*
X93009590Y-130596057D01*
X93009590Y-130596057D02*
X93009590Y-130896057D01*
X93009590Y-130896057D02*
X92961971Y-131067485D01*
X92961971Y-131067485D02*
X92866733Y-131153200D01*
X92866733Y-131153200D02*
X92771495Y-131196057D01*
X92771495Y-131196057D02*
X92581019Y-131196057D01*
X92581019Y-131196057D02*
X92485781Y-131153200D01*
X92485781Y-131153200D02*
X92390543Y-131067485D01*
X92390543Y-131067485D02*
X92342924Y-130896057D01*
X92342924Y-130896057D02*
X92342924Y-130596057D01*
X92342924Y-130596057D02*
X92390543Y-130424628D01*
X92390543Y-130424628D02*
X92485781Y-130338914D01*
X92485781Y-130338914D02*
X92581019Y-130296057D01*
X93438162Y-131196057D02*
X93438162Y-130296057D01*
X93438162Y-130296057D02*
X93819114Y-130296057D01*
X93819114Y-130296057D02*
X93914352Y-130338914D01*
X93914352Y-130338914D02*
X93961971Y-130381771D01*
X93961971Y-130381771D02*
X94009590Y-130467485D01*
X94009590Y-130467485D02*
X94009590Y-130596057D01*
X94009590Y-130596057D02*
X93961971Y-130681771D01*
X93961971Y-130681771D02*
X93914352Y-130724628D01*
X93914352Y-130724628D02*
X93819114Y-130767485D01*
X93819114Y-130767485D02*
X93438162Y-130767485D01*
X94390543Y-130938914D02*
X94866733Y-130938914D01*
X94295305Y-131196057D02*
X94628638Y-130296057D01*
X94628638Y-130296057D02*
X94961971Y-131196057D01*
X95819114Y-131196057D02*
X95247686Y-131196057D01*
X95533400Y-131196057D02*
X95533400Y-130296057D01*
X95533400Y-130296057D02*
X95438162Y-130424628D01*
X95438162Y-130424628D02*
X95342924Y-130510342D01*
X95342924Y-130510342D02*
X95247686Y-130553200D01*
X96295305Y-131196057D02*
X96485781Y-131196057D01*
X96485781Y-131196057D02*
X96581019Y-131153200D01*
X96581019Y-131153200D02*
X96628638Y-131110342D01*
X96628638Y-131110342D02*
X96723876Y-130981771D01*
X96723876Y-130981771D02*
X96771495Y-130810342D01*
X96771495Y-130810342D02*
X96771495Y-130467485D01*
X96771495Y-130467485D02*
X96723876Y-130381771D01*
X96723876Y-130381771D02*
X96676257Y-130338914D01*
X96676257Y-130338914D02*
X96581019Y-130296057D01*
X96581019Y-130296057D02*
X96390543Y-130296057D01*
X96390543Y-130296057D02*
X96295305Y-130338914D01*
X96295305Y-130338914D02*
X96247686Y-130381771D01*
X96247686Y-130381771D02*
X96200067Y-130467485D01*
X96200067Y-130467485D02*
X96200067Y-130681771D01*
X96200067Y-130681771D02*
X96247686Y-130767485D01*
X96247686Y-130767485D02*
X96295305Y-130810342D01*
X96295305Y-130810342D02*
X96390543Y-130853200D01*
X96390543Y-130853200D02*
X96581019Y-130853200D01*
X96581019Y-130853200D02*
X96676257Y-130810342D01*
X96676257Y-130810342D02*
X96723876Y-130767485D01*
X96723876Y-130767485D02*
X96771495Y-130681771D01*
X97152448Y-130381771D02*
X97200067Y-130338914D01*
X97200067Y-130338914D02*
X97295305Y-130296057D01*
X97295305Y-130296057D02*
X97533400Y-130296057D01*
X97533400Y-130296057D02*
X97628638Y-130338914D01*
X97628638Y-130338914D02*
X97676257Y-130381771D01*
X97676257Y-130381771D02*
X97723876Y-130467485D01*
X97723876Y-130467485D02*
X97723876Y-130553200D01*
X97723876Y-130553200D02*
X97676257Y-130681771D01*
X97676257Y-130681771D02*
X97104829Y-131196057D01*
X97104829Y-131196057D02*
X97723876Y-131196057D01*
X92108557Y-111202380D02*
X92108557Y-111011904D01*
X92108557Y-111011904D02*
X92151414Y-110916666D01*
X92151414Y-110916666D02*
X92237128Y-110821428D01*
X92237128Y-110821428D02*
X92408557Y-110773809D01*
X92408557Y-110773809D02*
X92708557Y-110773809D01*
X92708557Y-110773809D02*
X92879985Y-110821428D01*
X92879985Y-110821428D02*
X92965700Y-110916666D01*
X92965700Y-110916666D02*
X93008557Y-111011904D01*
X93008557Y-111011904D02*
X93008557Y-111202380D01*
X93008557Y-111202380D02*
X92965700Y-111297618D01*
X92965700Y-111297618D02*
X92879985Y-111392856D01*
X92879985Y-111392856D02*
X92708557Y-111440475D01*
X92708557Y-111440475D02*
X92408557Y-111440475D01*
X92408557Y-111440475D02*
X92237128Y-111392856D01*
X92237128Y-111392856D02*
X92151414Y-111297618D01*
X92151414Y-111297618D02*
X92108557Y-111202380D01*
X93008557Y-110345237D02*
X92108557Y-110345237D01*
X92108557Y-110345237D02*
X92108557Y-109964285D01*
X92108557Y-109964285D02*
X92151414Y-109869047D01*
X92151414Y-109869047D02*
X92194271Y-109821428D01*
X92194271Y-109821428D02*
X92279985Y-109773809D01*
X92279985Y-109773809D02*
X92408557Y-109773809D01*
X92408557Y-109773809D02*
X92494271Y-109821428D01*
X92494271Y-109821428D02*
X92537128Y-109869047D01*
X92537128Y-109869047D02*
X92579985Y-109964285D01*
X92579985Y-109964285D02*
X92579985Y-110345237D01*
X92751414Y-109392856D02*
X92751414Y-108916666D01*
X93008557Y-109488094D02*
X92108557Y-109154761D01*
X92108557Y-109154761D02*
X93008557Y-108821428D01*
X93008557Y-107964285D02*
X93008557Y-108535713D01*
X93008557Y-108249999D02*
X92108557Y-108249999D01*
X92108557Y-108249999D02*
X92237128Y-108345237D01*
X92237128Y-108345237D02*
X92322842Y-108440475D01*
X92322842Y-108440475D02*
X92365700Y-108535713D01*
X93008557Y-107488094D02*
X93008557Y-107297618D01*
X93008557Y-107297618D02*
X92965700Y-107202380D01*
X92965700Y-107202380D02*
X92922842Y-107154761D01*
X92922842Y-107154761D02*
X92794271Y-107059523D01*
X92794271Y-107059523D02*
X92622842Y-107011904D01*
X92622842Y-107011904D02*
X92279985Y-107011904D01*
X92279985Y-107011904D02*
X92194271Y-107059523D01*
X92194271Y-107059523D02*
X92151414Y-107107142D01*
X92151414Y-107107142D02*
X92108557Y-107202380D01*
X92108557Y-107202380D02*
X92108557Y-107392856D01*
X92108557Y-107392856D02*
X92151414Y-107488094D01*
X92151414Y-107488094D02*
X92194271Y-107535713D01*
X92194271Y-107535713D02*
X92279985Y-107583332D01*
X92279985Y-107583332D02*
X92494271Y-107583332D01*
X92494271Y-107583332D02*
X92579985Y-107535713D01*
X92579985Y-107535713D02*
X92622842Y-107488094D01*
X92622842Y-107488094D02*
X92665700Y-107392856D01*
X92665700Y-107392856D02*
X92665700Y-107202380D01*
X92665700Y-107202380D02*
X92622842Y-107107142D01*
X92622842Y-107107142D02*
X92579985Y-107059523D01*
X92579985Y-107059523D02*
X92494271Y-107011904D01*
X92194271Y-106630951D02*
X92151414Y-106583332D01*
X92151414Y-106583332D02*
X92108557Y-106488094D01*
X92108557Y-106488094D02*
X92108557Y-106249999D01*
X92108557Y-106249999D02*
X92151414Y-106154761D01*
X92151414Y-106154761D02*
X92194271Y-106107142D01*
X92194271Y-106107142D02*
X92279985Y-106059523D01*
X92279985Y-106059523D02*
X92365700Y-106059523D01*
X92365700Y-106059523D02*
X92494271Y-106107142D01*
X92494271Y-106107142D02*
X93008557Y-106678570D01*
X93008557Y-106678570D02*
X93008557Y-106059523D01*
%TO.C,I+*%
D12*
X77183400Y-93500000D02*
X87183400Y-93500000D01*
X87183400Y-103500000D01*
X77183400Y-103500000D01*
X77183400Y-93500000D01*
%TO.C,V-*%
X77183400Y-68500000D02*
X87183400Y-68500000D01*
X87183400Y-78500000D01*
X77183400Y-78500000D01*
X77183400Y-68500000D01*
%TO.C,I-*%
X77183400Y-118500000D02*
X87183400Y-118500000D01*
X87183400Y-128500000D01*
X77183400Y-128500000D01*
X77183400Y-118500000D01*
%TO.C,C18*%
D13*
X102307836Y-119040000D02*
X102092164Y-119040000D01*
X102307836Y-119760000D02*
X102092164Y-119760000D01*
D14*
%TO.C,U26*%
G36*
X103440500Y-119842801D02*
G01*
X103059499Y-119842801D01*
X103059499Y-119588801D01*
X103440500Y-119588801D01*
X103440500Y-119842801D01*
G37*
D15*
X101298001Y-120498001D02*
X101298001Y-121002659D01*
X101298001Y-123397341D02*
X101298001Y-123901999D01*
X101298001Y-123901999D02*
X101802659Y-123901999D01*
X101802659Y-120498001D02*
X101298001Y-120498001D01*
X104197341Y-123901999D02*
X104701999Y-123901999D01*
X104701999Y-120498001D02*
X104197341Y-120498001D01*
X104701999Y-121002659D02*
X104701999Y-120498001D01*
X104701999Y-123901999D02*
X104701999Y-123397341D01*
%TO.C,C17*%
D13*
X103537836Y-124690000D02*
X103322164Y-124690000D01*
X103537836Y-125410000D02*
X103322164Y-125410000D01*
%TO.C,C10*%
X92052500Y-92845336D02*
X92052500Y-92629664D01*
X92772500Y-92845336D02*
X92772500Y-92629664D01*
%TO.C,C21*%
X109240000Y-128092164D02*
X109240000Y-128307836D01*
X109960000Y-128092164D02*
X109960000Y-128307836D01*
%TO.C,C7*%
X96988064Y-125927500D02*
X97203736Y-125927500D01*
X96988064Y-126647500D02*
X97203736Y-126647500D01*
%TO.C,C11*%
X96535000Y-147279664D02*
X96535000Y-147495336D01*
X97255000Y-147279664D02*
X97255000Y-147495336D01*
%TO.C,C2*%
X95442164Y-105727500D02*
X95657836Y-105727500D01*
X95442164Y-106447500D02*
X95657836Y-106447500D01*
%TO.C,C14*%
X113365000Y-155807164D02*
X113365000Y-156022836D01*
X114085000Y-155807164D02*
X114085000Y-156022836D01*
%TO.C,C6*%
X122640000Y-73127836D02*
X122640000Y-72912164D01*
X123360000Y-73127836D02*
X123360000Y-72912164D01*
%TO.C,R3*%
X97956359Y-93870000D02*
X98263641Y-93870000D01*
X97956359Y-94630000D02*
X98263641Y-94630000D01*
%TO.C,U23*%
X110186932Y-150465000D02*
X111322500Y-150465000D01*
X111322500Y-151335000D02*
X111322500Y-151465000D01*
X111322500Y-152335000D02*
X109902500Y-152335000D01*
X109892500Y-150460000D02*
X109752500Y-150270000D01*
X110032500Y-150270000D01*
X109892500Y-150460000D01*
G36*
X109892500Y-150460000D02*
G01*
X109752500Y-150270000D01*
X110032500Y-150270000D01*
X109892500Y-150460000D01*
G37*
%TO.C,U24*%
X115140000Y-139440000D02*
X122860000Y-139440000D01*
X115140000Y-139705000D02*
X115140000Y-139440000D01*
X115140000Y-155060000D02*
X115140000Y-154795000D01*
X122860000Y-139440000D02*
X122860000Y-139705000D01*
X122860000Y-154795000D02*
X122860000Y-155060000D01*
X122860000Y-155060000D02*
X115140000Y-155060000D01*
X123650000Y-154800000D02*
X123990000Y-155270000D01*
X123310000Y-155270000D01*
X123650000Y-154800000D01*
G36*
X123990000Y-155270000D02*
G01*
X123310000Y-155270000D01*
X123650000Y-154800000D01*
X123990000Y-155270000D01*
G37*
%TO.C,C13*%
X112040000Y-150427836D02*
X112040000Y-150212164D01*
X112760000Y-150427836D02*
X112760000Y-150212164D01*
%TO.C,R1*%
X93720000Y-111636359D02*
X93720000Y-111943641D01*
X94480000Y-111636359D02*
X94480000Y-111943641D01*
%TO.C,C1*%
X96690000Y-110679664D02*
X96690000Y-110895336D01*
X97410000Y-110679664D02*
X97410000Y-110895336D01*
%TO.C,C19*%
X108012164Y-107040000D02*
X108227836Y-107040000D01*
X108012164Y-107760000D02*
X108227836Y-107760000D01*
%TO.C,U9*%
D12*
X132825000Y-119025000D02*
X132825000Y-120675000D01*
X132825000Y-136975000D02*
X132825000Y-135325000D01*
X134475000Y-119025000D02*
X132825000Y-119025000D01*
X134475000Y-136975000D02*
X132825000Y-136975000D01*
X149125000Y-119025000D02*
X150775000Y-119025000D01*
X149125000Y-136975000D02*
X149625000Y-136975000D01*
X149625000Y-136975000D02*
X150775000Y-135825000D01*
X150775000Y-119025000D02*
X150775000Y-120675000D01*
X150775000Y-135825000D02*
X150775000Y-135325000D01*
%TO.C,J5*%
D13*
X105490000Y-62640000D02*
X124010000Y-62640000D01*
X105490000Y-64360000D02*
X105490000Y-62640000D01*
X105940000Y-64360000D02*
X105490000Y-64360000D01*
X105940000Y-68010000D02*
X105940000Y-64360000D01*
X109090000Y-68010000D02*
X105940000Y-68010000D01*
X123560000Y-64360000D02*
X123560000Y-68010000D01*
X123560000Y-68010000D02*
X121410000Y-68010000D01*
X124010000Y-62640000D02*
X124010000Y-64360000D01*
X124010000Y-64360000D02*
X123560000Y-64360000D01*
X120470000Y-67900000D02*
X120800000Y-67660000D01*
X120800000Y-68140000D01*
X120470000Y-67900000D01*
G36*
X120800000Y-68140000D02*
G01*
X120470000Y-67900000D01*
X120800000Y-67660000D01*
X120800000Y-68140000D01*
G37*
%TO.C,C3*%
X114992164Y-80640000D02*
X115207836Y-80640000D01*
X114992164Y-81360000D02*
X115207836Y-81360000D01*
%TO.C,U1*%
D12*
X99965000Y-69615000D02*
X107585000Y-69615000D01*
X107585000Y-84855000D01*
X99965000Y-84855000D01*
X99965000Y-69615000D01*
D14*
G36*
X106315000Y-68980000D02*
G01*
X105680000Y-68345000D01*
X106950000Y-68345000D01*
X106315000Y-68980000D01*
G37*
%TO.C,C9*%
D13*
X97004664Y-90877500D02*
X97220336Y-90877500D01*
X97004664Y-91597500D02*
X97220336Y-91597500D01*
%TO.C,IC2*%
D16*
X108950000Y-117800000D02*
X126850000Y-117800000D01*
X108950000Y-124600000D02*
X108950000Y-117800000D01*
X108970000Y-126900000D02*
X108970000Y-124950000D01*
X126850000Y-117800000D02*
X126850000Y-124600000D01*
X126850000Y-124600000D02*
X108950000Y-124600000D01*
%TO.C,U4*%
D13*
X117115000Y-78680000D02*
X117115000Y-74560000D01*
X122480000Y-74560000D02*
X122480000Y-78680000D01*
X122027500Y-72910000D02*
X121787500Y-72580000D01*
X122267500Y-72580000D01*
X122027500Y-72910000D01*
G36*
X122027500Y-72910000D02*
G01*
X121787500Y-72580000D01*
X122267500Y-72580000D01*
X122027500Y-72910000D01*
G37*
%TO.C,C4*%
X122472164Y-80440000D02*
X122687836Y-80440000D01*
X122472164Y-81160000D02*
X122687836Y-81160000D01*
%TO.C,C5*%
X114740000Y-73307836D02*
X114740000Y-73092164D01*
X115460000Y-73307836D02*
X115460000Y-73092164D01*
%TO.C,U10*%
D12*
X152425000Y-119225000D02*
X152425000Y-120875000D01*
X152425000Y-137175000D02*
X152425000Y-135525000D01*
X154075000Y-119225000D02*
X152425000Y-119225000D01*
X154075000Y-137175000D02*
X152425000Y-137175000D01*
X168725000Y-119225000D02*
X170375000Y-119225000D01*
X168725000Y-137175000D02*
X169225000Y-137175000D01*
X169225000Y-137175000D02*
X170375000Y-136025000D01*
X170375000Y-119225000D02*
X170375000Y-120875000D01*
X170375000Y-136025000D02*
X170375000Y-135525000D01*
%TO.C,C22*%
D13*
X110507836Y-114350000D02*
X110292164Y-114350000D01*
X110507836Y-115070000D02*
X110292164Y-115070000D01*
%TO.C,R6*%
X118946359Y-155470000D02*
X119253641Y-155470000D01*
X118946359Y-156230000D02*
X119253641Y-156230000D01*
%TO.C,V+*%
D12*
X77183400Y-143500000D02*
X87183400Y-143500000D01*
X87183400Y-153500000D01*
X77183400Y-153500000D01*
X77183400Y-143500000D01*
%TO.C,R2*%
D13*
X97956359Y-129007500D02*
X98263641Y-129007500D01*
X97956359Y-129767500D02*
X98263641Y-129767500D01*
%TO.C,R4*%
X97456359Y-143420000D02*
X97763641Y-143420000D01*
X97456359Y-144180000D02*
X97763641Y-144180000D01*
%TO.C,R5*%
X111943641Y-152570000D02*
X111636359Y-152570000D01*
X111943641Y-153330000D02*
X111636359Y-153330000D01*
%TO.C,U17*%
D12*
X179425000Y-90425000D02*
X179425000Y-92075000D01*
X179425000Y-108375000D02*
X179425000Y-106725000D01*
X181075000Y-90425000D02*
X179425000Y-90425000D01*
X181075000Y-108375000D02*
X179425000Y-108375000D01*
X195725000Y-90425000D02*
X197375000Y-90425000D01*
X195725000Y-108375000D02*
X196225000Y-108375000D01*
X196225000Y-108375000D02*
X197375000Y-107225000D01*
X197375000Y-90425000D02*
X197375000Y-92075000D01*
X197375000Y-107225000D02*
X197375000Y-106725000D01*
%TO.C,U8*%
D13*
X93190000Y-144340000D02*
X93240000Y-144340000D01*
X93190000Y-146160000D02*
X93190000Y-144340000D01*
X93240000Y-146160000D02*
X93190000Y-146160000D01*
X95140000Y-146160000D02*
X94360000Y-146160000D01*
X96260000Y-144340000D02*
X96310000Y-144340000D01*
X96310000Y-144340000D02*
X96310000Y-146160000D01*
X96310000Y-146160000D02*
X96260000Y-146160000D01*
X96260000Y-143800000D02*
X96590000Y-143560000D01*
X96590000Y-144040000D01*
X96260000Y-143800000D01*
G36*
X96590000Y-144040000D02*
G01*
X96260000Y-143800000D01*
X96590000Y-143560000D01*
X96590000Y-144040000D01*
G37*
%TO.C,U7*%
X94140000Y-91777500D02*
X95960000Y-91777500D01*
X94140000Y-91827500D02*
X94140000Y-91777500D01*
X94140000Y-94897500D02*
X94140000Y-94847500D01*
X95960000Y-91777500D02*
X95960000Y-91827500D01*
X95960000Y-92947500D02*
X95960000Y-93727500D01*
X95960000Y-94847500D02*
X95960000Y-94897500D01*
X95960000Y-94897500D02*
X94140000Y-94897500D01*
X93600000Y-91827500D02*
X93360000Y-91497500D01*
X93840000Y-91497500D01*
X93600000Y-91827500D01*
G36*
X93600000Y-91827500D02*
G01*
X93360000Y-91497500D01*
X93840000Y-91497500D01*
X93600000Y-91827500D01*
G37*
%TO.C,U3*%
X109192500Y-78892500D02*
X109192500Y-74772500D01*
X114557500Y-74772500D02*
X114557500Y-78892500D01*
X114105000Y-73122500D02*
X113865000Y-72792500D01*
X114345000Y-72792500D01*
X114105000Y-73122500D01*
G36*
X114105000Y-73122500D02*
G01*
X113865000Y-72792500D01*
X114345000Y-72792500D01*
X114105000Y-73122500D01*
G37*
%TO.C,C12*%
X95087164Y-142227500D02*
X95302836Y-142227500D01*
X95087164Y-142947500D02*
X95302836Y-142947500D01*
%TO.C,U16*%
D12*
X171825000Y-110225000D02*
X171825000Y-111875000D01*
X171825000Y-128175000D02*
X171825000Y-126525000D01*
X173475000Y-110225000D02*
X171825000Y-110225000D01*
X173475000Y-128175000D02*
X171825000Y-128175000D01*
X188125000Y-110225000D02*
X189775000Y-110225000D01*
X188125000Y-128175000D02*
X188625000Y-128175000D01*
X188625000Y-128175000D02*
X189775000Y-127025000D01*
X189775000Y-110225000D02*
X189775000Y-111875000D01*
X189775000Y-127025000D02*
X189775000Y-126525000D01*
%TO.C,C8*%
D13*
X92035900Y-127875336D02*
X92035900Y-127659664D01*
X92755900Y-127875336D02*
X92755900Y-127659664D01*
%TO.C,IC1*%
D16*
X106845000Y-97500000D02*
X124745000Y-97500000D01*
X106845000Y-104300000D02*
X106845000Y-97500000D01*
X106865000Y-106600000D02*
X106865000Y-104650000D01*
X124745000Y-97500000D02*
X124745000Y-104300000D01*
X124745000Y-104300000D02*
X106845000Y-104300000D01*
%TO.C,C20*%
D13*
X109172164Y-94040000D02*
X109387836Y-94040000D01*
X109172164Y-94760000D02*
X109387836Y-94760000D01*
%TO.C,U6*%
X94123400Y-126827500D02*
X95943400Y-126827500D01*
X94123400Y-126877500D02*
X94123400Y-126827500D01*
X94123400Y-129947500D02*
X94123400Y-129897500D01*
X95943400Y-126827500D02*
X95943400Y-126877500D01*
X95943400Y-127997500D02*
X95943400Y-128777500D01*
X95943400Y-129897500D02*
X95943400Y-129947500D01*
X95943400Y-129947500D02*
X94123400Y-129947500D01*
X93583400Y-126877500D02*
X93343400Y-126547500D01*
X93823400Y-126547500D01*
X93583400Y-126877500D01*
G36*
X93583400Y-126877500D02*
G01*
X93343400Y-126547500D01*
X93823400Y-126547500D01*
X93583400Y-126877500D01*
G37*
%TO.C,U5*%
X93440000Y-107840000D02*
X93490000Y-107840000D01*
X93440000Y-109660000D02*
X93440000Y-107840000D01*
X93490000Y-109660000D02*
X93440000Y-109660000D01*
X95390000Y-109660000D02*
X94610000Y-109660000D01*
X96510000Y-107840000D02*
X96560000Y-107840000D01*
X96560000Y-107840000D02*
X96560000Y-109660000D01*
X96560000Y-109660000D02*
X96510000Y-109660000D01*
X96510000Y-107300000D02*
X96840000Y-107060000D01*
X96840000Y-107540000D01*
X96510000Y-107300000D01*
G36*
X96840000Y-107540000D02*
G01*
X96510000Y-107300000D01*
X96840000Y-107060000D01*
X96840000Y-107540000D01*
G37*
%TD*%
M02*
