%TF.GenerationSoftware,KiCad,Pcbnew,10.0.3*%
%TF.CreationDate,2026-07-17T10:22:30-05:00*%
%TF.ProjectId,teer_mux,74656572-5f6d-4757-982e-6b696361645f,rev?*%
%TF.SameCoordinates,Original*%
%TF.FileFunction,Paste,Top*%
%TF.FilePolarity,Positive*%
%FSLAX46Y46*%
G04 Gerber Fmt 4.6, Leading zero omitted, Abs format (unit mm)*
G04 Created by KiCad (PCBNEW 10.0.3) date 2026-07-17 10:22:30*
%MOMM*%
%LPD*%
G01*
G04 APERTURE LIST*
G04 Aperture macros list*
%AMRoundRect*
0 Rectangle with rounded corners*
0 $1 Rounding radius*
0 $2 $3 $4 $5 $6 $7 $8 $9 X,Y pos of 4 corners*
0 Add a 4 corners polygon primitive as box body*
4,1,4,$2,$3,$4,$5,$6,$7,$8,$9,$2,$3,0*
0 Add four circle primitives for the rounded corners*
1,1,$1+$1,$2,$3*
1,1,$1+$1,$4,$5*
1,1,$1+$1,$6,$7*
1,1,$1+$1,$8,$9*
0 Add four rect primitives between the rounded corners*
20,1,$1+$1,$2,$3,$4,$5,0*
20,1,$1+$1,$4,$5,$6,$7,0*
20,1,$1+$1,$6,$7,$8,$9,0*
20,1,$1+$1,$8,$9,$2,$3,0*%
%AMFreePoly0*
4,1,7,1.050000,-0.975000,-0.250000,-0.975000,-0.250000,-0.625000,-1.050000,-0.625000,-1.050000,0.975000,1.050000,0.975000,1.050000,-0.975000,1.050000,-0.975000,$1*%
%AMFreePoly1*
4,1,7,1.050000,-0.625000,0.250000,-0.625000,0.250000,-0.975000,-1.050000,-0.975000,-1.050000,0.975000,1.050000,0.975000,1.050000,-0.625000,1.050000,-0.625000,$1*%
G04 Aperture macros list end*
%ADD10RoundRect,0.140000X0.170000X-0.140000X0.170000X0.140000X-0.170000X0.140000X-0.170000X-0.140000X0*%
%ADD11RoundRect,0.140000X-0.170000X0.140000X-0.170000X-0.140000X0.170000X-0.140000X0.170000X0.140000X0*%
%ADD12RoundRect,0.075000X0.075000X0.475000X-0.075000X0.475000X-0.075000X-0.475000X0.075000X-0.475000X0*%
%ADD13FreePoly0,180.000000*%
%ADD14FreePoly1,180.000000*%
%ADD15RoundRect,0.140000X-0.140000X-0.170000X0.140000X-0.170000X0.140000X0.170000X-0.140000X0.170000X0*%
%ADD16RoundRect,0.135000X-0.135000X-0.185000X0.135000X-0.185000X0.135000X0.185000X-0.135000X0.185000X0*%
%ADD17RoundRect,0.087500X-0.250000X-0.087500X0.250000X-0.087500X0.250000X0.087500X-0.250000X0.087500X0*%
%ADD18RoundRect,0.150000X0.875000X0.150000X-0.875000X0.150000X-0.875000X-0.150000X0.875000X-0.150000X0*%
%ADD19RoundRect,0.135000X-0.185000X0.135000X-0.185000X-0.135000X0.185000X-0.135000X0.185000X0.135000X0*%
%ADD20RoundRect,0.140000X0.140000X0.170000X-0.140000X0.170000X-0.140000X-0.170000X0.140000X-0.170000X0*%
%ADD21R,0.229200X1.053200*%
%ADD22R,1.053200X0.229200*%
%ADD23R,1.800000X1.800000*%
%ADD24R,0.700000X1.925000*%
%ADD25R,1.925000X0.700000*%
%ADD26R,0.650000X1.950000*%
%ADD27RoundRect,0.100000X-0.100000X0.725000X-0.100000X-0.725000X0.100000X-0.725000X0.100000X0.725000X0*%
%ADD28RoundRect,0.135000X0.135000X0.185000X-0.135000X0.185000X-0.135000X-0.185000X0.135000X-0.185000X0*%
%ADD29RoundRect,0.150000X-0.150000X0.512500X-0.150000X-0.512500X0.150000X-0.512500X0.150000X0.512500X0*%
%ADD30RoundRect,0.150000X-0.512500X-0.150000X0.512500X-0.150000X0.512500X0.150000X-0.512500X0.150000X0*%
%ADD31R,1.500000X1.100000*%
G04 APERTURE END LIST*
D10*
%TO.C,C10*%
X93999606Y-110096822D03*
X93999606Y-109136822D03*
%TD*%
D11*
%TO.C,C21*%
X109600000Y-127720000D03*
X109600000Y-128680000D03*
%TD*%
D12*
%TO.C,J5*%
X120009606Y-67896822D03*
X119509606Y-67896822D03*
X119009606Y-67896822D03*
X118509606Y-67896822D03*
X118009606Y-67896822D03*
X117509606Y-67896822D03*
X117009606Y-67896822D03*
X116509606Y-67896822D03*
X116009606Y-67896822D03*
X115509606Y-67896822D03*
X115009606Y-67896822D03*
X114509606Y-67896822D03*
X114009606Y-67896822D03*
X113509606Y-67896822D03*
X113009606Y-67896822D03*
X112509606Y-67896822D03*
X112009606Y-67896822D03*
X111509606Y-67896822D03*
X111009606Y-67896822D03*
X110509606Y-67896822D03*
X110009606Y-67896822D03*
X109509606Y-67896822D03*
D13*
X122259606Y-66771822D03*
D14*
X107259606Y-66771822D03*
%TD*%
D15*
%TO.C,C7*%
X96615900Y-126287500D03*
X97575900Y-126287500D03*
%TD*%
D11*
%TO.C,C11*%
X96895000Y-146907500D03*
X96895000Y-147867500D03*
%TD*%
D15*
%TO.C,C2*%
X96119606Y-96211822D03*
X97079606Y-96211822D03*
%TD*%
D11*
%TO.C,C14*%
X113725000Y-155435000D03*
X113725000Y-156395000D03*
%TD*%
D10*
%TO.C,C6*%
X123000000Y-73500000D03*
X123000000Y-72540000D03*
%TD*%
D16*
%TO.C,R3*%
X99187106Y-111129322D03*
X100207106Y-111129322D03*
%TD*%
D17*
%TO.C,U23*%
X109900000Y-150900000D03*
X109900000Y-151400000D03*
X109900000Y-151900000D03*
X111325000Y-151900000D03*
X111325000Y-150900000D03*
%TD*%
D18*
%TO.C,U24*%
X123650000Y-154235000D03*
X123650000Y-152965000D03*
X123650000Y-151695000D03*
X123650000Y-150425000D03*
X123650000Y-149155000D03*
X123650000Y-147885000D03*
X123650000Y-146615000D03*
X123650000Y-145345000D03*
X123650000Y-144075000D03*
X123650000Y-142805000D03*
X123650000Y-141535000D03*
X123650000Y-140265000D03*
X114350000Y-140265000D03*
X114350000Y-141535000D03*
X114350000Y-142805000D03*
X114350000Y-144075000D03*
X114350000Y-145345000D03*
X114350000Y-146615000D03*
X114350000Y-147885000D03*
X114350000Y-149155000D03*
X114350000Y-150425000D03*
X114350000Y-151695000D03*
X114350000Y-152965000D03*
X114350000Y-154235000D03*
%TD*%
D10*
%TO.C,C13*%
X112400000Y-150800000D03*
X112400000Y-149840000D03*
%TD*%
D19*
%TO.C,R1*%
X95149606Y-101404322D03*
X95149606Y-102424322D03*
%TD*%
D20*
%TO.C,C18*%
X102680000Y-119400000D03*
X101720000Y-119400000D03*
%TD*%
D11*
%TO.C,C1*%
X98099606Y-100431822D03*
X98099606Y-101391822D03*
%TD*%
D21*
%TO.C,U26*%
X102249999Y-123776601D03*
X102750000Y-123776601D03*
X103250000Y-123776601D03*
X103750001Y-123776601D03*
D22*
X104576601Y-122950001D03*
X104576601Y-122450000D03*
X104576601Y-121950000D03*
X104576601Y-121449999D03*
D21*
X103750001Y-120623399D03*
X103250000Y-120623399D03*
X102750000Y-120623399D03*
X102249999Y-120623399D03*
D22*
X101423399Y-121449999D03*
X101423399Y-121950000D03*
X101423399Y-122450000D03*
X101423399Y-122950001D03*
D23*
X103000000Y-122200000D03*
%TD*%
D15*
%TO.C,C19*%
X107640000Y-107400000D03*
X108600000Y-107400000D03*
%TD*%
D24*
%TO.C,U9*%
X141800000Y-135862500D03*
X143070000Y-135862500D03*
X144340000Y-135862500D03*
X145610000Y-135862500D03*
X146880000Y-135862500D03*
X148150000Y-135862500D03*
D25*
X149662500Y-134350000D03*
X149662500Y-133080000D03*
X149662500Y-131810000D03*
X149662500Y-130540000D03*
X149662500Y-129270000D03*
X149662500Y-128000000D03*
X149662500Y-126730000D03*
X149662500Y-125460000D03*
X149662500Y-124190000D03*
X149662500Y-122920000D03*
X149662500Y-121650000D03*
D24*
X148150000Y-120137500D03*
X146880000Y-120137500D03*
X145610000Y-120137500D03*
X144340000Y-120137500D03*
X143070000Y-120137500D03*
X141800000Y-120137500D03*
X140530000Y-120137500D03*
X139260000Y-120137500D03*
X137990000Y-120137500D03*
X136720000Y-120137500D03*
X135450000Y-120137500D03*
D25*
X133937500Y-121650000D03*
X133937500Y-122920000D03*
X133937500Y-124190000D03*
X133937500Y-125460000D03*
X133937500Y-126730000D03*
X133937500Y-128000000D03*
X133937500Y-129270000D03*
X133937500Y-130540000D03*
X133937500Y-131810000D03*
X133937500Y-133080000D03*
X133937500Y-134350000D03*
D24*
X135450000Y-135862500D03*
X136720000Y-135862500D03*
X137990000Y-135862500D03*
X139260000Y-135862500D03*
X140530000Y-135862500D03*
%TD*%
D15*
%TO.C,C3*%
X114620000Y-81000000D03*
X115580000Y-81000000D03*
%TD*%
%TO.C,C9*%
X98219606Y-108116822D03*
X99179606Y-108116822D03*
%TD*%
D26*
%TO.C,IC2*%
X109645000Y-125925000D03*
X110915000Y-125925000D03*
X112185000Y-125925000D03*
X113455000Y-125925000D03*
X114725000Y-125925000D03*
X115995000Y-125925000D03*
X117265000Y-125925000D03*
X118535000Y-125925000D03*
X119805000Y-125925000D03*
X121075000Y-125925000D03*
X122345000Y-125925000D03*
X123615000Y-125925000D03*
X124885000Y-125925000D03*
X126155000Y-125925000D03*
X126155000Y-116475000D03*
X124885000Y-116475000D03*
X123615000Y-116475000D03*
X122345000Y-116475000D03*
X121075000Y-116475000D03*
X119805000Y-116475000D03*
X118535000Y-116475000D03*
X117265000Y-116475000D03*
X115995000Y-116475000D03*
X114725000Y-116475000D03*
X113455000Y-116475000D03*
X112185000Y-116475000D03*
X110915000Y-116475000D03*
X109645000Y-116475000D03*
%TD*%
D27*
%TO.C,U4*%
X122020000Y-73995000D03*
X121385000Y-73995000D03*
X120750000Y-73995000D03*
X120115000Y-73995000D03*
X119480000Y-73995000D03*
X118845000Y-73995000D03*
X118210000Y-73995000D03*
X117575000Y-73995000D03*
X117575000Y-79245000D03*
X118210000Y-79245000D03*
X118845000Y-79245000D03*
X119480000Y-79245000D03*
X120115000Y-79245000D03*
X120750000Y-79245000D03*
X121385000Y-79245000D03*
X122020000Y-79245000D03*
%TD*%
D15*
%TO.C,C4*%
X122100000Y-80800000D03*
X123060000Y-80800000D03*
%TD*%
D20*
%TO.C,C17*%
X103910000Y-125050000D03*
X102950000Y-125050000D03*
%TD*%
D10*
%TO.C,C5*%
X115100000Y-73680000D03*
X115100000Y-72720000D03*
%TD*%
D24*
%TO.C,U10*%
X161400000Y-136062500D03*
X162670000Y-136062500D03*
X163940000Y-136062500D03*
X165210000Y-136062500D03*
X166480000Y-136062500D03*
X167750000Y-136062500D03*
D25*
X169262500Y-134550000D03*
X169262500Y-133280000D03*
X169262500Y-132010000D03*
X169262500Y-130740000D03*
X169262500Y-129470000D03*
X169262500Y-128200000D03*
X169262500Y-126930000D03*
X169262500Y-125660000D03*
X169262500Y-124390000D03*
X169262500Y-123120000D03*
X169262500Y-121850000D03*
D24*
X167750000Y-120337500D03*
X166480000Y-120337500D03*
X165210000Y-120337500D03*
X163940000Y-120337500D03*
X162670000Y-120337500D03*
X161400000Y-120337500D03*
X160130000Y-120337500D03*
X158860000Y-120337500D03*
X157590000Y-120337500D03*
X156320000Y-120337500D03*
X155050000Y-120337500D03*
D25*
X153537500Y-121850000D03*
X153537500Y-123120000D03*
X153537500Y-124390000D03*
X153537500Y-125660000D03*
X153537500Y-126930000D03*
X153537500Y-128200000D03*
X153537500Y-129470000D03*
X153537500Y-130740000D03*
X153537500Y-132010000D03*
X153537500Y-133280000D03*
X153537500Y-134550000D03*
D24*
X155050000Y-136062500D03*
X156320000Y-136062500D03*
X157590000Y-136062500D03*
X158860000Y-136062500D03*
X160130000Y-136062500D03*
%TD*%
D20*
%TO.C,C22*%
X110880000Y-114710000D03*
X109920000Y-114710000D03*
%TD*%
D16*
%TO.C,R6*%
X118590000Y-155850000D03*
X119610000Y-155850000D03*
%TD*%
%TO.C,R2*%
X97600000Y-129387500D03*
X98620000Y-129387500D03*
%TD*%
%TO.C,R4*%
X97100000Y-143800000D03*
X98120000Y-143800000D03*
%TD*%
D28*
%TO.C,R5*%
X112300000Y-152950000D03*
X111280000Y-152950000D03*
%TD*%
D24*
%TO.C,U17*%
X188400000Y-107262500D03*
X189670000Y-107262500D03*
X190940000Y-107262500D03*
X192210000Y-107262500D03*
X193480000Y-107262500D03*
X194750000Y-107262500D03*
D25*
X196262500Y-105750000D03*
X196262500Y-104480000D03*
X196262500Y-103210000D03*
X196262500Y-101940000D03*
X196262500Y-100670000D03*
X196262500Y-99400000D03*
X196262500Y-98130000D03*
X196262500Y-96860000D03*
X196262500Y-95590000D03*
X196262500Y-94320000D03*
X196262500Y-93050000D03*
D24*
X194750000Y-91537500D03*
X193480000Y-91537500D03*
X192210000Y-91537500D03*
X190940000Y-91537500D03*
X189670000Y-91537500D03*
X188400000Y-91537500D03*
X187130000Y-91537500D03*
X185860000Y-91537500D03*
X184590000Y-91537500D03*
X183320000Y-91537500D03*
X182050000Y-91537500D03*
D25*
X180537500Y-93050000D03*
X180537500Y-94320000D03*
X180537500Y-95590000D03*
X180537500Y-96860000D03*
X180537500Y-98130000D03*
X180537500Y-99400000D03*
X180537500Y-100670000D03*
X180537500Y-101940000D03*
X180537500Y-103210000D03*
X180537500Y-104480000D03*
X180537500Y-105750000D03*
D24*
X182050000Y-107262500D03*
X183320000Y-107262500D03*
X184590000Y-107262500D03*
X185860000Y-107262500D03*
X187130000Y-107262500D03*
%TD*%
D29*
%TO.C,U8*%
X95700000Y-144112500D03*
X94750000Y-144112500D03*
X93800000Y-144112500D03*
X93800000Y-146387500D03*
X95700000Y-146387500D03*
%TD*%
D30*
%TO.C,U7*%
X95499606Y-109266822D03*
X95499606Y-110216822D03*
X95499606Y-111166822D03*
X97774606Y-111166822D03*
X97774606Y-109266822D03*
%TD*%
D27*
%TO.C,U3*%
X114097500Y-74207500D03*
X113462500Y-74207500D03*
X112827500Y-74207500D03*
X112192500Y-74207500D03*
X111557500Y-74207500D03*
X110922500Y-74207500D03*
X110287500Y-74207500D03*
X109652500Y-74207500D03*
X109652500Y-79457500D03*
X110287500Y-79457500D03*
X110922500Y-79457500D03*
X111557500Y-79457500D03*
X112192500Y-79457500D03*
X112827500Y-79457500D03*
X113462500Y-79457500D03*
X114097500Y-79457500D03*
%TD*%
D15*
%TO.C,C12*%
X94715000Y-142587500D03*
X95675000Y-142587500D03*
%TD*%
D24*
%TO.C,U16*%
X180800000Y-127062500D03*
X182070000Y-127062500D03*
X183340000Y-127062500D03*
X184610000Y-127062500D03*
X185880000Y-127062500D03*
X187150000Y-127062500D03*
D25*
X188662500Y-125550000D03*
X188662500Y-124280000D03*
X188662500Y-123010000D03*
X188662500Y-121740000D03*
X188662500Y-120470000D03*
X188662500Y-119200000D03*
X188662500Y-117930000D03*
X188662500Y-116660000D03*
X188662500Y-115390000D03*
X188662500Y-114120000D03*
X188662500Y-112850000D03*
D24*
X187150000Y-111337500D03*
X185880000Y-111337500D03*
X184610000Y-111337500D03*
X183340000Y-111337500D03*
X182070000Y-111337500D03*
X180800000Y-111337500D03*
X179530000Y-111337500D03*
X178260000Y-111337500D03*
X176990000Y-111337500D03*
X175720000Y-111337500D03*
X174450000Y-111337500D03*
D25*
X172937500Y-112850000D03*
X172937500Y-114120000D03*
X172937500Y-115390000D03*
X172937500Y-116660000D03*
X172937500Y-117930000D03*
X172937500Y-119200000D03*
X172937500Y-120470000D03*
X172937500Y-121740000D03*
X172937500Y-123010000D03*
X172937500Y-124280000D03*
X172937500Y-125550000D03*
D24*
X174450000Y-127062500D03*
X175720000Y-127062500D03*
X176990000Y-127062500D03*
X178260000Y-127062500D03*
X179530000Y-127062500D03*
%TD*%
D10*
%TO.C,C8*%
X92395900Y-128247500D03*
X92395900Y-127287500D03*
%TD*%
D26*
%TO.C,IC1*%
X107540000Y-105625000D03*
X108810000Y-105625000D03*
X110080000Y-105625000D03*
X111350000Y-105625000D03*
X112620000Y-105625000D03*
X113890000Y-105625000D03*
X115160000Y-105625000D03*
X116430000Y-105625000D03*
X117700000Y-105625000D03*
X118970000Y-105625000D03*
X120240000Y-105625000D03*
X121510000Y-105625000D03*
X122780000Y-105625000D03*
X124050000Y-105625000D03*
X124050000Y-96175000D03*
X122780000Y-96175000D03*
X121510000Y-96175000D03*
X120240000Y-96175000D03*
X118970000Y-96175000D03*
X117700000Y-96175000D03*
X116430000Y-96175000D03*
X115160000Y-96175000D03*
X113890000Y-96175000D03*
X112620000Y-96175000D03*
X111350000Y-96175000D03*
X110080000Y-96175000D03*
X108810000Y-96175000D03*
X107540000Y-96175000D03*
%TD*%
D15*
%TO.C,C20*%
X108800000Y-94400000D03*
X109760000Y-94400000D03*
%TD*%
D30*
%TO.C,U6*%
X93895900Y-127437500D03*
X93895900Y-128387500D03*
X93895900Y-129337500D03*
X96170900Y-129337500D03*
X96170900Y-127437500D03*
%TD*%
D29*
%TO.C,U5*%
X96999606Y-97736822D03*
X96049606Y-97736822D03*
X95099606Y-97736822D03*
X95099606Y-100011822D03*
X96999606Y-100011822D03*
%TD*%
D31*
%TO.C,S1*%
X101529606Y-133476822D03*
X110429606Y-133476822D03*
X101529606Y-136016822D03*
X110429606Y-136016822D03*
%TD*%
M02*
