%TF.GenerationSoftware,KiCad,Pcbnew,10.0.3*%
%TF.CreationDate,2026-07-17T10:22:30-05:00*%
%TF.ProjectId,teer_mux,74656572-5f6d-4757-982e-6b696361645f,rev?*%
%TF.SameCoordinates,Original*%
%TF.FileFunction,Legend,Top*%
%TF.FilePolarity,Positive*%
%FSLAX46Y46*%
G04 Gerber Fmt 4.6, Leading zero omitted, Abs format (unit mm)*
G04 Created by KiCad (PCBNEW 10.0.3) date 2026-07-17 10:22:30*
%MOMM*%
%LPD*%
G01*
G04 APERTURE LIST*
%ADD10C,0.250000*%
%ADD11C,0.150000*%
%ADD12C,0.100000*%
%ADD13C,0.254000*%
%ADD14C,0.120000*%
%ADD15C,0.152400*%
%ADD16C,0.000000*%
%ADD17C,0.200000*%
G04 APERTURE END LIST*
D10*
X88329793Y-134513536D02*
X88805983Y-136313536D01*
X88805983Y-136313536D02*
X89186936Y-135027822D01*
X89186936Y-135027822D02*
X89567888Y-136313536D01*
X89567888Y-136313536D02*
X90044079Y-134513536D01*
X90805983Y-135370679D02*
X91472650Y-135370679D01*
X91758364Y-136313536D02*
X90805983Y-136313536D01*
X90805983Y-136313536D02*
X90805983Y-134513536D01*
X90805983Y-134513536D02*
X91758364Y-134513536D01*
X87727225Y-113966536D02*
X88393891Y-115766536D01*
X88393891Y-115766536D02*
X89060558Y-113966536D01*
X89251035Y-115937964D02*
X90774844Y-115937964D01*
X92108178Y-115766536D02*
X92108178Y-113966536D01*
X92108178Y-115680822D02*
X91917702Y-115766536D01*
X91917702Y-115766536D02*
X91536749Y-115766536D01*
X91536749Y-115766536D02*
X91346273Y-115680822D01*
X91346273Y-115680822D02*
X91251035Y-115595107D01*
X91251035Y-115595107D02*
X91155797Y-115423679D01*
X91155797Y-115423679D02*
X91155797Y-114909393D01*
X91155797Y-114909393D02*
X91251035Y-114737964D01*
X91251035Y-114737964D02*
X91346273Y-114652250D01*
X91346273Y-114652250D02*
X91536749Y-114566536D01*
X91536749Y-114566536D02*
X91917702Y-114566536D01*
X91917702Y-114566536D02*
X92108178Y-114652250D01*
X93060559Y-115766536D02*
X93060559Y-114566536D01*
X93060559Y-113966536D02*
X92965321Y-114052250D01*
X92965321Y-114052250D02*
X93060559Y-114137964D01*
X93060559Y-114137964D02*
X93155797Y-114052250D01*
X93155797Y-114052250D02*
X93060559Y-113966536D01*
X93060559Y-113966536D02*
X93060559Y-114137964D01*
X93727226Y-114566536D02*
X94489130Y-114566536D01*
X94012940Y-115766536D02*
X94012940Y-114223679D01*
X94012940Y-114223679D02*
X94108178Y-114052250D01*
X94108178Y-114052250D02*
X94298654Y-113966536D01*
X94298654Y-113966536D02*
X94489130Y-113966536D01*
X94870083Y-114566536D02*
X95631987Y-114566536D01*
X95155797Y-115766536D02*
X95155797Y-114223679D01*
X95155797Y-114223679D02*
X95251035Y-114052250D01*
X95251035Y-114052250D02*
X95441511Y-113966536D01*
X95441511Y-113966536D02*
X95631987Y-113966536D01*
D11*
X92295663Y-110831107D02*
X92295663Y-110735869D01*
X92295663Y-110735869D02*
X92338520Y-110640631D01*
X92338520Y-110640631D02*
X92381377Y-110593012D01*
X92381377Y-110593012D02*
X92467091Y-110545393D01*
X92467091Y-110545393D02*
X92638520Y-110497774D01*
X92638520Y-110497774D02*
X92852806Y-110497774D01*
X92852806Y-110497774D02*
X93024234Y-110545393D01*
X93024234Y-110545393D02*
X93109948Y-110593012D01*
X93109948Y-110593012D02*
X93152806Y-110640631D01*
X93152806Y-110640631D02*
X93195663Y-110735869D01*
X93195663Y-110735869D02*
X93195663Y-110831107D01*
X93195663Y-110831107D02*
X93152806Y-110926345D01*
X93152806Y-110926345D02*
X93109948Y-110973964D01*
X93109948Y-110973964D02*
X93024234Y-111021583D01*
X93024234Y-111021583D02*
X92852806Y-111069202D01*
X92852806Y-111069202D02*
X92638520Y-111069202D01*
X92638520Y-111069202D02*
X92467091Y-111021583D01*
X92467091Y-111021583D02*
X92381377Y-110973964D01*
X92381377Y-110973964D02*
X92338520Y-110926345D01*
X92338520Y-110926345D02*
X92295663Y-110831107D01*
X93109948Y-110069202D02*
X93152806Y-110021583D01*
X93152806Y-110021583D02*
X93195663Y-110069202D01*
X93195663Y-110069202D02*
X93152806Y-110116821D01*
X93152806Y-110116821D02*
X93109948Y-110069202D01*
X93109948Y-110069202D02*
X93195663Y-110069202D01*
X93195663Y-109069203D02*
X93195663Y-109640631D01*
X93195663Y-109354917D02*
X92295663Y-109354917D01*
X92295663Y-109354917D02*
X92424234Y-109450155D01*
X92424234Y-109450155D02*
X92509948Y-109545393D01*
X92509948Y-109545393D02*
X92552806Y-109640631D01*
X92595663Y-108212060D02*
X93195663Y-108212060D01*
X92595663Y-108640631D02*
X93067091Y-108640631D01*
X93067091Y-108640631D02*
X93152806Y-108593012D01*
X93152806Y-108593012D02*
X93195663Y-108497774D01*
X93195663Y-108497774D02*
X93195663Y-108354917D01*
X93195663Y-108354917D02*
X93152806Y-108259679D01*
X93152806Y-108259679D02*
X93109948Y-108212060D01*
X107948557Y-129414285D02*
X107948557Y-129319047D01*
X107948557Y-129319047D02*
X107991414Y-129223809D01*
X107991414Y-129223809D02*
X108034271Y-129176190D01*
X108034271Y-129176190D02*
X108119985Y-129128571D01*
X108119985Y-129128571D02*
X108291414Y-129080952D01*
X108291414Y-129080952D02*
X108505700Y-129080952D01*
X108505700Y-129080952D02*
X108677128Y-129128571D01*
X108677128Y-129128571D02*
X108762842Y-129176190D01*
X108762842Y-129176190D02*
X108805700Y-129223809D01*
X108805700Y-129223809D02*
X108848557Y-129319047D01*
X108848557Y-129319047D02*
X108848557Y-129414285D01*
X108848557Y-129414285D02*
X108805700Y-129509523D01*
X108805700Y-129509523D02*
X108762842Y-129557142D01*
X108762842Y-129557142D02*
X108677128Y-129604761D01*
X108677128Y-129604761D02*
X108505700Y-129652380D01*
X108505700Y-129652380D02*
X108291414Y-129652380D01*
X108291414Y-129652380D02*
X108119985Y-129604761D01*
X108119985Y-129604761D02*
X108034271Y-129557142D01*
X108034271Y-129557142D02*
X107991414Y-129509523D01*
X107991414Y-129509523D02*
X107948557Y-129414285D01*
X108762842Y-128652380D02*
X108805700Y-128604761D01*
X108805700Y-128604761D02*
X108848557Y-128652380D01*
X108848557Y-128652380D02*
X108805700Y-128699999D01*
X108805700Y-128699999D02*
X108762842Y-128652380D01*
X108762842Y-128652380D02*
X108848557Y-128652380D01*
X108848557Y-127652381D02*
X108848557Y-128223809D01*
X108848557Y-127938095D02*
X107948557Y-127938095D01*
X107948557Y-127938095D02*
X108077128Y-128033333D01*
X108077128Y-128033333D02*
X108162842Y-128128571D01*
X108162842Y-128128571D02*
X108205700Y-128223809D01*
X108248557Y-126795238D02*
X108848557Y-126795238D01*
X108248557Y-127223809D02*
X108719985Y-127223809D01*
X108719985Y-127223809D02*
X108805700Y-127176190D01*
X108805700Y-127176190D02*
X108848557Y-127080952D01*
X108848557Y-127080952D02*
X108848557Y-126938095D01*
X108848557Y-126938095D02*
X108805700Y-126842857D01*
X108805700Y-126842857D02*
X108762842Y-126795238D01*
X114426272Y-64201641D02*
X114426272Y-64915926D01*
X114426272Y-64915926D02*
X114378653Y-65058783D01*
X114378653Y-65058783D02*
X114283415Y-65154022D01*
X114283415Y-65154022D02*
X114140558Y-65201641D01*
X114140558Y-65201641D02*
X114045320Y-65201641D01*
X115378653Y-64201641D02*
X114902463Y-64201641D01*
X114902463Y-64201641D02*
X114854844Y-64677831D01*
X114854844Y-64677831D02*
X114902463Y-64630212D01*
X114902463Y-64630212D02*
X114997701Y-64582593D01*
X114997701Y-64582593D02*
X115235796Y-64582593D01*
X115235796Y-64582593D02*
X115331034Y-64630212D01*
X115331034Y-64630212D02*
X115378653Y-64677831D01*
X115378653Y-64677831D02*
X115426272Y-64773069D01*
X115426272Y-64773069D02*
X115426272Y-65011164D01*
X115426272Y-65011164D02*
X115378653Y-65106402D01*
X115378653Y-65106402D02*
X115331034Y-65154022D01*
X115331034Y-65154022D02*
X115235796Y-65201641D01*
X115235796Y-65201641D02*
X114997701Y-65201641D01*
X114997701Y-65201641D02*
X114902463Y-65154022D01*
X114902463Y-65154022D02*
X114854844Y-65106402D01*
X95881614Y-124708557D02*
X95976852Y-124708557D01*
X95976852Y-124708557D02*
X96072090Y-124751414D01*
X96072090Y-124751414D02*
X96119709Y-124794271D01*
X96119709Y-124794271D02*
X96167328Y-124879985D01*
X96167328Y-124879985D02*
X96214947Y-125051414D01*
X96214947Y-125051414D02*
X96214947Y-125265700D01*
X96214947Y-125265700D02*
X96167328Y-125437128D01*
X96167328Y-125437128D02*
X96119709Y-125522842D01*
X96119709Y-125522842D02*
X96072090Y-125565700D01*
X96072090Y-125565700D02*
X95976852Y-125608557D01*
X95976852Y-125608557D02*
X95881614Y-125608557D01*
X95881614Y-125608557D02*
X95786376Y-125565700D01*
X95786376Y-125565700D02*
X95738757Y-125522842D01*
X95738757Y-125522842D02*
X95691138Y-125437128D01*
X95691138Y-125437128D02*
X95643519Y-125265700D01*
X95643519Y-125265700D02*
X95643519Y-125051414D01*
X95643519Y-125051414D02*
X95691138Y-124879985D01*
X95691138Y-124879985D02*
X95738757Y-124794271D01*
X95738757Y-124794271D02*
X95786376Y-124751414D01*
X95786376Y-124751414D02*
X95881614Y-124708557D01*
X96643519Y-125522842D02*
X96691138Y-125565700D01*
X96691138Y-125565700D02*
X96643519Y-125608557D01*
X96643519Y-125608557D02*
X96595900Y-125565700D01*
X96595900Y-125565700D02*
X96643519Y-125522842D01*
X96643519Y-125522842D02*
X96643519Y-125608557D01*
X97643518Y-125608557D02*
X97072090Y-125608557D01*
X97357804Y-125608557D02*
X97357804Y-124708557D01*
X97357804Y-124708557D02*
X97262566Y-124837128D01*
X97262566Y-124837128D02*
X97167328Y-124922842D01*
X97167328Y-124922842D02*
X97072090Y-124965700D01*
X98500661Y-125008557D02*
X98500661Y-125608557D01*
X98072090Y-125008557D02*
X98072090Y-125479985D01*
X98072090Y-125479985D02*
X98119709Y-125565700D01*
X98119709Y-125565700D02*
X98214947Y-125608557D01*
X98214947Y-125608557D02*
X98357804Y-125608557D01*
X98357804Y-125608557D02*
X98453042Y-125565700D01*
X98453042Y-125565700D02*
X98500661Y-125522842D01*
X97508557Y-149014285D02*
X97508557Y-148919047D01*
X97508557Y-148919047D02*
X97551414Y-148823809D01*
X97551414Y-148823809D02*
X97594271Y-148776190D01*
X97594271Y-148776190D02*
X97679985Y-148728571D01*
X97679985Y-148728571D02*
X97851414Y-148680952D01*
X97851414Y-148680952D02*
X98065700Y-148680952D01*
X98065700Y-148680952D02*
X98237128Y-148728571D01*
X98237128Y-148728571D02*
X98322842Y-148776190D01*
X98322842Y-148776190D02*
X98365700Y-148823809D01*
X98365700Y-148823809D02*
X98408557Y-148919047D01*
X98408557Y-148919047D02*
X98408557Y-149014285D01*
X98408557Y-149014285D02*
X98365700Y-149109523D01*
X98365700Y-149109523D02*
X98322842Y-149157142D01*
X98322842Y-149157142D02*
X98237128Y-149204761D01*
X98237128Y-149204761D02*
X98065700Y-149252380D01*
X98065700Y-149252380D02*
X97851414Y-149252380D01*
X97851414Y-149252380D02*
X97679985Y-149204761D01*
X97679985Y-149204761D02*
X97594271Y-149157142D01*
X97594271Y-149157142D02*
X97551414Y-149109523D01*
X97551414Y-149109523D02*
X97508557Y-149014285D01*
X98322842Y-148252380D02*
X98365700Y-148204761D01*
X98365700Y-148204761D02*
X98408557Y-148252380D01*
X98408557Y-148252380D02*
X98365700Y-148299999D01*
X98365700Y-148299999D02*
X98322842Y-148252380D01*
X98322842Y-148252380D02*
X98408557Y-148252380D01*
X98408557Y-147252381D02*
X98408557Y-147823809D01*
X98408557Y-147538095D02*
X97508557Y-147538095D01*
X97508557Y-147538095D02*
X97637128Y-147633333D01*
X97637128Y-147633333D02*
X97722842Y-147728571D01*
X97722842Y-147728571D02*
X97765700Y-147823809D01*
X97808557Y-146395238D02*
X98408557Y-146395238D01*
X97808557Y-146823809D02*
X98279985Y-146823809D01*
X98279985Y-146823809D02*
X98365700Y-146776190D01*
X98365700Y-146776190D02*
X98408557Y-146680952D01*
X98408557Y-146680952D02*
X98408557Y-146538095D01*
X98408557Y-146538095D02*
X98365700Y-146442857D01*
X98365700Y-146442857D02*
X98322842Y-146395238D01*
X95385320Y-94432879D02*
X95480558Y-94432879D01*
X95480558Y-94432879D02*
X95575796Y-94475736D01*
X95575796Y-94475736D02*
X95623415Y-94518593D01*
X95623415Y-94518593D02*
X95671034Y-94604307D01*
X95671034Y-94604307D02*
X95718653Y-94775736D01*
X95718653Y-94775736D02*
X95718653Y-94990022D01*
X95718653Y-94990022D02*
X95671034Y-95161450D01*
X95671034Y-95161450D02*
X95623415Y-95247164D01*
X95623415Y-95247164D02*
X95575796Y-95290022D01*
X95575796Y-95290022D02*
X95480558Y-95332879D01*
X95480558Y-95332879D02*
X95385320Y-95332879D01*
X95385320Y-95332879D02*
X95290082Y-95290022D01*
X95290082Y-95290022D02*
X95242463Y-95247164D01*
X95242463Y-95247164D02*
X95194844Y-95161450D01*
X95194844Y-95161450D02*
X95147225Y-94990022D01*
X95147225Y-94990022D02*
X95147225Y-94775736D01*
X95147225Y-94775736D02*
X95194844Y-94604307D01*
X95194844Y-94604307D02*
X95242463Y-94518593D01*
X95242463Y-94518593D02*
X95290082Y-94475736D01*
X95290082Y-94475736D02*
X95385320Y-94432879D01*
X96147225Y-95247164D02*
X96194844Y-95290022D01*
X96194844Y-95290022D02*
X96147225Y-95332879D01*
X96147225Y-95332879D02*
X96099606Y-95290022D01*
X96099606Y-95290022D02*
X96147225Y-95247164D01*
X96147225Y-95247164D02*
X96147225Y-95332879D01*
X97147224Y-95332879D02*
X96575796Y-95332879D01*
X96861510Y-95332879D02*
X96861510Y-94432879D01*
X96861510Y-94432879D02*
X96766272Y-94561450D01*
X96766272Y-94561450D02*
X96671034Y-94647164D01*
X96671034Y-94647164D02*
X96575796Y-94690022D01*
X98004367Y-94732879D02*
X98004367Y-95332879D01*
X97575796Y-94732879D02*
X97575796Y-95204307D01*
X97575796Y-95204307D02*
X97623415Y-95290022D01*
X97623415Y-95290022D02*
X97718653Y-95332879D01*
X97718653Y-95332879D02*
X97861510Y-95332879D01*
X97861510Y-95332879D02*
X97956748Y-95290022D01*
X97956748Y-95290022D02*
X98004367Y-95247164D01*
X111908557Y-157129285D02*
X111908557Y-157034047D01*
X111908557Y-157034047D02*
X111951414Y-156938809D01*
X111951414Y-156938809D02*
X111994271Y-156891190D01*
X111994271Y-156891190D02*
X112079985Y-156843571D01*
X112079985Y-156843571D02*
X112251414Y-156795952D01*
X112251414Y-156795952D02*
X112465700Y-156795952D01*
X112465700Y-156795952D02*
X112637128Y-156843571D01*
X112637128Y-156843571D02*
X112722842Y-156891190D01*
X112722842Y-156891190D02*
X112765700Y-156938809D01*
X112765700Y-156938809D02*
X112808557Y-157034047D01*
X112808557Y-157034047D02*
X112808557Y-157129285D01*
X112808557Y-157129285D02*
X112765700Y-157224523D01*
X112765700Y-157224523D02*
X112722842Y-157272142D01*
X112722842Y-157272142D02*
X112637128Y-157319761D01*
X112637128Y-157319761D02*
X112465700Y-157367380D01*
X112465700Y-157367380D02*
X112251414Y-157367380D01*
X112251414Y-157367380D02*
X112079985Y-157319761D01*
X112079985Y-157319761D02*
X111994271Y-157272142D01*
X111994271Y-157272142D02*
X111951414Y-157224523D01*
X111951414Y-157224523D02*
X111908557Y-157129285D01*
X112722842Y-156367380D02*
X112765700Y-156319761D01*
X112765700Y-156319761D02*
X112808557Y-156367380D01*
X112808557Y-156367380D02*
X112765700Y-156414999D01*
X112765700Y-156414999D02*
X112722842Y-156367380D01*
X112722842Y-156367380D02*
X112808557Y-156367380D01*
X112808557Y-155367381D02*
X112808557Y-155938809D01*
X112808557Y-155653095D02*
X111908557Y-155653095D01*
X111908557Y-155653095D02*
X112037128Y-155748333D01*
X112037128Y-155748333D02*
X112122842Y-155843571D01*
X112122842Y-155843571D02*
X112165700Y-155938809D01*
X112208557Y-154510238D02*
X112808557Y-154510238D01*
X112208557Y-154938809D02*
X112679985Y-154938809D01*
X112679985Y-154938809D02*
X112765700Y-154891190D01*
X112765700Y-154891190D02*
X112808557Y-154795952D01*
X112808557Y-154795952D02*
X112808557Y-154653095D01*
X112808557Y-154653095D02*
X112765700Y-154557857D01*
X112765700Y-154557857D02*
X112722842Y-154510238D01*
X123668557Y-74234285D02*
X123668557Y-74139047D01*
X123668557Y-74139047D02*
X123711414Y-74043809D01*
X123711414Y-74043809D02*
X123754271Y-73996190D01*
X123754271Y-73996190D02*
X123839985Y-73948571D01*
X123839985Y-73948571D02*
X124011414Y-73900952D01*
X124011414Y-73900952D02*
X124225700Y-73900952D01*
X124225700Y-73900952D02*
X124397128Y-73948571D01*
X124397128Y-73948571D02*
X124482842Y-73996190D01*
X124482842Y-73996190D02*
X124525700Y-74043809D01*
X124525700Y-74043809D02*
X124568557Y-74139047D01*
X124568557Y-74139047D02*
X124568557Y-74234285D01*
X124568557Y-74234285D02*
X124525700Y-74329523D01*
X124525700Y-74329523D02*
X124482842Y-74377142D01*
X124482842Y-74377142D02*
X124397128Y-74424761D01*
X124397128Y-74424761D02*
X124225700Y-74472380D01*
X124225700Y-74472380D02*
X124011414Y-74472380D01*
X124011414Y-74472380D02*
X123839985Y-74424761D01*
X123839985Y-74424761D02*
X123754271Y-74377142D01*
X123754271Y-74377142D02*
X123711414Y-74329523D01*
X123711414Y-74329523D02*
X123668557Y-74234285D01*
X124482842Y-73472380D02*
X124525700Y-73424761D01*
X124525700Y-73424761D02*
X124568557Y-73472380D01*
X124568557Y-73472380D02*
X124525700Y-73519999D01*
X124525700Y-73519999D02*
X124482842Y-73472380D01*
X124482842Y-73472380D02*
X124568557Y-73472380D01*
X124568557Y-72472381D02*
X124568557Y-73043809D01*
X124568557Y-72758095D02*
X123668557Y-72758095D01*
X123668557Y-72758095D02*
X123797128Y-72853333D01*
X123797128Y-72853333D02*
X123882842Y-72948571D01*
X123882842Y-72948571D02*
X123925700Y-73043809D01*
X123968557Y-71615238D02*
X124568557Y-71615238D01*
X123968557Y-72043809D02*
X124439985Y-72043809D01*
X124439985Y-72043809D02*
X124525700Y-71996190D01*
X124525700Y-71996190D02*
X124568557Y-71900952D01*
X124568557Y-71900952D02*
X124568557Y-71758095D01*
X124568557Y-71758095D02*
X124525700Y-71662857D01*
X124525700Y-71662857D02*
X124482842Y-71615238D01*
X99649487Y-109387879D02*
X99744725Y-109387879D01*
X99744725Y-109387879D02*
X99839963Y-109430736D01*
X99839963Y-109430736D02*
X99887582Y-109473593D01*
X99887582Y-109473593D02*
X99935201Y-109559307D01*
X99935201Y-109559307D02*
X99982820Y-109730736D01*
X99982820Y-109730736D02*
X99982820Y-109945022D01*
X99982820Y-109945022D02*
X99935201Y-110116450D01*
X99935201Y-110116450D02*
X99887582Y-110202164D01*
X99887582Y-110202164D02*
X99839963Y-110245022D01*
X99839963Y-110245022D02*
X99744725Y-110287879D01*
X99744725Y-110287879D02*
X99649487Y-110287879D01*
X99649487Y-110287879D02*
X99554249Y-110245022D01*
X99554249Y-110245022D02*
X99506630Y-110202164D01*
X99506630Y-110202164D02*
X99459011Y-110116450D01*
X99459011Y-110116450D02*
X99411392Y-109945022D01*
X99411392Y-109945022D02*
X99411392Y-109730736D01*
X99411392Y-109730736D02*
X99459011Y-109559307D01*
X99459011Y-109559307D02*
X99506630Y-109473593D01*
X99506630Y-109473593D02*
X99554249Y-109430736D01*
X99554249Y-109430736D02*
X99649487Y-109387879D01*
X108168557Y-157329999D02*
X108168557Y-156663333D01*
X108168557Y-156663333D02*
X109068557Y-157091904D01*
X108468557Y-155853809D02*
X109068557Y-155853809D01*
X108125700Y-156091904D02*
X108768557Y-156329999D01*
X108768557Y-156329999D02*
X108768557Y-155710952D01*
X109068557Y-154853809D02*
X109068557Y-155329999D01*
X109068557Y-155329999D02*
X108168557Y-155329999D01*
X108168557Y-154663332D02*
X109068557Y-154329999D01*
X109068557Y-154329999D02*
X108168557Y-153996666D01*
X108982842Y-153091904D02*
X109025700Y-153139523D01*
X109025700Y-153139523D02*
X109068557Y-153282380D01*
X109068557Y-153282380D02*
X109068557Y-153377618D01*
X109068557Y-153377618D02*
X109025700Y-153520475D01*
X109025700Y-153520475D02*
X108939985Y-153615713D01*
X108939985Y-153615713D02*
X108854271Y-153663332D01*
X108854271Y-153663332D02*
X108682842Y-153710951D01*
X108682842Y-153710951D02*
X108554271Y-153710951D01*
X108554271Y-153710951D02*
X108382842Y-153663332D01*
X108382842Y-153663332D02*
X108297128Y-153615713D01*
X108297128Y-153615713D02*
X108211414Y-153520475D01*
X108211414Y-153520475D02*
X108168557Y-153377618D01*
X108168557Y-153377618D02*
X108168557Y-153282380D01*
X108168557Y-153282380D02*
X108211414Y-153139523D01*
X108211414Y-153139523D02*
X108254271Y-153091904D01*
X109068557Y-152139523D02*
X109068557Y-152710951D01*
X109068557Y-152425237D02*
X108168557Y-152425237D01*
X108168557Y-152425237D02*
X108297128Y-152520475D01*
X108297128Y-152520475D02*
X108382842Y-152615713D01*
X108382842Y-152615713D02*
X108425700Y-152710951D01*
X108211414Y-151187142D02*
X108168557Y-151282380D01*
X108168557Y-151282380D02*
X108168557Y-151425237D01*
X108168557Y-151425237D02*
X108211414Y-151568094D01*
X108211414Y-151568094D02*
X108297128Y-151663332D01*
X108297128Y-151663332D02*
X108382842Y-151710951D01*
X108382842Y-151710951D02*
X108554271Y-151758570D01*
X108554271Y-151758570D02*
X108682842Y-151758570D01*
X108682842Y-151758570D02*
X108854271Y-151710951D01*
X108854271Y-151710951D02*
X108939985Y-151663332D01*
X108939985Y-151663332D02*
X109025700Y-151568094D01*
X109025700Y-151568094D02*
X109068557Y-151425237D01*
X109068557Y-151425237D02*
X109068557Y-151329999D01*
X109068557Y-151329999D02*
X109025700Y-151187142D01*
X109025700Y-151187142D02*
X108982842Y-151139523D01*
X108982842Y-151139523D02*
X108682842Y-151139523D01*
X108682842Y-151139523D02*
X108682842Y-151329999D01*
X108168557Y-150710951D02*
X108897128Y-150710951D01*
X108897128Y-150710951D02*
X108982842Y-150663332D01*
X108982842Y-150663332D02*
X109025700Y-150615713D01*
X109025700Y-150615713D02*
X109068557Y-150520475D01*
X109068557Y-150520475D02*
X109068557Y-150329999D01*
X109068557Y-150329999D02*
X109025700Y-150234761D01*
X109025700Y-150234761D02*
X108982842Y-150187142D01*
X108982842Y-150187142D02*
X108897128Y-150139523D01*
X108897128Y-150139523D02*
X108168557Y-150139523D01*
X108168557Y-149472856D02*
X108168557Y-149377618D01*
X108168557Y-149377618D02*
X108211414Y-149282380D01*
X108211414Y-149282380D02*
X108254271Y-149234761D01*
X108254271Y-149234761D02*
X108339985Y-149187142D01*
X108339985Y-149187142D02*
X108511414Y-149139523D01*
X108511414Y-149139523D02*
X108725700Y-149139523D01*
X108725700Y-149139523D02*
X108897128Y-149187142D01*
X108897128Y-149187142D02*
X108982842Y-149234761D01*
X108982842Y-149234761D02*
X109025700Y-149282380D01*
X109025700Y-149282380D02*
X109068557Y-149377618D01*
X109068557Y-149377618D02*
X109068557Y-149472856D01*
X109068557Y-149472856D02*
X109025700Y-149568094D01*
X109025700Y-149568094D02*
X108982842Y-149615713D01*
X108982842Y-149615713D02*
X108897128Y-149663332D01*
X108897128Y-149663332D02*
X108725700Y-149710951D01*
X108725700Y-149710951D02*
X108511414Y-149710951D01*
X108511414Y-149710951D02*
X108339985Y-149663332D01*
X108339985Y-149663332D02*
X108254271Y-149615713D01*
X108254271Y-149615713D02*
X108211414Y-149568094D01*
X108211414Y-149568094D02*
X108168557Y-149472856D01*
X108468557Y-148282380D02*
X109068557Y-148282380D01*
X108125700Y-148520475D02*
X108768557Y-148758570D01*
X108768557Y-148758570D02*
X108768557Y-148139523D01*
X109068557Y-147758570D02*
X108168557Y-147758570D01*
X108168557Y-147758570D02*
X108168557Y-147520475D01*
X108168557Y-147520475D02*
X108211414Y-147377618D01*
X108211414Y-147377618D02*
X108297128Y-147282380D01*
X108297128Y-147282380D02*
X108382842Y-147234761D01*
X108382842Y-147234761D02*
X108554271Y-147187142D01*
X108554271Y-147187142D02*
X108682842Y-147187142D01*
X108682842Y-147187142D02*
X108854271Y-147234761D01*
X108854271Y-147234761D02*
X108939985Y-147282380D01*
X108939985Y-147282380D02*
X109025700Y-147377618D01*
X109025700Y-147377618D02*
X109068557Y-147520475D01*
X109068557Y-147520475D02*
X109068557Y-147758570D01*
X109068557Y-146187142D02*
X108639985Y-146520475D01*
X109068557Y-146758570D02*
X108168557Y-146758570D01*
X108168557Y-146758570D02*
X108168557Y-146377618D01*
X108168557Y-146377618D02*
X108211414Y-146282380D01*
X108211414Y-146282380D02*
X108254271Y-146234761D01*
X108254271Y-146234761D02*
X108339985Y-146187142D01*
X108339985Y-146187142D02*
X108468557Y-146187142D01*
X108468557Y-146187142D02*
X108554271Y-146234761D01*
X108554271Y-146234761D02*
X108597128Y-146282380D01*
X108597128Y-146282380D02*
X108639985Y-146377618D01*
X108639985Y-146377618D02*
X108639985Y-146758570D01*
X109068557Y-145282380D02*
X109068557Y-145758570D01*
X109068557Y-145758570D02*
X108168557Y-145758570D01*
D10*
X88378505Y-133169714D02*
X88378505Y-131369714D01*
X89330886Y-132484000D02*
X90854696Y-132484000D01*
D11*
X113404761Y-138922842D02*
X113357142Y-138965700D01*
X113357142Y-138965700D02*
X113214285Y-139008557D01*
X113214285Y-139008557D02*
X113119047Y-139008557D01*
X113119047Y-139008557D02*
X112976190Y-138965700D01*
X112976190Y-138965700D02*
X112880952Y-138879985D01*
X112880952Y-138879985D02*
X112833333Y-138794271D01*
X112833333Y-138794271D02*
X112785714Y-138622842D01*
X112785714Y-138622842D02*
X112785714Y-138494271D01*
X112785714Y-138494271D02*
X112833333Y-138322842D01*
X112833333Y-138322842D02*
X112880952Y-138237128D01*
X112880952Y-138237128D02*
X112976190Y-138151414D01*
X112976190Y-138151414D02*
X113119047Y-138108557D01*
X113119047Y-138108557D02*
X113214285Y-138108557D01*
X113214285Y-138108557D02*
X113357142Y-138151414D01*
X113357142Y-138151414D02*
X113404761Y-138194271D01*
X113833333Y-139008557D02*
X113833333Y-138108557D01*
X113833333Y-138108557D02*
X114071428Y-138108557D01*
X114071428Y-138108557D02*
X114214285Y-138151414D01*
X114214285Y-138151414D02*
X114309523Y-138237128D01*
X114309523Y-138237128D02*
X114357142Y-138322842D01*
X114357142Y-138322842D02*
X114404761Y-138494271D01*
X114404761Y-138494271D02*
X114404761Y-138622842D01*
X114404761Y-138622842D02*
X114357142Y-138794271D01*
X114357142Y-138794271D02*
X114309523Y-138879985D01*
X114309523Y-138879985D02*
X114214285Y-138965700D01*
X114214285Y-138965700D02*
X114071428Y-139008557D01*
X114071428Y-139008557D02*
X113833333Y-139008557D01*
X114738095Y-138108557D02*
X115404761Y-138108557D01*
X115404761Y-138108557D02*
X114976190Y-139008557D01*
X116214285Y-138408557D02*
X116214285Y-139008557D01*
X115976190Y-138065700D02*
X115738095Y-138708557D01*
X115738095Y-138708557D02*
X116357142Y-138708557D01*
X116738095Y-139008557D02*
X116738095Y-138108557D01*
X116738095Y-138537128D02*
X117309523Y-138537128D01*
X117309523Y-139008557D02*
X117309523Y-138108557D01*
X118357142Y-138922842D02*
X118309523Y-138965700D01*
X118309523Y-138965700D02*
X118166666Y-139008557D01*
X118166666Y-139008557D02*
X118071428Y-139008557D01*
X118071428Y-139008557D02*
X117928571Y-138965700D01*
X117928571Y-138965700D02*
X117833333Y-138879985D01*
X117833333Y-138879985D02*
X117785714Y-138794271D01*
X117785714Y-138794271D02*
X117738095Y-138622842D01*
X117738095Y-138622842D02*
X117738095Y-138494271D01*
X117738095Y-138494271D02*
X117785714Y-138322842D01*
X117785714Y-138322842D02*
X117833333Y-138237128D01*
X117833333Y-138237128D02*
X117928571Y-138151414D01*
X117928571Y-138151414D02*
X118071428Y-138108557D01*
X118071428Y-138108557D02*
X118166666Y-138108557D01*
X118166666Y-138108557D02*
X118309523Y-138151414D01*
X118309523Y-138151414D02*
X118357142Y-138194271D01*
X119214285Y-138408557D02*
X119214285Y-139008557D01*
X118976190Y-138065700D02*
X118738095Y-138708557D01*
X118738095Y-138708557D02*
X119357142Y-138708557D01*
X120214285Y-138108557D02*
X119738095Y-138108557D01*
X119738095Y-138108557D02*
X119690476Y-138537128D01*
X119690476Y-138537128D02*
X119738095Y-138494271D01*
X119738095Y-138494271D02*
X119833333Y-138451414D01*
X119833333Y-138451414D02*
X120071428Y-138451414D01*
X120071428Y-138451414D02*
X120166666Y-138494271D01*
X120166666Y-138494271D02*
X120214285Y-138537128D01*
X120214285Y-138537128D02*
X120261904Y-138622842D01*
X120261904Y-138622842D02*
X120261904Y-138837128D01*
X120261904Y-138837128D02*
X120214285Y-138922842D01*
X120214285Y-138922842D02*
X120166666Y-138965700D01*
X120166666Y-138965700D02*
X120071428Y-139008557D01*
X120071428Y-139008557D02*
X119833333Y-139008557D01*
X119833333Y-139008557D02*
X119738095Y-138965700D01*
X119738095Y-138965700D02*
X119690476Y-138922842D01*
X121214285Y-139008557D02*
X120642857Y-139008557D01*
X120928571Y-139008557D02*
X120928571Y-138108557D01*
X120928571Y-138108557D02*
X120833333Y-138237128D01*
X120833333Y-138237128D02*
X120738095Y-138322842D01*
X120738095Y-138322842D02*
X120642857Y-138365700D01*
X122071428Y-138408557D02*
X122071428Y-139008557D01*
X121833333Y-138065700D02*
X121595238Y-138708557D01*
X121595238Y-138708557D02*
X122214285Y-138708557D01*
X122595238Y-139008557D02*
X122595238Y-138108557D01*
X122595238Y-138108557D02*
X122928571Y-138751414D01*
X122928571Y-138751414D02*
X123261904Y-138108557D01*
X123261904Y-138108557D02*
X123261904Y-139008557D01*
X123785714Y-139008557D02*
X123976190Y-139008557D01*
X123976190Y-139008557D02*
X124071428Y-138965700D01*
X124071428Y-138965700D02*
X124119047Y-138922842D01*
X124119047Y-138922842D02*
X124214285Y-138794271D01*
X124214285Y-138794271D02*
X124261904Y-138622842D01*
X124261904Y-138622842D02*
X124261904Y-138279985D01*
X124261904Y-138279985D02*
X124214285Y-138194271D01*
X124214285Y-138194271D02*
X124166666Y-138151414D01*
X124166666Y-138151414D02*
X124071428Y-138108557D01*
X124071428Y-138108557D02*
X123880952Y-138108557D01*
X123880952Y-138108557D02*
X123785714Y-138151414D01*
X123785714Y-138151414D02*
X123738095Y-138194271D01*
X123738095Y-138194271D02*
X123690476Y-138279985D01*
X123690476Y-138279985D02*
X123690476Y-138494271D01*
X123690476Y-138494271D02*
X123738095Y-138579985D01*
X123738095Y-138579985D02*
X123785714Y-138622842D01*
X123785714Y-138622842D02*
X123880952Y-138665700D01*
X123880952Y-138665700D02*
X124071428Y-138665700D01*
X124071428Y-138665700D02*
X124166666Y-138622842D01*
X124166666Y-138622842D02*
X124214285Y-138579985D01*
X124214285Y-138579985D02*
X124261904Y-138494271D01*
X125119047Y-138108557D02*
X124928571Y-138108557D01*
X124928571Y-138108557D02*
X124833333Y-138151414D01*
X124833333Y-138151414D02*
X124785714Y-138194271D01*
X124785714Y-138194271D02*
X124690476Y-138322842D01*
X124690476Y-138322842D02*
X124642857Y-138494271D01*
X124642857Y-138494271D02*
X124642857Y-138837128D01*
X124642857Y-138837128D02*
X124690476Y-138922842D01*
X124690476Y-138922842D02*
X124738095Y-138965700D01*
X124738095Y-138965700D02*
X124833333Y-139008557D01*
X124833333Y-139008557D02*
X125023809Y-139008557D01*
X125023809Y-139008557D02*
X125119047Y-138965700D01*
X125119047Y-138965700D02*
X125166666Y-138922842D01*
X125166666Y-138922842D02*
X125214285Y-138837128D01*
X125214285Y-138837128D02*
X125214285Y-138622842D01*
X125214285Y-138622842D02*
X125166666Y-138537128D01*
X125166666Y-138537128D02*
X125119047Y-138494271D01*
X125119047Y-138494271D02*
X125023809Y-138451414D01*
X125023809Y-138451414D02*
X124833333Y-138451414D01*
X124833333Y-138451414D02*
X124738095Y-138494271D01*
X124738095Y-138494271D02*
X124690476Y-138537128D01*
X124690476Y-138537128D02*
X124642857Y-138622842D01*
X111908557Y-148814285D02*
X111908557Y-148719047D01*
X111908557Y-148719047D02*
X111951414Y-148623809D01*
X111951414Y-148623809D02*
X111994271Y-148576190D01*
X111994271Y-148576190D02*
X112079985Y-148528571D01*
X112079985Y-148528571D02*
X112251414Y-148480952D01*
X112251414Y-148480952D02*
X112465700Y-148480952D01*
X112465700Y-148480952D02*
X112637128Y-148528571D01*
X112637128Y-148528571D02*
X112722842Y-148576190D01*
X112722842Y-148576190D02*
X112765700Y-148623809D01*
X112765700Y-148623809D02*
X112808557Y-148719047D01*
X112808557Y-148719047D02*
X112808557Y-148814285D01*
X112808557Y-148814285D02*
X112765700Y-148909523D01*
X112765700Y-148909523D02*
X112722842Y-148957142D01*
X112722842Y-148957142D02*
X112637128Y-149004761D01*
X112637128Y-149004761D02*
X112465700Y-149052380D01*
X112465700Y-149052380D02*
X112251414Y-149052380D01*
X112251414Y-149052380D02*
X112079985Y-149004761D01*
X112079985Y-149004761D02*
X111994271Y-148957142D01*
X111994271Y-148957142D02*
X111951414Y-148909523D01*
X111951414Y-148909523D02*
X111908557Y-148814285D01*
X112722842Y-148052380D02*
X112765700Y-148004761D01*
X112765700Y-148004761D02*
X112808557Y-148052380D01*
X112808557Y-148052380D02*
X112765700Y-148099999D01*
X112765700Y-148099999D02*
X112722842Y-148052380D01*
X112722842Y-148052380D02*
X112808557Y-148052380D01*
X112808557Y-147052381D02*
X112808557Y-147623809D01*
X112808557Y-147338095D02*
X111908557Y-147338095D01*
X111908557Y-147338095D02*
X112037128Y-147433333D01*
X112037128Y-147433333D02*
X112122842Y-147528571D01*
X112122842Y-147528571D02*
X112165700Y-147623809D01*
X112208557Y-146195238D02*
X112808557Y-146195238D01*
X112208557Y-146623809D02*
X112679985Y-146623809D01*
X112679985Y-146623809D02*
X112765700Y-146576190D01*
X112765700Y-146576190D02*
X112808557Y-146480952D01*
X112808557Y-146480952D02*
X112808557Y-146338095D01*
X112808557Y-146338095D02*
X112765700Y-146242857D01*
X112765700Y-146242857D02*
X112722842Y-146195238D01*
X95201987Y-103232879D02*
X95297225Y-103232879D01*
X95297225Y-103232879D02*
X95392463Y-103275736D01*
X95392463Y-103275736D02*
X95440082Y-103318593D01*
X95440082Y-103318593D02*
X95487701Y-103404307D01*
X95487701Y-103404307D02*
X95535320Y-103575736D01*
X95535320Y-103575736D02*
X95535320Y-103790022D01*
X95535320Y-103790022D02*
X95487701Y-103961450D01*
X95487701Y-103961450D02*
X95440082Y-104047164D01*
X95440082Y-104047164D02*
X95392463Y-104090022D01*
X95392463Y-104090022D02*
X95297225Y-104132879D01*
X95297225Y-104132879D02*
X95201987Y-104132879D01*
X95201987Y-104132879D02*
X95106749Y-104090022D01*
X95106749Y-104090022D02*
X95059130Y-104047164D01*
X95059130Y-104047164D02*
X95011511Y-103961450D01*
X95011511Y-103961450D02*
X94963892Y-103790022D01*
X94963892Y-103790022D02*
X94963892Y-103575736D01*
X94963892Y-103575736D02*
X95011511Y-103404307D01*
X95011511Y-103404307D02*
X95059130Y-103318593D01*
X95059130Y-103318593D02*
X95106749Y-103275736D01*
X95106749Y-103275736D02*
X95201987Y-103232879D01*
X100985714Y-117748557D02*
X101080952Y-117748557D01*
X101080952Y-117748557D02*
X101176190Y-117791414D01*
X101176190Y-117791414D02*
X101223809Y-117834271D01*
X101223809Y-117834271D02*
X101271428Y-117919985D01*
X101271428Y-117919985D02*
X101319047Y-118091414D01*
X101319047Y-118091414D02*
X101319047Y-118305700D01*
X101319047Y-118305700D02*
X101271428Y-118477128D01*
X101271428Y-118477128D02*
X101223809Y-118562842D01*
X101223809Y-118562842D02*
X101176190Y-118605700D01*
X101176190Y-118605700D02*
X101080952Y-118648557D01*
X101080952Y-118648557D02*
X100985714Y-118648557D01*
X100985714Y-118648557D02*
X100890476Y-118605700D01*
X100890476Y-118605700D02*
X100842857Y-118562842D01*
X100842857Y-118562842D02*
X100795238Y-118477128D01*
X100795238Y-118477128D02*
X100747619Y-118305700D01*
X100747619Y-118305700D02*
X100747619Y-118091414D01*
X100747619Y-118091414D02*
X100795238Y-117919985D01*
X100795238Y-117919985D02*
X100842857Y-117834271D01*
X100842857Y-117834271D02*
X100890476Y-117791414D01*
X100890476Y-117791414D02*
X100985714Y-117748557D01*
X101747619Y-118562842D02*
X101795238Y-118605700D01*
X101795238Y-118605700D02*
X101747619Y-118648557D01*
X101747619Y-118648557D02*
X101700000Y-118605700D01*
X101700000Y-118605700D02*
X101747619Y-118562842D01*
X101747619Y-118562842D02*
X101747619Y-118648557D01*
X102747618Y-118648557D02*
X102176190Y-118648557D01*
X102461904Y-118648557D02*
X102461904Y-117748557D01*
X102461904Y-117748557D02*
X102366666Y-117877128D01*
X102366666Y-117877128D02*
X102271428Y-117962842D01*
X102271428Y-117962842D02*
X102176190Y-118005700D01*
X103604761Y-118048557D02*
X103604761Y-118648557D01*
X103176190Y-118048557D02*
X103176190Y-118519985D01*
X103176190Y-118519985D02*
X103223809Y-118605700D01*
X103223809Y-118605700D02*
X103319047Y-118648557D01*
X103319047Y-118648557D02*
X103461904Y-118648557D01*
X103461904Y-118648557D02*
X103557142Y-118605700D01*
X103557142Y-118605700D02*
X103604761Y-118562842D01*
X98958163Y-102138607D02*
X98958163Y-102043369D01*
X98958163Y-102043369D02*
X99001020Y-101948131D01*
X99001020Y-101948131D02*
X99043877Y-101900512D01*
X99043877Y-101900512D02*
X99129591Y-101852893D01*
X99129591Y-101852893D02*
X99301020Y-101805274D01*
X99301020Y-101805274D02*
X99515306Y-101805274D01*
X99515306Y-101805274D02*
X99686734Y-101852893D01*
X99686734Y-101852893D02*
X99772448Y-101900512D01*
X99772448Y-101900512D02*
X99815306Y-101948131D01*
X99815306Y-101948131D02*
X99858163Y-102043369D01*
X99858163Y-102043369D02*
X99858163Y-102138607D01*
X99858163Y-102138607D02*
X99815306Y-102233845D01*
X99815306Y-102233845D02*
X99772448Y-102281464D01*
X99772448Y-102281464D02*
X99686734Y-102329083D01*
X99686734Y-102329083D02*
X99515306Y-102376702D01*
X99515306Y-102376702D02*
X99301020Y-102376702D01*
X99301020Y-102376702D02*
X99129591Y-102329083D01*
X99129591Y-102329083D02*
X99043877Y-102281464D01*
X99043877Y-102281464D02*
X99001020Y-102233845D01*
X99001020Y-102233845D02*
X98958163Y-102138607D01*
X99772448Y-101376702D02*
X99815306Y-101329083D01*
X99815306Y-101329083D02*
X99858163Y-101376702D01*
X99858163Y-101376702D02*
X99815306Y-101424321D01*
X99815306Y-101424321D02*
X99772448Y-101376702D01*
X99772448Y-101376702D02*
X99858163Y-101376702D01*
X99858163Y-100376703D02*
X99858163Y-100948131D01*
X99858163Y-100662417D02*
X98958163Y-100662417D01*
X98958163Y-100662417D02*
X99086734Y-100757655D01*
X99086734Y-100757655D02*
X99172448Y-100852893D01*
X99172448Y-100852893D02*
X99215306Y-100948131D01*
X99258163Y-99519560D02*
X99858163Y-99519560D01*
X99258163Y-99948131D02*
X99729591Y-99948131D01*
X99729591Y-99948131D02*
X99815306Y-99900512D01*
X99815306Y-99900512D02*
X99858163Y-99805274D01*
X99858163Y-99805274D02*
X99858163Y-99662417D01*
X99858163Y-99662417D02*
X99815306Y-99567179D01*
X99815306Y-99567179D02*
X99772448Y-99519560D01*
D10*
X88378505Y-90669714D02*
X88378505Y-88869714D01*
X89330886Y-89984000D02*
X90854696Y-89984000D01*
X90092791Y-90669714D02*
X90092791Y-89298285D01*
D11*
X99508557Y-127795237D02*
X99508557Y-127223809D01*
X100408557Y-127509523D02*
X99508557Y-127509523D01*
X100408557Y-126890475D02*
X99508557Y-126890475D01*
X99508557Y-126890475D02*
X100151414Y-126557142D01*
X100151414Y-126557142D02*
X99508557Y-126223809D01*
X99508557Y-126223809D02*
X100408557Y-126223809D01*
X99508557Y-125747618D02*
X100237128Y-125747618D01*
X100237128Y-125747618D02*
X100322842Y-125699999D01*
X100322842Y-125699999D02*
X100365700Y-125652380D01*
X100365700Y-125652380D02*
X100408557Y-125557142D01*
X100408557Y-125557142D02*
X100408557Y-125366666D01*
X100408557Y-125366666D02*
X100365700Y-125271428D01*
X100365700Y-125271428D02*
X100322842Y-125223809D01*
X100322842Y-125223809D02*
X100237128Y-125176190D01*
X100237128Y-125176190D02*
X99508557Y-125176190D01*
X99508557Y-124795237D02*
X100408557Y-124128571D01*
X99508557Y-124128571D02*
X100408557Y-124795237D01*
X99508557Y-123319047D02*
X99508557Y-123509523D01*
X99508557Y-123509523D02*
X99551414Y-123604761D01*
X99551414Y-123604761D02*
X99594271Y-123652380D01*
X99594271Y-123652380D02*
X99722842Y-123747618D01*
X99722842Y-123747618D02*
X99894271Y-123795237D01*
X99894271Y-123795237D02*
X100237128Y-123795237D01*
X100237128Y-123795237D02*
X100322842Y-123747618D01*
X100322842Y-123747618D02*
X100365700Y-123699999D01*
X100365700Y-123699999D02*
X100408557Y-123604761D01*
X100408557Y-123604761D02*
X100408557Y-123414285D01*
X100408557Y-123414285D02*
X100365700Y-123319047D01*
X100365700Y-123319047D02*
X100322842Y-123271428D01*
X100322842Y-123271428D02*
X100237128Y-123223809D01*
X100237128Y-123223809D02*
X100022842Y-123223809D01*
X100022842Y-123223809D02*
X99937128Y-123271428D01*
X99937128Y-123271428D02*
X99894271Y-123319047D01*
X99894271Y-123319047D02*
X99851414Y-123414285D01*
X99851414Y-123414285D02*
X99851414Y-123604761D01*
X99851414Y-123604761D02*
X99894271Y-123699999D01*
X99894271Y-123699999D02*
X99937128Y-123747618D01*
X99937128Y-123747618D02*
X100022842Y-123795237D01*
X100408557Y-122271428D02*
X100408557Y-122842856D01*
X100408557Y-122557142D02*
X99508557Y-122557142D01*
X99508557Y-122557142D02*
X99637128Y-122652380D01*
X99637128Y-122652380D02*
X99722842Y-122747618D01*
X99722842Y-122747618D02*
X99765700Y-122842856D01*
X100408557Y-121319047D02*
X100408557Y-121890475D01*
X100408557Y-121604761D02*
X99508557Y-121604761D01*
X99508557Y-121604761D02*
X99637128Y-121699999D01*
X99637128Y-121699999D02*
X99722842Y-121795237D01*
X99722842Y-121795237D02*
X99765700Y-121890475D01*
X99594271Y-120938094D02*
X99551414Y-120890475D01*
X99551414Y-120890475D02*
X99508557Y-120795237D01*
X99508557Y-120795237D02*
X99508557Y-120557142D01*
X99508557Y-120557142D02*
X99551414Y-120461904D01*
X99551414Y-120461904D02*
X99594271Y-120414285D01*
X99594271Y-120414285D02*
X99679985Y-120366666D01*
X99679985Y-120366666D02*
X99765700Y-120366666D01*
X99765700Y-120366666D02*
X99894271Y-120414285D01*
X99894271Y-120414285D02*
X100408557Y-120985713D01*
X100408557Y-120985713D02*
X100408557Y-120366666D01*
X100408557Y-119366666D02*
X99979985Y-119699999D01*
X100408557Y-119938094D02*
X99508557Y-119938094D01*
X99508557Y-119938094D02*
X99508557Y-119557142D01*
X99508557Y-119557142D02*
X99551414Y-119461904D01*
X99551414Y-119461904D02*
X99594271Y-119414285D01*
X99594271Y-119414285D02*
X99679985Y-119366666D01*
X99679985Y-119366666D02*
X99808557Y-119366666D01*
X99808557Y-119366666D02*
X99894271Y-119414285D01*
X99894271Y-119414285D02*
X99937128Y-119461904D01*
X99937128Y-119461904D02*
X99979985Y-119557142D01*
X99979985Y-119557142D02*
X99979985Y-119938094D01*
X99508557Y-119080951D02*
X99508557Y-118509523D01*
X100408557Y-118795237D02*
X99508557Y-118795237D01*
X99937128Y-118176189D02*
X99937128Y-117842856D01*
X100408557Y-117699999D02*
X100408557Y-118176189D01*
X100408557Y-118176189D02*
X99508557Y-118176189D01*
X99508557Y-118176189D02*
X99508557Y-117699999D01*
X100408557Y-116699999D02*
X99979985Y-117033332D01*
X100408557Y-117271427D02*
X99508557Y-117271427D01*
X99508557Y-117271427D02*
X99508557Y-116890475D01*
X99508557Y-116890475D02*
X99551414Y-116795237D01*
X99551414Y-116795237D02*
X99594271Y-116747618D01*
X99594271Y-116747618D02*
X99679985Y-116699999D01*
X99679985Y-116699999D02*
X99808557Y-116699999D01*
X99808557Y-116699999D02*
X99894271Y-116747618D01*
X99894271Y-116747618D02*
X99937128Y-116795237D01*
X99937128Y-116795237D02*
X99979985Y-116890475D01*
X99979985Y-116890475D02*
X99979985Y-117271427D01*
D12*
X101672371Y-124938199D02*
X101815228Y-124938199D01*
X101758085Y-125104866D02*
X101815228Y-124938199D01*
X101815228Y-124938199D02*
X101758085Y-124771532D01*
X101929514Y-125038199D02*
X101815228Y-124938199D01*
X101815228Y-124938199D02*
X101929514Y-124838199D01*
X101672371Y-124938199D02*
X101815228Y-124938199D01*
X101758085Y-125104866D02*
X101815228Y-124938199D01*
X101815228Y-124938199D02*
X101758085Y-124771532D01*
X101929514Y-125038199D02*
X101815228Y-124938199D01*
X101815228Y-124938199D02*
X101929514Y-124838199D01*
D11*
X106385714Y-108108557D02*
X106480952Y-108108557D01*
X106480952Y-108108557D02*
X106576190Y-108151414D01*
X106576190Y-108151414D02*
X106623809Y-108194271D01*
X106623809Y-108194271D02*
X106671428Y-108279985D01*
X106671428Y-108279985D02*
X106719047Y-108451414D01*
X106719047Y-108451414D02*
X106719047Y-108665700D01*
X106719047Y-108665700D02*
X106671428Y-108837128D01*
X106671428Y-108837128D02*
X106623809Y-108922842D01*
X106623809Y-108922842D02*
X106576190Y-108965700D01*
X106576190Y-108965700D02*
X106480952Y-109008557D01*
X106480952Y-109008557D02*
X106385714Y-109008557D01*
X106385714Y-109008557D02*
X106290476Y-108965700D01*
X106290476Y-108965700D02*
X106242857Y-108922842D01*
X106242857Y-108922842D02*
X106195238Y-108837128D01*
X106195238Y-108837128D02*
X106147619Y-108665700D01*
X106147619Y-108665700D02*
X106147619Y-108451414D01*
X106147619Y-108451414D02*
X106195238Y-108279985D01*
X106195238Y-108279985D02*
X106242857Y-108194271D01*
X106242857Y-108194271D02*
X106290476Y-108151414D01*
X106290476Y-108151414D02*
X106385714Y-108108557D01*
X107147619Y-108922842D02*
X107195238Y-108965700D01*
X107195238Y-108965700D02*
X107147619Y-109008557D01*
X107147619Y-109008557D02*
X107100000Y-108965700D01*
X107100000Y-108965700D02*
X107147619Y-108922842D01*
X107147619Y-108922842D02*
X107147619Y-109008557D01*
X108147618Y-109008557D02*
X107576190Y-109008557D01*
X107861904Y-109008557D02*
X107861904Y-108108557D01*
X107861904Y-108108557D02*
X107766666Y-108237128D01*
X107766666Y-108237128D02*
X107671428Y-108322842D01*
X107671428Y-108322842D02*
X107576190Y-108365700D01*
X109004761Y-108408557D02*
X109004761Y-109008557D01*
X108576190Y-108408557D02*
X108576190Y-108879985D01*
X108576190Y-108879985D02*
X108623809Y-108965700D01*
X108623809Y-108965700D02*
X108719047Y-109008557D01*
X108719047Y-109008557D02*
X108861904Y-109008557D01*
X108861904Y-109008557D02*
X108957142Y-108965700D01*
X108957142Y-108965700D02*
X109004761Y-108922842D01*
X140466667Y-118583557D02*
X140466667Y-117683557D01*
X140466667Y-117683557D02*
X140800000Y-118326414D01*
X140800000Y-118326414D02*
X141133333Y-117683557D01*
X141133333Y-117683557D02*
X141133333Y-118583557D01*
X141609524Y-117683557D02*
X141609524Y-118412128D01*
X141609524Y-118412128D02*
X141657143Y-118497842D01*
X141657143Y-118497842D02*
X141704762Y-118540700D01*
X141704762Y-118540700D02*
X141800000Y-118583557D01*
X141800000Y-118583557D02*
X141990476Y-118583557D01*
X141990476Y-118583557D02*
X142085714Y-118540700D01*
X142085714Y-118540700D02*
X142133333Y-118497842D01*
X142133333Y-118497842D02*
X142180952Y-118412128D01*
X142180952Y-118412128D02*
X142180952Y-117683557D01*
X142561905Y-117683557D02*
X143228571Y-118583557D01*
X143228571Y-117683557D02*
X142561905Y-118583557D01*
X113885714Y-81668557D02*
X113980952Y-81668557D01*
X113980952Y-81668557D02*
X114076190Y-81711414D01*
X114076190Y-81711414D02*
X114123809Y-81754271D01*
X114123809Y-81754271D02*
X114171428Y-81839985D01*
X114171428Y-81839985D02*
X114219047Y-82011414D01*
X114219047Y-82011414D02*
X114219047Y-82225700D01*
X114219047Y-82225700D02*
X114171428Y-82397128D01*
X114171428Y-82397128D02*
X114123809Y-82482842D01*
X114123809Y-82482842D02*
X114076190Y-82525700D01*
X114076190Y-82525700D02*
X113980952Y-82568557D01*
X113980952Y-82568557D02*
X113885714Y-82568557D01*
X113885714Y-82568557D02*
X113790476Y-82525700D01*
X113790476Y-82525700D02*
X113742857Y-82482842D01*
X113742857Y-82482842D02*
X113695238Y-82397128D01*
X113695238Y-82397128D02*
X113647619Y-82225700D01*
X113647619Y-82225700D02*
X113647619Y-82011414D01*
X113647619Y-82011414D02*
X113695238Y-81839985D01*
X113695238Y-81839985D02*
X113742857Y-81754271D01*
X113742857Y-81754271D02*
X113790476Y-81711414D01*
X113790476Y-81711414D02*
X113885714Y-81668557D01*
X114647619Y-82482842D02*
X114695238Y-82525700D01*
X114695238Y-82525700D02*
X114647619Y-82568557D01*
X114647619Y-82568557D02*
X114600000Y-82525700D01*
X114600000Y-82525700D02*
X114647619Y-82482842D01*
X114647619Y-82482842D02*
X114647619Y-82568557D01*
X115647618Y-82568557D02*
X115076190Y-82568557D01*
X115361904Y-82568557D02*
X115361904Y-81668557D01*
X115361904Y-81668557D02*
X115266666Y-81797128D01*
X115266666Y-81797128D02*
X115171428Y-81882842D01*
X115171428Y-81882842D02*
X115076190Y-81925700D01*
X116504761Y-81968557D02*
X116504761Y-82568557D01*
X116076190Y-81968557D02*
X116076190Y-82439985D01*
X116076190Y-82439985D02*
X116123809Y-82525700D01*
X116123809Y-82525700D02*
X116219047Y-82568557D01*
X116219047Y-82568557D02*
X116361904Y-82568557D01*
X116361904Y-82568557D02*
X116457142Y-82525700D01*
X116457142Y-82525700D02*
X116504761Y-82482842D01*
X103266442Y-76044523D02*
X103266442Y-75568333D01*
X103266442Y-75568333D02*
X102837871Y-75520714D01*
X102837871Y-75520714D02*
X102880728Y-75568333D01*
X102880728Y-75568333D02*
X102923585Y-75663571D01*
X102923585Y-75663571D02*
X102923585Y-75901666D01*
X102923585Y-75901666D02*
X102880728Y-75996904D01*
X102880728Y-75996904D02*
X102837871Y-76044523D01*
X102837871Y-76044523D02*
X102752157Y-76092142D01*
X102752157Y-76092142D02*
X102537871Y-76092142D01*
X102537871Y-76092142D02*
X102452157Y-76044523D01*
X102452157Y-76044523D02*
X102409300Y-75996904D01*
X102409300Y-75996904D02*
X102366442Y-75901666D01*
X102366442Y-75901666D02*
X102366442Y-75663571D01*
X102366442Y-75663571D02*
X102409300Y-75568333D01*
X102409300Y-75568333D02*
X102452157Y-75520714D01*
X103266442Y-76425476D02*
X103266442Y-77044523D01*
X103266442Y-77044523D02*
X102923585Y-76711190D01*
X102923585Y-76711190D02*
X102923585Y-76854047D01*
X102923585Y-76854047D02*
X102880728Y-76949285D01*
X102880728Y-76949285D02*
X102837871Y-76996904D01*
X102837871Y-76996904D02*
X102752157Y-77044523D01*
X102752157Y-77044523D02*
X102537871Y-77044523D01*
X102537871Y-77044523D02*
X102452157Y-76996904D01*
X102452157Y-76996904D02*
X102409300Y-76949285D01*
X102409300Y-76949285D02*
X102366442Y-76854047D01*
X102366442Y-76854047D02*
X102366442Y-76568333D01*
X102366442Y-76568333D02*
X102409300Y-76473095D01*
X102409300Y-76473095D02*
X102452157Y-76425476D01*
X102880728Y-77615952D02*
X102923585Y-77520714D01*
X102923585Y-77520714D02*
X102966442Y-77473095D01*
X102966442Y-77473095D02*
X103052157Y-77425476D01*
X103052157Y-77425476D02*
X103095014Y-77425476D01*
X103095014Y-77425476D02*
X103180728Y-77473095D01*
X103180728Y-77473095D02*
X103223585Y-77520714D01*
X103223585Y-77520714D02*
X103266442Y-77615952D01*
X103266442Y-77615952D02*
X103266442Y-77806428D01*
X103266442Y-77806428D02*
X103223585Y-77901666D01*
X103223585Y-77901666D02*
X103180728Y-77949285D01*
X103180728Y-77949285D02*
X103095014Y-77996904D01*
X103095014Y-77996904D02*
X103052157Y-77996904D01*
X103052157Y-77996904D02*
X102966442Y-77949285D01*
X102966442Y-77949285D02*
X102923585Y-77901666D01*
X102923585Y-77901666D02*
X102880728Y-77806428D01*
X102880728Y-77806428D02*
X102880728Y-77615952D01*
X102880728Y-77615952D02*
X102837871Y-77520714D01*
X102837871Y-77520714D02*
X102795014Y-77473095D01*
X102795014Y-77473095D02*
X102709300Y-77425476D01*
X102709300Y-77425476D02*
X102537871Y-77425476D01*
X102537871Y-77425476D02*
X102452157Y-77473095D01*
X102452157Y-77473095D02*
X102409300Y-77520714D01*
X102409300Y-77520714D02*
X102366442Y-77615952D01*
X102366442Y-77615952D02*
X102366442Y-77806428D01*
X102366442Y-77806428D02*
X102409300Y-77901666D01*
X102409300Y-77901666D02*
X102452157Y-77949285D01*
X102452157Y-77949285D02*
X102537871Y-77996904D01*
X102537871Y-77996904D02*
X102709300Y-77996904D01*
X102709300Y-77996904D02*
X102795014Y-77949285D01*
X102795014Y-77949285D02*
X102837871Y-77901666D01*
X102837871Y-77901666D02*
X102880728Y-77806428D01*
X102966442Y-78854047D02*
X102366442Y-78854047D01*
X103309300Y-78615952D02*
X102666442Y-78377857D01*
X102666442Y-78377857D02*
X102666442Y-78996904D01*
X97485320Y-106387879D02*
X97580558Y-106387879D01*
X97580558Y-106387879D02*
X97675796Y-106430736D01*
X97675796Y-106430736D02*
X97723415Y-106473593D01*
X97723415Y-106473593D02*
X97771034Y-106559307D01*
X97771034Y-106559307D02*
X97818653Y-106730736D01*
X97818653Y-106730736D02*
X97818653Y-106945022D01*
X97818653Y-106945022D02*
X97771034Y-107116450D01*
X97771034Y-107116450D02*
X97723415Y-107202164D01*
X97723415Y-107202164D02*
X97675796Y-107245022D01*
X97675796Y-107245022D02*
X97580558Y-107287879D01*
X97580558Y-107287879D02*
X97485320Y-107287879D01*
X97485320Y-107287879D02*
X97390082Y-107245022D01*
X97390082Y-107245022D02*
X97342463Y-107202164D01*
X97342463Y-107202164D02*
X97294844Y-107116450D01*
X97294844Y-107116450D02*
X97247225Y-106945022D01*
X97247225Y-106945022D02*
X97247225Y-106730736D01*
X97247225Y-106730736D02*
X97294844Y-106559307D01*
X97294844Y-106559307D02*
X97342463Y-106473593D01*
X97342463Y-106473593D02*
X97390082Y-106430736D01*
X97390082Y-106430736D02*
X97485320Y-106387879D01*
X98247225Y-107202164D02*
X98294844Y-107245022D01*
X98294844Y-107245022D02*
X98247225Y-107287879D01*
X98247225Y-107287879D02*
X98199606Y-107245022D01*
X98199606Y-107245022D02*
X98247225Y-107202164D01*
X98247225Y-107202164D02*
X98247225Y-107287879D01*
X99247224Y-107287879D02*
X98675796Y-107287879D01*
X98961510Y-107287879D02*
X98961510Y-106387879D01*
X98961510Y-106387879D02*
X98866272Y-106516450D01*
X98866272Y-106516450D02*
X98771034Y-106602164D01*
X98771034Y-106602164D02*
X98675796Y-106645022D01*
X100104367Y-106687879D02*
X100104367Y-107287879D01*
X99675796Y-106687879D02*
X99675796Y-107159307D01*
X99675796Y-107159307D02*
X99723415Y-107245022D01*
X99723415Y-107245022D02*
X99818653Y-107287879D01*
X99818653Y-107287879D02*
X99961510Y-107287879D01*
X99961510Y-107287879D02*
X100056748Y-107245022D01*
X100056748Y-107245022D02*
X100104367Y-107202164D01*
X116806057Y-81477142D02*
X115906057Y-81477142D01*
X116763200Y-81048571D02*
X116806057Y-80905714D01*
X116806057Y-80905714D02*
X116806057Y-80667619D01*
X116806057Y-80667619D02*
X116763200Y-80572381D01*
X116763200Y-80572381D02*
X116720342Y-80524762D01*
X116720342Y-80524762D02*
X116634628Y-80477143D01*
X116634628Y-80477143D02*
X116548914Y-80477143D01*
X116548914Y-80477143D02*
X116463200Y-80524762D01*
X116463200Y-80524762D02*
X116420342Y-80572381D01*
X116420342Y-80572381D02*
X116377485Y-80667619D01*
X116377485Y-80667619D02*
X116334628Y-80858095D01*
X116334628Y-80858095D02*
X116291771Y-80953333D01*
X116291771Y-80953333D02*
X116248914Y-81000952D01*
X116248914Y-81000952D02*
X116163200Y-81048571D01*
X116163200Y-81048571D02*
X116077485Y-81048571D01*
X116077485Y-81048571D02*
X115991771Y-81000952D01*
X115991771Y-81000952D02*
X115948914Y-80953333D01*
X115948914Y-80953333D02*
X115906057Y-80858095D01*
X115906057Y-80858095D02*
X115906057Y-80620000D01*
X115906057Y-80620000D02*
X115948914Y-80477143D01*
X115906057Y-79858095D02*
X115906057Y-79667619D01*
X115906057Y-79667619D02*
X115948914Y-79572381D01*
X115948914Y-79572381D02*
X116034628Y-79477143D01*
X116034628Y-79477143D02*
X116206057Y-79429524D01*
X116206057Y-79429524D02*
X116506057Y-79429524D01*
X116506057Y-79429524D02*
X116677485Y-79477143D01*
X116677485Y-79477143D02*
X116763200Y-79572381D01*
X116763200Y-79572381D02*
X116806057Y-79667619D01*
X116806057Y-79667619D02*
X116806057Y-79858095D01*
X116806057Y-79858095D02*
X116763200Y-79953333D01*
X116763200Y-79953333D02*
X116677485Y-80048571D01*
X116677485Y-80048571D02*
X116506057Y-80096190D01*
X116506057Y-80096190D02*
X116206057Y-80096190D01*
X116206057Y-80096190D02*
X116034628Y-80048571D01*
X116034628Y-80048571D02*
X115948914Y-79953333D01*
X115948914Y-79953333D02*
X115906057Y-79858095D01*
X115906057Y-79096190D02*
X115906057Y-78429524D01*
X115906057Y-78429524D02*
X116806057Y-78858095D01*
X115906057Y-78143809D02*
X115906057Y-77477143D01*
X115906057Y-77477143D02*
X116806057Y-77905714D01*
X115906057Y-76667619D02*
X115906057Y-76858095D01*
X115906057Y-76858095D02*
X115948914Y-76953333D01*
X115948914Y-76953333D02*
X115991771Y-77000952D01*
X115991771Y-77000952D02*
X116120342Y-77096190D01*
X116120342Y-77096190D02*
X116291771Y-77143809D01*
X116291771Y-77143809D02*
X116634628Y-77143809D01*
X116634628Y-77143809D02*
X116720342Y-77096190D01*
X116720342Y-77096190D02*
X116763200Y-77048571D01*
X116763200Y-77048571D02*
X116806057Y-76953333D01*
X116806057Y-76953333D02*
X116806057Y-76762857D01*
X116806057Y-76762857D02*
X116763200Y-76667619D01*
X116763200Y-76667619D02*
X116720342Y-76620000D01*
X116720342Y-76620000D02*
X116634628Y-76572381D01*
X116634628Y-76572381D02*
X116420342Y-76572381D01*
X116420342Y-76572381D02*
X116334628Y-76620000D01*
X116334628Y-76620000D02*
X116291771Y-76667619D01*
X116291771Y-76667619D02*
X116248914Y-76762857D01*
X116248914Y-76762857D02*
X116248914Y-76953333D01*
X116248914Y-76953333D02*
X116291771Y-77048571D01*
X116291771Y-77048571D02*
X116334628Y-77096190D01*
X116334628Y-77096190D02*
X116420342Y-77143809D01*
X115991771Y-76191428D02*
X115948914Y-76143809D01*
X115948914Y-76143809D02*
X115906057Y-76048571D01*
X115906057Y-76048571D02*
X115906057Y-75810476D01*
X115906057Y-75810476D02*
X115948914Y-75715238D01*
X115948914Y-75715238D02*
X115991771Y-75667619D01*
X115991771Y-75667619D02*
X116077485Y-75620000D01*
X116077485Y-75620000D02*
X116163200Y-75620000D01*
X116163200Y-75620000D02*
X116291771Y-75667619D01*
X116291771Y-75667619D02*
X116806057Y-76239047D01*
X116806057Y-76239047D02*
X116806057Y-75620000D01*
X116334628Y-74858095D02*
X116334628Y-75191428D01*
X116806057Y-75191428D02*
X115906057Y-75191428D01*
X115906057Y-75191428D02*
X115906057Y-74715238D01*
X116806057Y-74334285D02*
X115906057Y-74334285D01*
X115906057Y-74334285D02*
X115906057Y-74096190D01*
X115906057Y-74096190D02*
X115948914Y-73953333D01*
X115948914Y-73953333D02*
X116034628Y-73858095D01*
X116034628Y-73858095D02*
X116120342Y-73810476D01*
X116120342Y-73810476D02*
X116291771Y-73762857D01*
X116291771Y-73762857D02*
X116420342Y-73762857D01*
X116420342Y-73762857D02*
X116591771Y-73810476D01*
X116591771Y-73810476D02*
X116677485Y-73858095D01*
X116677485Y-73858095D02*
X116763200Y-73953333D01*
X116763200Y-73953333D02*
X116806057Y-74096190D01*
X116806057Y-74096190D02*
X116806057Y-74334285D01*
X116334628Y-73000952D02*
X116377485Y-72858095D01*
X116377485Y-72858095D02*
X116420342Y-72810476D01*
X116420342Y-72810476D02*
X116506057Y-72762857D01*
X116506057Y-72762857D02*
X116634628Y-72762857D01*
X116634628Y-72762857D02*
X116720342Y-72810476D01*
X116720342Y-72810476D02*
X116763200Y-72858095D01*
X116763200Y-72858095D02*
X116806057Y-72953333D01*
X116806057Y-72953333D02*
X116806057Y-73334285D01*
X116806057Y-73334285D02*
X115906057Y-73334285D01*
X115906057Y-73334285D02*
X115906057Y-73000952D01*
X115906057Y-73000952D02*
X115948914Y-72905714D01*
X115948914Y-72905714D02*
X115991771Y-72858095D01*
X115991771Y-72858095D02*
X116077485Y-72810476D01*
X116077485Y-72810476D02*
X116163200Y-72810476D01*
X116163200Y-72810476D02*
X116248914Y-72858095D01*
X116248914Y-72858095D02*
X116291771Y-72905714D01*
X116291771Y-72905714D02*
X116334628Y-73000952D01*
X116334628Y-73000952D02*
X116334628Y-73334285D01*
X116891771Y-71667619D02*
X116848914Y-71762857D01*
X116848914Y-71762857D02*
X116763200Y-71858095D01*
X116763200Y-71858095D02*
X116634628Y-72000952D01*
X116634628Y-72000952D02*
X116591771Y-72096190D01*
X116591771Y-72096190D02*
X116591771Y-72191428D01*
X116806057Y-72143809D02*
X116763200Y-72239047D01*
X116763200Y-72239047D02*
X116677485Y-72334285D01*
X116677485Y-72334285D02*
X116506057Y-72381904D01*
X116506057Y-72381904D02*
X116206057Y-72381904D01*
X116206057Y-72381904D02*
X116034628Y-72334285D01*
X116034628Y-72334285D02*
X115948914Y-72239047D01*
X115948914Y-72239047D02*
X115906057Y-72143809D01*
X115906057Y-72143809D02*
X115906057Y-71953333D01*
X115906057Y-71953333D02*
X115948914Y-71858095D01*
X115948914Y-71858095D02*
X116034628Y-71762857D01*
X116034628Y-71762857D02*
X116206057Y-71715238D01*
X116206057Y-71715238D02*
X116506057Y-71715238D01*
X116506057Y-71715238D02*
X116677485Y-71762857D01*
X116677485Y-71762857D02*
X116763200Y-71858095D01*
X116763200Y-71858095D02*
X116806057Y-71953333D01*
X116806057Y-71953333D02*
X116806057Y-72143809D01*
X121365714Y-81468557D02*
X121460952Y-81468557D01*
X121460952Y-81468557D02*
X121556190Y-81511414D01*
X121556190Y-81511414D02*
X121603809Y-81554271D01*
X121603809Y-81554271D02*
X121651428Y-81639985D01*
X121651428Y-81639985D02*
X121699047Y-81811414D01*
X121699047Y-81811414D02*
X121699047Y-82025700D01*
X121699047Y-82025700D02*
X121651428Y-82197128D01*
X121651428Y-82197128D02*
X121603809Y-82282842D01*
X121603809Y-82282842D02*
X121556190Y-82325700D01*
X121556190Y-82325700D02*
X121460952Y-82368557D01*
X121460952Y-82368557D02*
X121365714Y-82368557D01*
X121365714Y-82368557D02*
X121270476Y-82325700D01*
X121270476Y-82325700D02*
X121222857Y-82282842D01*
X121222857Y-82282842D02*
X121175238Y-82197128D01*
X121175238Y-82197128D02*
X121127619Y-82025700D01*
X121127619Y-82025700D02*
X121127619Y-81811414D01*
X121127619Y-81811414D02*
X121175238Y-81639985D01*
X121175238Y-81639985D02*
X121222857Y-81554271D01*
X121222857Y-81554271D02*
X121270476Y-81511414D01*
X121270476Y-81511414D02*
X121365714Y-81468557D01*
X122127619Y-82282842D02*
X122175238Y-82325700D01*
X122175238Y-82325700D02*
X122127619Y-82368557D01*
X122127619Y-82368557D02*
X122080000Y-82325700D01*
X122080000Y-82325700D02*
X122127619Y-82282842D01*
X122127619Y-82282842D02*
X122127619Y-82368557D01*
X123127618Y-82368557D02*
X122556190Y-82368557D01*
X122841904Y-82368557D02*
X122841904Y-81468557D01*
X122841904Y-81468557D02*
X122746666Y-81597128D01*
X122746666Y-81597128D02*
X122651428Y-81682842D01*
X122651428Y-81682842D02*
X122556190Y-81725700D01*
X123984761Y-81768557D02*
X123984761Y-82368557D01*
X123556190Y-81768557D02*
X123556190Y-82239985D01*
X123556190Y-82239985D02*
X123603809Y-82325700D01*
X123603809Y-82325700D02*
X123699047Y-82368557D01*
X123699047Y-82368557D02*
X123841904Y-82368557D01*
X123841904Y-82368557D02*
X123937142Y-82325700D01*
X123937142Y-82325700D02*
X123984761Y-82282842D01*
X102215714Y-125708557D02*
X102310952Y-125708557D01*
X102310952Y-125708557D02*
X102406190Y-125751414D01*
X102406190Y-125751414D02*
X102453809Y-125794271D01*
X102453809Y-125794271D02*
X102501428Y-125879985D01*
X102501428Y-125879985D02*
X102549047Y-126051414D01*
X102549047Y-126051414D02*
X102549047Y-126265700D01*
X102549047Y-126265700D02*
X102501428Y-126437128D01*
X102501428Y-126437128D02*
X102453809Y-126522842D01*
X102453809Y-126522842D02*
X102406190Y-126565700D01*
X102406190Y-126565700D02*
X102310952Y-126608557D01*
X102310952Y-126608557D02*
X102215714Y-126608557D01*
X102215714Y-126608557D02*
X102120476Y-126565700D01*
X102120476Y-126565700D02*
X102072857Y-126522842D01*
X102072857Y-126522842D02*
X102025238Y-126437128D01*
X102025238Y-126437128D02*
X101977619Y-126265700D01*
X101977619Y-126265700D02*
X101977619Y-126051414D01*
X101977619Y-126051414D02*
X102025238Y-125879985D01*
X102025238Y-125879985D02*
X102072857Y-125794271D01*
X102072857Y-125794271D02*
X102120476Y-125751414D01*
X102120476Y-125751414D02*
X102215714Y-125708557D01*
X102977619Y-126522842D02*
X103025238Y-126565700D01*
X103025238Y-126565700D02*
X102977619Y-126608557D01*
X102977619Y-126608557D02*
X102930000Y-126565700D01*
X102930000Y-126565700D02*
X102977619Y-126522842D01*
X102977619Y-126522842D02*
X102977619Y-126608557D01*
X103977618Y-126608557D02*
X103406190Y-126608557D01*
X103691904Y-126608557D02*
X103691904Y-125708557D01*
X103691904Y-125708557D02*
X103596666Y-125837128D01*
X103596666Y-125837128D02*
X103501428Y-125922842D01*
X103501428Y-125922842D02*
X103406190Y-125965700D01*
X104834761Y-126008557D02*
X104834761Y-126608557D01*
X104406190Y-126008557D02*
X104406190Y-126479985D01*
X104406190Y-126479985D02*
X104453809Y-126565700D01*
X104453809Y-126565700D02*
X104549047Y-126608557D01*
X104549047Y-126608557D02*
X104691904Y-126608557D01*
X104691904Y-126608557D02*
X104787142Y-126565700D01*
X104787142Y-126565700D02*
X104834761Y-126522842D01*
X114708557Y-71814285D02*
X114708557Y-71719047D01*
X114708557Y-71719047D02*
X114751414Y-71623809D01*
X114751414Y-71623809D02*
X114794271Y-71576190D01*
X114794271Y-71576190D02*
X114879985Y-71528571D01*
X114879985Y-71528571D02*
X115051414Y-71480952D01*
X115051414Y-71480952D02*
X115265700Y-71480952D01*
X115265700Y-71480952D02*
X115437128Y-71528571D01*
X115437128Y-71528571D02*
X115522842Y-71576190D01*
X115522842Y-71576190D02*
X115565700Y-71623809D01*
X115565700Y-71623809D02*
X115608557Y-71719047D01*
X115608557Y-71719047D02*
X115608557Y-71814285D01*
X115608557Y-71814285D02*
X115565700Y-71909523D01*
X115565700Y-71909523D02*
X115522842Y-71957142D01*
X115522842Y-71957142D02*
X115437128Y-72004761D01*
X115437128Y-72004761D02*
X115265700Y-72052380D01*
X115265700Y-72052380D02*
X115051414Y-72052380D01*
X115051414Y-72052380D02*
X114879985Y-72004761D01*
X114879985Y-72004761D02*
X114794271Y-71957142D01*
X114794271Y-71957142D02*
X114751414Y-71909523D01*
X114751414Y-71909523D02*
X114708557Y-71814285D01*
X115522842Y-71052380D02*
X115565700Y-71004761D01*
X115565700Y-71004761D02*
X115608557Y-71052380D01*
X115608557Y-71052380D02*
X115565700Y-71099999D01*
X115565700Y-71099999D02*
X115522842Y-71052380D01*
X115522842Y-71052380D02*
X115608557Y-71052380D01*
X115608557Y-70052381D02*
X115608557Y-70623809D01*
X115608557Y-70338095D02*
X114708557Y-70338095D01*
X114708557Y-70338095D02*
X114837128Y-70433333D01*
X114837128Y-70433333D02*
X114922842Y-70528571D01*
X114922842Y-70528571D02*
X114965700Y-70623809D01*
X115008557Y-69195238D02*
X115608557Y-69195238D01*
X115008557Y-69623809D02*
X115479985Y-69623809D01*
X115479985Y-69623809D02*
X115565700Y-69576190D01*
X115565700Y-69576190D02*
X115608557Y-69480952D01*
X115608557Y-69480952D02*
X115608557Y-69338095D01*
X115608557Y-69338095D02*
X115565700Y-69242857D01*
X115565700Y-69242857D02*
X115522842Y-69195238D01*
X160066667Y-118783557D02*
X160066667Y-117883557D01*
X160066667Y-117883557D02*
X160400000Y-118526414D01*
X160400000Y-118526414D02*
X160733333Y-117883557D01*
X160733333Y-117883557D02*
X160733333Y-118783557D01*
X161209524Y-117883557D02*
X161209524Y-118612128D01*
X161209524Y-118612128D02*
X161257143Y-118697842D01*
X161257143Y-118697842D02*
X161304762Y-118740700D01*
X161304762Y-118740700D02*
X161400000Y-118783557D01*
X161400000Y-118783557D02*
X161590476Y-118783557D01*
X161590476Y-118783557D02*
X161685714Y-118740700D01*
X161685714Y-118740700D02*
X161733333Y-118697842D01*
X161733333Y-118697842D02*
X161780952Y-118612128D01*
X161780952Y-118612128D02*
X161780952Y-117883557D01*
X162161905Y-117883557D02*
X162828571Y-118783557D01*
X162828571Y-117883557D02*
X162161905Y-118783557D01*
X109185714Y-113058557D02*
X109280952Y-113058557D01*
X109280952Y-113058557D02*
X109376190Y-113101414D01*
X109376190Y-113101414D02*
X109423809Y-113144271D01*
X109423809Y-113144271D02*
X109471428Y-113229985D01*
X109471428Y-113229985D02*
X109519047Y-113401414D01*
X109519047Y-113401414D02*
X109519047Y-113615700D01*
X109519047Y-113615700D02*
X109471428Y-113787128D01*
X109471428Y-113787128D02*
X109423809Y-113872842D01*
X109423809Y-113872842D02*
X109376190Y-113915700D01*
X109376190Y-113915700D02*
X109280952Y-113958557D01*
X109280952Y-113958557D02*
X109185714Y-113958557D01*
X109185714Y-113958557D02*
X109090476Y-113915700D01*
X109090476Y-113915700D02*
X109042857Y-113872842D01*
X109042857Y-113872842D02*
X108995238Y-113787128D01*
X108995238Y-113787128D02*
X108947619Y-113615700D01*
X108947619Y-113615700D02*
X108947619Y-113401414D01*
X108947619Y-113401414D02*
X108995238Y-113229985D01*
X108995238Y-113229985D02*
X109042857Y-113144271D01*
X109042857Y-113144271D02*
X109090476Y-113101414D01*
X109090476Y-113101414D02*
X109185714Y-113058557D01*
X109947619Y-113872842D02*
X109995238Y-113915700D01*
X109995238Y-113915700D02*
X109947619Y-113958557D01*
X109947619Y-113958557D02*
X109900000Y-113915700D01*
X109900000Y-113915700D02*
X109947619Y-113872842D01*
X109947619Y-113872842D02*
X109947619Y-113958557D01*
X110947618Y-113958557D02*
X110376190Y-113958557D01*
X110661904Y-113958557D02*
X110661904Y-113058557D01*
X110661904Y-113058557D02*
X110566666Y-113187128D01*
X110566666Y-113187128D02*
X110471428Y-113272842D01*
X110471428Y-113272842D02*
X110376190Y-113315700D01*
X111804761Y-113358557D02*
X111804761Y-113958557D01*
X111376190Y-113358557D02*
X111376190Y-113829985D01*
X111376190Y-113829985D02*
X111423809Y-113915700D01*
X111423809Y-113915700D02*
X111519047Y-113958557D01*
X111519047Y-113958557D02*
X111661904Y-113958557D01*
X111661904Y-113958557D02*
X111757142Y-113915700D01*
X111757142Y-113915700D02*
X111804761Y-113872842D01*
X120552381Y-155508557D02*
X120647619Y-155508557D01*
X120647619Y-155508557D02*
X120742857Y-155551414D01*
X120742857Y-155551414D02*
X120790476Y-155594271D01*
X120790476Y-155594271D02*
X120838095Y-155679985D01*
X120838095Y-155679985D02*
X120885714Y-155851414D01*
X120885714Y-155851414D02*
X120885714Y-156065700D01*
X120885714Y-156065700D02*
X120838095Y-156237128D01*
X120838095Y-156237128D02*
X120790476Y-156322842D01*
X120790476Y-156322842D02*
X120742857Y-156365700D01*
X120742857Y-156365700D02*
X120647619Y-156408557D01*
X120647619Y-156408557D02*
X120552381Y-156408557D01*
X120552381Y-156408557D02*
X120457143Y-156365700D01*
X120457143Y-156365700D02*
X120409524Y-156322842D01*
X120409524Y-156322842D02*
X120361905Y-156237128D01*
X120361905Y-156237128D02*
X120314286Y-156065700D01*
X120314286Y-156065700D02*
X120314286Y-155851414D01*
X120314286Y-155851414D02*
X120361905Y-155679985D01*
X120361905Y-155679985D02*
X120409524Y-155594271D01*
X120409524Y-155594271D02*
X120457143Y-155551414D01*
X120457143Y-155551414D02*
X120552381Y-155508557D01*
D10*
X87711838Y-152619714D02*
X88378504Y-154419714D01*
X88378504Y-154419714D02*
X89045171Y-152619714D01*
X89711838Y-153734000D02*
X91235648Y-153734000D01*
X90473743Y-154419714D02*
X90473743Y-153048285D01*
D11*
X98062381Y-127708557D02*
X98157619Y-127708557D01*
X98157619Y-127708557D02*
X98252857Y-127751414D01*
X98252857Y-127751414D02*
X98300476Y-127794271D01*
X98300476Y-127794271D02*
X98348095Y-127879985D01*
X98348095Y-127879985D02*
X98395714Y-128051414D01*
X98395714Y-128051414D02*
X98395714Y-128265700D01*
X98395714Y-128265700D02*
X98348095Y-128437128D01*
X98348095Y-128437128D02*
X98300476Y-128522842D01*
X98300476Y-128522842D02*
X98252857Y-128565700D01*
X98252857Y-128565700D02*
X98157619Y-128608557D01*
X98157619Y-128608557D02*
X98062381Y-128608557D01*
X98062381Y-128608557D02*
X97967143Y-128565700D01*
X97967143Y-128565700D02*
X97919524Y-128522842D01*
X97919524Y-128522842D02*
X97871905Y-128437128D01*
X97871905Y-128437128D02*
X97824286Y-128265700D01*
X97824286Y-128265700D02*
X97824286Y-128051414D01*
X97824286Y-128051414D02*
X97871905Y-127879985D01*
X97871905Y-127879985D02*
X97919524Y-127794271D01*
X97919524Y-127794271D02*
X97967143Y-127751414D01*
X97967143Y-127751414D02*
X98062381Y-127708557D01*
X89486272Y-103771641D02*
X89486272Y-104485926D01*
X89486272Y-104485926D02*
X89438653Y-104628783D01*
X89438653Y-104628783D02*
X89343415Y-104724022D01*
X89343415Y-104724022D02*
X89200558Y-104771641D01*
X89200558Y-104771641D02*
X89105320Y-104771641D01*
X89962463Y-104771641D02*
X89962463Y-103771641D01*
X89962463Y-103771641D02*
X90343415Y-103771641D01*
X90343415Y-103771641D02*
X90438653Y-103819260D01*
X90438653Y-103819260D02*
X90486272Y-103866879D01*
X90486272Y-103866879D02*
X90533891Y-103962117D01*
X90533891Y-103962117D02*
X90533891Y-104104974D01*
X90533891Y-104104974D02*
X90486272Y-104200212D01*
X90486272Y-104200212D02*
X90438653Y-104247831D01*
X90438653Y-104247831D02*
X90343415Y-104295450D01*
X90343415Y-104295450D02*
X89962463Y-104295450D01*
X90914844Y-103866879D02*
X90962463Y-103819260D01*
X90962463Y-103819260D02*
X91057701Y-103771641D01*
X91057701Y-103771641D02*
X91295796Y-103771641D01*
X91295796Y-103771641D02*
X91391034Y-103819260D01*
X91391034Y-103819260D02*
X91438653Y-103866879D01*
X91438653Y-103866879D02*
X91486272Y-103962117D01*
X91486272Y-103962117D02*
X91486272Y-104057355D01*
X91486272Y-104057355D02*
X91438653Y-104200212D01*
X91438653Y-104200212D02*
X90867225Y-104771641D01*
X90867225Y-104771641D02*
X91486272Y-104771641D01*
X97562381Y-144508557D02*
X97657619Y-144508557D01*
X97657619Y-144508557D02*
X97752857Y-144551414D01*
X97752857Y-144551414D02*
X97800476Y-144594271D01*
X97800476Y-144594271D02*
X97848095Y-144679985D01*
X97848095Y-144679985D02*
X97895714Y-144851414D01*
X97895714Y-144851414D02*
X97895714Y-145065700D01*
X97895714Y-145065700D02*
X97848095Y-145237128D01*
X97848095Y-145237128D02*
X97800476Y-145322842D01*
X97800476Y-145322842D02*
X97752857Y-145365700D01*
X97752857Y-145365700D02*
X97657619Y-145408557D01*
X97657619Y-145408557D02*
X97562381Y-145408557D01*
X97562381Y-145408557D02*
X97467143Y-145365700D01*
X97467143Y-145365700D02*
X97419524Y-145322842D01*
X97419524Y-145322842D02*
X97371905Y-145237128D01*
X97371905Y-145237128D02*
X97324286Y-145065700D01*
X97324286Y-145065700D02*
X97324286Y-144851414D01*
X97324286Y-144851414D02*
X97371905Y-144679985D01*
X97371905Y-144679985D02*
X97419524Y-144594271D01*
X97419524Y-144594271D02*
X97467143Y-144551414D01*
X97467143Y-144551414D02*
X97562381Y-144508557D01*
X110152381Y-153108557D02*
X110247619Y-153108557D01*
X110247619Y-153108557D02*
X110342857Y-153151414D01*
X110342857Y-153151414D02*
X110390476Y-153194271D01*
X110390476Y-153194271D02*
X110438095Y-153279985D01*
X110438095Y-153279985D02*
X110485714Y-153451414D01*
X110485714Y-153451414D02*
X110485714Y-153665700D01*
X110485714Y-153665700D02*
X110438095Y-153837128D01*
X110438095Y-153837128D02*
X110390476Y-153922842D01*
X110390476Y-153922842D02*
X110342857Y-153965700D01*
X110342857Y-153965700D02*
X110247619Y-154008557D01*
X110247619Y-154008557D02*
X110152381Y-154008557D01*
X110152381Y-154008557D02*
X110057143Y-153965700D01*
X110057143Y-153965700D02*
X110009524Y-153922842D01*
X110009524Y-153922842D02*
X109961905Y-153837128D01*
X109961905Y-153837128D02*
X109914286Y-153665700D01*
X109914286Y-153665700D02*
X109914286Y-153451414D01*
X109914286Y-153451414D02*
X109961905Y-153279985D01*
X109961905Y-153279985D02*
X110009524Y-153194271D01*
X110009524Y-153194271D02*
X110057143Y-153151414D01*
X110057143Y-153151414D02*
X110152381Y-153108557D01*
X187066667Y-89983557D02*
X187066667Y-89083557D01*
X187066667Y-89083557D02*
X187400000Y-89726414D01*
X187400000Y-89726414D02*
X187733333Y-89083557D01*
X187733333Y-89083557D02*
X187733333Y-89983557D01*
X188209524Y-89083557D02*
X188209524Y-89812128D01*
X188209524Y-89812128D02*
X188257143Y-89897842D01*
X188257143Y-89897842D02*
X188304762Y-89940700D01*
X188304762Y-89940700D02*
X188400000Y-89983557D01*
X188400000Y-89983557D02*
X188590476Y-89983557D01*
X188590476Y-89983557D02*
X188685714Y-89940700D01*
X188685714Y-89940700D02*
X188733333Y-89897842D01*
X188733333Y-89897842D02*
X188780952Y-89812128D01*
X188780952Y-89812128D02*
X188780952Y-89083557D01*
X189161905Y-89083557D02*
X189828571Y-89983557D01*
X189828571Y-89083557D02*
X189161905Y-89983557D01*
X88616272Y-139171641D02*
X88616272Y-139885926D01*
X88616272Y-139885926D02*
X88568653Y-140028783D01*
X88568653Y-140028783D02*
X88473415Y-140124022D01*
X88473415Y-140124022D02*
X88330558Y-140171641D01*
X88330558Y-140171641D02*
X88235320Y-140171641D01*
X89092463Y-140171641D02*
X89092463Y-139171641D01*
X89092463Y-139171641D02*
X89473415Y-139171641D01*
X89473415Y-139171641D02*
X89568653Y-139219260D01*
X89568653Y-139219260D02*
X89616272Y-139266879D01*
X89616272Y-139266879D02*
X89663891Y-139362117D01*
X89663891Y-139362117D02*
X89663891Y-139504974D01*
X89663891Y-139504974D02*
X89616272Y-139600212D01*
X89616272Y-139600212D02*
X89568653Y-139647831D01*
X89568653Y-139647831D02*
X89473415Y-139695450D01*
X89473415Y-139695450D02*
X89092463Y-139695450D01*
X90616272Y-140171641D02*
X90044844Y-140171641D01*
X90330558Y-140171641D02*
X90330558Y-139171641D01*
X90330558Y-139171641D02*
X90235320Y-139314498D01*
X90235320Y-139314498D02*
X90140082Y-139409736D01*
X90140082Y-139409736D02*
X90044844Y-139457355D01*
X91858557Y-147702380D02*
X91858557Y-147511904D01*
X91858557Y-147511904D02*
X91901414Y-147416666D01*
X91901414Y-147416666D02*
X91987128Y-147321428D01*
X91987128Y-147321428D02*
X92158557Y-147273809D01*
X92158557Y-147273809D02*
X92458557Y-147273809D01*
X92458557Y-147273809D02*
X92629985Y-147321428D01*
X92629985Y-147321428D02*
X92715700Y-147416666D01*
X92715700Y-147416666D02*
X92758557Y-147511904D01*
X92758557Y-147511904D02*
X92758557Y-147702380D01*
X92758557Y-147702380D02*
X92715700Y-147797618D01*
X92715700Y-147797618D02*
X92629985Y-147892856D01*
X92629985Y-147892856D02*
X92458557Y-147940475D01*
X92458557Y-147940475D02*
X92158557Y-147940475D01*
X92158557Y-147940475D02*
X91987128Y-147892856D01*
X91987128Y-147892856D02*
X91901414Y-147797618D01*
X91901414Y-147797618D02*
X91858557Y-147702380D01*
X92758557Y-146845237D02*
X91858557Y-146845237D01*
X91858557Y-146845237D02*
X91858557Y-146464285D01*
X91858557Y-146464285D02*
X91901414Y-146369047D01*
X91901414Y-146369047D02*
X91944271Y-146321428D01*
X91944271Y-146321428D02*
X92029985Y-146273809D01*
X92029985Y-146273809D02*
X92158557Y-146273809D01*
X92158557Y-146273809D02*
X92244271Y-146321428D01*
X92244271Y-146321428D02*
X92287128Y-146369047D01*
X92287128Y-146369047D02*
X92329985Y-146464285D01*
X92329985Y-146464285D02*
X92329985Y-146845237D01*
X92501414Y-145892856D02*
X92501414Y-145416666D01*
X92758557Y-145988094D02*
X91858557Y-145654761D01*
X91858557Y-145654761D02*
X92758557Y-145321428D01*
X92758557Y-144464285D02*
X92758557Y-145035713D01*
X92758557Y-144749999D02*
X91858557Y-144749999D01*
X91858557Y-144749999D02*
X91987128Y-144845237D01*
X91987128Y-144845237D02*
X92072842Y-144940475D01*
X92072842Y-144940475D02*
X92115700Y-145035713D01*
X92758557Y-143988094D02*
X92758557Y-143797618D01*
X92758557Y-143797618D02*
X92715700Y-143702380D01*
X92715700Y-143702380D02*
X92672842Y-143654761D01*
X92672842Y-143654761D02*
X92544271Y-143559523D01*
X92544271Y-143559523D02*
X92372842Y-143511904D01*
X92372842Y-143511904D02*
X92029985Y-143511904D01*
X92029985Y-143511904D02*
X91944271Y-143559523D01*
X91944271Y-143559523D02*
X91901414Y-143607142D01*
X91901414Y-143607142D02*
X91858557Y-143702380D01*
X91858557Y-143702380D02*
X91858557Y-143892856D01*
X91858557Y-143892856D02*
X91901414Y-143988094D01*
X91901414Y-143988094D02*
X91944271Y-144035713D01*
X91944271Y-144035713D02*
X92029985Y-144083332D01*
X92029985Y-144083332D02*
X92244271Y-144083332D01*
X92244271Y-144083332D02*
X92329985Y-144035713D01*
X92329985Y-144035713D02*
X92372842Y-143988094D01*
X92372842Y-143988094D02*
X92415700Y-143892856D01*
X92415700Y-143892856D02*
X92415700Y-143702380D01*
X92415700Y-143702380D02*
X92372842Y-143607142D01*
X92372842Y-143607142D02*
X92329985Y-143559523D01*
X92329985Y-143559523D02*
X92244271Y-143511904D01*
X91944271Y-143130951D02*
X91901414Y-143083332D01*
X91901414Y-143083332D02*
X91858557Y-142988094D01*
X91858557Y-142988094D02*
X91858557Y-142749999D01*
X91858557Y-142749999D02*
X91901414Y-142654761D01*
X91901414Y-142654761D02*
X91944271Y-142607142D01*
X91944271Y-142607142D02*
X92029985Y-142559523D01*
X92029985Y-142559523D02*
X92115700Y-142559523D01*
X92115700Y-142559523D02*
X92244271Y-142607142D01*
X92244271Y-142607142D02*
X92758557Y-143178570D01*
X92758557Y-143178570D02*
X92758557Y-142559523D01*
X94184725Y-112125379D02*
X94375201Y-112125379D01*
X94375201Y-112125379D02*
X94470439Y-112168236D01*
X94470439Y-112168236D02*
X94565677Y-112253950D01*
X94565677Y-112253950D02*
X94613296Y-112425379D01*
X94613296Y-112425379D02*
X94613296Y-112725379D01*
X94613296Y-112725379D02*
X94565677Y-112896807D01*
X94565677Y-112896807D02*
X94470439Y-112982522D01*
X94470439Y-112982522D02*
X94375201Y-113025379D01*
X94375201Y-113025379D02*
X94184725Y-113025379D01*
X94184725Y-113025379D02*
X94089487Y-112982522D01*
X94089487Y-112982522D02*
X93994249Y-112896807D01*
X93994249Y-112896807D02*
X93946630Y-112725379D01*
X93946630Y-112725379D02*
X93946630Y-112425379D01*
X93946630Y-112425379D02*
X93994249Y-112253950D01*
X93994249Y-112253950D02*
X94089487Y-112168236D01*
X94089487Y-112168236D02*
X94184725Y-112125379D01*
X95041868Y-113025379D02*
X95041868Y-112125379D01*
X95041868Y-112125379D02*
X95422820Y-112125379D01*
X95422820Y-112125379D02*
X95518058Y-112168236D01*
X95518058Y-112168236D02*
X95565677Y-112211093D01*
X95565677Y-112211093D02*
X95613296Y-112296807D01*
X95613296Y-112296807D02*
X95613296Y-112425379D01*
X95613296Y-112425379D02*
X95565677Y-112511093D01*
X95565677Y-112511093D02*
X95518058Y-112553950D01*
X95518058Y-112553950D02*
X95422820Y-112596807D01*
X95422820Y-112596807D02*
X95041868Y-112596807D01*
X95994249Y-112768236D02*
X96470439Y-112768236D01*
X95899011Y-113025379D02*
X96232344Y-112125379D01*
X96232344Y-112125379D02*
X96565677Y-113025379D01*
X97422820Y-113025379D02*
X96851392Y-113025379D01*
X97137106Y-113025379D02*
X97137106Y-112125379D01*
X97137106Y-112125379D02*
X97041868Y-112253950D01*
X97041868Y-112253950D02*
X96946630Y-112339664D01*
X96946630Y-112339664D02*
X96851392Y-112382522D01*
X97899011Y-113025379D02*
X98089487Y-113025379D01*
X98089487Y-113025379D02*
X98184725Y-112982522D01*
X98184725Y-112982522D02*
X98232344Y-112939664D01*
X98232344Y-112939664D02*
X98327582Y-112811093D01*
X98327582Y-112811093D02*
X98375201Y-112639664D01*
X98375201Y-112639664D02*
X98375201Y-112296807D01*
X98375201Y-112296807D02*
X98327582Y-112211093D01*
X98327582Y-112211093D02*
X98279963Y-112168236D01*
X98279963Y-112168236D02*
X98184725Y-112125379D01*
X98184725Y-112125379D02*
X97994249Y-112125379D01*
X97994249Y-112125379D02*
X97899011Y-112168236D01*
X97899011Y-112168236D02*
X97851392Y-112211093D01*
X97851392Y-112211093D02*
X97803773Y-112296807D01*
X97803773Y-112296807D02*
X97803773Y-112511093D01*
X97803773Y-112511093D02*
X97851392Y-112596807D01*
X97851392Y-112596807D02*
X97899011Y-112639664D01*
X97899011Y-112639664D02*
X97994249Y-112682522D01*
X97994249Y-112682522D02*
X98184725Y-112682522D01*
X98184725Y-112682522D02*
X98279963Y-112639664D01*
X98279963Y-112639664D02*
X98327582Y-112596807D01*
X98327582Y-112596807D02*
X98375201Y-112511093D01*
X98756154Y-112211093D02*
X98803773Y-112168236D01*
X98803773Y-112168236D02*
X98899011Y-112125379D01*
X98899011Y-112125379D02*
X99137106Y-112125379D01*
X99137106Y-112125379D02*
X99232344Y-112168236D01*
X99232344Y-112168236D02*
X99279963Y-112211093D01*
X99279963Y-112211093D02*
X99327582Y-112296807D01*
X99327582Y-112296807D02*
X99327582Y-112382522D01*
X99327582Y-112382522D02*
X99279963Y-112511093D01*
X99279963Y-112511093D02*
X98708535Y-113025379D01*
X98708535Y-113025379D02*
X99327582Y-113025379D01*
X108883557Y-82189642D02*
X107983557Y-82189642D01*
X108840700Y-81761071D02*
X108883557Y-81618214D01*
X108883557Y-81618214D02*
X108883557Y-81380119D01*
X108883557Y-81380119D02*
X108840700Y-81284881D01*
X108840700Y-81284881D02*
X108797842Y-81237262D01*
X108797842Y-81237262D02*
X108712128Y-81189643D01*
X108712128Y-81189643D02*
X108626414Y-81189643D01*
X108626414Y-81189643D02*
X108540700Y-81237262D01*
X108540700Y-81237262D02*
X108497842Y-81284881D01*
X108497842Y-81284881D02*
X108454985Y-81380119D01*
X108454985Y-81380119D02*
X108412128Y-81570595D01*
X108412128Y-81570595D02*
X108369271Y-81665833D01*
X108369271Y-81665833D02*
X108326414Y-81713452D01*
X108326414Y-81713452D02*
X108240700Y-81761071D01*
X108240700Y-81761071D02*
X108154985Y-81761071D01*
X108154985Y-81761071D02*
X108069271Y-81713452D01*
X108069271Y-81713452D02*
X108026414Y-81665833D01*
X108026414Y-81665833D02*
X107983557Y-81570595D01*
X107983557Y-81570595D02*
X107983557Y-81332500D01*
X107983557Y-81332500D02*
X108026414Y-81189643D01*
X107983557Y-80570595D02*
X107983557Y-80380119D01*
X107983557Y-80380119D02*
X108026414Y-80284881D01*
X108026414Y-80284881D02*
X108112128Y-80189643D01*
X108112128Y-80189643D02*
X108283557Y-80142024D01*
X108283557Y-80142024D02*
X108583557Y-80142024D01*
X108583557Y-80142024D02*
X108754985Y-80189643D01*
X108754985Y-80189643D02*
X108840700Y-80284881D01*
X108840700Y-80284881D02*
X108883557Y-80380119D01*
X108883557Y-80380119D02*
X108883557Y-80570595D01*
X108883557Y-80570595D02*
X108840700Y-80665833D01*
X108840700Y-80665833D02*
X108754985Y-80761071D01*
X108754985Y-80761071D02*
X108583557Y-80808690D01*
X108583557Y-80808690D02*
X108283557Y-80808690D01*
X108283557Y-80808690D02*
X108112128Y-80761071D01*
X108112128Y-80761071D02*
X108026414Y-80665833D01*
X108026414Y-80665833D02*
X107983557Y-80570595D01*
X107983557Y-79808690D02*
X107983557Y-79142024D01*
X107983557Y-79142024D02*
X108883557Y-79570595D01*
X107983557Y-78856309D02*
X107983557Y-78189643D01*
X107983557Y-78189643D02*
X108883557Y-78618214D01*
X107983557Y-77380119D02*
X107983557Y-77570595D01*
X107983557Y-77570595D02*
X108026414Y-77665833D01*
X108026414Y-77665833D02*
X108069271Y-77713452D01*
X108069271Y-77713452D02*
X108197842Y-77808690D01*
X108197842Y-77808690D02*
X108369271Y-77856309D01*
X108369271Y-77856309D02*
X108712128Y-77856309D01*
X108712128Y-77856309D02*
X108797842Y-77808690D01*
X108797842Y-77808690D02*
X108840700Y-77761071D01*
X108840700Y-77761071D02*
X108883557Y-77665833D01*
X108883557Y-77665833D02*
X108883557Y-77475357D01*
X108883557Y-77475357D02*
X108840700Y-77380119D01*
X108840700Y-77380119D02*
X108797842Y-77332500D01*
X108797842Y-77332500D02*
X108712128Y-77284881D01*
X108712128Y-77284881D02*
X108497842Y-77284881D01*
X108497842Y-77284881D02*
X108412128Y-77332500D01*
X108412128Y-77332500D02*
X108369271Y-77380119D01*
X108369271Y-77380119D02*
X108326414Y-77475357D01*
X108326414Y-77475357D02*
X108326414Y-77665833D01*
X108326414Y-77665833D02*
X108369271Y-77761071D01*
X108369271Y-77761071D02*
X108412128Y-77808690D01*
X108412128Y-77808690D02*
X108497842Y-77856309D01*
X107983557Y-76665833D02*
X107983557Y-76570595D01*
X107983557Y-76570595D02*
X108026414Y-76475357D01*
X108026414Y-76475357D02*
X108069271Y-76427738D01*
X108069271Y-76427738D02*
X108154985Y-76380119D01*
X108154985Y-76380119D02*
X108326414Y-76332500D01*
X108326414Y-76332500D02*
X108540700Y-76332500D01*
X108540700Y-76332500D02*
X108712128Y-76380119D01*
X108712128Y-76380119D02*
X108797842Y-76427738D01*
X108797842Y-76427738D02*
X108840700Y-76475357D01*
X108840700Y-76475357D02*
X108883557Y-76570595D01*
X108883557Y-76570595D02*
X108883557Y-76665833D01*
X108883557Y-76665833D02*
X108840700Y-76761071D01*
X108840700Y-76761071D02*
X108797842Y-76808690D01*
X108797842Y-76808690D02*
X108712128Y-76856309D01*
X108712128Y-76856309D02*
X108540700Y-76903928D01*
X108540700Y-76903928D02*
X108326414Y-76903928D01*
X108326414Y-76903928D02*
X108154985Y-76856309D01*
X108154985Y-76856309D02*
X108069271Y-76808690D01*
X108069271Y-76808690D02*
X108026414Y-76761071D01*
X108026414Y-76761071D02*
X107983557Y-76665833D01*
X108412128Y-75570595D02*
X108412128Y-75903928D01*
X108883557Y-75903928D02*
X107983557Y-75903928D01*
X107983557Y-75903928D02*
X107983557Y-75427738D01*
X108883557Y-75046785D02*
X107983557Y-75046785D01*
X107983557Y-75046785D02*
X107983557Y-74808690D01*
X107983557Y-74808690D02*
X108026414Y-74665833D01*
X108026414Y-74665833D02*
X108112128Y-74570595D01*
X108112128Y-74570595D02*
X108197842Y-74522976D01*
X108197842Y-74522976D02*
X108369271Y-74475357D01*
X108369271Y-74475357D02*
X108497842Y-74475357D01*
X108497842Y-74475357D02*
X108669271Y-74522976D01*
X108669271Y-74522976D02*
X108754985Y-74570595D01*
X108754985Y-74570595D02*
X108840700Y-74665833D01*
X108840700Y-74665833D02*
X108883557Y-74808690D01*
X108883557Y-74808690D02*
X108883557Y-75046785D01*
X108412128Y-73713452D02*
X108454985Y-73570595D01*
X108454985Y-73570595D02*
X108497842Y-73522976D01*
X108497842Y-73522976D02*
X108583557Y-73475357D01*
X108583557Y-73475357D02*
X108712128Y-73475357D01*
X108712128Y-73475357D02*
X108797842Y-73522976D01*
X108797842Y-73522976D02*
X108840700Y-73570595D01*
X108840700Y-73570595D02*
X108883557Y-73665833D01*
X108883557Y-73665833D02*
X108883557Y-74046785D01*
X108883557Y-74046785D02*
X107983557Y-74046785D01*
X107983557Y-74046785D02*
X107983557Y-73713452D01*
X107983557Y-73713452D02*
X108026414Y-73618214D01*
X108026414Y-73618214D02*
X108069271Y-73570595D01*
X108069271Y-73570595D02*
X108154985Y-73522976D01*
X108154985Y-73522976D02*
X108240700Y-73522976D01*
X108240700Y-73522976D02*
X108326414Y-73570595D01*
X108326414Y-73570595D02*
X108369271Y-73618214D01*
X108369271Y-73618214D02*
X108412128Y-73713452D01*
X108412128Y-73713452D02*
X108412128Y-74046785D01*
X108969271Y-72380119D02*
X108926414Y-72475357D01*
X108926414Y-72475357D02*
X108840700Y-72570595D01*
X108840700Y-72570595D02*
X108712128Y-72713452D01*
X108712128Y-72713452D02*
X108669271Y-72808690D01*
X108669271Y-72808690D02*
X108669271Y-72903928D01*
X108883557Y-72856309D02*
X108840700Y-72951547D01*
X108840700Y-72951547D02*
X108754985Y-73046785D01*
X108754985Y-73046785D02*
X108583557Y-73094404D01*
X108583557Y-73094404D02*
X108283557Y-73094404D01*
X108283557Y-73094404D02*
X108112128Y-73046785D01*
X108112128Y-73046785D02*
X108026414Y-72951547D01*
X108026414Y-72951547D02*
X107983557Y-72856309D01*
X107983557Y-72856309D02*
X107983557Y-72665833D01*
X107983557Y-72665833D02*
X108026414Y-72570595D01*
X108026414Y-72570595D02*
X108112128Y-72475357D01*
X108112128Y-72475357D02*
X108283557Y-72427738D01*
X108283557Y-72427738D02*
X108583557Y-72427738D01*
X108583557Y-72427738D02*
X108754985Y-72475357D01*
X108754985Y-72475357D02*
X108840700Y-72570595D01*
X108840700Y-72570595D02*
X108883557Y-72665833D01*
X108883557Y-72665833D02*
X108883557Y-72856309D01*
X108883557Y-71427738D02*
X108454985Y-71761071D01*
X108883557Y-71999166D02*
X107983557Y-71999166D01*
X107983557Y-71999166D02*
X107983557Y-71618214D01*
X107983557Y-71618214D02*
X108026414Y-71522976D01*
X108026414Y-71522976D02*
X108069271Y-71475357D01*
X108069271Y-71475357D02*
X108154985Y-71427738D01*
X108154985Y-71427738D02*
X108283557Y-71427738D01*
X108283557Y-71427738D02*
X108369271Y-71475357D01*
X108369271Y-71475357D02*
X108412128Y-71522976D01*
X108412128Y-71522976D02*
X108454985Y-71618214D01*
X108454985Y-71618214D02*
X108454985Y-71999166D01*
X93980714Y-140908557D02*
X94075952Y-140908557D01*
X94075952Y-140908557D02*
X94171190Y-140951414D01*
X94171190Y-140951414D02*
X94218809Y-140994271D01*
X94218809Y-140994271D02*
X94266428Y-141079985D01*
X94266428Y-141079985D02*
X94314047Y-141251414D01*
X94314047Y-141251414D02*
X94314047Y-141465700D01*
X94314047Y-141465700D02*
X94266428Y-141637128D01*
X94266428Y-141637128D02*
X94218809Y-141722842D01*
X94218809Y-141722842D02*
X94171190Y-141765700D01*
X94171190Y-141765700D02*
X94075952Y-141808557D01*
X94075952Y-141808557D02*
X93980714Y-141808557D01*
X93980714Y-141808557D02*
X93885476Y-141765700D01*
X93885476Y-141765700D02*
X93837857Y-141722842D01*
X93837857Y-141722842D02*
X93790238Y-141637128D01*
X93790238Y-141637128D02*
X93742619Y-141465700D01*
X93742619Y-141465700D02*
X93742619Y-141251414D01*
X93742619Y-141251414D02*
X93790238Y-141079985D01*
X93790238Y-141079985D02*
X93837857Y-140994271D01*
X93837857Y-140994271D02*
X93885476Y-140951414D01*
X93885476Y-140951414D02*
X93980714Y-140908557D01*
X94742619Y-141722842D02*
X94790238Y-141765700D01*
X94790238Y-141765700D02*
X94742619Y-141808557D01*
X94742619Y-141808557D02*
X94695000Y-141765700D01*
X94695000Y-141765700D02*
X94742619Y-141722842D01*
X94742619Y-141722842D02*
X94742619Y-141808557D01*
X95742618Y-141808557D02*
X95171190Y-141808557D01*
X95456904Y-141808557D02*
X95456904Y-140908557D01*
X95456904Y-140908557D02*
X95361666Y-141037128D01*
X95361666Y-141037128D02*
X95266428Y-141122842D01*
X95266428Y-141122842D02*
X95171190Y-141165700D01*
X96599761Y-141208557D02*
X96599761Y-141808557D01*
X96171190Y-141208557D02*
X96171190Y-141679985D01*
X96171190Y-141679985D02*
X96218809Y-141765700D01*
X96218809Y-141765700D02*
X96314047Y-141808557D01*
X96314047Y-141808557D02*
X96456904Y-141808557D01*
X96456904Y-141808557D02*
X96552142Y-141765700D01*
X96552142Y-141765700D02*
X96599761Y-141722842D01*
X179466667Y-109783557D02*
X179466667Y-108883557D01*
X179466667Y-108883557D02*
X179800000Y-109526414D01*
X179800000Y-109526414D02*
X180133333Y-108883557D01*
X180133333Y-108883557D02*
X180133333Y-109783557D01*
X180609524Y-108883557D02*
X180609524Y-109612128D01*
X180609524Y-109612128D02*
X180657143Y-109697842D01*
X180657143Y-109697842D02*
X180704762Y-109740700D01*
X180704762Y-109740700D02*
X180800000Y-109783557D01*
X180800000Y-109783557D02*
X180990476Y-109783557D01*
X180990476Y-109783557D02*
X181085714Y-109740700D01*
X181085714Y-109740700D02*
X181133333Y-109697842D01*
X181133333Y-109697842D02*
X181180952Y-109612128D01*
X181180952Y-109612128D02*
X181180952Y-108883557D01*
X181561905Y-108883557D02*
X182228571Y-109783557D01*
X182228571Y-108883557D02*
X181561905Y-109783557D01*
X90708557Y-128981785D02*
X90708557Y-128886547D01*
X90708557Y-128886547D02*
X90751414Y-128791309D01*
X90751414Y-128791309D02*
X90794271Y-128743690D01*
X90794271Y-128743690D02*
X90879985Y-128696071D01*
X90879985Y-128696071D02*
X91051414Y-128648452D01*
X91051414Y-128648452D02*
X91265700Y-128648452D01*
X91265700Y-128648452D02*
X91437128Y-128696071D01*
X91437128Y-128696071D02*
X91522842Y-128743690D01*
X91522842Y-128743690D02*
X91565700Y-128791309D01*
X91565700Y-128791309D02*
X91608557Y-128886547D01*
X91608557Y-128886547D02*
X91608557Y-128981785D01*
X91608557Y-128981785D02*
X91565700Y-129077023D01*
X91565700Y-129077023D02*
X91522842Y-129124642D01*
X91522842Y-129124642D02*
X91437128Y-129172261D01*
X91437128Y-129172261D02*
X91265700Y-129219880D01*
X91265700Y-129219880D02*
X91051414Y-129219880D01*
X91051414Y-129219880D02*
X90879985Y-129172261D01*
X90879985Y-129172261D02*
X90794271Y-129124642D01*
X90794271Y-129124642D02*
X90751414Y-129077023D01*
X90751414Y-129077023D02*
X90708557Y-128981785D01*
X91522842Y-128219880D02*
X91565700Y-128172261D01*
X91565700Y-128172261D02*
X91608557Y-128219880D01*
X91608557Y-128219880D02*
X91565700Y-128267499D01*
X91565700Y-128267499D02*
X91522842Y-128219880D01*
X91522842Y-128219880D02*
X91608557Y-128219880D01*
X91608557Y-127219881D02*
X91608557Y-127791309D01*
X91608557Y-127505595D02*
X90708557Y-127505595D01*
X90708557Y-127505595D02*
X90837128Y-127600833D01*
X90837128Y-127600833D02*
X90922842Y-127696071D01*
X90922842Y-127696071D02*
X90965700Y-127791309D01*
X91008557Y-126362738D02*
X91608557Y-126362738D01*
X91008557Y-126791309D02*
X91479985Y-126791309D01*
X91479985Y-126791309D02*
X91565700Y-126743690D01*
X91565700Y-126743690D02*
X91608557Y-126648452D01*
X91608557Y-126648452D02*
X91608557Y-126505595D01*
X91608557Y-126505595D02*
X91565700Y-126410357D01*
X91565700Y-126410357D02*
X91522842Y-126362738D01*
X108065714Y-92708557D02*
X108160952Y-92708557D01*
X108160952Y-92708557D02*
X108256190Y-92751414D01*
X108256190Y-92751414D02*
X108303809Y-92794271D01*
X108303809Y-92794271D02*
X108351428Y-92879985D01*
X108351428Y-92879985D02*
X108399047Y-93051414D01*
X108399047Y-93051414D02*
X108399047Y-93265700D01*
X108399047Y-93265700D02*
X108351428Y-93437128D01*
X108351428Y-93437128D02*
X108303809Y-93522842D01*
X108303809Y-93522842D02*
X108256190Y-93565700D01*
X108256190Y-93565700D02*
X108160952Y-93608557D01*
X108160952Y-93608557D02*
X108065714Y-93608557D01*
X108065714Y-93608557D02*
X107970476Y-93565700D01*
X107970476Y-93565700D02*
X107922857Y-93522842D01*
X107922857Y-93522842D02*
X107875238Y-93437128D01*
X107875238Y-93437128D02*
X107827619Y-93265700D01*
X107827619Y-93265700D02*
X107827619Y-93051414D01*
X107827619Y-93051414D02*
X107875238Y-92879985D01*
X107875238Y-92879985D02*
X107922857Y-92794271D01*
X107922857Y-92794271D02*
X107970476Y-92751414D01*
X107970476Y-92751414D02*
X108065714Y-92708557D01*
X108827619Y-93522842D02*
X108875238Y-93565700D01*
X108875238Y-93565700D02*
X108827619Y-93608557D01*
X108827619Y-93608557D02*
X108780000Y-93565700D01*
X108780000Y-93565700D02*
X108827619Y-93522842D01*
X108827619Y-93522842D02*
X108827619Y-93608557D01*
X109827618Y-93608557D02*
X109256190Y-93608557D01*
X109541904Y-93608557D02*
X109541904Y-92708557D01*
X109541904Y-92708557D02*
X109446666Y-92837128D01*
X109446666Y-92837128D02*
X109351428Y-92922842D01*
X109351428Y-92922842D02*
X109256190Y-92965700D01*
X110684761Y-93008557D02*
X110684761Y-93608557D01*
X110256190Y-93008557D02*
X110256190Y-93479985D01*
X110256190Y-93479985D02*
X110303809Y-93565700D01*
X110303809Y-93565700D02*
X110399047Y-93608557D01*
X110399047Y-93608557D02*
X110541904Y-93608557D01*
X110541904Y-93608557D02*
X110637142Y-93565700D01*
X110637142Y-93565700D02*
X110684761Y-93522842D01*
X92581019Y-130296057D02*
X92771495Y-130296057D01*
X92771495Y-130296057D02*
X92866733Y-130338914D01*
X92866733Y-130338914D02*
X92961971Y-130424628D01*
X92961971Y-130424628D02*
X93009590Y-130596057D01*
X93009590Y-130596057D02*
X93009590Y-130896057D01*
X93009590Y-130896057D02*
X92961971Y-131067485D01*
X92961971Y-131067485D02*
X92866733Y-131153200D01*
X92866733Y-131153200D02*
X92771495Y-131196057D01*
X92771495Y-131196057D02*
X92581019Y-131196057D01*
X92581019Y-131196057D02*
X92485781Y-131153200D01*
X92485781Y-131153200D02*
X92390543Y-131067485D01*
X92390543Y-131067485D02*
X92342924Y-130896057D01*
X92342924Y-130896057D02*
X92342924Y-130596057D01*
X92342924Y-130596057D02*
X92390543Y-130424628D01*
X92390543Y-130424628D02*
X92485781Y-130338914D01*
X92485781Y-130338914D02*
X92581019Y-130296057D01*
X93438162Y-131196057D02*
X93438162Y-130296057D01*
X93438162Y-130296057D02*
X93819114Y-130296057D01*
X93819114Y-130296057D02*
X93914352Y-130338914D01*
X93914352Y-130338914D02*
X93961971Y-130381771D01*
X93961971Y-130381771D02*
X94009590Y-130467485D01*
X94009590Y-130467485D02*
X94009590Y-130596057D01*
X94009590Y-130596057D02*
X93961971Y-130681771D01*
X93961971Y-130681771D02*
X93914352Y-130724628D01*
X93914352Y-130724628D02*
X93819114Y-130767485D01*
X93819114Y-130767485D02*
X93438162Y-130767485D01*
X94390543Y-130938914D02*
X94866733Y-130938914D01*
X94295305Y-131196057D02*
X94628638Y-130296057D01*
X94628638Y-130296057D02*
X94961971Y-131196057D01*
X95819114Y-131196057D02*
X95247686Y-131196057D01*
X95533400Y-131196057D02*
X95533400Y-130296057D01*
X95533400Y-130296057D02*
X95438162Y-130424628D01*
X95438162Y-130424628D02*
X95342924Y-130510342D01*
X95342924Y-130510342D02*
X95247686Y-130553200D01*
X96295305Y-131196057D02*
X96485781Y-131196057D01*
X96485781Y-131196057D02*
X96581019Y-131153200D01*
X96581019Y-131153200D02*
X96628638Y-131110342D01*
X96628638Y-131110342D02*
X96723876Y-130981771D01*
X96723876Y-130981771D02*
X96771495Y-130810342D01*
X96771495Y-130810342D02*
X96771495Y-130467485D01*
X96771495Y-130467485D02*
X96723876Y-130381771D01*
X96723876Y-130381771D02*
X96676257Y-130338914D01*
X96676257Y-130338914D02*
X96581019Y-130296057D01*
X96581019Y-130296057D02*
X96390543Y-130296057D01*
X96390543Y-130296057D02*
X96295305Y-130338914D01*
X96295305Y-130338914D02*
X96247686Y-130381771D01*
X96247686Y-130381771D02*
X96200067Y-130467485D01*
X96200067Y-130467485D02*
X96200067Y-130681771D01*
X96200067Y-130681771D02*
X96247686Y-130767485D01*
X96247686Y-130767485D02*
X96295305Y-130810342D01*
X96295305Y-130810342D02*
X96390543Y-130853200D01*
X96390543Y-130853200D02*
X96581019Y-130853200D01*
X96581019Y-130853200D02*
X96676257Y-130810342D01*
X96676257Y-130810342D02*
X96723876Y-130767485D01*
X96723876Y-130767485D02*
X96771495Y-130681771D01*
X97152448Y-130381771D02*
X97200067Y-130338914D01*
X97200067Y-130338914D02*
X97295305Y-130296057D01*
X97295305Y-130296057D02*
X97533400Y-130296057D01*
X97533400Y-130296057D02*
X97628638Y-130338914D01*
X97628638Y-130338914D02*
X97676257Y-130381771D01*
X97676257Y-130381771D02*
X97723876Y-130467485D01*
X97723876Y-130467485D02*
X97723876Y-130553200D01*
X97723876Y-130553200D02*
X97676257Y-130681771D01*
X97676257Y-130681771D02*
X97104829Y-131196057D01*
X97104829Y-131196057D02*
X97723876Y-131196057D01*
X93158163Y-101326702D02*
X93158163Y-101136226D01*
X93158163Y-101136226D02*
X93201020Y-101040988D01*
X93201020Y-101040988D02*
X93286734Y-100945750D01*
X93286734Y-100945750D02*
X93458163Y-100898131D01*
X93458163Y-100898131D02*
X93758163Y-100898131D01*
X93758163Y-100898131D02*
X93929591Y-100945750D01*
X93929591Y-100945750D02*
X94015306Y-101040988D01*
X94015306Y-101040988D02*
X94058163Y-101136226D01*
X94058163Y-101136226D02*
X94058163Y-101326702D01*
X94058163Y-101326702D02*
X94015306Y-101421940D01*
X94015306Y-101421940D02*
X93929591Y-101517178D01*
X93929591Y-101517178D02*
X93758163Y-101564797D01*
X93758163Y-101564797D02*
X93458163Y-101564797D01*
X93458163Y-101564797D02*
X93286734Y-101517178D01*
X93286734Y-101517178D02*
X93201020Y-101421940D01*
X93201020Y-101421940D02*
X93158163Y-101326702D01*
X94058163Y-100469559D02*
X93158163Y-100469559D01*
X93158163Y-100469559D02*
X93158163Y-100088607D01*
X93158163Y-100088607D02*
X93201020Y-99993369D01*
X93201020Y-99993369D02*
X93243877Y-99945750D01*
X93243877Y-99945750D02*
X93329591Y-99898131D01*
X93329591Y-99898131D02*
X93458163Y-99898131D01*
X93458163Y-99898131D02*
X93543877Y-99945750D01*
X93543877Y-99945750D02*
X93586734Y-99993369D01*
X93586734Y-99993369D02*
X93629591Y-100088607D01*
X93629591Y-100088607D02*
X93629591Y-100469559D01*
X93801020Y-99517178D02*
X93801020Y-99040988D01*
X94058163Y-99612416D02*
X93158163Y-99279083D01*
X93158163Y-99279083D02*
X94058163Y-98945750D01*
X94058163Y-98088607D02*
X94058163Y-98660035D01*
X94058163Y-98374321D02*
X93158163Y-98374321D01*
X93158163Y-98374321D02*
X93286734Y-98469559D01*
X93286734Y-98469559D02*
X93372448Y-98564797D01*
X93372448Y-98564797D02*
X93415306Y-98660035D01*
X94058163Y-97612416D02*
X94058163Y-97421940D01*
X94058163Y-97421940D02*
X94015306Y-97326702D01*
X94015306Y-97326702D02*
X93972448Y-97279083D01*
X93972448Y-97279083D02*
X93843877Y-97183845D01*
X93843877Y-97183845D02*
X93672448Y-97136226D01*
X93672448Y-97136226D02*
X93329591Y-97136226D01*
X93329591Y-97136226D02*
X93243877Y-97183845D01*
X93243877Y-97183845D02*
X93201020Y-97231464D01*
X93201020Y-97231464D02*
X93158163Y-97326702D01*
X93158163Y-97326702D02*
X93158163Y-97517178D01*
X93158163Y-97517178D02*
X93201020Y-97612416D01*
X93201020Y-97612416D02*
X93243877Y-97660035D01*
X93243877Y-97660035D02*
X93329591Y-97707654D01*
X93329591Y-97707654D02*
X93543877Y-97707654D01*
X93543877Y-97707654D02*
X93629591Y-97660035D01*
X93629591Y-97660035D02*
X93672448Y-97612416D01*
X93672448Y-97612416D02*
X93715306Y-97517178D01*
X93715306Y-97517178D02*
X93715306Y-97326702D01*
X93715306Y-97326702D02*
X93672448Y-97231464D01*
X93672448Y-97231464D02*
X93629591Y-97183845D01*
X93629591Y-97183845D02*
X93543877Y-97136226D01*
X93243877Y-96755273D02*
X93201020Y-96707654D01*
X93201020Y-96707654D02*
X93158163Y-96612416D01*
X93158163Y-96612416D02*
X93158163Y-96374321D01*
X93158163Y-96374321D02*
X93201020Y-96279083D01*
X93201020Y-96279083D02*
X93243877Y-96231464D01*
X93243877Y-96231464D02*
X93329591Y-96183845D01*
X93329591Y-96183845D02*
X93415306Y-96183845D01*
X93415306Y-96183845D02*
X93543877Y-96231464D01*
X93543877Y-96231464D02*
X94058163Y-96802892D01*
X94058163Y-96802892D02*
X94058163Y-96183845D01*
D13*
X106493448Y-135714441D02*
X106553924Y-135533012D01*
X106553924Y-135533012D02*
X106553924Y-135230631D01*
X106553924Y-135230631D02*
X106493448Y-135109679D01*
X106493448Y-135109679D02*
X106432971Y-135049203D01*
X106432971Y-135049203D02*
X106312019Y-134988726D01*
X106312019Y-134988726D02*
X106191067Y-134988726D01*
X106191067Y-134988726D02*
X106070114Y-135049203D01*
X106070114Y-135049203D02*
X106009638Y-135109679D01*
X106009638Y-135109679D02*
X105949162Y-135230631D01*
X105949162Y-135230631D02*
X105888686Y-135472536D01*
X105888686Y-135472536D02*
X105828209Y-135593488D01*
X105828209Y-135593488D02*
X105767733Y-135653965D01*
X105767733Y-135653965D02*
X105646781Y-135714441D01*
X105646781Y-135714441D02*
X105525828Y-135714441D01*
X105525828Y-135714441D02*
X105404876Y-135653965D01*
X105404876Y-135653965D02*
X105344400Y-135593488D01*
X105344400Y-135593488D02*
X105283924Y-135472536D01*
X105283924Y-135472536D02*
X105283924Y-135170155D01*
X105283924Y-135170155D02*
X105344400Y-134988726D01*
X106553924Y-133779202D02*
X106553924Y-134504917D01*
X106553924Y-134142060D02*
X105283924Y-134142060D01*
X105283924Y-134142060D02*
X105465352Y-134263012D01*
X105465352Y-134263012D02*
X105586305Y-134383964D01*
X105586305Y-134383964D02*
X105646781Y-134504917D01*
D10*
X87711838Y-67619714D02*
X88378504Y-69419714D01*
X88378504Y-69419714D02*
X89045171Y-67619714D01*
X89711838Y-68734000D02*
X91235648Y-68734000D01*
%TO.C,J13*%
D12*
X77000000Y-106000000D02*
X87000000Y-106000000D01*
X87000000Y-116000000D01*
X77000000Y-116000000D01*
X77000000Y-106000000D01*
%TO.C,C10*%
D14*
X93639606Y-109724658D02*
X93639606Y-109508986D01*
X94359606Y-109724658D02*
X94359606Y-109508986D01*
%TO.C,C21*%
X109240000Y-128092164D02*
X109240000Y-128307836D01*
X109960000Y-128092164D02*
X109960000Y-128307836D01*
%TO.C,J5*%
X105499606Y-62636822D02*
X124019606Y-62636822D01*
X105499606Y-64356822D02*
X105499606Y-62636822D01*
X105949606Y-64356822D02*
X105499606Y-64356822D01*
X105949606Y-68006822D02*
X105949606Y-64356822D01*
X109099606Y-68006822D02*
X105949606Y-68006822D01*
X123569606Y-64356822D02*
X123569606Y-68006822D01*
X123569606Y-68006822D02*
X121419606Y-68006822D01*
X124019606Y-62636822D02*
X124019606Y-64356822D01*
X124019606Y-64356822D02*
X123569606Y-64356822D01*
X120479606Y-67896822D02*
X120809606Y-67656822D01*
X120809606Y-68136822D01*
X120479606Y-67896822D01*
G36*
X120809606Y-68136822D02*
G01*
X120479606Y-67896822D01*
X120809606Y-67656822D01*
X120809606Y-68136822D01*
G37*
%TO.C,C7*%
X96988064Y-125927500D02*
X97203736Y-125927500D01*
X96988064Y-126647500D02*
X97203736Y-126647500D01*
%TO.C,C11*%
X96535000Y-147279664D02*
X96535000Y-147495336D01*
X97255000Y-147279664D02*
X97255000Y-147495336D01*
%TO.C,C2*%
X96491770Y-95851822D02*
X96707442Y-95851822D01*
X96491770Y-96571822D02*
X96707442Y-96571822D01*
%TO.C,C14*%
X113365000Y-155807164D02*
X113365000Y-156022836D01*
X114085000Y-155807164D02*
X114085000Y-156022836D01*
%TO.C,C6*%
X122640000Y-73127836D02*
X122640000Y-72912164D01*
X123360000Y-73127836D02*
X123360000Y-72912164D01*
%TO.C,R3*%
X99543465Y-110749322D02*
X99850747Y-110749322D01*
X99543465Y-111509322D02*
X99850747Y-111509322D01*
%TO.C,U23*%
X110186932Y-150465000D02*
X111322500Y-150465000D01*
X111322500Y-151335000D02*
X111322500Y-151465000D01*
X111322500Y-152335000D02*
X109902500Y-152335000D01*
X109892500Y-150460000D02*
X109752500Y-150270000D01*
X110032500Y-150270000D01*
X109892500Y-150460000D01*
G36*
X109892500Y-150460000D02*
G01*
X109752500Y-150270000D01*
X110032500Y-150270000D01*
X109892500Y-150460000D01*
G37*
%TO.C,J2*%
D12*
X77000000Y-127250000D02*
X87000000Y-127250000D01*
X87000000Y-137250000D01*
X77000000Y-137250000D01*
X77000000Y-127250000D01*
%TO.C,U24*%
D14*
X115140000Y-139440000D02*
X122860000Y-139440000D01*
X115140000Y-139705000D02*
X115140000Y-139440000D01*
X115140000Y-155060000D02*
X115140000Y-154795000D01*
X122860000Y-139440000D02*
X122860000Y-139705000D01*
X122860000Y-154795000D02*
X122860000Y-155060000D01*
X122860000Y-155060000D02*
X115140000Y-155060000D01*
X123650000Y-154800000D02*
X123990000Y-155270000D01*
X123310000Y-155270000D01*
X123650000Y-154800000D01*
G36*
X123990000Y-155270000D02*
G01*
X123310000Y-155270000D01*
X123650000Y-154800000D01*
X123990000Y-155270000D01*
G37*
%TO.C,C13*%
X112040000Y-150427836D02*
X112040000Y-150212164D01*
X112760000Y-150427836D02*
X112760000Y-150212164D01*
%TO.C,R1*%
X94769606Y-101760681D02*
X94769606Y-102067963D01*
X95529606Y-101760681D02*
X95529606Y-102067963D01*
%TO.C,C18*%
X102307836Y-119040000D02*
X102092164Y-119040000D01*
X102307836Y-119760000D02*
X102092164Y-119760000D01*
%TO.C,C1*%
X97739606Y-100803986D02*
X97739606Y-101019658D01*
X98459606Y-100803986D02*
X98459606Y-101019658D01*
%TO.C,J1*%
D12*
X77000000Y-84750000D02*
X87000000Y-84750000D01*
X87000000Y-94750000D01*
X77000000Y-94750000D01*
X77000000Y-84750000D01*
%TO.C,U26*%
D15*
X101298001Y-120498001D02*
X101298001Y-121002659D01*
X101298001Y-123397341D02*
X101298001Y-123901999D01*
X101298001Y-123901999D02*
X101802659Y-123901999D01*
X101802659Y-120498001D02*
X101298001Y-120498001D01*
X104197341Y-123901999D02*
X104701999Y-123901999D01*
X104701999Y-120498001D02*
X104197341Y-120498001D01*
X104701999Y-121002659D02*
X104701999Y-120498001D01*
X104701999Y-123901999D02*
X104701999Y-123397341D01*
D16*
G36*
X103440500Y-119842801D02*
G01*
X103059499Y-119842801D01*
X103059499Y-119588801D01*
X103440500Y-119588801D01*
X103440500Y-119842801D01*
G37*
%TO.C,C19*%
D14*
X108012164Y-107040000D02*
X108227836Y-107040000D01*
X108012164Y-107760000D02*
X108227836Y-107760000D01*
%TO.C,U9*%
D12*
X132825000Y-119025000D02*
X132825000Y-120675000D01*
X132825000Y-136975000D02*
X132825000Y-135325000D01*
X134475000Y-119025000D02*
X132825000Y-119025000D01*
X134475000Y-136975000D02*
X132825000Y-136975000D01*
X149125000Y-119025000D02*
X150775000Y-119025000D01*
X149125000Y-136975000D02*
X149625000Y-136975000D01*
X149625000Y-136975000D02*
X150775000Y-135825000D01*
X150775000Y-119025000D02*
X150775000Y-120675000D01*
X150775000Y-135825000D02*
X150775000Y-135325000D01*
%TO.C,C3*%
D14*
X114992164Y-80640000D02*
X115207836Y-80640000D01*
X114992164Y-81360000D02*
X115207836Y-81360000D01*
%TO.C,U1*%
D12*
X99965000Y-69615000D02*
X107585000Y-69615000D01*
X107585000Y-84855000D01*
X99965000Y-84855000D01*
X99965000Y-69615000D01*
D16*
G36*
X106315000Y-68980000D02*
G01*
X105680000Y-68345000D01*
X106950000Y-68345000D01*
X106315000Y-68980000D01*
G37*
%TO.C,C9*%
D14*
X98591770Y-107756822D02*
X98807442Y-107756822D01*
X98591770Y-108476822D02*
X98807442Y-108476822D01*
%TO.C,IC2*%
D17*
X108950000Y-117800000D02*
X126850000Y-117800000D01*
X108950000Y-124600000D02*
X108950000Y-117800000D01*
X108970000Y-126900000D02*
X108970000Y-124950000D01*
X126850000Y-117800000D02*
X126850000Y-124600000D01*
X126850000Y-124600000D02*
X108950000Y-124600000D01*
%TO.C,U4*%
D14*
X117115000Y-78680000D02*
X117115000Y-74560000D01*
X122480000Y-74560000D02*
X122480000Y-78680000D01*
X122027500Y-72910000D02*
X121787500Y-72580000D01*
X122267500Y-72580000D01*
X122027500Y-72910000D01*
G36*
X122027500Y-72910000D02*
G01*
X121787500Y-72580000D01*
X122267500Y-72580000D01*
X122027500Y-72910000D01*
G37*
%TO.C,C4*%
X122472164Y-80440000D02*
X122687836Y-80440000D01*
X122472164Y-81160000D02*
X122687836Y-81160000D01*
%TO.C,C17*%
X103537836Y-124690000D02*
X103322164Y-124690000D01*
X103537836Y-125410000D02*
X103322164Y-125410000D01*
%TO.C,C5*%
X114740000Y-73307836D02*
X114740000Y-73092164D01*
X115460000Y-73307836D02*
X115460000Y-73092164D01*
%TO.C,U10*%
D12*
X152425000Y-119225000D02*
X152425000Y-120875000D01*
X152425000Y-137175000D02*
X152425000Y-135525000D01*
X154075000Y-119225000D02*
X152425000Y-119225000D01*
X154075000Y-137175000D02*
X152425000Y-137175000D01*
X168725000Y-119225000D02*
X170375000Y-119225000D01*
X168725000Y-137175000D02*
X169225000Y-137175000D01*
X169225000Y-137175000D02*
X170375000Y-136025000D01*
X170375000Y-119225000D02*
X170375000Y-120875000D01*
X170375000Y-136025000D02*
X170375000Y-135525000D01*
%TO.C,C22*%
D14*
X110507836Y-114350000D02*
X110292164Y-114350000D01*
X110507836Y-115070000D02*
X110292164Y-115070000D01*
%TO.C,R6*%
X118946359Y-155470000D02*
X119253641Y-155470000D01*
X118946359Y-156230000D02*
X119253641Y-156230000D01*
%TO.C,J4*%
D12*
X77000000Y-148500000D02*
X87000000Y-148500000D01*
X87000000Y-158500000D01*
X77000000Y-158500000D01*
X77000000Y-148500000D01*
%TO.C,R2*%
D14*
X97956359Y-129007500D02*
X98263641Y-129007500D01*
X97956359Y-129767500D02*
X98263641Y-129767500D01*
%TO.C,JP2*%
X89357106Y-105526822D02*
X91357106Y-105526822D01*
X89357106Y-109626822D02*
X89357106Y-105526822D01*
X91357106Y-105526822D02*
X91357106Y-109626822D01*
X91357106Y-109626822D02*
X89357106Y-109626822D01*
X91557106Y-108876822D02*
X91857106Y-108576822D01*
X91557106Y-108876822D02*
X91857106Y-109176822D01*
X91857106Y-109176822D02*
X91857106Y-108576822D01*
%TO.C,R4*%
X97456359Y-143420000D02*
X97763641Y-143420000D01*
X97456359Y-144180000D02*
X97763641Y-144180000D01*
%TO.C,R5*%
X111943641Y-152570000D02*
X111636359Y-152570000D01*
X111943641Y-153330000D02*
X111636359Y-153330000D01*
%TO.C,U17*%
D12*
X179425000Y-90425000D02*
X179425000Y-92075000D01*
X179425000Y-108375000D02*
X179425000Y-106725000D01*
X181075000Y-90425000D02*
X179425000Y-90425000D01*
X181075000Y-108375000D02*
X179425000Y-108375000D01*
X195725000Y-90425000D02*
X197375000Y-90425000D01*
X195725000Y-108375000D02*
X196225000Y-108375000D01*
X196225000Y-108375000D02*
X197375000Y-107225000D01*
X197375000Y-90425000D02*
X197375000Y-92075000D01*
X197375000Y-107225000D02*
X197375000Y-106725000D01*
%TO.C,JP1*%
D14*
X87862106Y-141156822D02*
X87862106Y-141756822D01*
X88162106Y-141456822D02*
X87862106Y-141156822D01*
X88162106Y-141456822D02*
X87862106Y-141756822D01*
X88362106Y-140706822D02*
X90362106Y-140706822D01*
X88362106Y-144806822D02*
X88362106Y-140706822D01*
X90362106Y-140706822D02*
X90362106Y-144806822D01*
X90362106Y-144806822D02*
X88362106Y-144806822D01*
%TO.C,U8*%
X93190000Y-144340000D02*
X93240000Y-144340000D01*
X93190000Y-146160000D02*
X93190000Y-144340000D01*
X93240000Y-146160000D02*
X93190000Y-146160000D01*
X95140000Y-146160000D02*
X94360000Y-146160000D01*
X96260000Y-144340000D02*
X96310000Y-144340000D01*
X96310000Y-144340000D02*
X96310000Y-146160000D01*
X96310000Y-146160000D02*
X96260000Y-146160000D01*
X96260000Y-143800000D02*
X96590000Y-143560000D01*
X96590000Y-144040000D01*
X96260000Y-143800000D01*
G36*
X96590000Y-144040000D02*
G01*
X96260000Y-143800000D01*
X96590000Y-143560000D01*
X96590000Y-144040000D01*
G37*
%TO.C,U7*%
X95727106Y-108656822D02*
X97547106Y-108656822D01*
X95727106Y-108706822D02*
X95727106Y-108656822D01*
X95727106Y-111776822D02*
X95727106Y-111726822D01*
X97547106Y-108656822D02*
X97547106Y-108706822D01*
X97547106Y-109826822D02*
X97547106Y-110606822D01*
X97547106Y-111726822D02*
X97547106Y-111776822D01*
X97547106Y-111776822D02*
X95727106Y-111776822D01*
X95187106Y-108706822D02*
X94947106Y-108376822D01*
X95427106Y-108376822D01*
X95187106Y-108706822D01*
G36*
X95187106Y-108706822D02*
G01*
X94947106Y-108376822D01*
X95427106Y-108376822D01*
X95187106Y-108706822D01*
G37*
%TO.C,U3*%
X109192500Y-78892500D02*
X109192500Y-74772500D01*
X114557500Y-74772500D02*
X114557500Y-78892500D01*
X114105000Y-73122500D02*
X113865000Y-72792500D01*
X114345000Y-72792500D01*
X114105000Y-73122500D01*
G36*
X114105000Y-73122500D02*
G01*
X113865000Y-72792500D01*
X114345000Y-72792500D01*
X114105000Y-73122500D01*
G37*
%TO.C,C12*%
X95087164Y-142227500D02*
X95302836Y-142227500D01*
X95087164Y-142947500D02*
X95302836Y-142947500D01*
%TO.C,U16*%
D12*
X171825000Y-110225000D02*
X171825000Y-111875000D01*
X171825000Y-128175000D02*
X171825000Y-126525000D01*
X173475000Y-110225000D02*
X171825000Y-110225000D01*
X173475000Y-128175000D02*
X171825000Y-128175000D01*
X188125000Y-110225000D02*
X189775000Y-110225000D01*
X188125000Y-128175000D02*
X188625000Y-128175000D01*
X188625000Y-128175000D02*
X189775000Y-127025000D01*
X189775000Y-110225000D02*
X189775000Y-111875000D01*
X189775000Y-127025000D02*
X189775000Y-126525000D01*
%TO.C,C8*%
D14*
X92035900Y-127875336D02*
X92035900Y-127659664D01*
X92755900Y-127875336D02*
X92755900Y-127659664D01*
%TO.C,IC1*%
D17*
X106845000Y-97500000D02*
X124745000Y-97500000D01*
X106845000Y-104300000D02*
X106845000Y-97500000D01*
X106865000Y-106600000D02*
X106865000Y-104650000D01*
X124745000Y-97500000D02*
X124745000Y-104300000D01*
X124745000Y-104300000D02*
X106845000Y-104300000D01*
%TO.C,C20*%
D14*
X109172164Y-94040000D02*
X109387836Y-94040000D01*
X109172164Y-94760000D02*
X109387836Y-94760000D01*
%TO.C,U6*%
X94123400Y-126827500D02*
X95943400Y-126827500D01*
X94123400Y-126877500D02*
X94123400Y-126827500D01*
X94123400Y-129947500D02*
X94123400Y-129897500D01*
X95943400Y-126827500D02*
X95943400Y-126877500D01*
X95943400Y-127997500D02*
X95943400Y-128777500D01*
X95943400Y-129897500D02*
X95943400Y-129947500D01*
X95943400Y-129947500D02*
X94123400Y-129947500D01*
X93583400Y-126877500D02*
X93343400Y-126547500D01*
X93823400Y-126547500D01*
X93583400Y-126877500D01*
G36*
X93583400Y-126877500D02*
G01*
X93343400Y-126547500D01*
X93823400Y-126547500D01*
X93583400Y-126877500D01*
G37*
%TO.C,U5*%
X94489606Y-97964322D02*
X94539606Y-97964322D01*
X94489606Y-99784322D02*
X94489606Y-97964322D01*
X94539606Y-99784322D02*
X94489606Y-99784322D01*
X96439606Y-99784322D02*
X95659606Y-99784322D01*
X97559606Y-97964322D02*
X97609606Y-97964322D01*
X97609606Y-97964322D02*
X97609606Y-99784322D01*
X97609606Y-99784322D02*
X97559606Y-99784322D01*
X97559606Y-97424322D02*
X97889606Y-97184322D01*
X97889606Y-97664322D01*
X97559606Y-97424322D01*
G36*
X97889606Y-97664322D02*
G01*
X97559606Y-97424322D01*
X97889606Y-97184322D01*
X97889606Y-97664322D01*
G37*
%TO.C,S1*%
D12*
X100279606Y-133476822D02*
X100279606Y-133476822D01*
X100379606Y-133476822D02*
X100379606Y-133476822D01*
D17*
X102879606Y-131706822D02*
X109079606Y-131706822D01*
X102879606Y-137786822D02*
X102879606Y-131706822D01*
X109079606Y-131706822D02*
X109079606Y-137786822D01*
X109079606Y-137786822D02*
X102879606Y-137786822D01*
D12*
X100279606Y-133476822D02*
G75*
G02*
X100379606Y-133476822I50000J0D01*
G01*
X100379606Y-133476822D02*
G75*
G02*
X100279606Y-133476822I-50000J0D01*
G01*
%TO.C,J3*%
X77000000Y-63500000D02*
X87000000Y-63500000D01*
X87000000Y-73500000D01*
X77000000Y-73500000D01*
X77000000Y-63500000D01*
%TD*%
M02*
