%TF.GenerationSoftware,KiCad,Pcbnew,10.0.3*%
%TF.CreationDate,2026-07-17T10:22:30-05:00*%
%TF.ProjectId,teer_mux,74656572-5f6d-4757-982e-6b696361645f,rev?*%
%TF.SameCoordinates,Original*%
%TF.FileFunction,Legend,Bot*%
%TF.FilePolarity,Positive*%
%FSLAX46Y46*%
G04 Gerber Fmt 4.6, Leading zero omitted, Abs format (unit mm)*
G04 Created by KiCad (PCBNEW 10.0.3) date 2026-07-17 10:22:30*
%MOMM*%
%LPD*%
G01*
G04 APERTURE LIST*
%ADD10C,0.100000*%
%ADD11C,0.150000*%
%ADD12C,0.120000*%
G04 APERTURE END LIST*
D10*
X124390832Y-131906157D02*
X124390832Y-131006157D01*
X124390832Y-131006157D02*
X124057499Y-131649014D01*
X124057499Y-131649014D02*
X123724166Y-131006157D01*
X123724166Y-131006157D02*
X123724166Y-131906157D01*
X123247975Y-131006157D02*
X123247975Y-131734728D01*
X123247975Y-131734728D02*
X123200356Y-131820442D01*
X123200356Y-131820442D02*
X123152737Y-131863300D01*
X123152737Y-131863300D02*
X123057499Y-131906157D01*
X123057499Y-131906157D02*
X122867023Y-131906157D01*
X122867023Y-131906157D02*
X122771785Y-131863300D01*
X122771785Y-131863300D02*
X122724166Y-131820442D01*
X122724166Y-131820442D02*
X122676547Y-131734728D01*
X122676547Y-131734728D02*
X122676547Y-131006157D01*
X122295594Y-131006157D02*
X121628928Y-131906157D01*
X121628928Y-131006157D02*
X122295594Y-131906157D01*
X104611157Y-99266667D02*
X103711157Y-99266667D01*
X103711157Y-99266667D02*
X104354014Y-99600000D01*
X104354014Y-99600000D02*
X103711157Y-99933333D01*
X103711157Y-99933333D02*
X104611157Y-99933333D01*
X103711157Y-100409524D02*
X104439728Y-100409524D01*
X104439728Y-100409524D02*
X104525442Y-100457143D01*
X104525442Y-100457143D02*
X104568300Y-100504762D01*
X104568300Y-100504762D02*
X104611157Y-100600000D01*
X104611157Y-100600000D02*
X104611157Y-100790476D01*
X104611157Y-100790476D02*
X104568300Y-100885714D01*
X104568300Y-100885714D02*
X104525442Y-100933333D01*
X104525442Y-100933333D02*
X104439728Y-100980952D01*
X104439728Y-100980952D02*
X103711157Y-100980952D01*
X103711157Y-101361905D02*
X104611157Y-102028571D01*
X103711157Y-102028571D02*
X104611157Y-101361905D01*
X187393332Y-93123657D02*
X187393332Y-92223657D01*
X187393332Y-92223657D02*
X187059999Y-92866514D01*
X187059999Y-92866514D02*
X186726666Y-92223657D01*
X186726666Y-92223657D02*
X186726666Y-93123657D01*
X186250475Y-92223657D02*
X186250475Y-92952228D01*
X186250475Y-92952228D02*
X186202856Y-93037942D01*
X186202856Y-93037942D02*
X186155237Y-93080800D01*
X186155237Y-93080800D02*
X186059999Y-93123657D01*
X186059999Y-93123657D02*
X185869523Y-93123657D01*
X185869523Y-93123657D02*
X185774285Y-93080800D01*
X185774285Y-93080800D02*
X185726666Y-93037942D01*
X185726666Y-93037942D02*
X185679047Y-92952228D01*
X185679047Y-92952228D02*
X185679047Y-92223657D01*
X185298094Y-92223657D02*
X184631428Y-93123657D01*
X184631428Y-92223657D02*
X185298094Y-93123657D01*
X189236157Y-120466667D02*
X188336157Y-120466667D01*
X188336157Y-120466667D02*
X188979014Y-120800000D01*
X188979014Y-120800000D02*
X188336157Y-121133333D01*
X188336157Y-121133333D02*
X189236157Y-121133333D01*
X188336157Y-121609524D02*
X189064728Y-121609524D01*
X189064728Y-121609524D02*
X189150442Y-121657143D01*
X189150442Y-121657143D02*
X189193300Y-121704762D01*
X189193300Y-121704762D02*
X189236157Y-121800000D01*
X189236157Y-121800000D02*
X189236157Y-121990476D01*
X189236157Y-121990476D02*
X189193300Y-122085714D01*
X189193300Y-122085714D02*
X189150442Y-122133333D01*
X189150442Y-122133333D02*
X189064728Y-122180952D01*
X189064728Y-122180952D02*
X188336157Y-122180952D01*
X188336157Y-122561905D02*
X189236157Y-123228571D01*
X188336157Y-123228571D02*
X189236157Y-122561905D01*
D11*
X103314285Y-142765700D02*
X103171428Y-142808557D01*
X103171428Y-142808557D02*
X102933333Y-142808557D01*
X102933333Y-142808557D02*
X102838095Y-142765700D01*
X102838095Y-142765700D02*
X102790476Y-142722842D01*
X102790476Y-142722842D02*
X102742857Y-142637128D01*
X102742857Y-142637128D02*
X102742857Y-142551414D01*
X102742857Y-142551414D02*
X102790476Y-142465700D01*
X102790476Y-142465700D02*
X102838095Y-142422842D01*
X102838095Y-142422842D02*
X102933333Y-142379985D01*
X102933333Y-142379985D02*
X103123809Y-142337128D01*
X103123809Y-142337128D02*
X103219047Y-142294271D01*
X103219047Y-142294271D02*
X103266666Y-142251414D01*
X103266666Y-142251414D02*
X103314285Y-142165700D01*
X103314285Y-142165700D02*
X103314285Y-142079985D01*
X103314285Y-142079985D02*
X103266666Y-141994271D01*
X103266666Y-141994271D02*
X103219047Y-141951414D01*
X103219047Y-141951414D02*
X103123809Y-141908557D01*
X103123809Y-141908557D02*
X102885714Y-141908557D01*
X102885714Y-141908557D02*
X102742857Y-141951414D01*
X102314285Y-142808557D02*
X102314285Y-141908557D01*
X102314285Y-141908557D02*
X101933333Y-141908557D01*
X101933333Y-141908557D02*
X101838095Y-141951414D01*
X101838095Y-141951414D02*
X101790476Y-141994271D01*
X101790476Y-141994271D02*
X101742857Y-142079985D01*
X101742857Y-142079985D02*
X101742857Y-142208557D01*
X101742857Y-142208557D02*
X101790476Y-142294271D01*
X101790476Y-142294271D02*
X101838095Y-142337128D01*
X101838095Y-142337128D02*
X101933333Y-142379985D01*
X101933333Y-142379985D02*
X102314285Y-142379985D01*
X100838095Y-142808557D02*
X101314285Y-142808557D01*
X101314285Y-142808557D02*
X101314285Y-141908557D01*
X100504761Y-142808557D02*
X100504761Y-141908557D01*
X100171428Y-141908557D02*
X99600000Y-141908557D01*
X99885714Y-142808557D02*
X99885714Y-141908557D01*
X98695238Y-142808557D02*
X99028571Y-142379985D01*
X99266666Y-142808557D02*
X99266666Y-141908557D01*
X99266666Y-141908557D02*
X98885714Y-141908557D01*
X98885714Y-141908557D02*
X98790476Y-141951414D01*
X98790476Y-141951414D02*
X98742857Y-141994271D01*
X98742857Y-141994271D02*
X98695238Y-142079985D01*
X98695238Y-142079985D02*
X98695238Y-142208557D01*
X98695238Y-142208557D02*
X98742857Y-142294271D01*
X98742857Y-142294271D02*
X98790476Y-142337128D01*
X98790476Y-142337128D02*
X98885714Y-142379985D01*
X98885714Y-142379985D02*
X99266666Y-142379985D01*
X98314285Y-142551414D02*
X97838095Y-142551414D01*
X98409523Y-142808557D02*
X98076190Y-141908557D01*
X98076190Y-141908557D02*
X97742857Y-142808557D01*
X97409523Y-142808557D02*
X97409523Y-141908557D01*
X96457143Y-142808557D02*
X96933333Y-142808557D01*
X96933333Y-142808557D02*
X96933333Y-141908557D01*
X96361905Y-142894271D02*
X95600000Y-142894271D01*
X95409523Y-141994271D02*
X95361904Y-141951414D01*
X95361904Y-141951414D02*
X95266666Y-141908557D01*
X95266666Y-141908557D02*
X95028571Y-141908557D01*
X95028571Y-141908557D02*
X94933333Y-141951414D01*
X94933333Y-141951414D02*
X94885714Y-141994271D01*
X94885714Y-141994271D02*
X94838095Y-142079985D01*
X94838095Y-142079985D02*
X94838095Y-142165700D01*
X94838095Y-142165700D02*
X94885714Y-142294271D01*
X94885714Y-142294271D02*
X95457142Y-142808557D01*
X95457142Y-142808557D02*
X94838095Y-142808557D01*
X94266666Y-142294271D02*
X94361904Y-142251414D01*
X94361904Y-142251414D02*
X94409523Y-142208557D01*
X94409523Y-142208557D02*
X94457142Y-142122842D01*
X94457142Y-142122842D02*
X94457142Y-142079985D01*
X94457142Y-142079985D02*
X94409523Y-141994271D01*
X94409523Y-141994271D02*
X94361904Y-141951414D01*
X94361904Y-141951414D02*
X94266666Y-141908557D01*
X94266666Y-141908557D02*
X94076190Y-141908557D01*
X94076190Y-141908557D02*
X93980952Y-141951414D01*
X93980952Y-141951414D02*
X93933333Y-141994271D01*
X93933333Y-141994271D02*
X93885714Y-142079985D01*
X93885714Y-142079985D02*
X93885714Y-142122842D01*
X93885714Y-142122842D02*
X93933333Y-142208557D01*
X93933333Y-142208557D02*
X93980952Y-142251414D01*
X93980952Y-142251414D02*
X94076190Y-142294271D01*
X94076190Y-142294271D02*
X94266666Y-142294271D01*
X94266666Y-142294271D02*
X94361904Y-142337128D01*
X94361904Y-142337128D02*
X94409523Y-142379985D01*
X94409523Y-142379985D02*
X94457142Y-142465700D01*
X94457142Y-142465700D02*
X94457142Y-142637128D01*
X94457142Y-142637128D02*
X94409523Y-142722842D01*
X94409523Y-142722842D02*
X94361904Y-142765700D01*
X94361904Y-142765700D02*
X94266666Y-142808557D01*
X94266666Y-142808557D02*
X94076190Y-142808557D01*
X94076190Y-142808557D02*
X93980952Y-142765700D01*
X93980952Y-142765700D02*
X93933333Y-142722842D01*
X93933333Y-142722842D02*
X93885714Y-142637128D01*
X93885714Y-142637128D02*
X93885714Y-142465700D01*
X93885714Y-142465700D02*
X93933333Y-142379985D01*
X93933333Y-142379985D02*
X93980952Y-142337128D01*
X93980952Y-142337128D02*
X94076190Y-142294271D01*
D10*
X130286157Y-129166667D02*
X129386157Y-129166667D01*
X129386157Y-129166667D02*
X130029014Y-129500000D01*
X130029014Y-129500000D02*
X129386157Y-129833333D01*
X129386157Y-129833333D02*
X130286157Y-129833333D01*
X129386157Y-130309524D02*
X130114728Y-130309524D01*
X130114728Y-130309524D02*
X130200442Y-130357143D01*
X130200442Y-130357143D02*
X130243300Y-130404762D01*
X130243300Y-130404762D02*
X130286157Y-130500000D01*
X130286157Y-130500000D02*
X130286157Y-130690476D01*
X130286157Y-130690476D02*
X130243300Y-130785714D01*
X130243300Y-130785714D02*
X130200442Y-130833333D01*
X130200442Y-130833333D02*
X130114728Y-130880952D01*
X130114728Y-130880952D02*
X129386157Y-130880952D01*
X129386157Y-131261905D02*
X130286157Y-131928571D01*
X129386157Y-131928571D02*
X130286157Y-131261905D01*
X149986157Y-129166667D02*
X149086157Y-129166667D01*
X149086157Y-129166667D02*
X149729014Y-129500000D01*
X149729014Y-129500000D02*
X149086157Y-129833333D01*
X149086157Y-129833333D02*
X149986157Y-129833333D01*
X149086157Y-130309524D02*
X149814728Y-130309524D01*
X149814728Y-130309524D02*
X149900442Y-130357143D01*
X149900442Y-130357143D02*
X149943300Y-130404762D01*
X149943300Y-130404762D02*
X149986157Y-130500000D01*
X149986157Y-130500000D02*
X149986157Y-130690476D01*
X149986157Y-130690476D02*
X149943300Y-130785714D01*
X149943300Y-130785714D02*
X149900442Y-130833333D01*
X149900442Y-130833333D02*
X149814728Y-130880952D01*
X149814728Y-130880952D02*
X149086157Y-130880952D01*
X149086157Y-131261905D02*
X149986157Y-131928571D01*
X149086157Y-131928571D02*
X149986157Y-131261905D01*
%TO.C,U15*%
X111000000Y-112362500D02*
X111000000Y-114012500D01*
X111000000Y-129162500D02*
X111000000Y-128662500D01*
X112150000Y-130312500D02*
X111000000Y-129162500D01*
X112650000Y-112362500D02*
X111000000Y-112362500D01*
X112650000Y-130312500D02*
X112150000Y-130312500D01*
X127300000Y-112362500D02*
X128950000Y-112362500D01*
X127300000Y-130312500D02*
X128950000Y-130312500D01*
X128950000Y-112362500D02*
X128950000Y-114012500D01*
X128950000Y-130312500D02*
X128950000Y-128662500D01*
%TO.C,U14*%
X105225000Y-91625000D02*
X105225000Y-93275000D01*
X105225000Y-108425000D02*
X105225000Y-107925000D01*
X106375000Y-109575000D02*
X105225000Y-108425000D01*
X106875000Y-91625000D02*
X105225000Y-91625000D01*
X106875000Y-109575000D02*
X106375000Y-109575000D01*
X121525000Y-91625000D02*
X123175000Y-91625000D01*
X121525000Y-109575000D02*
X123175000Y-109575000D01*
X123175000Y-91625000D02*
X123175000Y-93275000D01*
X123175000Y-109575000D02*
X123175000Y-107925000D01*
%TO.C,U12*%
X177085000Y-93562500D02*
X177085000Y-95212500D01*
X177085000Y-110362500D02*
X177085000Y-109862500D01*
X178235000Y-111512500D02*
X177085000Y-110362500D01*
X178735000Y-93562500D02*
X177085000Y-93562500D01*
X178735000Y-111512500D02*
X178235000Y-111512500D01*
X193385000Y-93562500D02*
X195035000Y-93562500D01*
X193385000Y-111512500D02*
X195035000Y-111512500D01*
X195035000Y-93562500D02*
X195035000Y-95212500D01*
X195035000Y-111512500D02*
X195035000Y-109862500D01*
%TO.C,U11*%
X170025000Y-113975000D02*
X171175000Y-112825000D01*
X170025000Y-114475000D02*
X170025000Y-113975000D01*
X170025000Y-129125000D02*
X170025000Y-130775000D01*
X170025000Y-130775000D02*
X171675000Y-130775000D01*
X171175000Y-112825000D02*
X171675000Y-112825000D01*
X187975000Y-112825000D02*
X186325000Y-112825000D01*
X187975000Y-114475000D02*
X187975000Y-112825000D01*
X187975000Y-129125000D02*
X187975000Y-130775000D01*
X187975000Y-130775000D02*
X186325000Y-130775000D01*
%TO.C,U2*%
D12*
X92360000Y-110630000D02*
X97620000Y-110630000D01*
X92360000Y-141230000D02*
X92360000Y-110630000D01*
X99620000Y-110630000D02*
X104880000Y-110630000D01*
X104880000Y-110630000D02*
X104880000Y-141230000D01*
X104880000Y-141230000D02*
X92360000Y-141230000D01*
X99620000Y-110630000D02*
G75*
G02*
X97620000Y-110630000I-1000000J0D01*
G01*
%TO.C,U19*%
D10*
X130725000Y-121525000D02*
X132375000Y-121525000D01*
X130725000Y-123175000D02*
X130725000Y-121525000D01*
X130725000Y-137825000D02*
X130725000Y-139475000D01*
X130725000Y-139475000D02*
X132375000Y-139475000D01*
X147525000Y-139475000D02*
X147025000Y-139475000D01*
X148675000Y-121525000D02*
X147025000Y-121525000D01*
X148675000Y-123175000D02*
X148675000Y-121525000D01*
X148675000Y-137825000D02*
X148675000Y-138325000D01*
X148675000Y-138325000D02*
X147525000Y-139475000D01*
%TO.C,U20*%
X150425000Y-121525000D02*
X152075000Y-121525000D01*
X150425000Y-123175000D02*
X150425000Y-121525000D01*
X150425000Y-137825000D02*
X150425000Y-139475000D01*
X150425000Y-139475000D02*
X152075000Y-139475000D01*
X167225000Y-139475000D02*
X166725000Y-139475000D01*
X168375000Y-121525000D02*
X166725000Y-121525000D01*
X168375000Y-123175000D02*
X168375000Y-121525000D01*
X168375000Y-137825000D02*
X168375000Y-138325000D01*
X168375000Y-138325000D02*
X167225000Y-139475000D01*
%TD*%
M02*
