%TF.GenerationSoftware,KiCad,Pcbnew,10.0.3*%
%TF.CreationDate,2026-07-15T16:50:15-05:00*%
%TF.ProjectId,teer_mux,74656572-5f6d-4757-982e-6b696361645f,rev?*%
%TF.SameCoordinates,Original*%
%TF.FileFunction,Plated,1,6,PTH,Drill*%
%TF.FilePolarity,Positive*%
%FSLAX46Y46*%
G04 Gerber Fmt 4.6, Leading zero omitted, Abs format (unit mm)*
G04 Created by KiCad (PCBNEW 10.0.3) date 2026-07-15 16:50:15*
%MOMM*%
%LPD*%
G01*
G04 APERTURE LIST*
%TA.AperFunction,ViaDrill*%
%ADD10C,0.200000*%
%TD*%
%TA.AperFunction,ComponentDrill*%
%ADD11C,0.406000*%
%TD*%
%TA.AperFunction,ComponentDrill*%
%ADD12C,1.000000*%
%TD*%
%TA.AperFunction,ComponentDrill*%
%ADD13C,1.587500*%
%TD*%
%TA.AperFunction,ComponentDrill*%
%ADD14C,1.590040*%
%TD*%
%TA.AperFunction,ComponentDrill*%
%ADD15C,1.778000*%
%TD*%
%TA.AperFunction,ComponentDrill*%
%ADD16C,3.200000*%
%TD*%
G04 APERTURE END LIST*
D10*
X92395900Y-128247500D03*
X92500000Y-150000000D03*
X92500000Y-152500000D03*
X92500000Y-155000000D03*
X93530000Y-129370000D03*
X93999606Y-110096822D03*
X94249606Y-102424322D03*
X94279606Y-103146822D03*
X94715000Y-142587500D03*
X95000000Y-150000000D03*
X95000000Y-152500000D03*
X95000000Y-155000000D03*
X95149606Y-102424322D03*
X95179606Y-103146822D03*
X95979606Y-102446822D03*
X95979606Y-103146822D03*
X95987106Y-111279322D03*
X96119606Y-96244322D03*
X96615900Y-126287500D03*
X96895000Y-146907500D03*
X97500000Y-150000000D03*
X97500000Y-152500000D03*
X97500000Y-155000000D03*
X97575900Y-126287500D03*
X98099606Y-100431822D03*
X98179606Y-142946822D03*
X98179606Y-144646822D03*
X98200000Y-143800000D03*
X98219606Y-108116822D03*
X98679606Y-128546822D03*
X98679606Y-130146822D03*
X98700000Y-129400000D03*
X98879606Y-142946822D03*
X98879606Y-143746822D03*
X98879606Y-144646822D03*
X99479606Y-128546822D03*
X99479606Y-129346822D03*
X99479606Y-130146822D03*
X100000000Y-150000000D03*
X100000000Y-152500000D03*
X100000000Y-155000000D03*
X100179606Y-112046822D03*
X100187106Y-110346822D03*
X100187106Y-111179322D03*
X100879606Y-110346822D03*
X100879606Y-111146822D03*
X100879606Y-112046822D03*
X101079606Y-122946822D03*
X101423399Y-121449999D03*
X101529606Y-133476822D03*
X101529606Y-136016822D03*
X102179606Y-120646822D03*
X102179606Y-123646822D03*
X102500000Y-150000000D03*
X102500000Y-152500000D03*
X102500000Y-155000000D03*
X102600000Y-121800000D03*
X102600000Y-122600000D03*
X102680000Y-119400000D03*
X102950000Y-125000000D03*
X103250000Y-123776601D03*
X103400000Y-121800000D03*
X103400000Y-122600000D03*
X105000000Y-150000000D03*
X105000000Y-152500000D03*
X105000000Y-155000000D03*
X105670000Y-140390000D03*
X105680000Y-139460000D03*
X105700000Y-116600000D03*
X105700000Y-117500000D03*
X105700000Y-119200000D03*
X105700000Y-120000000D03*
X105700000Y-124300000D03*
X105700000Y-125200000D03*
X105700000Y-136900000D03*
X105700000Y-137850000D03*
X105779606Y-121846822D03*
X105779606Y-122646822D03*
X105800000Y-127700000D03*
X106000000Y-127000000D03*
X106180000Y-103130000D03*
X106230000Y-105740000D03*
X106240000Y-124660000D03*
X106270000Y-95510000D03*
X106290000Y-99330000D03*
X106321232Y-107078768D03*
X106337500Y-94250000D03*
X106337500Y-96790000D03*
X106337500Y-101870000D03*
X106337500Y-104410000D03*
X106350000Y-98080000D03*
X106679606Y-121846822D03*
X106679606Y-122646822D03*
X106700000Y-116600000D03*
X106700000Y-117500000D03*
X106700000Y-119200000D03*
X106700000Y-120000000D03*
X106760000Y-139480000D03*
X106790000Y-140420000D03*
X106800000Y-126800000D03*
X106800000Y-127700000D03*
X106800000Y-136900000D03*
X106800000Y-137850000D03*
X107700000Y-107199998D03*
X107850000Y-92737500D03*
X108800000Y-94400000D03*
X109000000Y-67000000D03*
X109290000Y-108440000D03*
X109600000Y-127750000D03*
X109652500Y-73707500D03*
X109652500Y-74707500D03*
X110300000Y-80100000D03*
X110390000Y-92750000D03*
X110429606Y-133476822D03*
X110519606Y-135996822D03*
X110520000Y-151400000D03*
X110780000Y-114640000D03*
X110900000Y-80100000D03*
X111000000Y-67000000D03*
X111450000Y-120150000D03*
X111540000Y-116270000D03*
X111540000Y-126450000D03*
X111600000Y-80100000D03*
X111679606Y-92846822D03*
X111690000Y-108470000D03*
X112090000Y-118790000D03*
X112100000Y-122600000D03*
X112100000Y-127700000D03*
X112110000Y-123920000D03*
X112200000Y-80100000D03*
X112200000Y-115000000D03*
X112250000Y-101250000D03*
X112250000Y-102250000D03*
X112400000Y-150800000D03*
X112500000Y-67000000D03*
X112700000Y-120000000D03*
X112800000Y-117600000D03*
X112930000Y-108462500D03*
X113250000Y-101250000D03*
X113250000Y-102250000D03*
X113400000Y-124600000D03*
X113500000Y-79500000D03*
X113700000Y-113500000D03*
X113700000Y-155400000D03*
X114000000Y-67000000D03*
X114220000Y-108480000D03*
X114300000Y-150400000D03*
X114300000Y-151700000D03*
X114622818Y-80967182D03*
X114900000Y-129210000D03*
X115100000Y-72720000D03*
X115100000Y-73680000D03*
X115160000Y-96175000D03*
X115500000Y-67000000D03*
X116179606Y-120356822D03*
X116180000Y-113500000D03*
X116430000Y-96246822D03*
X116710000Y-109000000D03*
X117000000Y-67000000D03*
X117450000Y-128760000D03*
X117479606Y-113546822D03*
X117500000Y-68800000D03*
X117575000Y-73495000D03*
X117575000Y-74495000D03*
X117750000Y-97076467D03*
X118000000Y-68800000D03*
X118000000Y-87000000D03*
X118000000Y-88000000D03*
X118000000Y-89000000D03*
X118000000Y-90000000D03*
X118010000Y-108462500D03*
X118200000Y-72800000D03*
X118200000Y-78600000D03*
X118500000Y-67000000D03*
X118800000Y-72800000D03*
X118800000Y-78600000D03*
X118800000Y-129200000D03*
X118970000Y-96175000D03*
X119270000Y-108560000D03*
X119280000Y-92737500D03*
X119980000Y-129250000D03*
X120000000Y-67000000D03*
X120046392Y-119343608D03*
X120200000Y-95510000D03*
X120500000Y-67750000D03*
X120500000Y-68500000D03*
X120550000Y-108462500D03*
X120560000Y-93230000D03*
X120600000Y-103700000D03*
X120700000Y-89600000D03*
X121000000Y-116800000D03*
X121245000Y-129200000D03*
X121380000Y-79850000D03*
X121640000Y-103200000D03*
X122020000Y-101870000D03*
X122062500Y-94250000D03*
X122062500Y-99330000D03*
X122062500Y-104410000D03*
X122062500Y-106950000D03*
X122080000Y-80830000D03*
X122100000Y-98050000D03*
X122140000Y-95480000D03*
X122140000Y-105690000D03*
X122500000Y-82500000D03*
X122500000Y-85000000D03*
X122500000Y-87500000D03*
X122500000Y-90000000D03*
X122520000Y-129430000D03*
X123000000Y-72540000D03*
X123000000Y-73500000D03*
X123300000Y-111100000D03*
X123400000Y-97400000D03*
X123600000Y-120600000D03*
X123600000Y-121800000D03*
X123600000Y-122800000D03*
X123620000Y-145360000D03*
X123700000Y-142790000D03*
X123700000Y-151700000D03*
X123700000Y-153000000D03*
X123750000Y-67000000D03*
X123800000Y-129200000D03*
X123944935Y-115249959D03*
X124000000Y-133000000D03*
X124000000Y-135000000D03*
X124000000Y-137000000D03*
X124050000Y-105700000D03*
X124400000Y-111100000D03*
X124770000Y-129200000D03*
X124900000Y-115200000D03*
X125000000Y-80000000D03*
X125000000Y-82500000D03*
X125000000Y-85000000D03*
X125000000Y-87500000D03*
X125000000Y-90000000D03*
X125000000Y-113050000D03*
X125100000Y-111100000D03*
X125500000Y-115200000D03*
X125700000Y-111100000D03*
X126000000Y-133000000D03*
X126000000Y-138000000D03*
X126100000Y-115200000D03*
X126300000Y-129200000D03*
X126330000Y-113530000D03*
X127000000Y-137000000D03*
X127100000Y-132136822D03*
X127250000Y-122500000D03*
X127330000Y-118870000D03*
X127500000Y-152500000D03*
X127500000Y-155000000D03*
X127800000Y-117500000D03*
X127800000Y-120100000D03*
X127800000Y-125200000D03*
X127800000Y-127700000D03*
X127820000Y-126420000D03*
X127837500Y-115200000D03*
X127840000Y-116280000D03*
X127850000Y-123900000D03*
X128250000Y-122750000D03*
X130000000Y-134000000D03*
X130000000Y-147500000D03*
X130000000Y-152500000D03*
X130000000Y-155000000D03*
X130827103Y-127714319D03*
X131230000Y-124030000D03*
X131500000Y-129230000D03*
X131800000Y-130500000D03*
X131800000Y-136800000D03*
X131837500Y-131770000D03*
X131879606Y-133040000D03*
X131900000Y-134230000D03*
X132500000Y-121200000D03*
X132500000Y-147500000D03*
X132500000Y-152500000D03*
X132500000Y-155000000D03*
X133400000Y-120800000D03*
X133500000Y-129250000D03*
X133880000Y-133100000D03*
X133900000Y-121000000D03*
X133937500Y-126730000D03*
X134000000Y-124100000D03*
X134000000Y-131800000D03*
X134000000Y-134300000D03*
X134250000Y-129250000D03*
X134610000Y-138120000D03*
X135000000Y-147500000D03*
X135000000Y-152500000D03*
X135000000Y-155000000D03*
X135550000Y-135850000D03*
X135900000Y-122600000D03*
X136700000Y-120200000D03*
X136730000Y-135970000D03*
X136750000Y-131200000D03*
X137150000Y-138100000D03*
X137500000Y-147500000D03*
X137500000Y-152500000D03*
X137500000Y-155000000D03*
X137700000Y-124500000D03*
X137990000Y-135862500D03*
X138070000Y-138750000D03*
X138100000Y-138125000D03*
X138400000Y-122700000D03*
X138440000Y-137530000D03*
X138750000Y-138750000D03*
X138770000Y-138125000D03*
X138800000Y-124900000D03*
X139280000Y-135950000D03*
X140000000Y-124900000D03*
X140000000Y-147500000D03*
X140000000Y-152500000D03*
X140000000Y-155000000D03*
X140500000Y-135900000D03*
X140890000Y-123440000D03*
X140990000Y-122530000D03*
X141200000Y-124900000D03*
X141590000Y-127340000D03*
X142250000Y-138050000D03*
X142330000Y-122080000D03*
X142500000Y-147500000D03*
X142500000Y-152500000D03*
X142500000Y-155000000D03*
X143079606Y-135346822D03*
X143500000Y-122600000D03*
X144320000Y-119900000D03*
X144340000Y-135420000D03*
X144800000Y-123140000D03*
X144820000Y-138120000D03*
X145000000Y-147500000D03*
X145000000Y-152500000D03*
X145000000Y-155000000D03*
X145630000Y-119720000D03*
X146000000Y-122700000D03*
X146800000Y-128050000D03*
X147030000Y-125480000D03*
X147500000Y-124200000D03*
X147500000Y-147500000D03*
X147500000Y-152500000D03*
X147500000Y-155000000D03*
X147562500Y-129230000D03*
X147590000Y-133030000D03*
X147610000Y-130520000D03*
X148140002Y-119694999D03*
X149250000Y-130620000D03*
X149280000Y-133100000D03*
X149470000Y-125810000D03*
X149600000Y-129300000D03*
X149600000Y-131800000D03*
X149662500Y-121650000D03*
X149662500Y-134350000D03*
X149720000Y-126730000D03*
X149800000Y-124200000D03*
X149870000Y-122920000D03*
X150000000Y-147500000D03*
X150000000Y-152500000D03*
X150000000Y-155000000D03*
X151075000Y-124150000D03*
X151580000Y-134380000D03*
X152500000Y-147500000D03*
X152500000Y-152500000D03*
X152500000Y-155000000D03*
X153150000Y-129500000D03*
X153300000Y-134600000D03*
X153500000Y-132000000D03*
X153520000Y-125700000D03*
X153530000Y-130750000D03*
X153600000Y-121200000D03*
X153600000Y-124400000D03*
X153600000Y-126900000D03*
X153620000Y-133310000D03*
X153850000Y-129500000D03*
X154200000Y-119200000D03*
X154350000Y-138100000D03*
X154600000Y-118400000D03*
X155000000Y-136400000D03*
X155000000Y-147500000D03*
X155000000Y-152500000D03*
X155000000Y-155000000D03*
X156300000Y-119700000D03*
X156300000Y-135860000D03*
X156850000Y-138050000D03*
X156875000Y-122825000D03*
X157500000Y-147500000D03*
X157500000Y-152500000D03*
X157500000Y-155000000D03*
X157600000Y-136400000D03*
X158110000Y-138060000D03*
X158870000Y-135780000D03*
X159960000Y-132670000D03*
X160000000Y-147500000D03*
X160000000Y-152500000D03*
X160000000Y-155000000D03*
X160100000Y-136100000D03*
X160560000Y-122360000D03*
X160860000Y-123420000D03*
X161410000Y-136140000D03*
X161875000Y-137900000D03*
X161975000Y-122750000D03*
X162500000Y-147500000D03*
X162500000Y-152500000D03*
X162500000Y-155000000D03*
X163920000Y-135940000D03*
X164525000Y-122650000D03*
X164525000Y-138550000D03*
X165000000Y-147500000D03*
X165000000Y-152500000D03*
X165000000Y-155000000D03*
X165483402Y-119999999D03*
X165600000Y-132800000D03*
X166130000Y-136240000D03*
X166700000Y-128000000D03*
X167225000Y-130550000D03*
X167250000Y-133075000D03*
X167300000Y-125425000D03*
X167300000Y-129200000D03*
X167500000Y-147500000D03*
X167500000Y-152500000D03*
X167500000Y-155000000D03*
X167700000Y-120000000D03*
X168500000Y-137500000D03*
X168500000Y-138250000D03*
X168500000Y-139000000D03*
X168990000Y-133310000D03*
X169100000Y-124400000D03*
X169240000Y-125870000D03*
X169240000Y-126940000D03*
X169300000Y-121900000D03*
X169300000Y-122920000D03*
X169300000Y-129500000D03*
X169300000Y-132000000D03*
X169300000Y-134600000D03*
X169310000Y-130750000D03*
X169500000Y-137500000D03*
X169500000Y-138250000D03*
X169500000Y-139000000D03*
X170000000Y-152500000D03*
X170000000Y-155000000D03*
X170500000Y-137500000D03*
X170500000Y-138250000D03*
X170500000Y-139000000D03*
X171040000Y-116730000D03*
X171050000Y-121610000D03*
X171060000Y-124490000D03*
X171100000Y-125600000D03*
X171100000Y-128200000D03*
X171137500Y-120530000D03*
X171137500Y-123300000D03*
X171480000Y-119100000D03*
X171500000Y-114100000D03*
X171830000Y-126660000D03*
X172500000Y-120500000D03*
X172500000Y-150000000D03*
X172500000Y-152500000D03*
X172700000Y-129700000D03*
X172900000Y-112600000D03*
X172900000Y-117900000D03*
X172900000Y-123000000D03*
X172900000Y-125600000D03*
X172990000Y-121770000D03*
X173000000Y-115400000D03*
X173020000Y-124330000D03*
X173030000Y-116700000D03*
X173250000Y-120500000D03*
X173930000Y-130160000D03*
X174500000Y-127100000D03*
X174847157Y-116152843D03*
X175000000Y-75000000D03*
X175000000Y-77500000D03*
X175000000Y-80000000D03*
X175000000Y-82500000D03*
X175000000Y-85000000D03*
X175000000Y-87500000D03*
X175000000Y-147500000D03*
X175000000Y-150000000D03*
X175200000Y-114100000D03*
X175200000Y-129700000D03*
X175412843Y-115587157D03*
X175500000Y-117200000D03*
X175700000Y-111400000D03*
X175760000Y-127070000D03*
X176150000Y-114450000D03*
X176400000Y-116300000D03*
X176400000Y-118500000D03*
X176490000Y-129990000D03*
X177000000Y-127100000D03*
X177500000Y-75000000D03*
X177500000Y-77500000D03*
X177500000Y-80000000D03*
X177500000Y-82500000D03*
X177500000Y-85000000D03*
X177500000Y-87500000D03*
X177500000Y-129750000D03*
X177500000Y-145000000D03*
X177500000Y-147500000D03*
X177600000Y-117300000D03*
X177700000Y-114000000D03*
X177700000Y-119700000D03*
X177880000Y-97460000D03*
X177940000Y-107470000D03*
X177960000Y-104930000D03*
X178000000Y-101250000D03*
X178000000Y-130500000D03*
X178010000Y-100000000D03*
X178260000Y-127080000D03*
X178750000Y-101250000D03*
X178800000Y-118700000D03*
X179481324Y-94954999D03*
X179530000Y-127062500D03*
X180000000Y-75000000D03*
X180000000Y-77500000D03*
X180000000Y-80000000D03*
X180000000Y-82500000D03*
X180000000Y-85000000D03*
X180000000Y-87500000D03*
X180000000Y-100750000D03*
X180000000Y-142500000D03*
X180000000Y-145000000D03*
X180250000Y-114000000D03*
X180300000Y-129700000D03*
X180400000Y-95900000D03*
X180490000Y-101970000D03*
X180500000Y-93100000D03*
X180500000Y-98200000D03*
X180500000Y-103200000D03*
X180500000Y-105800000D03*
X180520000Y-104540000D03*
X180530000Y-96860000D03*
X180820000Y-127090000D03*
X181000000Y-100750000D03*
X181540000Y-129930000D03*
X181550000Y-114210000D03*
X182050000Y-91540000D03*
X182100000Y-107300000D03*
X182500000Y-75000000D03*
X182500000Y-85000000D03*
X182500000Y-87500000D03*
X182500000Y-142500000D03*
X182800000Y-114000000D03*
X182800000Y-129700000D03*
X183310000Y-107350000D03*
X183350000Y-127110000D03*
X183540000Y-94730000D03*
X184000000Y-112600000D03*
X184100000Y-114040000D03*
X184100000Y-129850000D03*
X185000000Y-75000000D03*
X185000000Y-85000000D03*
X185000000Y-87500000D03*
X185400000Y-114000000D03*
X185400000Y-125800000D03*
X185400000Y-129700000D03*
X185599998Y-126786822D03*
X185848750Y-91548750D03*
X185870000Y-107340000D03*
X186505000Y-117975000D03*
X186530000Y-128390000D03*
X186800000Y-119250000D03*
X186900000Y-115500000D03*
X187100000Y-91600000D03*
X187130000Y-107262500D03*
X187200000Y-111700000D03*
X187500000Y-75000000D03*
X187500000Y-85000000D03*
X187500000Y-87500000D03*
X187800000Y-110900000D03*
X188368750Y-91568750D03*
X188430000Y-107320000D03*
X188500000Y-118000000D03*
X188570000Y-110870000D03*
X188600000Y-112900000D03*
X188600000Y-115400000D03*
X188600000Y-120500000D03*
X188600000Y-123000000D03*
X188650000Y-116710000D03*
X188650000Y-121770000D03*
X188660000Y-124310000D03*
X188670000Y-114170000D03*
X188700000Y-125600000D03*
X189250000Y-118000000D03*
X189700000Y-91600000D03*
X190000000Y-75000000D03*
X190000000Y-77500000D03*
X190000000Y-80000000D03*
X190000000Y-82500000D03*
X190000000Y-85000000D03*
X190000000Y-87500000D03*
X190950000Y-107300000D03*
X190979606Y-91646822D03*
X191160000Y-110880000D03*
X192210000Y-91140000D03*
X192400000Y-110400000D03*
X192420000Y-94740000D03*
X192500000Y-75000000D03*
X192500000Y-77500000D03*
X192500000Y-80000000D03*
X192500000Y-82500000D03*
X192500000Y-85000000D03*
X192500000Y-87500000D03*
X192500000Y-130000000D03*
X192500000Y-132500000D03*
X193490000Y-105060000D03*
X193500000Y-103750000D03*
X193500000Y-105900000D03*
X193900000Y-96200000D03*
X193900000Y-98800000D03*
X193900000Y-101300000D03*
X193910000Y-97530000D03*
X193910000Y-100020000D03*
X194100000Y-109100000D03*
X194500000Y-103750000D03*
X194800000Y-91600000D03*
X195000000Y-75000000D03*
X195000000Y-77500000D03*
X195000000Y-80000000D03*
X195000000Y-82500000D03*
X195000000Y-85000000D03*
X195000000Y-87500000D03*
X195000000Y-127500000D03*
X195000000Y-130000000D03*
X195730000Y-98140000D03*
X196240000Y-94330000D03*
X196240000Y-96910000D03*
X196250000Y-101960000D03*
X196260000Y-104500000D03*
X196700000Y-98140000D03*
X197500000Y-75000000D03*
X197500000Y-77500000D03*
X197500000Y-80000000D03*
X197500000Y-82500000D03*
X197500000Y-85000000D03*
X197500000Y-87500000D03*
X197500000Y-125000000D03*
X197500000Y-127500000D03*
D11*
%TO.C,J6*%
X135880000Y-102130000D03*
X135880000Y-103400000D03*
X135880000Y-104670000D03*
X135880000Y-105940000D03*
X135880000Y-107210000D03*
X135880000Y-108480000D03*
X135880000Y-109750000D03*
X135880000Y-111020000D03*
X137150000Y-102130000D03*
X137150000Y-103400000D03*
X137150000Y-104670000D03*
X137150000Y-105940000D03*
X137150000Y-107210000D03*
X137150000Y-108480000D03*
X137150000Y-109750000D03*
X137150000Y-111020000D03*
%TO.C,J7*%
X140380000Y-102130000D03*
X140380000Y-103400000D03*
X140380000Y-104670000D03*
X140380000Y-105940000D03*
X140380000Y-107210000D03*
X140380000Y-108480000D03*
X140380000Y-109750000D03*
X140380000Y-111020000D03*
X141650000Y-102130000D03*
X141650000Y-103400000D03*
X141650000Y-104670000D03*
X141650000Y-105940000D03*
X141650000Y-107210000D03*
X141650000Y-108480000D03*
X141650000Y-109750000D03*
X141650000Y-111020000D03*
%TO.C,J8*%
X144880000Y-102130000D03*
X144880000Y-103400000D03*
X144880000Y-104670000D03*
X144880000Y-105940000D03*
X144880000Y-107210000D03*
X144880000Y-108480000D03*
X144880000Y-109750000D03*
X144880000Y-111020000D03*
X146150000Y-102130000D03*
X146150000Y-103400000D03*
X146150000Y-104670000D03*
X146150000Y-105940000D03*
X146150000Y-107210000D03*
X146150000Y-108480000D03*
X146150000Y-109750000D03*
X146150000Y-111020000D03*
%TO.C,J9*%
X149380000Y-102130000D03*
X149380000Y-103400000D03*
X149380000Y-104670000D03*
X149380000Y-105940000D03*
X149380000Y-107210000D03*
X149380000Y-108480000D03*
X149380000Y-109750000D03*
X149380000Y-111020000D03*
X150650000Y-102130000D03*
X150650000Y-103400000D03*
X150650000Y-104670000D03*
X150650000Y-105940000D03*
X150650000Y-107210000D03*
X150650000Y-108480000D03*
X150650000Y-109750000D03*
X150650000Y-111020000D03*
%TO.C,J10*%
X153880000Y-102130000D03*
X153880000Y-103400000D03*
X153880000Y-104670000D03*
X153880000Y-105940000D03*
X153880000Y-107210000D03*
X153880000Y-108480000D03*
X153880000Y-109750000D03*
X153880000Y-111020000D03*
X155150000Y-102130000D03*
X155150000Y-103400000D03*
X155150000Y-104670000D03*
X155150000Y-105940000D03*
X155150000Y-107210000D03*
X155150000Y-108480000D03*
X155150000Y-109750000D03*
X155150000Y-111020000D03*
%TO.C,J11*%
X158380000Y-102130000D03*
X158380000Y-103400000D03*
X158380000Y-104670000D03*
X158380000Y-105940000D03*
X158380000Y-107210000D03*
X158380000Y-108480000D03*
X158380000Y-109750000D03*
X158380000Y-111020000D03*
X159650000Y-102130000D03*
X159650000Y-103400000D03*
X159650000Y-104670000D03*
X159650000Y-105940000D03*
X159650000Y-107210000D03*
X159650000Y-108480000D03*
X159650000Y-109750000D03*
X159650000Y-111020000D03*
%TO.C,J12*%
X162880000Y-102130000D03*
X162880000Y-103400000D03*
X162880000Y-104670000D03*
X162880000Y-105940000D03*
X162880000Y-107210000D03*
X162880000Y-108480000D03*
X162880000Y-109750000D03*
X162880000Y-111020000D03*
X164150000Y-102130000D03*
X164150000Y-103400000D03*
X164150000Y-104670000D03*
X164150000Y-105940000D03*
X164150000Y-107210000D03*
X164150000Y-108480000D03*
X164150000Y-109750000D03*
X164150000Y-111020000D03*
D12*
%TO.C,U1*%
X101235000Y-70885000D03*
X101235000Y-83585000D03*
X103775000Y-70885000D03*
X103775000Y-83585000D03*
X106315000Y-70885000D03*
X106315000Y-83585000D03*
D13*
%TO.C,J3*%
X79993400Y-68500000D03*
%TO.C,J1*%
X79993400Y-89750000D03*
%TO.C,J13*%
X79993400Y-111000000D03*
%TO.C,J2*%
X79993400Y-132250000D03*
%TO.C,J4*%
X79993400Y-153500000D03*
D14*
%TO.C,J3*%
X82533400Y-68500000D03*
%TO.C,J1*%
X82533400Y-89750000D03*
%TO.C,J13*%
X82533400Y-111000000D03*
%TO.C,J2*%
X82533400Y-132250000D03*
%TO.C,J4*%
X82533400Y-153500000D03*
D15*
%TO.C,J3*%
X78723400Y-65223400D03*
X78723400Y-71776600D03*
%TO.C,J1*%
X78723400Y-86473400D03*
X78723400Y-93026600D03*
%TO.C,J13*%
X78723400Y-107723400D03*
X78723400Y-114276600D03*
%TO.C,J2*%
X78723400Y-128973400D03*
X78723400Y-135526600D03*
%TO.C,J4*%
X78723400Y-150223400D03*
X78723400Y-156776600D03*
%TO.C,J3*%
X85276600Y-65223400D03*
X85276600Y-71776600D03*
%TO.C,J1*%
X85276600Y-86473400D03*
X85276600Y-93026600D03*
%TO.C,J13*%
X85276600Y-107723400D03*
X85276600Y-114276600D03*
%TO.C,J2*%
X85276600Y-128973400D03*
X85276600Y-135526600D03*
%TO.C,J4*%
X85276600Y-150223400D03*
X85276600Y-156776600D03*
D16*
%TO.C,H1*%
X95000000Y-80000000D03*
%TO.C,H4*%
X118200000Y-135000000D03*
%TO.C,H3*%
X177000000Y-135000000D03*
%TO.C,H2*%
X185000000Y-80000000D03*
M02*
